<?xml version="1.0" encoding="UTF-8"?>
<svg width="169px" height="21px" viewBox="0 0 169 21" version="1.1" xmlns="http://www.w3.org/2000/svg" xmlns:xlink="http://www.w3.org/1999/xlink">
    <!-- Generator: Sketch 46 (44423) - http://www.bohemiancoding.com/sketch -->
    <title>Group</title>
    <desc>Created with Sketch.</desc>
    <defs></defs>
    <g id="Symbols" stroke="none" stroke-width="1" fill="none" fill-rule="evenodd">
        <g id="header_desktop" transform="translate(-88.000000, -22.000000)">
            <g id="header">
                <g id="artdocmedia_logo" transform="translate(88.000000, 22.000000)">
                    <g id="Group">
                        <g transform="translate(93.000000, 0.000000)" fill="#F3203B">
                            <path d="M75.108,18.656 C75.033,18.058 74.996,17.433 74.996,16.779 L74.996,9.248 C74.996,8.371 74.8,7.666 74.408,7.134 C74.016,6.602 73.512,6.187 72.896,5.888 C72.28,5.59 71.598,5.388 70.852,5.286 C70.105,5.183 69.368,5.132 68.64,5.132 C67.836,5.132 67.038,5.212 66.245,5.37 C65.451,5.529 64.737,5.795 64.103,6.168 C63.468,6.542 62.945,7.036 62.535,7.652 C62.124,8.267 61.891,9.043 61.835,9.976 L65.812,9.976 C65.886,9.191 66.148,8.631 66.595,8.295 C67.043,7.959 67.659,7.791 68.444,7.791 C68.798,7.791 69.13,7.814 69.438,7.86 C69.746,7.907 70.016,8.001 70.25,8.141 C70.483,8.281 70.67,8.477 70.811,8.729 C70.951,8.981 71.021,9.321 71.021,9.75 C71.039,10.16 70.917,10.474 70.657,10.688 C70.395,10.903 70.041,11.067 69.593,11.178 C69.146,11.29 68.632,11.374 68.053,11.43 C67.475,11.487 66.887,11.561 66.289,11.655 C65.691,11.749 65.1,11.874 64.511,12.033 C63.923,12.192 63.401,12.429 62.944,12.747 C62.486,13.064 62.113,13.489 61.824,14.02 C61.534,14.553 61.39,15.229 61.39,16.05 C61.39,16.797 61.516,17.442 61.768,17.983 C62.02,18.524 62.37,18.972 62.818,19.327 C63.266,19.682 63.788,19.942 64.385,20.11 C64.982,20.278 65.626,20.362 66.318,20.362 C67.214,20.362 68.091,20.232 68.95,19.971 C69.808,19.709 70.555,19.252 71.19,18.598 C71.209,18.841 71.241,19.079 71.288,19.313 C71.335,19.547 71.395,19.774 71.47,19.999 L75.502,19.999 C75.313,19.701 75.183,19.254 75.108,18.656 Z M71.021,14.4 C71.021,14.624 70.997,14.922 70.951,15.296 C70.904,15.67 70.778,16.038 70.573,16.402 C70.367,16.765 70.051,17.078 69.621,17.34 C69.191,17.602 68.585,17.733 67.801,17.733 C67.484,17.733 67.176,17.705 66.877,17.649 C66.578,17.592 66.317,17.495 66.093,17.354 C65.869,17.214 65.692,17.024 65.562,16.78 C65.431,16.538 65.366,16.239 65.366,15.884 C65.366,15.511 65.431,15.203 65.562,14.96 C65.692,14.718 65.865,14.517 66.08,14.357 C66.295,14.199 66.547,14.074 66.836,13.98 C67.125,13.886 67.419,13.812 67.718,13.755 C68.035,13.699 68.353,13.653 68.67,13.615 C68.987,13.577 69.29,13.531 69.58,13.475 C69.869,13.418 70.141,13.348 70.392,13.264 C70.643,13.18 70.854,13.064 71.022,12.914 L71.022,14.4 L71.021,14.4 Z" id="Shape"></path>
                            <rect id="Rectangle-path" x="55.5" y="5.524" width="3.976" height="14.476"></rect>
                            <rect id="Rectangle-path" x="55.5" y="0.008" width="3.976" height="3.276"></rect>
                            <path d="M49.024,7.288 L48.967,7.288 C48.519,6.579 47.907,6.042 47.133,5.678 C46.359,5.314 45.541,5.132 44.683,5.132 C43.62,5.132 42.686,5.342 41.883,5.762 C41.08,6.182 40.413,6.738 39.881,7.428 C39.349,8.119 38.947,8.917 38.677,9.823 C38.407,10.729 38.272,11.667 38.272,12.637 C38.272,13.645 38.407,14.616 38.677,15.548 C38.948,16.482 39.349,17.308 39.881,18.026 C40.413,18.745 41.09,19.315 41.911,19.735 C42.732,20.155 43.684,20.364 44.766,20.364 C45.718,20.364 46.573,20.192 47.328,19.846 C48.084,19.501 48.695,18.936 49.162,18.153 L49.218,18.153 L49.218,20 L53,20 L53,0.008 L49.024,0.008 L49.024,7.288 Z M48.996,14.456 C48.884,15.016 48.697,15.516 48.435,15.954 C48.174,16.392 47.824,16.742 47.385,17.004 C46.946,17.266 46.401,17.397 45.747,17.397 C45.131,17.397 44.603,17.261 44.165,16.991 C43.727,16.721 43.362,16.366 43.073,15.927 C42.783,15.489 42.573,14.989 42.443,14.429 C42.312,13.869 42.247,13.31 42.247,12.749 C42.247,12.151 42.308,11.577 42.429,11.026 C42.55,10.476 42.746,9.987 43.017,9.557 C43.288,9.127 43.648,8.782 44.095,8.52 C44.543,8.259 45.094,8.128 45.747,8.128 C46.4,8.128 46.941,8.259 47.371,8.52 C47.8,8.782 48.15,9.123 48.421,9.542 C48.692,9.961 48.883,10.447 48.995,10.998 C49.107,11.549 49.163,12.123 49.163,12.721 C49.164,13.317 49.108,13.896 48.996,14.456 Z" id="Shape"></path>
                            <path d="M35.866,7.764 C35.278,6.962 34.526,6.322 33.612,5.847 C32.697,5.371 31.624,5.133 30.392,5.133 C29.29,5.133 28.288,5.329 27.382,5.721 C26.476,6.113 25.696,6.65 25.044,7.331 C24.39,8.013 23.886,8.819 23.531,9.753 C23.176,10.687 23,11.693 23,12.775 C23,13.896 23.173,14.922 23.519,15.855 C23.864,16.789 24.354,17.591 24.989,18.263 C25.624,18.935 26.398,19.453 27.313,19.818 C28.227,20.181 29.254,20.363 30.393,20.363 C32.036,20.363 33.435,19.99 34.593,19.244 C35.75,18.498 36.609,17.256 37.169,15.519 L33.669,15.519 C33.538,15.967 33.183,16.392 32.605,16.793 C32.026,17.194 31.335,17.396 30.533,17.396 C29.413,17.396 28.554,17.107 27.957,16.527 C27.359,15.949 27.033,15.015 26.978,13.728 L37.422,13.728 C37.496,12.607 37.402,11.535 37.142,10.507 C36.879,9.481 36.454,8.566 35.866,7.764 Z M26.977,11.208 C26.996,10.928 27.056,10.611 27.159,10.256 C27.262,9.902 27.439,9.566 27.691,9.248 C27.943,8.93 28.279,8.665 28.699,8.45 C29.119,8.236 29.646,8.128 30.281,8.128 C31.252,8.128 31.975,8.39 32.451,8.912 C32.928,9.434 33.259,10.2 33.445,11.208 L26.977,11.208 L26.977,11.208 Z" id="Shape"></path>
                            <path d="M20.5,6.308 C20.033,5.897 19.474,5.599 18.82,5.412 C18.166,5.225 17.592,5.132 16.828,5.132 C15.82,5.132 14.89,5.375 14.153,5.86 C13.416,6.346 12.833,6.906 12.403,7.54 C12.011,6.644 11.437,6.019 10.681,5.664 C9.925,5.31 9.146,5.132 8.231,5.132 C7.28,5.132 6.434,5.338 5.698,5.748 C4.96,6.159 4.331,6.738 3.807,7.484 L3.751,7.484 L3.751,5.524 L0,5.524 L0,20 L3.976,20 L3.976,11.6 C3.976,10.891 4.079,10.317 4.285,9.878 C4.49,9.44 4.737,9.104 5.027,8.87 C5.316,8.637 5.615,8.478 5.923,8.394 C6.231,8.31 6.479,8.267 6.665,8.267 C7.299,8.267 7.719,8.374 8.046,8.589 C8.372,8.804 8.606,9.089 8.745,9.443 C8.886,9.798 8.965,10.185 8.983,10.605 C9.001,11.025 9.011,11.451 9.011,11.879 L9.011,20 L12.987,20 L12.987,11.936 C12.987,11.489 13.019,11.045 13.085,10.606 C13.15,10.168 13.281,9.776 13.478,9.43 C13.674,9.085 13.944,8.805 14.29,8.59 C14.636,8.375 15.15,8.268 15.71,8.268 C16.27,8.268 16.577,8.362 16.905,8.548 C17.231,8.735 17.479,8.986 17.647,9.305 C17.815,9.621 17.918,9.994 17.955,10.424 C17.992,10.854 18.011,11.311 18.011,11.796 L18.011,20 L21.988,20 L21.988,10.312 C21.988,9.378 21.857,8.581 21.595,7.917 C21.331,7.256 20.967,6.719 20.5,6.308 Z" id="Shape"></path>
                        </g>
                        <rect id="Rectangle-path" fill="#F3203B" x="84" y="14" width="6" height="6"></rect>
                        <g id="Shape" fill="#FFFFFF">
                            <path d="M77.443,14.456 C77.312,15.352 76.991,16.066 76.477,16.598 C75.963,17.13 75.231,17.397 74.279,17.397 C73.663,17.397 73.14,17.256 72.712,16.977 C72.282,16.696 71.941,16.337 71.69,15.899 C71.438,15.46 71.256,14.97 71.144,14.428 C71.032,13.887 70.976,13.356 70.976,12.832 C70.976,12.291 71.032,11.744 71.144,11.193 C71.256,10.643 71.447,10.139 71.718,9.681 C71.989,9.224 72.338,8.851 72.768,8.562 C73.197,8.273 73.729,8.127 74.364,8.127 C76.062,8.127 77.043,8.958 77.304,10.619 L81.196,10.619 C81.14,9.686 80.917,8.878 80.524,8.197 C80.132,7.515 79.624,6.947 78.998,6.489 C78.373,6.031 77.664,5.691 76.87,5.467 C76.077,5.243 75.251,5.131 74.392,5.131 C73.216,5.131 72.17,5.327 71.256,5.719 C70.341,6.111 69.567,6.657 68.932,7.356 C68.297,8.057 67.817,8.887 67.49,9.848 C67.163,10.812 67,11.852 67,12.973 C67,14.055 67.177,15.049 67.531,15.954 C67.885,16.859 68.381,17.639 69.015,18.292 C69.649,18.945 70.419,19.454 71.325,19.818 C72.23,20.181 73.224,20.363 74.307,20.363 C76.229,20.363 77.807,19.859 79.038,18.851 C80.27,17.843 81.017,16.378 81.278,14.455 L77.443,14.455 L77.443,14.456 Z"></path>
                            <path d="M63.936,7.218 C63.283,6.556 62.494,6.042 61.57,5.678 C60.646,5.314 59.615,5.132 58.476,5.132 C57.337,5.132 56.31,5.314 55.396,5.678 C54.481,6.042 53.697,6.555 53.044,7.218 C52.39,7.881 51.886,8.684 51.531,9.626 C51.176,10.568 51,11.619 51,12.775 C51,13.933 51.177,14.978 51.531,15.912 C51.885,16.846 52.389,17.643 53.044,18.307 C53.696,18.969 54.481,19.478 55.396,19.832 C56.31,20.186 57.337,20.363 58.476,20.363 C59.615,20.363 60.646,20.186 61.57,19.832 C62.494,19.478 63.283,18.969 63.936,18.307 C64.589,17.644 65.093,16.846 65.448,15.912 C65.803,14.978 65.98,13.933 65.98,12.775 C65.98,11.619 65.802,10.568 65.448,9.626 C65.094,8.684 64.589,7.881 63.936,7.218 Z M61.836,14.471 C61.724,15.022 61.532,15.516 61.262,15.954 C60.992,16.392 60.627,16.742 60.17,17.004 C59.712,17.266 59.148,17.397 58.476,17.397 C57.804,17.397 57.244,17.266 56.796,17.004 C56.348,16.742 55.988,16.393 55.718,15.954 C55.447,15.516 55.256,15.021 55.144,14.471 C55.032,13.921 54.976,13.356 54.976,12.776 C54.976,12.198 55.032,11.629 55.144,11.069 C55.256,10.508 55.447,10.014 55.718,9.585 C55.989,9.155 56.348,8.806 56.796,8.535 C57.243,8.264 57.804,8.129 58.476,8.129 C59.148,8.129 59.712,8.265 60.17,8.535 C60.627,8.806 60.991,9.155 61.262,9.585 C61.533,10.015 61.724,10.509 61.836,11.069 C61.947,11.629 62.004,12.198 62.004,12.776 C62.004,13.355 61.947,13.92 61.836,14.471 Z"></path>
                            <path d="M45.917,7.288 L45.86,7.288 C45.412,6.579 44.8,6.042 44.026,5.678 C43.252,5.314 42.434,5.132 41.576,5.132 C40.513,5.132 39.579,5.342 38.776,5.762 C37.973,6.182 37.306,6.738 36.774,7.428 C36.242,8.119 35.84,8.917 35.57,9.823 C35.3,10.729 35.165,11.667 35.165,12.637 C35.165,13.645 35.3,14.616 35.57,15.548 C35.841,16.482 36.242,17.308 36.774,18.026 C37.306,18.745 37.983,19.315 38.804,19.735 C39.625,20.155 40.577,20.364 41.659,20.364 C42.611,20.364 43.466,20.192 44.221,19.846 C44.977,19.501 45.588,18.936 46.055,18.153 L46.111,18.153 L46.111,20 L49.891,20 L49.891,0.008 L45.915,0.008 L45.915,7.288 L45.917,7.288 Z M45.889,14.456 C45.777,15.016 45.59,15.516 45.328,15.954 C45.067,16.392 44.717,16.742 44.278,17.004 C43.839,17.266 43.294,17.397 42.64,17.397 C42.024,17.397 41.496,17.261 41.058,16.991 C40.62,16.721 40.255,16.366 39.966,15.927 C39.676,15.489 39.466,14.989 39.336,14.429 C39.205,13.869 39.14,13.31 39.14,12.749 C39.14,12.151 39.201,11.577 39.322,11.026 C39.443,10.476 39.639,9.987 39.91,9.557 C40.181,9.127 40.541,8.782 40.988,8.52 C41.436,8.259 41.987,8.128 42.64,8.128 C43.293,8.128 43.834,8.259 44.264,8.52 C44.693,8.782 45.043,9.123 45.314,9.542 C45.585,9.961 45.776,10.447 45.888,10.998 C46,11.549 46.056,12.123 46.056,12.721 C46.057,13.317 46.001,13.896 45.889,14.456 Z"></path>
                            <path d="M30.976,1.184 L27,1.184 L27,5 L27,5.006 C25.25,5.006 24.05,5 23,5.356 C22.536,5.513 22.095,5.716 21.685,5.986 C21.274,6.257 20.91,6.584 20.592,6.966 C20.275,7.349 20.023,7.764 19.836,8.212 L19.78,8.212 L19.78,5.524 L16,5.524 L16,20 L19.977,20 L19.977,14.594 C19.959,13.615 20.021,12.8 20.125,12.235 C20.375,10.887 21.229,9.898 21.844,9.485 C23.115,8.63 24.344,8.281 27,8.5 L27,16.725 C27,17.453 27.121,18.04 27.364,18.489 C27.606,18.936 27.937,19.282 28.357,19.524 C28.777,19.767 29.262,19.93 29.813,20.014 C30.364,20.098 30.948,20.141 31.563,20.141 C31.956,20.141 32.357,20.131 32.767,20.112 C33.177,20.094 33.551,20.057 33.887,20.001 L33.887,16.921 C33.7,16.958 33.504,16.987 33.299,17.005 C33.093,17.025 32.879,17.033 32.655,17.033 C31.982,17.033 31.535,16.921 31.31,16.696 C31.086,16.473 30.974,16.024 30.974,15.352 L30.974,8.5 L34.5,8.5 L34.5,5 L30.976,5 L30.976,1.184 Z"></path>
                            <path d="M13.607,16.779 L13.607,9.248 C13.607,8.371 13.411,7.666 13.019,7.134 C12.627,6.602 12.123,6.187 11.507,5.888 C10.891,5.59 10.209,5.388 9.463,5.286 C8.717,5.184 7.979,5.132 7.252,5.132 C6.449,5.132 5.65,5.212 4.857,5.37 C4.064,5.528 3.35,5.795 2.715,6.168 C2.08,6.542 1.559,7.036 1.147,7.652 C0.736,8.267 0.503,9.043 0.447,9.976 L4.424,9.976 C4.498,9.191 4.76,8.632 5.207,8.296 C5.655,7.96 6.271,7.792 7.056,7.792 C7.41,7.792 7.743,7.815 8.049,7.861 C8.358,7.908 8.628,8.002 8.861,8.142 C9.094,8.282 9.281,8.478 9.422,8.73 C9.562,8.982 9.632,9.322 9.632,9.751 C9.65,10.161 9.528,10.475 9.268,10.689 C9.006,10.904 8.652,11.068 8.204,11.179 C7.757,11.291 7.243,11.375 6.665,11.431 C6.085,11.488 5.497,11.562 4.9,11.656 C4.302,11.75 3.71,11.875 3.122,12.034 C2.534,12.193 2.012,12.43 1.555,12.748 C1.097,13.065 0.724,13.49 0.435,14.021 C0.145,14.555 0,15.23 0,16.052 C0,16.799 0.125,17.444 0.377,17.985 C0.629,18.526 0.98,18.974 1.428,19.329 C1.875,19.683 2.399,19.944 2.996,20.112 C3.593,20.28 4.236,20.364 4.928,20.364 C5.824,20.364 6.701,20.234 7.56,19.973 C8.418,19.711 9.165,19.254 9.8,18.6 C9.819,18.843 9.851,19.081 9.898,19.315 C9.945,19.549 10.005,19.776 10.08,20.001 L14.112,20.001 C13.925,19.702 13.795,19.255 13.72,18.657 C13.645,18.059 13.607,17.434 13.607,16.779 Z M9.632,14.4 C9.632,14.624 9.608,14.922 9.562,15.296 C9.515,15.67 9.389,16.038 9.184,16.402 C8.979,16.765 8.661,17.078 8.232,17.34 C7.802,17.602 7.196,17.733 6.413,17.733 C6.095,17.733 5.787,17.705 5.488,17.649 C5.189,17.592 4.928,17.495 4.704,17.354 C4.48,17.214 4.303,17.024 4.173,16.78 C4.042,16.538 3.977,16.239 3.977,15.884 C3.977,15.511 4.042,15.203 4.173,14.96 C4.303,14.718 4.476,14.517 4.691,14.357 C4.906,14.199 5.158,14.074 5.447,13.98 C5.736,13.886 6.031,13.812 6.33,13.755 C6.646,13.699 6.964,13.653 7.281,13.615 C7.598,13.577 7.902,13.531 8.191,13.475 C8.48,13.418 8.752,13.348 9.003,13.264 C9.254,13.18 9.465,13.064 9.633,12.914 L9.633,14.4 L9.632,14.4 Z"></path>
                        </g>
                    </g>
                </g>
            </g>
        </g>
    </g>
</svg>