<?xml version="1.0" encoding="utf-8"?>
<!-- Generator: Adobe Illustrator 20.1.0, SVG Export Plug-In . SVG Version: 6.00 Build 0)  -->
<svg version="1.1" id="Layer_1" xmlns="http://www.w3.org/2000/svg" xmlns:xlink="http://www.w3.org/1999/xlink" x="0px" y="0px"
	 viewBox="0 0 21 21" style="enable-background:new 0 0 21 21;" xml:space="preserve">
<g>
	<path d="M8.3,2.4C5.1,2.4,2.5,4.8,2.4,8c0,0,0,0,0,0c0.1,3.2,2.7,5.6,5.9,5.6c0,0,0,0,0,0c3.1,0,5.6-2.5,5.7-5.6
		C13.9,4.9,11.4,2.4,8.3,2.4z M8.3,11.6c-2,0.1-3.7-1.4-3.8-3.4c0-0.1,0-0.1,0-0.2c0-2,1.6-3.6,3.6-3.6c0,0,0.1,0,0.1,0
		c2-0.1,3.6,1.5,3.7,3.4c0,0,0,0.1,0,0.1C11.9,10,10.3,11.6,8.3,11.6C8.3,11.6,8.3,11.6,8.3,11.6L8.3,11.6z"/>
	<path d="M16.1,16.7c-0.2,0-0.3-0.1-0.4-0.1l-4.5-4.5c-0.2-0.2-0.3-0.6-0.1-0.8c0,0,0,0,0.1-0.1c0.3-0.2,0.7-0.2,0.9,0l4.5,4.6
		c0.2,0.2,0.3,0.6,0.1,0.8c0,0,0,0-0.1,0.1C16.5,16.7,16.3,16.7,16.1,16.7L16.1,16.7z"/>
	<path d="M16.1,17.4c-0.3,0-0.7-0.1-0.9-0.4l-2.9-2.9c-0.5-0.5-0.5-1.2-0.1-1.7c0,0,0,0,0.1-0.1c0.5-0.5,1.3-0.5,1.8,0c0,0,0,0,0,0
		l2.9,2.9c0.5,0.4,0.5,1.2,0.1,1.6C17.1,17,17,17,16.9,17.1C16.7,17.3,16.4,17.4,16.1,17.4L16.1,17.4z"/>
</g>
</svg>
