<svg xmlns="http://www.w3.org/2000/svg" viewBox="0 0 21 21">
  <g fill="currentColor">
    <path d="M8.32 16.8h-.5v.88h.24a1.9 1.9 0 0 0 .36 0 .54.54 0 0 0 .24-.1.36.36 0 0 0 .12-.14.5.5 0 0 0 0-.22.32.32 0 0 0 0-.25.4.4 0 0 0-.2-.1.88.88 0 0 0-.26-.07zM11.3 18.1h.82l-.4-1.06-.42 1.06M10.6 2.92A4.93 4.93 0 0 0 8.77 4.7 4.8 4.8 0 0 1 9.83 4a4.78 4.78 0 0 1 .78-1.08zM9.44 4.7a3.37 3.37 0 0 0-1.2 1.5 4.66 4.66 0 0 1 .88-.4 6 6 0 0 1 .32-1.1zM9 7.76A6.1 6.1 0 0 1 9 7a6.1 6.1 0 0 1 0-.76c-.62.24-1 .53-1 .75s.34.53 1 .76zM10.58 11.15zM10.56 11.14a4.9 4.9 0 0 1-.76-1 5.2 5.2 0 0 1-1.06-.75 5 5 0 0 0 1.82 1.74zM9.43 9.4a6.37 6.37 0 0 1-.33-1.1 4.27 4.27 0 0 1-.87-.3 3.44 3.44 0 0 0 1.2 1.4zM14.86 10.38h-.06zM17.53 4.7zM16.8 4.25a6.4 6.4 0 0 0-1.44-.5 11.3 11.3 0 0 1 .3 1.56 12.25 12.25 0 0 1 1.7.34 5.54 5.54 0 0 0-.55-1.4zM14.7 11.63a3.55 3.55 0 0 0 1.57-1.12 6.88 6.88 0 0 1-1.13.3 4 4 0 0 1-.44.83zM17.43 8a6.6 6.6 0 0 0 .06-1 5.84 5.84 0 0 0-.1-.88 11.34 11.34 0 0 0-1.73-.33c0 .4.06.82.06 1.23a7.6 7.6 0 0 1-.07 1.24A10.5 10.5 0 0 0 17.43 8zM14.8 10.4a9 9 0 0 0 .35-1.6c-.44 0-.88.04-1.32.04a9.77 9.77 0 0 1-1.32-.07 8.82 8.82 0 0 0 .36 1.62 6.38 6.38 0 0 0 1.94 0zM14.64 3.18c-.25-.58-.54-.88-.8-.88s-.53.34-.78.88a6.78 6.78 0 0 1 .8 0 6 6 0 0 1 .78 0zM16.8 9.83a5.72 5.72 0 0 0 .54-1.37 12.07 12.07 0 0 1-1.7.3 10.46 10.46 0 0 1-.32 1.58 6.5 6.5 0 0 0 1.5-.5zM16.33 3.54a3.5 3.5 0 0 0-1.55-1.15 4.16 4.16 0 0 1 .4.82 7.7 7.7 0 0 1 1.15.32zM14.6 10.88h-.8a6.9 6.9 0 0 1-.8 0c.25.6.54.88.8.88s.53-.32.8-.88zM18.22 4.68A4.9 4.9 0 0 0 16.4 2.9a4.62 4.62 0 0 1 .76 1 4.9 4.9 0 0 1 1.06.78zM15.2 8.33c0-.4.07-.83.08-1.3a7.9 7.9 0 0 0-.06-1.28c-.42 0-.87-.06-1.36-.06a10.16 10.16 0 0 0-1.38.05V8.3c.43 0 .88.05 1.37.05s.94 0 1.36-.02zM15.16 5.3a9.06 9.06 0 0 0-.34-1.62 6.78 6.78 0 0 0-2 0 9.17 9.17 0 0 0-.3 1.63c.43 0 .88-.04 1.32-.04a11.15 11.15 0 0 1 1.32.05zM16.35 11.16A4.92 4.92 0 0 0 18.2 9.4a5.1 5.1 0 0 1-1.07.72 5 5 0 0 1-.78 1.04zM17.54 4.72a5.82 5.82 0 0 1 .32 1.07 4.22 4.22 0 0 1 .87.38 3.32 3.32 0 0 0-1.2-1.46zM17.53 9.4a3.37 3.37 0 0 0 1.2-1.4 4.3 4.3 0 0 1-.87.38 6.06 6.06 0 0 1-.33 1zM17.93 6.28v.8a6.6 6.6 0 0 1 0 .75c.62-.24 1-.5 1-.75s-.37-.55-1-.8zM0 1.3v18.3A1.44 1.44 0 0 0 1.48 21h3.35V0H1.6A1.48 1.48 0 0 0 0 1.3z"/>
    <path d="M19.52 0H6v21h13.4a1.46 1.46 0 0 0 1.54-1.36L21 1.42A1.44 1.44 0 0 0 19.52 0zM13 1.77a1.08 1.08 0 0 0-.57.48 3.5 3.5 0 0 0-1.8 1.3 6.93 6.93 0 0 1 1.37-.3 2.5 2.5 0 0 1-.15.48 6.3 6.3 0 0 0-1.67.53 5.38 5.38 0 0 0-.54 1.38 13.12 13.12 0 0 1 1.92-.33v.45a11.16 11.16 0 0 0-2 .35 5.62 5.62 0 0 0-.1.88 6.2 6.2 0 0 0 .06 1 10.94 10.94 0 0 0 2 .35v.53a12.63 12.63 0 0 1-1.92-.34 5.6 5.6 0 0 0 .6 1.33 6.33 6.33 0 0 0 1.68.53 1.8 1.8 0 0 0 .15.5 7.35 7.35 0 0 1-1.36-.34 3.48 3.48 0 0 0 1.75 1.2 1.1 1.1 0 0 0 .6.48C9.92 12.08 7.5 9.76 7.58 7c-.1-2.75 2.3-5.08 5.42-5.23zM9.66 17.6a.88.88 0 0 1-.23.3 1.32 1.32 0 0 1-.43.3 2 2 0 0 1-.62.1H7.8v1h-.86v-3h1.44a2.77 2.77 0 0 1 .54.04 1.2 1.2 0 0 1 .4.15.85.85 0 0 1 .32.3.9.9 0 0 1 .1.43 1 1 0 0 1-.08.36zm2.9 1.68l-.23-.62h-1.25l-.24.62H10l1.27-3h1l1.23 3zm1.14-7c-1.13-.13-1.82-2.74-1.8-5.22s.62-5 1.78-5.2h.14c3.18.07 5.66 2.38 5.6 5.14s-2.42 5.14-5.57 5.22h-.1zM16.24 19a2.1 2.1 0 0 1-1.13.28 4 4 0 0 1-.72-.07 4.15 4.15 0 0 1-.58-.17v-.7h.08a2.08 2.08 0 0 0 .6.3 2.24 2.24 0 0 0 .64.1h.42l.17-.1a.22.22 0 0 0 .08-.16.2.2 0 0 0-.1-.18.76.76 0 0 0-.26-.1l-.4-.1-.4-.14a1.3 1.3 0 0 1-.6-.3.7.7 0 0 1-.2-.53.78.78 0 0 1 .43-.67 2.1 2.1 0 0 1 1.13-.27 3.82 3.82 0 0 1 .66.06 3.3 3.3 0 0 1 .57.14v.7h-.1a1.9 1.9 0 0 0-.5-.26 2.1 2.1 0 0 0-.6-.1H15a.35.35 0 0 0-.16.1.2.2 0 0 0-.07.13.2.2 0 0 0 .1.18 1.23 1.23 0 0 0 .38.12l.35.07.37.1a1.34 1.34 0 0 1 .58.3.73.73 0 0 1 .18.5.87.87 0 0 1-.5.76zm3.27 0a2.13 2.13 0 0 1-1.13.28 3 3 0 0 1-.73-.07 4.23 4.23 0 0 1-.6-.15v-.7h.1a2.2 2.2 0 0 0 .6.28 2.53 2.53 0 0 0 .64.1h.22a.6.6 0 0 0 .2 0 .4.4 0 0 0 .17-.1.2.2 0 0 0 .06-.16.2.2 0 0 0-.1-.18.65.65 0 0 0-.26-.1 2.8 2.8 0 0 0-.4-.1l-.4-.1a1.27 1.27 0 0 1-.6-.33.76.76 0 0 1-.2-.53.78.78 0 0 1 .44-.67 2.06 2.06 0 0 1 1.14-.27 3.64 3.64 0 0 1 .67.07 3.3 3.3 0 0 1 .58.15v.7h-.1a2 2 0 0 0-.5-.25 1.94 1.94 0 0 0-.6-.1h-.43a.4.4 0 0 0-.15.1.17.17 0 0 0-.1.13.2.2 0 0 0 .1.18 1.42 1.42 0 0 0 .4.1l.36.07.36.1a1.23 1.23 0 0 1 .57.3.65.65 0 0 1 .17.5.87.87 0 0 1-.46.75z"/>
  </g>
</svg>
