<svg xmlns="http://www.w3.org/2000/svg" viewBox="0 0 21 21">
	<path d="M5.4,18.1c0,0.2,1.2,0.5,2.7,0.5h4.8c1.5,0,2.7-0.2,2.7-0.5v-0.6H5.4V18.1z M16,11.1c-0.1,0-0.2,0-0.4,0v-0.8H5.4v3.6
		c0,1.8,1.2,3.1,2.7,3.1h4.8c1.1,0.1,2.1-0.7,2.6-1.8c0.2,0,0.3,0,0.5,0c1,0.1,1.8-0.8,2-2C17.8,11.9,16.9,11,16,11.1
		C16,11.1,16,11.1,16,11.1L16,11.1z M16,14.2c-0.1,0-0.2,0-0.4,0v-1.8c0.1-0.1,0.2-0.1,0.4-0.2c0.4,0,0.8,0.4,0.9,0.9
		C16.9,13.7,16.5,14.1,16,14.2C16,14.1,16,14.1,16,14.2L16,14.2z M9,9h0.1c0.1,0,0.2,0,0.2-0.1c0,0,0,0,0,0c0-0.1-0.1-0.2-0.2-0.2h0
		c0,0-0.8-0.3-0.9-0.8C8.2,7.4,8.3,7,8.5,6.7L9,6.1c0.6-0.8,1.2-1.5,1.2-2.3C10,3,9.5,2.5,9,2.4c-0.1,0-0.1,0-0.2,0
		c-0.1,0-0.1,0.1-0.1,0.2s0.1,0.2,0.1,0.2l0,0c0.6,0.3,0.8,0.5,0.9,0.8c0.1,0.8-0.4,1.4-1,2.2L8.2,6.3c-0.4,0.4-0.5,1-0.4,1.5
		c0.2,0.6,0.7,1.1,1.2,1.2L9,9z"/>
	<path d="M9.8,6.2c-0.3,0.4-0.5,1-0.4,1.5c0.2,0.6,0.7,1.1,1.2,1.2c0.1,0,0.2-0.1,0.2-0.2c0-0.1,0-0.2,0-0.2c0,0-0.9-0.3-1.1-0.8
		c-0.1-0.5,0.1-1,0.4-1.2c0-0.2,0.2-0.4,0.4-0.6c0.6-0.8,1.2-1.5,1.1-2.3c-0.2-0.6-0.5-1.1-1-1.2c-0.1-0.1-0.2-0.1-0.2,0
		c-0.1,0.1-0.1,0.2-0.1,0.3c0,0,0,0,0.1,0.1c0.6,0.2,0.8,0.5,0.9,0.8c0.1,0.8-0.5,1.5-1.1,2.2c0,0.2-0.2,0.4-0.4,0.6V6.2z"/>
	<path d="M11.3,6.2c-0.3,0.4-0.5,1-0.4,1.5c0.2,0.6,0.7,1.1,1.2,1.2c0.1,0,0.2-0.1,0.2-0.2c0-0.1,0-0.2-0.1-0.2c0,0-0.8-0.3-0.9-0.8
		c-0.1-0.4,0-0.8,0.3-1.1l0.5-0.6c0.6-0.8,1.2-1.5,1-2.3c-0.1-0.6-0.5-1.2-1-1.4c-0.1-0.1-0.2-0.1-0.2,0c-0.1,0-0.1,0.1-0.1,0.2
		s0.1,0.2,0.1,0.2c0.5,0.3,0.8,0.5,0.8,0.9c0.1,0.5-0.4,1.2-1,2L11.3,6.2z"/>
</svg>
