<svg xmlns="http://www.w3.org/2000/svg" viewBox="0 0 21 21">
  <path d="M14 10.6c-.6 0-1 1-1 3s.4 3 1 3 1.3-1 1.3-3-.4-3-1.2-3z"/>
  <path d="M0 7.6v12A1.4 1.4 0 0 0 1.4 21h18.2a1.4 1.4 0 0 0 1.4-1.4v-12zM6.3 18a5 5 0 0 1-2.5-.5L4 16a4.4 4.4 0 0 0 2 .5c1 0 1.7-.5 1.7-1.2C7.7 14.5 7 14 6 14h-.8v-1.4H6c.6 0 1.4-.2 1.4-1 0-.5-.4-1-1.2-1a3.7 3.7 0 0 0-1.8.7L4 9.8a5.2 5.2 0 0 1 2.6-.6c1.8 0 2.8 1 2.8 2a2 2 0 0 1-1.5 2 2 2 0 0 1 1.7 2.2C9.7 17 8.4 18 6.3 18zm7.8 0c-2 0-3-2-3-4.4s1-4.4 3.2-4.4 3.2 2 3.2 4.4c0 2.6-1 4.5-3.3 4.5zM6 3a1.4 1.4 0 0 1-1.3 1.5A1.3 1.3 0 0 1 3.4 3V1.5A1.3 1.3 0 0 1 4.7 0 1.3 1.3 0 0 1 6 1.3zM17.6 3a1.3 1.3 0 0 1-1.4 1.5A1.3 1.3 0 0 1 15 3V1.5A1.3 1.3 0 0 1 16 0a1.3 1.3 0 0 1 1.4 1.3z"/>
  <path d="M19.6 2.2h-1.3v1a2 2 0 0 1-4 0v-1H6.7v1a2 2 0 0 1-4 0v-1H1.3A1.4 1.4 0 0 0 0 3.6v3h21v-3a1.4 1.4 0 0 0-1.3-1.4z"/>
</svg>
