<svg xmlns="http://www.w3.org/2000/svg" viewBox="0 0 21 21">
  <path d="M4,5a.66.66,0,0,0-.66.66v8.05a.66.66,0,0,0,.66.66H15.36a.64.64,0,0,0,.65-.63h0V5.65A.7.7,0,0,0,15.28,5Zm6.9.94h.65a.17.17,0,0,1,.17.16v.64a.17.17,0,0,1-.17.16h-.65a.16.16,0,0,1-.16-.16V6.11A.16.16,0,0,1,10.94,5.95Zm1.62,0h.65a.16.16,0,0,1,.16.16v.64a.16.16,0,0,1-.16.16h-.64a.16.16,0,0,1-.16-.16V6.11a.16.16,0,0,1,.16-.16Zm1.61,0h.66a.16.16,0,0,1,.16.16h0v.64a.16.16,0,0,1-.16.16h-.65A.16.16,0,0,1,14,6.75V6.11a.16.16,0,0,1,.15-.16Zm2.46.69v8.21a.19.19,0,0,1-.19.19H5v.32a.67.67,0,0,0,.69.65H17a.64.64,0,0,0,.65-.63h0V7.26A.64.64,0,0,0,17,6.62h-.34ZM15,7.91v5.5H4.36V7.92Zm-7.88.64A1.13,1.13,0,1,0,7,10.82h.12a1.13,1.13,0,0,0,0-2.26Zm2.43.32v.66h4.52V8.88Zm0,1.3v.65h4.52v-.65Zm-3.32,1a.89.89,0,0,0-.89.86v.41a.34.34,0,0,0,.34.34H8.54a.34.34,0,0,0,.34-.34V12A.89.89,0,0,0,8,11.14Zm3.32.32v.66h4.52v-.66Z"/>
</svg>
