<svg id="Bell" xmlns="http://www.w3.org/2000/svg" viewBox="0 0 21 21"><title>icon_symbol_bell</title><path d="M10.41,3.56A2,2,0,0,0,8.28,5.39v.17a2,2,0,0,0,.18.7A4.55,4.55,0,0,0,5.8,11.93C3.59,14.19,3.5,15.5,3.5,15.5c0,1.13,3.1,2,7,2s7-1,7-2c0,0-.18-1.31-2.3-3.49a6.62,6.62,0,0,0,.18-1.31,4.79,4.79,0,0,0-2.84-4.27c.09-.17.09-.44.18-.7a2,2,0,0,0-1.86-2.09C10.59,3.47,10.5,3.47,10.41,3.56Zm6.38,11.76c-.18.35-2.22,1.31-6.29,1.31s-6.2-1-6.38-1.31C4.3,14.89,6.34,14,10.41,14s6.11,1,6.38,1.31ZM11.12,5.48c0,.17-.09.26-.18.44H9.7a.88.88,0,0,1,.53-.78.63.63,0,0,1,.89.35Z"/><path d="M11.39,14.54v.17a1.15,1.15,0,0,0,.27.7,1.42,1.42,0,0,0,1.77.7,1.24,1.24,0,0,0,.8-1.13c-.89-.17-1.77-.26-2.66-.35h-.18Z"/></svg>