<svg xmlns="http://www.w3.org/2000/svg" viewBox="0 0 16 21" fill="currentColor">
  <path d="M1.4 10.4V7a6.4 6.4 0 0 1 6-7 6.5 6.5 0 0 1 7 5.8 6.2 6.2 0 0 1 0 1v1.6a.8.8 0 0 1-.8.8h-.4a.8.8 0 0 1-.8-.8V7A4.5 4.5 0 0 0 8 2.3 4.5 4.5 0 0 0 3.2 7v3.4a.3.3 0 0 1-.3.3H1.7a.3.3 0 0 1-.3-.3z"/>
  <path d="M4.6 9.2h6.8v-.4h4a.7.7 0 0 1 .6.3v10.3a1.8 1.8 0 0 1-1.8 1.7H1.8A1.8 1.8 0 0 1 0 19.3V9a.7.7 0 0 1 .7-.6h3a.7.7 0 0 1 1 .7zM9 14.8a1.3 1.3 0 0 0 .5-1 1.5 1.5 0 0 0-3 0 1.3 1.3 0 0 0 .6 1h.4L7 17.3a.7.7 0 0 0 .8.6h.4a.7.7 0 0 0 .7-.6L8.6 15z"/>
</svg>
