<svg xmlns="http://www.w3.org/2000/svg" viewBox="0 0 21 21"><title>icon_symbol_earth</title><path d="M10.5,3.5a7,7,0,1,0,7,7A7,7,0,0,0,10.5,3.5Zm6,9v.16A7,7,0,0,1,15.84,14c-.24,0-.31,0-.39.16s-.16,0-.24,0v-.47a.36.36,0,0,0,0-.39h.16v-.47h.39v-.24H16v-.16h.39Zm-10-6.92a5,5,0,0,1,1-.79c0,.16-.16,0-.24.16v.16H7.12c-.16,0-.16.24-.24.24v.24H6.73c0,.16.16,0,.16.16s0,0-.24,0c0,.24-.24,0-.39.16l.16-.16c0-.16.08-.16.08-.16Zm-.86.74c.07,0,.13,0,.19,0S6,6.39,6,6.32s0-.09,0-.14A.21.21,0,0,1,6.05,6a.9.9,0,0,1,.34-.21s.18.22.2.23a.68.68,0,0,0,.36,0l.16.25c.06.08.08.18.17.24a.46.46,0,0,1-.08.18.91.91,0,0,1-.13.13A.28.28,0,0,1,6.88,7a.47.47,0,0,1-.17-.08.34.34,0,0,0-.25,0h0a0,0,0,0,1,0,0,.13.13,0,0,1,.06-.11l.11-.08a.23.23,0,0,0,.07-.21.06.06,0,0,0,0,0H6.34v.18a.08.08,0,0,1,0,0s-.08,0-.13,0a.14.14,0,0,0-.12.1s0,.1,0,.15a.64.64,0,0,1-.33.31s.13.1.14.11l.21.1.28.11L6.49,7h.24c.08,0,.47.71.47.71a1,1,0,0,1,.23,0c.08,0,.09.24.09.3s0,.2,0,.17H7.12l.16.24A.6.6,0,0,1,7,8.53V8.45l-.23.08c0,.1,0,.19-.1.27s-.16.28-.21.28-.08.19-.14.28,0,.44,0,.65c0,0-.15,0-.17,0s-.22-.19-.3-.19H5.39c0,.24-.16.63.16.63l.47.16V11h.16c.12,0,.2-.14.24-.24.23,0,.44-.07.55.16s1.49.94,1.57,1.1a11.64,11.64,0,0,1-1.1,2l-.24.24s-.08.47-.24.55,0,.1,0,.14a.2.2,0,0,1,.11.22,1.79,1.79,0,0,0,0,.36s0,.06,0,.06H6.57c0-.61,0-1.23-.06-1.84a4,4,0,0,0,0-.74,2,2,0,0,0-.09-.26L6,11.7a.28.28,0,0,1,0-.09.31.31,0,0,1,0-.11A1.46,1.46,0,0,0,6,11.15.12.12,0,0,0,6,11H5.94l-.23,0a2.86,2.86,0,0,0-.55-.3c-.1,0-.33-.12-.38-.24s0-.16,0-.24a.28.28,0,0,0-.2-.28,1.54,1.54,0,0,1-.4-.81,3.51,3.51,0,0,1,.25-1,6.49,6.49,0,0,1,.87-1.63A.37.37,0,0,1,5.63,6.36ZM16.16,7.51v.16l.24.16v.39c-.08.16-.16.24-.24.39-.08,0-.08.08-.16.16v.55h-.16a.15.15,0,0,1,0-.24l-.16-.16c-.16,0,0,.16,0,.24v.71a1.08,1.08,0,0,1-.24.31c-.24,0-.24,0-.24.16v.16c0,.31,0,.55-.24.55l-.24-.24v.39c0,.16.24.24.24.31-.16-.08-.24-.24-.31-.31v-.39c0-.08-.08-.08-.16-.16v-.16h-.24v-.24L14.19,10H14v.24H13.8v.16a.68.68,0,0,1-.24.47h-.16v-.24h-.16a.6.6,0,0,0-.16-.39V10c-.16,0-.24-.24-.31-.16h-.24c-.24,0-.24-.24-.31-.31v.24a.28.28,0,0,0,.16.24h.16c0,.16,0,.16.16.24s0,.16,0,.24l-.24.08v.16c-.16.08-.31.08-.47.24a.43.43,0,0,1-.16-.39c0-.16-.24-.16-.24-.24v0l.16.16c0,.24.16.16,0,.31s.24.16.24.31h.24v.08l-.24.47-.16.16a.6.6,0,0,1-.16.31v.63a.71.71,0,0,0-.24.55h-.24v.24L11,13.8c-.16,0-.24.24-.47.24a.59.59,0,0,0-.24-.55h0a.85.85,0,0,0-.24-.55c.16,0,0-.24.24-.39a.6.6,0,0,0-.16-.31c.16-.16,0-.24,0-.31v-.47H9.56c-.16,0-.24-.16-.31-.24a.78.78,0,0,0-.31-.39v-.55a.6.6,0,0,0,.16-.31l.16-.24.16-.39.16-.16h.16a.36.36,0,0,1,.39,0A.6.6,0,0,1,10.42,9v.16c.08,0,.08.08.16.16s.24.16.39.24V9.47a.86.86,0,0,1,.63,0V9.16h0a.24.24,0,0,1-.31,0V8.84h-.24v.31a.15.15,0,0,1,.16.16H11V8.84c-.16-.08-.24-.24-.31-.31,0,.24.24.24.24.39s0,0-.16,0,0,0,0,.16v.16h-.16V8.69h-.24s.16.16,0,.24c-.24-.16-.24-.31-.16-.39H9.95l-.16.16c0,.16,0,.31-.16.39-.16-.16-.16-.16-.24,0S9.32,9,9.16,9V8.53h.31l.16-.16s-.16,0,0-.24H9.56l.24-.24H9.64c-.24-.08-.24-.16-.24-.24a.15.15,0,0,0,.16-.16H9.4V7.19h.24c0,.08.08.08.16.16s.16,0,0,.24h.16v.24l.16-.16h.24a.15.15,0,0,0-.16-.16c-.16,0,0,0,.16-.16s-.16,0-.24,0a.24.24,0,0,0,0-.31c0-.16,0-.24.24-.31V6.41c.24,0,.24-.16.31-.24h.47a.25.25,0,0,1,.24.24h0c.16,0,.24,0,.24.24V6.25h.24v.16a.25.25,0,0,0,.24-.24h.31s-.16,0,0-.16h.24c-.16-.08-.16-.08-.08-.16h.24V5.78c.16,0,.24,0,.24.16,0-.24-.16-.16-.16-.24s0,0,.16,0,0-.16,0-.16h.24q.12,0,.24-.24v.16h.24V5.23h.47l.16.24v.16h.39A4.79,4.79,0,0,1,16.16,7.51Zm.47,1.1h-.24V8.37h.16ZM16,10.89v-.24a.15.15,0,0,1,.16.16c-.16,0-.24.08-.16.08V11c-.16,0,0,0,0-.16s-.16.16-.16,0ZM16,12h-.16v.16c-.24-.16-.16-.39,0-.55v.47Zm-.39-.31v.24h-.47v-.24c0-.24.24-.24.24-.47a.28.28,0,0,1,.24.16v.31Zm-.08.71L15,12.22v-.16h.47l.08.31Zm.16-2.12V10.1h0v.16Zm.31.16c0,.16,0,.24-.16.24s-.08-.08-.16-.16a.17.17,0,0,1,.16-.16H16Zm.39,1.18c0,.24-.16.24-.24.16s.24,0,.24,0Zm-.08-2.12c-.08.08-.16.08-.16.24h0c0-.16-.16,0-.16-.16s.16-.16.31-.08a.27.27,0,0,1,.08-.16V8.92h.16v.55l-.16.16Zm.08-1.34Zm-2,3.22s.16.16.16,0l.24.24v.16l.16.31-.24-.16c-.08-.31-.31-.24-.31-.55Zm-.63-.24v.16h0Zm-1.65,2v.24l-.16.24h-.16v-.79c0-.08.08-.08.16-.16s.08-.16.16-.24v.71Zm-4-5.89v.16L8,7.19H7.83c-.16-.16,0-.47-.16-.63.08-.08.08-.16.16-.24s-.16,0-.16-.24h0V5.62a.24.24,0,0,1-.31,0H7.2A.15.15,0,0,1,7,5.46c0-.16.24,0,.24,0H7s0-.16.16,0,.08,0,.16-.08c.24,0,.24-.24.47-.31h.39c.16,0,0-.16,0-.16h.31a.6.6,0,0,0,.39-.16h.39l.24.08a.23.23,0,0,0-.24.24c0,.24.16,0,.24,0h.16l-.31.08H9.32v.31H9.16c0,.16.24,0,.24.24H9.16v.47H8.77s.16.16.24,0c0,.24-.16.24-.16.31s0,0-.24.16H8.54s0,.16-.16,0,0,.24,0,.24C8.22,7,8.14,7,8.14,7.19Zm2.36-2s.16.16.16,0l.16.31H10.5V5.7h-.16a.27.27,0,0,1-.16-.08V5.54a.15.15,0,0,0,.16-.16h-.16L10,5.15c0-.24.24,0,.24,0V5a.28.28,0,0,1,.24.16Zm0-.16h.63c0,.16-.16,0-.24.16a.36.36,0,0,1-.39,0c.08,0,.08-.08,0-.16ZM9.4,7.82H9.24V7.67h.24C9.48,7.74,9.4,7.74,9.4,7.82Zm-.16-1H9.09V6.49h.39V6.8Zm2.91-1c.08-.08.24-.08.31-.16h.16a.25.25,0,0,1-.24.24h0c-.16,0-.24.16-.31.24v.47l-.24-.24V6.09l.24-.24Zm0-.55c0-.16.16-.24.16,0Zm1.34,0a.24.24,0,0,1,.31,0c0,.24-.24.16-.31.16Zm-7,1.57c0,.24-.24,0-.24.16.08,0-.08,0-.08-.16l.16-.16c0,.08,0,.24.16.16Zm.31,3.62h0Zm-.63,0s0-.24-.16-.24h.39v.16c.24,0,.31,0,.31.24H6.41v-.16Zm0,0Zm0-.31v0Zm.16-.24v0Zm.08.31h0Zm10.3,2c-.08-.16-.24-.24-.31-.31h-.24l.16-.16h.47l-.24.55ZM15.53,9V9Z"/><path d="M10.81,6.72a1,1,0,0,0-.31.47v.47c-.24,0-.24-.24-.31-.24s.08.24.16.24h.39V7.27h.16V7.19h-.24c0-.31.16-.31.16-.47Zm4.24,3.62v.16h.16v-.16ZM11.21,6.57s0,.24.16.24,0,0,0-.16.16,0,.16,0S11.36,6.57,11.21,6.57Zm-.39.63h0ZM9.09,5V4.84L8.85,5a.15.15,0,0,1,.24,0ZM9,6.17v0Z"/></svg>
