<svg xmlns="http://www.w3.org/2000/svg" viewBox="0 0 21 21">
  <path d="M7.76,3.5A1.45,1.45,0,0,0,6.33,5V16A1.45,1.45,0,0,0,7.76,17.5h5.43A1.44,1.44,0,0,0,14.61,16h0V5A1.44,1.44,0,0,0,13.19,3.5H7.76Zm1.93.87h1.78v.38H9.69ZM7.2,5.5h6.56v9.14H7.2Zm2.54,2-.16,0a1.55,1.55,0,0,0-.52.21.91.91,0,0,0-.4.74,4.11,4.11,0,0,0,.63,2.38h0A4.1,4.1,0,0,0,11,12.63a1,1,0,0,0,.87,0,1.52,1.52,0,0,0,.44-.35.63.63,0,0,0,.18-.24.28.28,0,0,0,0-.22s0,0-.07-.07l-.77-.84c-.14-.14-.3-.21-.44-.05l-.31.29c-.1.09-.17.12-.29,0a3,3,0,0,1-.59-.71,2.92,2.92,0,0,1-.31-.87c0-.15,0-.21.15-.24l.38-.12c.21-.06.23-.22.18-.41-.12-.39-.17-.47-.37-1.05l0-.1a.26.26,0,0,0-.16-.14H9.74Zm.73,7.83a.7.7,0,0,1,.67.71.68.68,0,0,1-1.36,0,.7.7,0,0,1,.69-.71Z"/>
</svg>
