<svg xmlns="http://www.w3.org/2000/svg" viewBox="0 0 21 21">
  <g fill="currentColor">
    <path d="M20 1.4l-.5-.6-.2-.2-1.5 1.2c-.2.2-.4.7-.3 1L10.2 10H10c-.7-.7-2-.3-2.4 0L1 15.8c-.8.8-.7 2 0 3l1.3 1c.8 1 2 1 3 .2l5.5-6.6c.6-.6 1-1.7 0-2.5v-.2L18 3.5c.4 0 .8 0 1-.3l1.2-1.5v-.3zm-17.7 15H2c-.2 0 0-.3 0-.4l5-4.7s.2-.2.3 0c0 0 0 .2-.2.3l-4.7 4.7zm1.2 1.5H3v-.6l4.8-4.8h.5v.5l-4.8 5zm6-4L5 18.8c-.2.2-.4.2-.5.2v-.4l4.8-4.8c0-.2.3-.2.4-.2v.4z"/>
    <path d="M1.8 6.6c1.4 1 2 1 3.2 1l.5.2c.6.2 1 .6 1.6 1l.5.6c.3-.2.8-.4 1.2-.4.5 0 1 .2 1.2.4L11.3 8l-2-1.4C9 6 8.7 6 8.5 5v-.4c-.3-1-.6-2.2-1.4-3C5.6.3 1.8 0 1.5.2L1 .7l3.5 3.2-.6.6L.4 1l-.2.3-.2.2c0 .2.3 4 1.8 5zm3-1.3l1-.7c0-.2.6-.2 1 0 .2.4.2 1 0 1l-.8.8c-.2.3-.6.2-1 0-.3-.4-.3-.8 0-1zM20 15.2l-7-5.6-1.5 1.6c.3.3.5.7.5 1.2s-.2 1-.6 1.5l4.6 5.3c1 1 3.2 1 4 0 1.2-1.2 1.2-3 0-4zM19 18c-.6.5-1.5.5-2 0-.6-.5-.6-1.4 0-2 .6-.5 1.5-.5 2 0 .5.6.5 1.5 0 2z"/>
  </g>
</svg>
