<svg xmlns="http://www.w3.org/2000/svg" viewBox="0 0 21 21">
  <g fill="currentColor">
    <path d="M15.3 11.5c.5-.7 1-1.5 1-2.4l-2.4.6c0 .2-.2.4-.3.5.4.6 1 1 1.6 1.5zM11.7 9v-.2c-.8-1-1.3-2.2-1.7-3-.3 0-.6-.2-.8-.5-.7.5-1.3 1-1.8 1.7.2.2.3.5.3.7V8c1 .7 2.4 1 4 1zM11 4.4v.3c0 .4 0 .7-.4 1 .3.7.8 1.7 1.6 2.8l.6-.2c.5 0 1 .3 1 .7.8 0 1.7-.3 2.6-.5V8c0-1.8-.8-3.4-2-4.5-1.2.2-2.3.4-3.3 1zM6 6.8l.5-.2H7L8.7 5v-.4c0-.4.2-.8.6-1V2c-2 .5-3.6 2-4.4 3.7.2.2.5.7 1 1z"/>
    <path d="M13 10.4H13c-.5 0-1-.2-1-.7-2 0-3.5-.5-4.5-1l-.7.2h-.2C6 10 6 11.3 6 11.5l-.6-.7c0-.7.2-1.4.5-2.3-.4-.3-.5-.6-.5-1v-.3l-.7-1L4.6 8c0 3.3 2.7 6 6 6 1.6 0 3.2-.8 4.3-2-.8-.5-1.4-1-2-1.6zM10 3.5c.4 0 .7.2 1 .4.8-.5 1.8-.7 3-1-1-.5-2.2-1-3.4-1H10v1.5z"/>
    <path d="M12.6 16.8h-1V15c0-.3-.2-.6-.5-.6h-1c-.4 0-.7.3-.7.6v1.8h-1c-.2 0-.5.3-.5.6v1.2c0 .3.3.6.6.6h4.2c.3 0 .6-.3.6-.6v-1.2c0-.4-.2-.6-.6-.6zM21 18.4c0 .3-.3.6-.6.6H14c-.2 0-.5-.3-.5-.6v-.6c0-.3.3-.6.6-.6h6.4c.3 0 .6.3.6.6v.6zM7.6 18.4c0 .3-.3.6-.6.6H.6c-.3 0-.6-.3-.6-.6v-.6c0-.3.3-.6.6-.6H7c.3 0 .6.3.6.6v.6z"/>
  </g>
</svg>
