<?xml version="1.0" encoding="utf-8"?>
<!-- Generator: Adobe Illustrator 20.1.0, SVG Export Plug-In . SVG Version: 6.00 Build 0)  -->
<svg version="1.1" id="Layer_1" xmlns="http://www.w3.org/2000/svg" xmlns:xlink="http://www.w3.org/1999/xlink" x="0px" y="0px"
	 viewBox="0 0 21 21" style="enable-background:new 0 0 21 21;" xml:space="preserve">
<path d="M17.7,7.8C16,5.2,13.4,3.9,12,4.9L11.9,5c-0.1,0.1-0.7,0.2-1.4,0.2S9.2,5,9.1,5L8.9,4.9c-1.5-1-4.1,0.3-5.6,2.9
	s-1.8,5.5-0.2,6.4c1.2,0.8,3-0.5,3-0.5c1-0.7,2.6-1.2,3.8-1.2h1.3c1.1,0,2.9,0.6,3.8,1.2c0,0,1.8,1.3,3,0.5
	C19.4,13.2,19.3,10.3,17.7,7.8z M8.5,9.4H7.1v1.4H6V9.4H4.7V8.3h1.4V7h1.1v1.3h1.2V9.4z M14.6,11.6c-0.4,0-0.8-0.3-0.8-0.8
	c0-0.4,0.3-0.8,0.8-0.8c0.4,0,0.8,0.3,0.8,0.8S15,11.6,14.6,11.6z M14.6,8.7c-0.4,0-0.8-0.3-0.8-0.8c0-0.4,0.3-0.8,0.8-0.8
	c0.4,0,0.8,0.3,0.8,0.8C15.4,8.3,15,8.7,14.6,8.7z M16.3,10.1c-0.4,0-0.8-0.3-0.8-0.8c0-0.4,0.3-0.8,0.8-0.8c0.4,0,0.8,0.3,0.8,0.8
	C17,9.8,16.8,10.1,16.3,10.1z"/>
</svg>
