<svg xmlns="http://www.w3.org/2000/svg" width="19" height="18" viewBox="0 0 19 18">
  <g fill-rule="evenodd">
    <path d="M8 2L4 6 0 6 0 12 4 12 8 16 8 2zM7 4.414L7 13.586 4.707 11.293 4.414 11 4 11 1 11 1 7 4 7 4.414 7 4.707 6.707 7 4.414zM10 17C14.411 17 18 13.411 18 9 18 4.589 14.411 1 10 1L10 0C14.963 0 19 4.038 19 9 19 13.963 14.963 18 10 18L10 17z"/>
    <path d="M10,15 L10,14 C12.757,14 15,11.757 15,9 C15,6.243 12.757,4 10,4 L10,3 C13.309,3 16,5.691 16,9 C16,12.309 13.309,15 10,15"/>
    <path d="M10,12 L10,11 C11.103,11 12,10.103 12,9 C12,7.897 11.103,7 10,7 L10,6 C11.654,6 13,7.346 13,9 C13,10.654 11.654,12 10,12"/>
  </g>
</svg>
