<svg xmlns="http://www.w3.org/2000/svg" width="16" height="10" viewBox="0 0 16 10">
  <g fill="none" fill-rule="evenodd" stroke="#23232C" transform="translate(0 1)" stroke-linejoin="round">
    <path d="M5,7.51856 L2.998,7.51856 C1.619,7.51856 0.5,6.40056 0.5,5.02056 L0.5,3.01756 C0.5,1.63756 1.619,0.51856 2.998,0.51856 L7.002,0.51856 C8.381,0.51856 9.5,1.63756 9.5,3.01756 L9.5,4.99956"/>
    <path d="M11,0.49996 L13.002,0.49996 C14.382,0.49996 15.5,1.61896 15.5,2.99796 L15.5,5.00196 C15.5,6.38196 14.382,7.49996 13.002,7.49996 L8.998,7.49996 C7.619,7.49996 6.5,6.38196 6.5,5.00196 L6.5,3.01896"/>
  </g>
</svg>
