<svg xmlns="http://www.w3.org/2000/svg" width="20" height="20" viewBox="0 0 20 20">
  <g fill="none" fill-rule="evenodd">
    <circle cx="10" cy="10" r="10" fill="#F3203B"/>
    <path fill="#FFFFFF" d="M8.926,12.088 C8.91666662,12.013333 8.90966669,11.9410003 8.905,11.871 C8.90033331,11.8009997 8.898,11.728667 8.898,11.654 C8.898,11.2433313 8.96333268,10.8886682 9.094,10.59 C9.22466732,10.2913318 9.39033233,10.0323344 9.591,9.813 C9.79166767,9.59366557 10.0086655,9.40233415 10.242,9.239 C10.4753345,9.07566585 10.6923323,8.91233415 10.893,8.749 C11.0936677,8.58566585 11.2593327,8.41766753 11.39,8.245 C11.5206673,8.07233247 11.586,7.86466788 11.586,7.622 C11.586,7.2953317 11.450668,7.03400098 11.18,6.838 C10.909332,6.64199902 10.4893362,6.544 9.92,6.544 C9.63066522,6.544 9.36466788,6.58599958 9.122,6.67 C8.87933212,6.75400042 8.65533436,6.85433275 8.45,6.971 C8.24466564,7.08766725 8.06266746,7.20899937 7.904,7.335 C7.74533254,7.46100063 7.60533394,7.56599958 7.484,7.65 L6.602,6.474 C6.82600112,6.23133212 7.08033191,6.0166676 7.365,5.83 C7.64966809,5.6433324 7.95066508,5.48933394 8.268,5.368 C8.58533492,5.24666606 8.91199832,5.15566697 9.248,5.095 C9.58400168,5.03433303 9.9153317,5.004 10.242,5.004 C11.2593384,5.004 12.0503305,5.21633121 12.615,5.641 C13.1796695,6.06566879 13.462,6.63732974 13.462,7.356 C13.462,7.83200238 13.3896674,8.22633177 13.245,8.539 C13.1003326,8.85166823 12.9160011,9.11766557 12.692,9.337 C12.4679989,9.55633443 12.227668,9.74999916 11.971,9.918 C11.714332,10.0860008 11.4763344,10.2656657 11.257,10.457 C11.0376656,10.6483343 10.8533341,10.8699987 10.704,11.122 C10.5546659,11.3740013 10.48,11.695998 10.48,12.088 L8.926,12.088 Z M8.646,14.076 C8.646,13.7493317 8.74866564,13.4903343 8.954,13.299 C9.15933436,13.1076657 9.42999832,13.012 9.766,13.012 C10.1206684,13.012 10.4006656,13.1076657 10.606,13.299 C10.8113344,13.4903343 10.914,13.7493317 10.914,14.076 C10.914,14.4026683 10.8113344,14.663999 10.606,14.86 C10.4006656,15.056001 10.1206684,15.154 9.766,15.154 C9.42999832,15.154 9.15933436,15.056001 8.954,14.86 C8.74866564,14.663999 8.646,14.4026683 8.646,14.076 Z"/>
  </g>
</svg>
