<svg xmlns="http://www.w3.org/2000/svg" width="56" height="56" viewBox="0 0 56 56">
  <path fill="#F3203B" fill-rule="evenodd" d="M-5.68434189e-14,29.3149931 L-5.68434189e-14,56 L56,56 L56,0 L-5.68434189e-14,0 L-5.68434189e-14,28.5941599 C0.000867561325,28.0288175 0.00250613681,27.7465873 0.00491572639,27.7474695 C0.161195661,26.3706733 0.460307268,25.0866774 0.902254483,23.8954608 C1.50784096,22.2631739 2.3556493,20.8601618 3.44570496,19.6863824 C4.53576061,18.512603 5.84207755,17.6047717 7.36469497,16.9628611 C8.88731239,16.3209505 10.5829291,16 12.4515959,16 C13.9050035,16 15.3583892,16.2292503 16.8117967,16.6877579 C18.2652043,17.1462655 19.5715212,17.8340165 20.7307867,18.7510316 C21.8900523,19.6680468 22.8330228,20.7867884 23.5597266,22.1072902 C24.2864303,23.427792 24.6497768,24.9500143 24.6497768,26.6740028 C24.6497768,28.5447136 24.2258726,30.1953161 23.3780515,31.6258597 C22.5302305,33.0564033 21.2585179,34.0284248 19.5628758,34.6519945 C21.5699624,35.1288424 23.1444636,36.1558839 24.2864267,37.7331499 C25.4283898,39.310416 25.9993627,41.1994388 25.9993627,43.4002751 C25.9993627,45.4177084 25.6273652,47.2150311 24.8833589,48.7922971 C24.1393527,50.3695631 23.1444756,51.6900451 21.8986977,52.7537827 C20.6529198,53.8175202 19.2168363,54.6244814 17.590404,55.1746905 C15.9639718,55.7248996 14.2683551,56 12.5035031,56 C10.4618115,56 8.60182383,55.6882195 6.92348418,55.0646492 C5.24514452,54.441079 3.8177121,53.5332476 2.64114409,52.3411279 C1.52072349,51.2058978 0.634014416,49.829529 -1.32617498e-07,48.2119837 C-1.32617498e-07,48.2097207 -1.32617498e-07,46.1473126 -1.32617498e-07,42.0247593 L6.01510901,42.0247593 C6.04971395,43.0518162 6.20543385,44.0330077 6.48227338,44.9683631 C6.75911291,45.9037186 7.15706377,46.7106798 7.67613789,47.389271 C8.19521201,48.0678622 8.84404493,48.608893 9.62265611,49.0123796 C10.4012673,49.4158663 11.3269356,49.6176066 12.3996888,49.6176066 C14.060726,49.6176066 15.4622051,49.0765758 16.6041681,47.9944979 C17.7461312,46.9124201 18.3171042,45.4360479 18.3171042,43.565337 C18.3171042,42.0981128 18.0489199,40.9793711 17.5125433,40.2090784 C16.9761667,39.4387857 16.2927294,38.8794149 15.4622108,38.5309491 C14.6316922,38.1824834 13.7233261,37.9807431 12.7370853,37.9257221 C11.7508444,37.8707012 10.8078739,37.8431912 9.90814545,37.8431912 L9.90814545,32.3411279 C10.7040591,32.4144891 11.5518674,32.4144891 12.4515959,32.3411279 C13.3513244,32.2677667 14.1904816,32.0568564 14.9690928,31.7083906 C15.747704,31.3599249 16.3878858,30.8555741 16.8896575,30.1953232 C17.3914291,29.5350724 17.6423112,28.654751 17.6423112,27.5543329 C17.6423112,25.9037056 17.1232448,24.6382437 16.0850966,23.7579092 C15.0469484,22.8775747 13.8530958,22.437414 12.5035031,22.437414 C10.6348362,22.437414 9.22470603,23.088485 8.27307014,24.3906465 C7.32143425,25.692808 6.86292566,27.3342404 6.8975306,29.3149931 L-5.68810407e-14,29.3149931 Z"/>
</svg>
