<svg xmlns="http://www.w3.org/2000/svg" width="56" height="56" viewBox="0 0 56 56">
  <g fill="none" fill-rule="evenodd">
    <rect width="56" height="56" fill="#F3203B"/>
    <path fill="#FFFFFF" d="M0.0126402056,31.8543417 L7.58509567,31.8543417 C7.58509567,30.8085849 7.68848504,29.7535067 7.89526687,28.6890756 C8.1020487,27.6246445 8.44981293,26.6535992 8.93856999,25.7759104 C9.42732705,24.8982216 10.0758603,24.1886115 10.8841893,23.6470588 C11.6925183,23.1055062 12.6794168,22.8347339 13.8449144,22.8347339 C15.5743625,22.8347339 16.9936165,23.3669415 18.102719,24.4313725 C19.2118216,25.4958036 19.7663646,26.9803826 19.7663646,28.8851541 C19.7663646,30.0803048 19.4937926,31.1447199 18.9486405,32.0784314 C18.4034884,33.0121429 17.726758,33.8524706 16.918429,34.5994398 C16.1101,35.346409 15.2171919,36.0280081 14.2396777,36.6442577 C13.2621636,37.2605073 12.3410584,37.8674106 11.4763343,38.464986 C9.78448298,39.6227882 8.1772483,40.7618992 6.65458207,41.8823529 C5.13191585,43.0028067 3.80665217,44.2259504 2.67875126,45.5518207 C1.55085035,46.877691 0.657942195,48.3193193 -3.80140364e-13,50 C0.00842680372,51.1577855 0.00842680372,53.1577855 0,56 L28,56 L28,49.1652661 L9.33333333,49.1652661 C10.3108475,47.8207216 11.4387314,46.6442627 12.7170191,45.6358543 C13.9953068,44.6274459 15.3111715,43.6844115 16.6646526,42.8067227 C18.0181337,41.9290339 19.3621954,41.0420213 20.6968781,40.1456583 C22.0315609,39.2492952 23.2252381,38.2502389 24.2779456,37.1484594 C25.3306531,36.0466798 26.1765661,34.7861882 26.81571,33.3669468 C27.4548538,31.9477053 27.7744209,30.2483759 27.7744209,28.2689076 C27.7744209,26.3641361 27.4078587,24.6461328 26.6747231,23.1148459 C25.9415875,21.5835591 24.954689,20.2950566 23.713998,19.2492997 C22.473307,18.2035429 21.0352549,17.400563 19.3997986,16.8403361 C17.7643423,16.2801092 16.0443192,16 14.2396777,16 C11.8710858,16 9.77510143,16.4014899 7.95166163,17.2044818 C6.12822183,18.0074737 4.61497748,19.1279106 3.41188318,20.5658263 C2.20878888,22.003742 1.30648169,23.6843975 0.704934542,25.6078431 C0.103387392,27.5312888 0.0237818886,29.6160296 0.0126402056,31.8543417 Z"/>
  </g>
</svg>
