<svg xmlns="http://www.w3.org/2000/svg" width="88" height="56" viewBox="0 0 88 56">
  <g fill="none" fill-rule="evenodd">
    <rect width="88" height="56" fill="#F3203B" rx="4"/>
    <g fill="#FFFFFF" transform="translate(13 13)">
      <path d="M18.1890368 15.9248143C18.2508592 13.988714 16.4783206 12.413761 14.5848668 12.4098415 12.6588156 12.4057651 10.9666462 13.9981994 10.947698 15.8661778 10.9274652 17.8474313 12.6823403 19.3991022 14.5537147 19.4085875 16.449256 19.4181512 18.2317505 17.865226 18.1890368 15.9248143M14.0884403 21.3252468C12.2901289 21.2816614 10.586157 20.2888398 9.46556437 18.3663795 8.94649645 17.4759365 8.80856007 16.4948734 8.87118544 15.4773586 9.02509931 12.9770785 11.1542814 11.0370587 13.2605812 10.6171967 15.9704931 10.0770045 18.3560377 11.1867855 19.6474852 13.3735801 20.1377294 14.2038189 20.3206275 15.1129974 20.2953365 16.0657613 20.2533454 17.6515323 19.5783564 18.9401231 18.3639863 19.9721402 17.275429 20.8973889 16.0009226 21.330891 14.0884403 21.3252468M2.58597151 19.3704317C2.7958185 19.3704317 2.98583867 19.3842513 3.1732417 19.3680114 3.84663956 19.3096103 4.44057156 19.0726488 4.9080878 18.5759274 5.19613174 18.2700244 5.41525767 17.9193057 5.54968346 17.5240835 5.89657337 16.5040948 5.87222604 15.4822322 5.49813374 14.4783272 5.22341343 13.7411308 4.68880325 13.2366018 3.93435338 12.9691905 3.54876153 12.8324008 3.14714962 12.7816512 2.7389552 12.778372 2.69041916 12.7779816 2.64196243 12.7875069 2.58597151 12.7932065L2.58597151 19.3704317zM.621213692 12.7765763L0 12.7765763 0 10.8560555C.0772452618 10.852464.144973654 10.8466864.212702045 10.8466083.980396229 10.8459837 1.74816972 10.8387226 2.51562598 10.8482479 3.35541045 10.858632 4.16846839 11.0118958 4.9321179 11.3659718 6.14480506 11.9284334 6.93296052 12.8740935 7.40523519 14.0870088 7.72642956 14.9119629 7.79939223 15.771583 7.72111597 16.6486921 7.63990535 17.5584371 7.37993618 18.4100933 6.91226133 19.2004597 6.51398031 19.873165 6.00046587 20.4284436 5.28336971 20.781895 4.80260916 21.0189347 4.29424968 21.1750092 3.76233596 21.2373921 3.35398292 21.2852529 2.9413473 21.311955 2.53021851 21.3186696 1.76276225 21.3310837.994909456 21.3222611.227294579 21.3222611L.00658250178 21.3222611.00658250178 19.3857347.621213692 19.3857347.621213692 12.7765763zM13.9960033 3.95346299C14.0237704 3.96562306 14.0351371 3.97499484 14.0465037 3.97499484 14.6697218 3.97623408 15.2939954 3.99854045 15.9157521 3.96988296 16.3549114 3.94974527 16.7235161 3.74883305 16.8902002 3.33662995 17.0622428 2.91133735 16.9930685 2.50742169 16.6588885 2.1637642 16.4257906 1.92397074 16.1359406 1.80632014 15.7916118 1.80841136 15.2332649 1.81174182 14.674918 1.81197418 14.1165711 1.81429776 14.0793859 1.81445267 14.0422006 1.82157831 13.9960033 1.82638038L13.9960033 3.95346299zM13.991213 5.78638038L13.991213 7.78094148 13.991213 9.74212048 12.1094614 9.74212048 12.1094614 1.8227401 11.5418587 1.8227401C11.4894097 1.6615611 11.4749578.267335628 11.5186383.0206488812 11.5656475.0166987952 11.6158233.00879862306 11.6659178.00879862306 13.0688892.00709466437 14.4717795.000511187608 15.8747509.00763683305 16.5456278.0111222031 17.1688459.189495697 17.7284918.550115318 18.4025352.98446988 18.7820195 1.59518417 18.905023 2.35654389 18.9720864 2.77169019 18.952763 3.18466781 18.8551721 3.59346299 18.6914921 4.27907401 18.2866764 4.80629432 17.6817261 5.19952151 17.6235937 5.23731842 17.5652178 5.27496041 17.4974237 5.31879862 17.5220245 5.36976248 17.5408606 5.41429776 17.5642435 5.45650947 17.9955273 6.23374699 18.4301399 7.0092031 18.855984 7.78907401 18.922479 7.9108296 18.999204 7.96233563 19.1418556 7.94963339 19.2688375 7.93824785 19.3979304 7.94723236 19.5419623 7.94723236L19.5419623 9.73677625 17.7957987 9.73677625C17.7663266 9.68658692 17.7305216 9.62903959 17.6982078 9.5697883 17.0473037 8.37810155 16.3979423 7.18564028 15.7454145 5.99480551 15.6111254 5.74974527 15.6794066 5.78885886 15.3777028 5.787 14.9944837 5.78459897 14.6111835 5.78638038 14.2279645 5.78638038L13.991213 5.78638038zM29.9193841 18.2885483C30.284931 18.8802786 30.6400945 19.4551561 31 20.0377154 30.9306679 20.0911741 30.8767066 20.1358537 30.8195567 20.1763789 29.7956002 20.9013642 28.6509665 21.2838058 27.3751906 21.3224498 25.0757034 21.3919775 22.9490559 20.1853148 21.9395708 18.2174529 21.4737867 17.309438 21.3432985 16.3467886 21.4297183 15.3451818 21.6349347 12.9643079 23.7122813 11.0738122 25.8154638 10.6374415 26.8808724 10.4163166 27.9450546 10.4168653 28.9936208 10.7308767 29.4437071 10.865621 29.8650958 11.0687172 30.2783903 11.286393 30.3926083 11.3465929 30.4459973 11.4179235 30.4435445 11.5518055 30.434551 12.0469652 30.4401106 12.54236 30.4396201 13.0377549 30.4396201 13.0873728 30.4353686 13.1371474 30.4330793 13.1850408 30.2903272 13.223136 28.7128585 13.2336397 28.4348761 13.1965634L28.4348761 12.6184721C27.1512512 12.1612509 25.2600712 12.3962499 24.0941801 14.0660127 23.2879492 15.2206276 23.2517297 17.2450837 24.8028718 18.533659 26.1806837 19.6782406 28.4706867 19.7521579 29.9193841 18.2885483M6.00299609 5.29055926C6.13595469 5.34147854 7.32571185 5.35180211 7.5381223 5.30616105 7.51823913 5.09767146 6.83283554 3.12827535 6.7427955 3.03404364 6.49514496 3.78952734 6.24903011 4.54027616 6.00299609 5.29055926M5.7801591 0L7.69945078 0C8.61609725 2.6414374 9.53427941 5.28768729 10.4573919 7.94783132L11.0306092 7.94783132C11.0783773 8.09492282 11.0862982 9.54697599 11.0432988 9.74801398L9.07809806 9.74801398C8.78203281 8.88424921 8.48596756 8.02025157 8.1870734 7.14810374L5.39825675 7.14810374C5.11180978 8.01637052 4.82584777 8.88331776 4.5368952 9.75903614L2.58333333 9.75903614 2.58333333 7.9593192 3.17336236 7.9593192C4.04393807 5.30119332 4.90950257 2.65866923 5.7801591 0M23.4238444 1.80335339L22.1644595 1.80335339 22.1644595 2.33945397C22.0062857 2.37949048 20.5453084 2.38788649 20.297619 2.35274764L20.297619 0 28.4166667 0 28.4166667 2.35655694 26.5676806 2.35655694 26.5676806 1.79969957C26.139743 1.78625042 25.7342856 1.79666768 25.3023713 1.79278064 25.2806214 2.04201766 25.2951484 2.28215899 25.2923891 2.52121196 25.2897921 2.76368552 25.2919022 3.00608135 25.2919022 3.24855491L25.2919022 3.95724006 25.2919022 4.68450527 25.2919022 5.41177048 25.2919022 6.13903568C25.2919022 6.38150924 25.290766 6.62390507 25.2921456 6.86637863 25.2936064 7.10877445 25.298557 7.35109253 25.2999366 7.59341061 25.3013975 7.82966491 25.3002613 8.06584147 25.3002613 8.30209577L25.3002613 9.02936097 25.3002613 9.75903614 23.4238444 9.75903614 23.4238444 1.80335339zM13.4083373 26.7549144L11.1145607 26.7549144C11.0722521 26.9039589 11.0598992 28.2272024 11.0953366 28.516092L13.4203813 28.516092 13.4203813 28.061696 14.7619048 28.061696 14.7619048 30 9.67930978 30C9.66865541 28.920376 9.67197525 27.8393802 9.67174364 26.758465 9.67135761 25.6819882 9.67166643 24.6055113 9.67166643 23.5054713L9.22619048 23.5054713 9.22619048 22.0481928 14.7580445 22.0481928 14.7580445 23.9648703C14.3212156 23.9834303 13.8862395 23.9710032 13.4281791 23.9715681L13.4281791 23.5159617 11.0893145 23.5159617 11.0893145 25.2842404 13.4083373 25.2842404 13.4083373 26.7549144zM16.7041508 27.8881559C17.0770406 28.1469015 17.4614163 28.3348604 17.88025 28.4555408 18.2662434 28.5667101 18.6576564 28.6562069 19.0626583 28.6228405 19.2597803 28.6065471 19.4636968 28.5717775 19.6457738 28.500601 20.1810849 28.2915932 20.2835689 27.6757959 19.837719 27.3195237 19.600477 27.1298498 19.3346818 26.9680071 19.065004 26.8224578 18.4955585 26.5150659 17.9113106 26.2331665 17.3411371 25.9268661 17.1338234 25.8154628 16.9365396 25.6786449 16.7572128 25.5283402 15.8712558 24.7861715 16.0001091 23.7645982 16.4840569 23.1007782 16.8931032 22.539708 17.4727405 22.2291198 18.1635168 22.120601 19.031355 21.9841729 19.877839 22.0874685 20.694961 22.3988363 20.952991 22.4971425 21.2040647 22.6125996 21.4651684 22.7231453L21.4651684 24.0446265 20.0124352 24.0446265 20.0124352 23.6178016C19.7848188 23.5015648 19.5532389 23.4480071 19.3193941 23.4057534 18.9910732 23.3464266 18.6616198 23.3515719 18.3392037 23.4381063 18.2162552 23.4711609 18.092417 23.5197293 17.9858886 23.5863062 17.6564352 23.7919617 17.6252128 24.2138753 17.9172963 24.4663062 18.0177581 24.5532303 18.1279264 24.633606 18.2447275 24.6983118 18.6368684 24.9156612 19.0350758 25.1227201 19.4289153 25.3374968 19.7719577 25.5246761 20.1213902 25.7033579 20.45052 25.9113522 20.7031306 26.0709341 20.9409388 26.2575677 21.1641065 26.4544918 22.0594463 27.245073 21.8949219 28.8010546 20.9151358 29.4616782 20.5465331 29.7102112 20.138781 29.8574755 19.7011815 29.9292757 18.392023 30.1439745 17.1864 29.8600482 16.0590758 29.2118979 16.0203309 29.1896797 15.9838508 29.1635634 15.9473706 29.137837 15.9374215 29.1308207 15.9314359 29.1185811 15.9061991 29.08654 16.1641482 28.6990843 16.427355 28.3037548 16.7041508 27.8881559M8.09384981 23.9682096L6.77222344 23.9682096 6.77222344 23.5147983 4.43664847 23.5147983C4.42562142 24.0949194 4.43919317 24.677381 4.4337182 25.2854266L6.76065661 25.2854266 6.76065661 26.7580851 4.43780515 26.7580851 4.43780515 30 3.03212646 30C3.02187054 27.8452069 3.02749973 25.688154 3.02510925 23.5063241L2.58333333 23.5063241 2.58333333 22.0481928 8.07811891 22.0481928C8.12114753 22.1982269 8.13626153 23.702926 8.09384981 23.9682096M26.006065 30L24.5721032 30 24.5721032 23.5372021 23.5980132 23.5372021 23.5980132 23.9589692C23.4453335 24.0012024 22.4553062 24.0128084 22.1748091 23.98065 22.1362408 23.8396042 22.1296268 22.2731095 22.1713826 22.0559797 24.2465034 22.0615409 26.3261663 22.0385706 28.4166667 22.0530781L28.4166667 23.9768619 26.9891595 23.9768619 26.9891595 23.5235005C26.6564676 23.520599 26.3424224 23.5191482 26.006065 23.5254348L26.006065 30z"/>
    </g>
  </g>
</svg>
