<svg xmlns="http://www.w3.org/2000/svg" width="34" height="32" viewBox="0 0 34 32">
  <g fill="none" fill-rule="evenodd">
    <path fill="#fff" d="M28.8268434,25.5611846 C30.8187958,22.8935809 31.9981645,19.583736 31.9981645,15.9984348 L31.9981645,15.9984348 C31.9981645,7.16274323 24.8354212,7.25873354e-15 15.9997297,8.8817842e-15 L15.9997297,5.37699225e-15 L15.9984348,5.37699225e-15 L15.9984348,7.10542736e-15 C7.16274323,8.72847801e-15 8.27777517e-14,7.16274323 7.99360578e-14,15.9984348 L7.9632698e-14,15.9984348 L7.99360578e-14,15.9984348 C8.10180915e-14,24.8341263 7.16274319,31.9968695 15.9984347,31.9968696 L34,31.9982609 L28.8268434,25.5611846 Z"/>
    <path fill="rgb(35,35,44)" d="M9,14 L9,14 L9,14 C10.1045695,14 11,14.8954305 11,16 L11,16 L11,16 C11,17.1045695 10.1045695,18 9,18 L9,18 L9,18 C7.8954305,18 7,17.1045695 7,16 L7,16 L7,16 C7,14.8954305 7.8954305,14 9,14 Z"/>
    <rect width="4" height="4" x="14" y="14" fill="rgb(35,35,44)" rx="2"/>
    <rect width="4" height="4" x="21" y="14" fill="rgb(35,35,44)" rx="2"/>
  </g>
</svg>
