<svg xmlns="http://www.w3.org/2000/svg" width="64" height="37" viewBox="0 0 64 37">
  <g fill="none" fill-rule="evenodd" transform="translate(0 -13)">
    <rect width="64" height="64"/>
    <path fill="#FFFFFF" fill-rule="nonzero" d="M38.1167063,47.6463129 L37.5868476,49.2494364 L38.6405438,49.2494364 L38.1167063,47.6463129 Z M15.0964555,13.7142857 L15.0768869,13.7142857 L15.0768869,13.7142857 L15.0964555,13.7142857 L15.0964555,13.7142857 Z M19.9314157,15.0524798 C19.9314157,15.0524798 19.9314157,15.0600062 19.9314157,15.0645221 C19.9314157,15.0690379 19.9314157,15.0645221 19.9314157,15.0750591 L19.9314157,15.0524798 Z M19.2419973,14.4819786 C18.8430981,14.4819786 18.552579,14.7333604 18.552579,15.0404376 L18.552579,15.085596 C18.552579,15.359557 18.8084766,15.6154547 19.2419973,15.6154547 C19.675518,15.6154547 19.922384,15.3384831 19.9299104,15.0630168 C19.8942289,14.7156207 19.5905251,14.458436 19.2419973,14.4804734 L19.2419973,14.4819786 Z M30.1823741,13.7142857 L28.6364513,13.7142857 L28.6364513,14.1974807 L29.5245666,14.1974807 C29.9144342,14.1974807 30.1417315,14.0032995 30.1808688,13.7142857 L30.1823741,13.7142857 Z M33.9290166,13.7142857 L33.5782863,13.7142857 L33.2245455,14.5783166 L34.2782416,14.5783166 L33.9290166,13.7142857 Z M43.653127,13.7142857 L41.4749865,13.7142857 C41.402614,13.8810365 41.3652148,14.0608601 41.365101,14.2426391 L41.365101,14.2546813 C41.3515636,14.5825781 41.4724351,14.9017965 41.6997549,15.1384932 C41.9270746,15.3751899 42.2411492,15.5088591 42.5693252,15.5085798 C42.8950924,15.5100968 43.2072907,15.378238 43.4333408,15.1436577 C43.6593909,14.9090775 43.7796003,14.5922112 43.766023,14.2667236 L43.766023,14.2546813 C43.7668516,14.0686106 43.7283804,13.8844619 43.653127,13.7142857 L43.653127,13.7142857 Z M46.6983089,14.9606578 L47.1152715,13.7142857 L46.3234941,13.7142857 L46.6983089,14.9606578 Z M49.239222,14.9606578 L49.6200579,13.7142857 L48.8282805,13.7142857 L49.239222,14.9606578 Z M19.2419973,35.2021612 C18.8430981,35.2021612 18.552579,35.3843001 18.552579,35.6928825 L18.552579,35.7049248 C18.552579,35.9788858 18.8084766,36.200162 19.2419973,36.200162 C19.675518,36.200162 19.9314157,35.9834016 19.9314157,35.7049248 L19.9314157,35.6913772 C19.9314157,35.3903212 19.6408966,35.2006559 19.2419973,35.2006559 L19.2419973,35.2021612 Z M19.2419973,33.5448476 C18.8837406,33.5448476 18.6730014,33.761608 18.6730014,34.0069686 L18.6730014,34.0190109 C18.6730014,34.2974877 18.8957829,34.5097322 19.2419973,34.5097322 C19.5882118,34.5097322 19.8124985,34.3050141 19.8124985,34.025032 L19.8124985,34.0129898 C19.8124985,33.7676291 19.6017593,33.5463529 19.2419973,33.5463529 L19.2419973,33.5448476 Z M40.0028224,33.9046096 L39.4729638,35.1976453 L40.5266599,35.1976453 L40.0028224,33.9046096 Z M35.6751417,33.6697859 L34.8035844,33.6697859 L34.8035844,34.8153041 L35.6916998,34.8153041 C36.1191994,34.8153041 36.3645601,34.5880068 36.3645601,34.250824 L36.3645601,34.2387818 C36.3645601,33.8624617 36.1026413,33.6697859 35.6751417,33.6697859 L35.6751417,33.6697859 Z M32.6314651,28.014448 L32.6314651,27.9993952 C32.6450024,27.6714984 32.5241309,27.35228 32.2968112,27.1155833 C32.0694915,26.8788867 31.7554169,26.7452174 31.4272409,26.7454968 C31.1014737,26.7439797 30.7892754,26.8758385 30.5632253,27.1104188 C30.3371752,27.3449991 30.2169658,27.6618653 30.2305431,27.987353 L30.2305431,27.9993952 C30.2170057,28.327292 30.3378772,28.6465104 30.5651969,28.8832071 C30.7925167,29.1199037 31.1065913,29.253573 31.4347673,29.2532936 C31.7599901,29.2547749 32.071701,29.123326 32.2976571,28.8894116 C32.5236133,28.6554973 32.6441982,28.3394249 32.6314651,28.014448 L32.6314651,28.014448 Z M39.4804902,21.455942 L40.5341863,21.455942 L40.0043277,20.1629063 L39.4804902,21.455942 Z M50.125832,34.8830417 L50.125832,34.8725048 C50.1393694,34.544608 50.0184979,34.2253896 49.7911782,33.9886929 C49.5638584,33.7519962 49.2497838,33.618327 48.9216078,33.6186063 C48.5958407,33.6170893 48.2836423,33.7489481 48.0575923,33.9835284 C47.8315422,34.2181086 47.7113327,34.5349749 47.72491,34.8604625 L47.72491,34.8725048 C47.7113727,35.2004016 47.8322442,35.51962 48.0595639,35.7563167 C48.2868836,35.9930133 48.6009582,36.1266826 48.9291342,36.1264032 C49.2549014,36.1279203 49.5670997,35.9960615 49.7931498,35.7614812 C50.0191999,35.5269009 50.1394093,35.2100347 50.125832,34.884547 L50.125832,34.8830417 Z M57.5378319,32.8795137 L56.1830797,36.8956014 L55.4199026,36.8956014 L54.5167345,34.2854455 L53.6135663,36.8956014 L52.8503893,36.8956014 L51.495637,32.8795137 L52.4349319,32.8795137 L53.2613308,35.5799865 L54.1554672,32.8704821 L54.9081073,32.8704821 L55.8022438,35.5799865 L56.6286427,32.8795137 L57.5378319,32.8795137 Z M51.0425477,34.8740101 C51.0419606,35.4307511 50.8162929,35.9636019 50.4168486,36.351423 C50.0174042,36.7392441 49.4781236,36.9490826 48.9216078,36.9332334 C47.6917939,36.9332334 46.8142155,36.0165178 46.8142155,34.8815365 L46.8142155,34.8709995 C46.8139532,34.3129289 47.0398806,33.7785782 47.4404081,33.3899644 C47.8409355,33.0013507 48.3818628,32.7916568 48.9396712,32.8087656 C50.1694851,32.8087656 51.0470635,33.7254812 51.0470635,34.8604625 L51.0425477,34.8740101 Z M44.8708987,34.572954 L46.5688548,36.8685064 L45.5151586,36.8685064 L44.2793236,35.1705503 L43.8172025,35.6492294 L43.8172025,36.8685064 L42.9396242,36.8685064 L42.9396242,32.8765032 L43.8172025,32.8765032 L43.8172025,34.6196177 L45.4353788,32.8765032 L46.489075,32.8765032 L44.8708987,34.572954 Z M45.8387939,23.1237925 L42.9787614,23.1237925 L42.9787614,19.1332946 L43.8563398,19.1332946 L43.8563398,22.3244887 L45.844815,22.3244887 L45.8387939,23.1237925 Z M43.4845356,26.0048989 L44.4810311,26.0048989 L42.9486558,28.4028103 L42.9486558,29.9923862 L42.0710775,29.9923862 L42.0710775,28.4208737 L40.5387022,26.0124253 L41.563798,26.0124253 L42.5151351,27.6140435 L43.4845356,26.0048989 Z M42.1297834,23.1207819 L41.2130677,23.1207819 L40.8487899,22.2266455 L39.162876,22.2266455 L38.7985982,23.1207819 L37.9044617,23.1207819 L39.6144601,19.1046943 L40.4243009,19.1046943 L42.1297834,23.1207819 Z M37.8833878,19.1332946 L36.5286356,23.1493823 L35.7654585,23.1493823 L34.8622904,20.5407316 L33.9591222,23.1493823 L33.1959452,23.1493823 L31.8411929,19.1332946 L32.7804878,19.1332946 L33.6068867,21.8337673 L34.5010231,19.1242629 L35.2536632,19.1242629 L36.1477997,21.8337673 L36.9666722,19.1332946 L37.8833878,19.1332946 Z M33.5481807,27.9888582 L33.5481807,28.0009005 C33.548443,28.5589711 33.3225156,29.0933218 32.9219882,29.4819356 C32.5214607,29.8705493 31.9805334,30.0802432 31.422725,30.0631344 C30.1929111,30.0631344 29.3153327,29.1464187 29.3153327,28.0114374 L29.3153327,27.9993952 C29.3150704,27.4413246 29.5409978,26.9069739 29.9415253,26.5183601 C30.3420527,26.1297464 30.88298,25.9200525 31.4407884,25.9371613 C32.6721076,25.9371613 33.5481807,26.8538769 33.5481807,27.9888582 L33.5481807,27.9888582 Z M30.9154456,23.1207819 L30.0378672,23.1207819 L30.0378672,19.1332946 L30.9154456,19.1332946 L30.9154456,23.1207819 Z M29.5606934,32.8780085 L30.4382718,32.8780085 L30.4382718,34.621123 L32.0624691,32.8765032 L33.1161653,32.8765032 L31.4919679,34.5684382 L33.189924,36.8639905 L32.1362279,36.8639905 L30.9003928,35.1660344 L30.4382718,35.6447135 L30.4382718,36.8639905 L29.5606934,36.8639905 L29.5606934,32.8780085 Z M33.9260061,32.8780085 L35.7489004,32.8780085 C36.2561799,32.8780085 36.6520686,33.0210101 36.9109768,33.2829288 C37.143453,33.5283349 37.2667102,33.8573827 37.2526754,34.1951287 L37.2526754,34.2071709 C37.278589,34.7646788 36.9285161,35.270682 36.3976762,35.443006 L37.3715925,36.8670011 L36.3464967,36.8670011 L35.4914975,35.5905235 L34.8020792,35.5905235 L34.8020792,36.8670011 L33.9245008,36.8670011 L33.9260061,32.8780085 Z M37.1036527,27.4123359 L36.2004845,30.0224918 L35.4373074,30.0224918 L34.0825552,26.0064042 L35.0218501,26.0064042 L35.8482489,28.7068769 L36.7423854,25.9973725 L37.4950255,25.9973725 L38.389162,28.7068769 L39.2155608,26.0064042 L40.1322765,26.0064042 L38.7775243,30.0224918 L38.0143472,30.0224918 L37.1036527,27.4123359 Z M37.9014512,36.8654958 L39.6114495,32.8494081 L40.419785,32.8494081 L42.1297834,36.8654958 L41.2130677,36.8654958 L40.8487899,35.9713594 L39.162876,35.9713594 L38.7985982,36.8654958 L37.9014512,36.8654958 Z M29.0985723,19.9416301 L27.8853165,19.9416301 L27.8853165,23.1207819 L27.0077381,23.1207819 L27.0077381,19.9416301 L25.7944822,19.9416301 L25.7944822,19.1332946 L29.1060987,19.1332946 L29.0985723,19.9416301 Z M25.2014018,26.0048989 L26.255098,27.6908128 L27.3087941,26.0048989 L28.2541101,26.0048989 L28.2541101,29.9923862 L27.3825529,29.9923862 L27.3825529,27.3897567 L26.2596138,29.0937339 L26.2370346,29.0937339 L25.1156008,27.4123359 L25.1156008,29.9984074 L24.2545805,29.9984074 L24.2545805,26.0048989 L25.2014018,26.0048989 Z M25.1728015,21.9406422 C25.1728015,22.7324196 24.5706894,23.1764773 23.7081638,23.1764773 C23.0849513,23.1786861 22.4827131,22.9515073 22.0162288,22.5382385 L22.5340452,21.9165577 C22.8592812,22.2167685 23.2822812,22.3889631 23.7247219,22.401258 C24.0829786,22.401258 24.2997389,22.2582564 24.2997389,22.0249379 L24.2997389,22.0128957 C24.2997389,21.7901142 24.1627584,21.6772182 23.4959193,21.5056162 C22.6920996,21.3008981 22.1742832,21.0781167 22.1742832,20.2863392 L22.1742832,20.2773076 C22.1742832,19.5532678 22.7553214,19.0730834 23.569678,19.0730834 C24.1090041,19.065097 24.6341091,19.2461677 25.0538843,19.5848787 L24.6023003,20.2456967 C24.3042364,20.012933 23.9426349,19.8759548 23.5651622,19.8528185 C23.2294847,19.8528185 23.0518616,20.0033466 23.0518616,20.2005383 L23.0518616,20.2125805 C23.0518616,20.4744993 23.2219583,20.5603002 23.9113766,20.736418 C24.7197121,20.9471573 25.175812,21.2376764 25.175812,21.9331158 L25.1728015,21.9406422 Z M22.312769,16.2476724 L21.3900322,16.2476724 L21.3900322,15.3369778 L22.312769,15.3369778 L22.312769,16.2476724 Z M21.3207893,29.1930824 L23.3092645,29.1930824 L23.3092645,29.990881 L20.4492321,29.990881 L20.4492321,26.0048989 L21.3268105,26.0048989 L21.3207893,29.1930824 Z M21.2244514,23.1207819 L18.1883012,23.1207819 L18.1883012,19.1332946 L21.1988616,19.1332946 L21.1988616,19.9130297 L19.0598584,19.9130297 L19.0598584,20.7228705 L20.9399534,20.7228705 L20.9399534,21.5026057 L19.0598584,21.5026057 L19.0598584,22.3395415 L21.2244514,22.3395415 L21.2244514,23.1207819 Z M18.2846391,26.0048989 L19.1622175,26.0048989 L19.1622175,29.9923862 L18.2846391,29.9923862 L18.2846391,26.0048989 Z M19.2419973,32.8208078 C20.0849543,32.8208078 20.6434132,33.2994869 20.6434132,33.9151465 L20.6434132,33.9271888 C20.6556016,34.2909879 20.4584817,34.6296598 20.1361338,34.798746 C20.5410542,35.0094853 20.7803937,35.2653829 20.7803937,35.7380409 L20.7803937,35.7500832 C20.7803937,36.490681 20.1255968,36.9242017 19.2419973,36.9242017 C18.3583978,36.9242017 17.7036009,36.4726177 17.7036009,35.7726624 L17.7036009,35.7606201 C17.7036009,35.2759199 17.9263824,34.9914219 18.3478609,34.7972408 C18.025513,34.6281545 17.828393,34.2894826 17.8405814,33.9256835 L17.8405814,33.9136413 C17.8405814,33.3040028 18.3990404,32.8193025 19.2419973,32.8193025 L19.2419973,32.8208078 Z M18.2846391,39.7435916 L19.1622175,39.7435916 L19.1622175,43.731079 L18.2846391,43.731079 L18.2846391,39.7435916 Z M20.4447162,39.7435916 L21.3222946,39.7435916 L21.3222946,42.9347857 L23.3107698,42.9347857 L23.3107698,43.7325843 L20.4507374,43.7325843 L20.4447162,39.7435916 Z M22.6604887,34.545859 L22.6604887,35.8509369 C22.6604887,36.0496339 22.7462897,36.151993 22.9389656,36.151993 C23.0883517,36.1527128 23.2354653,36.1154164 23.3664652,36.0436128 L23.3664652,36.7450734 C23.1597435,36.8668357 22.9228913,36.9278747 22.6830679,36.9211912 C22.1532093,36.9211912 21.7949526,36.710452 21.7949526,36.0044755 L21.7949526,34.5579012 L21.4306748,34.5579012 L21.4306748,33.8173033 L21.7949526,33.8173033 L21.7949526,33.0375682 L22.6604887,33.0375682 L22.6604887,33.8173033 L23.3785074,33.8173033 L23.3785074,34.5579012 L22.6604887,34.545859 Z M24.015241,32.7003854 L24.8807771,32.7003854 L24.8807771,34.2387818 C25.0780454,33.9360175 25.4135737,33.7518724 25.7749136,33.7480604 C26.4297105,33.7480604 26.8120516,34.1815811 26.8120516,34.8815365 L26.8120516,36.8654958 L25.9465155,36.8654958 L25.9465155,35.1615186 C25.9465155,34.7505771 25.7523344,34.5413431 25.422678,34.5413431 C25.0930216,34.5413431 24.8807771,34.7520824 24.8807771,35.1630239 L24.8807771,36.8654958 L24.015241,36.8654958 L24.015241,32.7003854 Z M24.165769,39.7435916 L25.111085,39.7435916 L26.1647811,41.4295055 L27.2184773,39.7435916 L28.1637933,39.7435916 L28.1637933,43.731079 L27.292236,43.731079 L27.292236,41.1269442 L26.169297,42.8309214 L26.1467178,42.8309214 L25.035821,41.1450075 L25.035821,43.731079 L24.1763059,43.731079 L24.165769,39.7435916 Z M17.2550274,40.5413902 L15.1009714,40.5413902 L15.1009714,41.3903682 L17.0096667,41.3903682 L17.0096667,42.1881668 L15.1009714,42.1881668 L15.1009714,43.7325843 L14.223393,43.7325843 L14.223393,39.7556339 L17.2595432,39.7556339 L17.2550274,40.5413902 Z M17.2550274,26.7966763 L15.1009714,26.7966763 L15.1009714,27.6456543 L17.0096667,27.6456543 L17.0096667,28.4434529 L15.1009714,28.4434529 L15.1009714,29.9878704 L14.223393,29.9878704 L14.223393,26.0048989 L17.2595432,26.0048989 L17.2550274,26.7966763 Z M17.2550274,19.925072 L15.1009714,19.925072 L15.1009714,20.77405 L17.0096667,20.77405 L17.0096667,21.5718486 L15.1009714,21.5718486 L15.1009714,23.1207819 L14.223393,23.1207819 L14.223393,19.1332946 L17.2595432,19.1332946 L17.2550274,19.925072 Z M15.0783922,34.336625 C15.2491409,34.2904755 15.4253583,34.2676887 15.6022297,34.2688874 C16.377449,34.2688874 16.9976245,34.6452075 16.9976245,35.545365 L16.9976245,35.5574073 C16.9976245,36.4003642 16.3955124,36.936244 15.4818073,36.936244 C14.9227803,36.9475599 14.3833843,36.7300615 13.9885693,36.3341319 L14.5184279,35.7019142 C14.819484,35.9758752 15.12054,36.1354349 15.469765,36.1354349 C15.8807065,36.1354349 16.1366042,35.9367379 16.1366042,35.5829971 L16.1366042,35.5709548 C16.1366042,35.2292562 15.8460851,35.0305592 15.4306277,35.0305592 C15.2004921,35.035422 14.973697,35.0866173 14.7637886,35.1810872 L14.2565092,34.8454097 L14.3709105,32.8795137 L16.8200014,32.8795137 L16.8200014,33.6487119 L15.1235506,33.6487119 L15.0783922,34.336625 Z M64,49.7160732 L64,13.7142857 L60.5815086,13.7142857 L60.5815086,16.2491776 L59.7039302,16.2491776 L59.7039302,13.7142857 L57.3511772,13.7142857 L57.318061,13.7458966 L59.0160171,16.2476724 L57.962321,16.2476724 L56.7310017,14.2757552 L56.2688807,14.7544344 L56.2688807,16.2491776 L55.3943129,16.2491776 L55.3943129,13.7142857 L52.7495355,13.7142857 C52.8744737,13.7594441 53.0340334,13.8061078 53.2492885,13.8648137 C54.0591293,14.075553 54.5137239,14.3660721 54.5137239,15.0615115 L54.5137239,15.0690379 C54.5137239,15.8608153 53.9116118,16.304873 53.0490862,16.304873 C52.4264654,16.3083272 51.8242992,16.0827828 51.3571513,15.67115 L51.8749677,15.0509746 C52.2001292,15.3513025 52.6231751,15.5235159 53.0656443,15.5356748 C53.4254063,15.5356748 53.6406614,15.3926732 53.6406614,15.1593547 L53.6406614,15.1427967 C53.6406614,14.9200152 53.5036809,14.8071192 52.8368417,14.6355172 C52.1474234,14.4669258 51.6702495,14.2682288 51.5498271,13.7142857 L50.496131,13.7142857 L49.6275843,16.2732621 L48.8644072,16.2732621 L47.9732813,13.7142857 L47.9416704,13.7142857 L47.0580709,16.2732621 L46.2948938,16.2732621 L45.4248418,13.7142857 L44.6119905,13.7142857 C44.6596427,13.886445 44.6849385,14.0640216 44.6872545,14.2426391 L44.6872545,14.2546813 C44.6875168,14.8127519 44.4615894,15.3471027 44.0610619,15.7357164 C43.6605345,16.1243302 43.1196072,16.334024 42.5617988,16.3169153 C41.3319849,16.3169153 40.4544065,15.4001996 40.4544065,14.2652183 L40.4544065,14.2546813 C40.4545924,14.0721539 40.478887,13.8904506 40.5266599,13.7142857 L38.6285015,13.7142857 L38.5953854,13.7458966 L40.2933415,16.2476724 L39.2396453,16.2476724 L38.0038102,14.2757552 L37.5416892,14.7544344 L37.5416892,16.2491776 L36.6641108,16.2491776 L36.6641108,13.7142857 L34.8005739,13.7142857 L35.8783545,16.2491776 L34.9616389,16.2491776 L34.5973611,15.3550412 L32.9114472,15.3550412 L32.5471694,16.2491776 L31.6530329,16.2491776 L32.7293083,13.7142857 L31.0735,13.7142857 C31.0496906,14.224038 30.7128106,14.6658184 30.2275325,14.8236773 L31.2014488,16.2476724 L30.1808688,16.2476724 L29.3258697,14.9711947 L28.6364513,14.9711947 L28.6364513,16.2476724 L27.7588729,16.2476724 L27.7588729,13.7142857 L25.4512783,13.7142857 L25.4181621,13.7458966 L27.1161183,16.2476724 L26.0624221,16.2476724 L24.8250817,14.2757552 L24.3629607,14.7544344 L24.3629607,16.2491776 L23.4823718,16.2491776 L23.4823718,13.7142857 L20.5169697,13.7142857 C20.4206527,13.8648135 20.2888442,13.9893854 20.1331232,14.0770583 C20.5344319,14.2677132 20.786603,14.6760182 20.7773832,15.1202175 L20.7773832,15.1322597 C20.7773832,15.8728576 20.1225863,16.3063783 19.2389868,16.3063783 C18.3553873,16.3063783 17.7005904,15.8547942 17.7005904,15.1548389 L17.7005904,15.1427967 C17.676044,14.6889386 17.9315721,14.2662426 18.3448503,14.0770583 C18.1902279,13.9889906 18.0594858,13.8644496 17.9640144,13.7142857 L16.1064986,13.7142857 C16.6303361,13.8527715 17.000635,14.2336074 17.000635,14.9260363 L17.000635,14.9365733 C17.000635,15.7795302 16.3985229,16.31541 15.4848178,16.31541 C14.9257909,16.3267258 14.3863949,16.1092275 13.9915798,15.7132979 L14.5214385,15.0810802 C14.8224945,15.3550412 15.1235506,15.5146009 15.4727756,15.5146009 C15.8837171,15.5146009 16.1396147,15.3143986 16.1396147,14.962163 L16.1396147,14.9546366 C16.1396147,14.612938 15.8490957,14.4127357 15.4336383,14.4127357 C15.2035076,14.4176396 14.9767206,14.4688331 14.7667992,14.5632638 L14.2565092,14.226081 L14.2866148,13.7142857 L0,13.7142857 L0,49.7160732 L14.223393,49.7160732 L14.223393,46.6212171 L17.2595432,46.6212171 L17.2595432,47.4190156 L15.1009714,47.4190156 L15.1009714,48.2679936 L17.0096667,48.2679936 L17.0096667,49.0657922 L15.1009714,49.0657922 L15.1009714,49.7160732 L18.2455018,49.7160732 L18.2455018,46.6212171 L21.2560623,46.6212171 L21.2560623,47.4024575 L19.1170591,47.4024575 L19.1170591,48.210793 L20.9971541,48.210793 L20.9971541,48.9920334 L19.1170591,48.9920334 L19.1170591,49.7160732 L24.278665,49.7160732 C24.3290515,49.6614701 24.357467,49.5901633 24.3584449,49.515871 L24.3584449,49.5038287 C24.3584449,49.2810472 24.2214644,49.1681512 23.5546252,48.9965493 C22.7508056,48.7918312 22.2329892,48.5690497 22.2329892,47.7772723 L22.2329892,47.76523 C22.2329892,47.0411902 22.8140273,46.5610058 23.6283839,46.5610058 C24.1661453,46.5523209 24.6900501,46.7317477 25.1095797,47.0682853 L24.6579956,47.7291033 C24.359885,47.4964228 23.9983103,47.3594547 23.6208575,47.3362252 C23.28518,47.3362252 23.107557,47.4867532 23.107557,47.6839449 L23.107557,47.6959872 C23.107557,47.9579059 23.2791589,48.0437069 23.967072,48.2198247 C24.7769128,48.4305639 25.2315074,48.721083 25.2315074,49.4165225 L25.2315074,49.4285647 C25.2319418,49.5246341 25.2223565,49.6204869 25.2029071,49.714568 L27.1236447,49.714568 L27.1236447,47.4325631 L25.9103888,47.4325631 L25.9103888,46.6242276 L29.2220053,46.6242276 L29.2220053,47.4325631 L27.9982125,47.4325631 L27.9982125,49.7175785 L30.2079639,49.7175785 L30.2079639,46.6212171 L31.0855423,46.6212171 L31.0855423,49.714568 L33.2666933,49.714568 L32.0248371,46.6197118 L32.9927323,46.6197118 L34.0358915,49.4285647 L35.0790507,46.6197118 L36.0243667,46.6197118 L34.7825105,49.714568 L36.3931604,49.714568 L37.7223228,46.5926167 L38.5351742,46.5926167 L39.8643366,49.714568 L41.1453301,49.714568 L41.1453301,46.6212171 L42.0229085,46.6212171 L42.0229085,49.7160732 L64,49.7160732 Z"/>
  </g>
</svg>
