<svg xmlns="http://www.w3.org/2000/svg" width="38" height="102" viewBox="0 0 38 102">
  <g fill="none" fill-rule="evenodd" transform="translate(-45 -13)">
    <rect width="128" height="128"/>
    <g fill="#111111" transform="translate(45 13)">
      <path d="M18.8091398,37.5895905 C13.581714,37.5895905 7.68927509,33.4561619 4.38046901,28.4516857 C1.54969193,24.1725429 0.848907937,20.0196857 1.41961601,16.5031143 C2.7220011,8.47425714 10.0403972,3.52806667 18.8091398,3.52806667 C27.5795084,3.52806667 34.9857057,8.47425714 36.2880908,16.5031143 C36.8604248,20.0358762 36.1206181,24.2178762 33.2491923,28.5115905 C29.9176229,33.4885429 24.0170542,37.5895905 18.8091398,37.5895905 M34.34183,29.5056857 C36.4067851,26.3760667 37.6148651,22.6425429 37.6148651,18.7260667 C37.6148651,8.38359048 29.1940756,0.000161904764 18.8075139,0.000161904764 C8.4209521,0.000161904764 0.000162594893,8.38359048 0.000162594893,18.7260667 C0.000162594893,22.6441619 1.21149455,26.3776857 3.27644969,29.5089238 C5.73488447,34.1555905 9.49895625,38.3003524 12.8435332,42.4094952 C13.3947299,43.0878762 14.4548486,44.1726381 14.4548486,44.6745429 C14.4548486,45.1748286 13.6191108,46.9298762 13.2874173,48.1992095 C10.4663959,58.9561619 15.8401571,79.6394952 18.0107989,85.7578762 L13.0532806,85.7578762 L13.0532806,99.6687333 L9.37538413,99.7934 L9.37538413,100.784257 L9.37538413,101.529019 L18.836781,101.529019 L28.2981778,101.529019 L28.2981778,100.784257 L28.2981778,99.7934 L24.66093,99.6687333 L24.66093,85.7578762 L19.6058548,85.7578762 C21.7748707,79.6394952 27.1502578,58.9561619 24.3292364,48.1992095 C23.9959169,46.9298762 23.1618051,45.1748286 23.1618051,44.6745429 C23.1618051,44.1726381 24.2219238,43.0878762 24.7731205,42.4094952 C28.1160715,38.2987333 31.8833952,34.1539714 34.34183,29.5056857"/>
      <path d="M18.8083268,27.9813524 C16.1433965,27.9813524 13.9841364,30.1314476 13.9841364,32.7850667 C13.9841364,35.4386857 16.1433965,37.588781 18.8083268,37.588781 C21.4716312,37.588781 23.6325173,35.4386857 23.6325173,32.7850667 C23.6325173,30.1314476 21.4716312,27.9813524 18.8083268,27.9813524"/>
    </g>
  </g>
</svg>
