<svg xmlns="http://www.w3.org/2000/svg" width="86" height="93" viewBox="0 0 86 93">
  <g fill="none" fill-rule="evenodd" transform="translate(-21 -18)">
    <rect width="128" height="128"/>
    <g fill="#111111" transform="translate(21 18)">
      <polygon points="44.319 0 43.55 .183 43.013 .524 42.535 .709 42.444 .779 41.808 1.303 41.345 2.279 41.234 2.913 41.516 3.809 41.927 3.725 42.045 3.925 42.097 4.107 42.384 5.147 42.42 6.265 42.31 6.928 42.127 8.039 41.139 8.187 39.447 8.771 38.608 9.652 37.381 10.71 36.18 11.492 35.257 11.739 34.918 11.739 34.602 11.687 34.481 11.667 32.216 10.833 30.578 10.06 29.157 10.139 28.123 10.299 27.592 10.527 27.158 10.953 28.086 11.631 28.615 11.96 29.269 12.055 29.68 11.768 30.248 11.725 31.516 12.921 32.723 14.06 34.131 15.268 35.642 16.027 36.522 16.549 37.065 17.344 37.197 17.816 37.323 18.095 37.634 18.419 37.706 18.488 37.509 19.103 37.905 20.025 37.966 20.175 37.898 20.466 37.565 21.481 37.541 21.88 37.612 22.094 37.338 22.871 37.392 23.64 37.683 24.914 37.971 26.165 38.021 27.766 38.176 31.085 38.957 34.661 39.412 38.136 39.525 39.408 38.047 46.396 37.596 49.062 37.033 52.274 36.755 54.017 36.878 54.36 36.748 54.644 36.466 55.07 36.683 55.51 37.853 55.857 39.181 55.712 39.32 55.703 40.679 55.778 41.063 55.727 42.005 55.981 43.453 55.981 44.051 55.926 44.3 55.578 44.159 54.933 43.326 53.259 43.698 52.807 44.185 52.22 45.289 49.943 45.37 49.804 46.199 47.386 46.256 49.639 46.256 50.793 45.608 52.75 45.333 53.356 45.895 54.187 46.971 55.01 47.725 55.319 48.808 55.498 50.844 55.332 50.626 54.928 50.047 54.558 49.527 54.355 49.102 54.193 48.537 52.266 48.388 51.363 49.171 44.339 49.394 42.399 49.675 41.466 49.801 39.887 50.375 38.979 50.493 38.71 50.622 38.469 50.837 36.564 50.131 31.958 50.18 30.731 50.56 29.012 50.357 26.654 50.307 26.36 50.307 26.107 49.575 21.989 51.313 24.654 50.899 24.956 50.721 25.376 51.546 27.039 52.168 27.064 52.445 27.422 52.997 27.422 53.411 26.712 53.083 26.303 53.188 25.942 53.24 25.475 53.24 24.814 52.933 23.95 52.3 21.662 51.97 20.593 51.922 20.397 51.867 20.257 51.465 19.329 51.393 19.039 51.446 18.038 51.243 17.577 51.188 16.685 50.92 16.495 50.709 16.048 50.431 13.84 50.01 12.228 49.673 10.943 48.914 10.111 47.913 9.161 47.675 9.017 47.477 8.898 47.191 8.722 46.815 8.569 45.721 8.018 45.635 7.414 45.618 6.189 45.554 6.005 45.94 5.45 46.168 4.697 46.358 3.912 46.579 3.813 46.773 3.683 46.847 3.271 47.232 2.743 47.342 1.98 47.122 1.684 47.103 1.298 46.639 .83 46.116 .451 45.404 .247 44.729 .057"/>
      <polygon points="33.495 59.592 55.221 59.592 55.221 57.786 33.495 57.786"/>
      <path d="M29.3135702 62.4040377C27.9797108 62.4040377 26.0246778 63.2834341 26.0246778 66.425031 26.0246778 69.4712381 27.8181779 70.7029502 29.5839471 70.7029502 30.9178064 70.7029502 32.8728394 69.8228574 32.8728394 66.6826531 32.8728394 63.6357497 31.0807259 62.4040377 29.3135702 62.4040377M29.5569094 61.9981088C32.3209932 61.9981088 33.7491379 63.8522916 33.7491379 66.425031 33.7491379 68.9302317 32.0104064 71.1095753 29.3406079 71.1095753 26.5779106 71.1095753 25.1476861 69.2546963 25.1476861 66.6826531 25.1476861 64.1774524 26.8878041 61.9981088 29.5569094 61.9981088M36.451451 68.90064C36.451451 70.4797937 36.529791 70.4797937 36.911785 70.4797937L37.832453 70.4797937C38.7995704 70.4797937 40.8315568 70.2883179 40.8315568 67.4120021 40.8315568 64.5238497 38.472345 64.0615225 37.9218854 64.0615225L36.8667222 64.0615225C36.6531938 64.0615225 36.451451 64.0615225 36.451451 64.1736229L36.451451 68.90064zM35.7207401 65.5055987C35.7207401 64.2195771 35.6874629 63.9939837 35.4066869 63.9939837L34.7439169 63.9939837 34.7439169 63.6890149 38.1368003 63.6890149C40.4384704 63.6890149 41.5955448 65.3468478 41.5955448 67.1522912 41.5955448 68.6075078 40.7525235 70.8523013 37.9003939 70.8523013L35.0364786 70.8523013 35.0364786 70.5480288 35.4961193 70.5480288C35.6202153 70.5480288 35.7207401 70.5250517 35.7207401 70.4352321L35.7207401 65.5055987zM42.2441027 63.6891541L47.523385 63.6891541 47.4110746 64.4675906C47.3881966 64.6026681 47.3881966 64.6597627 47.3105499 64.6597627 47.219731 64.6597627 47.2093319 64.5915277 47.1982395 64.5239889 47.1746682 64.3429572 47.0408663 64.2761147 46.860615 64.2197163 46.3891886 64.0728021 45.7153262 64.0616617 45.198837 64.0616617L44.3676013 64.0616617C44.1540729 64.0616617 43.9516369 64.0616617 43.9516369 64.1737621L43.9516369 66.7465016 45.0185857 66.7465016C46.6242085 66.7465016 46.6921494 66.6218682 46.6921494 66.373994L46.6921494 65.9228072 46.9729254 65.9228072 46.9729254 67.7950931 46.6921494 67.7950931 46.6921494 67.3780238C46.6921494 67.1183129 46.6921494 67.0848917 45.378395 67.0848917L43.9516369 67.0848917 43.9516369 68.9007792C43.9516369 70.479933 44.0299768 70.479933 44.4119709 70.479933L45.1308961 70.479933C45.6813557 70.479933 47.3549194 70.479933 47.5795402 69.9270899 47.601725 69.8706916 47.624603 69.8142932 47.7036363 69.8142932 47.7480058 69.8142932 47.781283 69.8484107 47.781283 69.8936687 47.781283 69.9612074 47.6474811 70.3782767 47.500507 70.8524406L42.5366644 70.8524406 42.5366644 70.548168 42.9969984 70.548168C43.1210945 70.548168 43.2216192 70.5251909 43.2216192 70.434675L43.2216192 65.5057379C43.2216192 64.2197163 43.1876488 63.9934267 42.9068728 63.9934267L42.2441027 63.9934267 42.2441027 63.6891541zM52.7332012 64.456102C52.7332012 64.5243371 52.7221089 64.5911795 52.6319832 64.5911795 52.5425509 64.5911795 52.5307652 64.5243371 52.5196728 64.4338212 52.4531185 63.971494 51.5206648 63.8468606 51.1837336 63.8468606 50.0370583 63.8468606 49.5774175 64.6364375 49.5774175 65.2115614 49.5774175 67.1743631 53.2614761 66.396623 53.2614761 68.8781503 53.2614761 70.288109 51.9588141 71.0665454 50.6214883 71.0665454 50.1049991 71.0665454 49.4207376 70.9537487 48.936139 70.7622729 48.8473999 70.2094298 48.779459 69.8376185 48.779459 69.758243 48.779459 69.6788676 48.8238286 69.6343059 48.8917695 69.6343059 49.0040799 69.6343059 49.0158655 69.7471026 49.0387436 69.8376185 49.1614531 70.4691407 50.2845571 70.6940378 50.8017396 70.6940378 51.7556848 70.6940378 52.6888317 70.1982894 52.6888317 69.2276808 52.6888317 67.0170048 49.0387436 67.9757767 49.0387436 65.437851 49.0387436 64.286907 50.2623723 63.4750493 51.5206648 63.4750493 51.8908732 63.4750493 52.373392 63.5196109 52.7332012 63.688806L52.7332012 64.456102zM57.0770488 64.5577583C56.493312 65.9113186 56.1570741 66.7238726 55.7632944 67.7390429L58.1114137 67.7390429 57.0770488 64.5577583zM55.6184001 68.1115505C55.2246204 69.0926032 54.9438444 69.9608593 54.9438444 70.2658281 54.9438444 70.356344 54.9549368 70.5478199 55.2246204 70.5478199L55.673862 70.5478199 55.954638 70.5478199 55.954638 70.8527887 53.6744595 70.8527887 53.6744595 70.5478199C54.2020411 70.5478199 54.2360115 70.5478199 54.3254439 70.3222265L57.1678677 63.5537284C57.41398 63.4750493 57.6732645 63.4297913 57.7516045 63.4297913 57.795974 63.4297913 57.8188521 63.4632126 57.8188521 63.5084705 57.8188521 63.6442443 57.6275084 63.6212672 57.6275084 63.8586973 57.6275084 64.3098841 59.2116397 68.8440327 59.6276042 69.8376185 59.7842841 70.2094298 59.930565 70.5478199 60.1773706 70.5478199L60.593335 70.5478199 60.593335 70.8527887 58.2798793 70.8527887 58.2798793 70.5478199 58.8407381 70.5478199C59.0320817 70.5478199 59.0549598 70.5255391 59.0549598 70.4350232 59.0549598 70.3445073 58.6057182 69.0696261 58.2570013 68.1115505L55.6184001 68.1115505zM2.04973421 79.342063C2.04973421 81.27771 2.19809487 81.3187903 2.49481618 81.3187903L3.2490984 81.3187903 3.2490984 81.6843352.35121266 81.6843352.35121266 81.3187903.903058844 81.3187903C1.05211278 81.3187903 1.17343574 81.2916356 1.17343574 81.1830165L1.17343574 75.2660639C1.17343574 73.7231165 1.13322585 73.4522652.795601359 73.4522652L-.000277309641 73.4522652-.000277309641 73.0867203 2.89899498 73.0867203 2.89899498 73.4522652 2.35893446 73.4522652C2.19809487 73.4522652 2.04973421 73.4522652 2.04973421 73.5873427L2.04973421 79.342063zM10.2904755 80.4095932L10.3126602 80.4095932 10.3126602 76.4728493C10.3126602 74.859578 10.1892574 74.8254605 9.9417586 74.8254605L9.31365226 74.8254605 9.31365226 74.5211879 11.3685167 74.5211879 11.3685167 74.8254605 10.9081827 74.8254605C10.7847799 74.8254605 10.6828686 74.8484376 10.6828686 74.9389535L10.6828686 81.605099C10.6828686 81.7067553 10.6828686 81.774294 10.6045286 81.774294 10.5705582 81.774294 10.5483734 81.7520132 10.5261887 81.7297324L5.55056044 75.502937 5.52768239 75.502937 5.52768239 79.7328131C5.52768239 81.3460843 5.65177846 81.3795056 5.89789076 81.3795056L6.52738365 81.3795056 6.52738365 81.6844744 4.47182594 81.6844744 4.47182594 81.3795056 4.93215994 81.3795056C5.056256 81.3795056 5.15747402 81.3572248 5.15747402 81.2667089L5.15747402 75.6602953C5.15747402 75.2543665 5.056256 74.8254605 4.66316959 74.8254605L4.15777277 74.8254605 4.15777277 74.5211879 5.58383759 74.5211879 10.2904755 80.4095932zM16.8258318 81.6841959L13.8828832 81.6841959 13.8828832 81.3799233 14.6919341 81.3799233C14.8153369 81.3799233 14.9158616 81.3569462 14.9158616 81.2671266L14.9158616 74.8704399C14.2419992 74.8704399 12.7701783 74.8599958 12.524066 75.423283 12.4894023 75.4908218 12.4561251 75.5701972 12.3777851 75.5701972 12.3216299 75.5701972 12.2654747 75.5479164 12.2654747 75.4796814 12.2654747 75.423283 12.2876595 75.3111826 12.5684355 74.5209094L17.9939986 74.5209094C18.2747746 75.3111826 18.2969594 75.423283 18.2969594 75.4796814 18.2969594 75.5479164 18.2408042 75.5701972 18.184649 75.5701972 18.106309 75.5701972 18.0723386 75.4908218 18.0383682 75.423283 17.7915626 74.8599958 16.3204349 74.8704399 15.6458792 74.8704399L15.6458792 79.7325346C15.6458792 81.3458058 15.7699753 81.3799233 16.0174742 81.3799233L16.8258318 81.3799233 16.8258318 81.6841959zM19.0586597 74.5211879L24.3379419 74.5211879 24.2256315 75.2996244C24.2027535 75.4347019 24.2027535 75.4911003 24.1251068 75.4911003 24.0342879 75.4911003 24.0238888 75.4235615 24.0127964 75.3560228 23.9892251 75.174991 23.8554232 75.1074523 23.6751719 75.0517502 23.2037455 74.904836 22.5298831 74.8936956 22.0133939 74.8936956L21.1821582 74.8936956C20.9686298 74.8936956 20.7655005 74.8936956 20.7655005 75.005796L20.7655005 77.5785354 21.8331426 77.5785354C23.4387654 77.5785354 23.5067063 77.453902 23.5067063 77.2053315L23.5067063 76.754841 23.7874823 76.754841 23.7874823 78.6271269 23.5067063 78.6271269 23.5067063 78.2100577C23.5067063 77.9503468 23.5067063 77.9169255 22.1929519 77.9169255L20.7655005 77.9169255 20.7655005 79.7328131C20.7655005 81.3119668 20.8445338 81.3119668 21.2265278 81.3119668L21.945453 81.3119668C22.4959127 81.3119668 24.1694763 81.3119668 24.3940971 80.7591238 24.4162819 80.7027254 24.43916 80.6463271 24.5181932 80.6463271 24.5625628 80.6463271 24.5958399 80.6804446 24.5958399 80.7257025 24.5958399 80.7932413 24.462038 81.2103105 24.3150639 81.6844744L19.3512213 81.6844744 19.3512213 81.3795056 19.8115553 81.3795056C19.9356514 81.3795056 20.0361761 81.3572248 20.0361761 81.2667089L20.0361761 76.3370755C20.0361761 75.0517502 20.0015124 74.8254605 19.7214297 74.8254605L19.0586597 74.8254605 19.0586597 74.5211879zM27.0983514 78.14231L27.7278443 78.14231C28.7275456 78.14231 29.8395572 77.8039199 29.8395572 76.5742967 29.8395572 76.1231099 29.6260288 74.8934867 27.9975279 74.8934867L27.5150092 74.8934867C27.3007875 74.8934867 27.0983514 74.8934867 27.0983514 75.0062834L27.0983514 78.14231zM26.3690271 76.3375629C26.3690271 75.0515413 26.3343634 74.8259479 26.0535874 74.8259479L25.3908173 74.8259479 25.3908173 74.5209791 28.3566439 74.5209791C29.8166792 74.5209791 30.5695749 75.434493 30.5695749 76.3828208 30.5695749 77.4878107 29.7716164 78.1193329 28.7504236 78.3115051 29.861742 79.9129396 30.6818853 80.9622274 31.0410013 81.2553596 31.1983745 81.3792967 31.3217773 81.3792967 31.6815865 81.3792967L31.6815865 81.6842655 30.524512 81.6842655C30.2887989 81.6842655 30.2215513 81.5944459 28.0197127 78.4465826L27.0983514 78.4465826 27.0983514 79.7326042C27.0983514 81.3458755 27.2224475 81.3792967 27.4692531 81.3792967L28.0980527 81.3792967 28.0980527 81.6842655 25.683379 81.6842655 25.683379 81.3792967 26.1444063 81.3792967C26.2685023 81.3792967 26.3690271 81.3570159 26.3690271 81.2671963L26.3690271 76.3375629zM38.3119214 80.4095932L38.3347994 80.4095932 38.3347994 76.4728493C38.3347994 74.859578 38.2107034 74.8254605 37.964591 74.8254605L37.3350982 74.8254605 37.3350982 74.5211879 39.3906559 74.5211879 39.3906559 74.8254605 38.9303219 74.8254605C38.8069191 74.8254605 38.7050078 74.8484376 38.7050078 74.9389535L38.7050078 81.605099C38.7050078 81.7067553 38.7050078 81.774294 38.6266678 81.774294 38.5926974 81.774294 38.5705126 81.7520132 38.5483278 81.7297324L33.5720063 75.502937 33.5505148 75.502937 33.5505148 79.7328131C33.5505148 81.3460843 33.6732244 81.3795056 33.9207232 81.3795056L34.5502161 81.3795056 34.5502161 81.6844744 32.4939651 81.6844744 32.4939651 81.3795056 32.9542991 81.3795056C33.0783952 81.3795056 33.1796132 81.3572248 33.1796132 81.2667089L33.1796132 75.6602953C33.1796132 75.2543665 33.0783952 74.8254605 32.6853088 74.8254605L32.1792187 74.8254605 32.1792187 74.5211879 33.60667 74.5211879 38.3119214 80.4095932zM43.278537 75.3898618C42.694107 76.7434221 42.3571758 77.5559761 41.9647826 78.5704501L44.3115154 78.5704501 43.278537 75.3898618zM41.8185018 78.943654C41.4247221 79.9247067 41.1446393 80.7929628 41.1446393 81.0979316 41.1446393 81.1884475 41.1550385 81.3799233 41.4247221 81.3799233L41.874657 81.3799233 42.155433 81.3799233 42.155433 81.6841959 39.8752545 81.6841959 39.8752545 81.3799233C40.4035293 81.3799233 40.4368065 81.3799233 40.5269321 81.15433L43.3686627 74.3858319C43.6154682 74.3071527 43.8733662 74.2611985 43.9530927 74.2611985 43.9974623 74.2611985 44.019647 74.295316 44.019647 74.340574 44.019647 74.4763478 43.8289967 74.4533707 43.8289967 74.6908008 43.8289967 75.1419875 45.4124347 79.6761362 45.8290925 80.6697219 45.9857724 81.0415333 46.13136 81.3799233 46.3788588 81.3799233L46.79413 81.3799233 46.79413 81.6841959 44.4799811 81.6841959 44.4799811 81.3799233 45.0422263 81.3799233C45.2321835 81.3799233 45.2557548 81.3569462 45.2557548 81.2671266 45.2557548 81.1766108 44.8058199 79.9017296 44.4584896 78.943654L41.8185018 78.943654zM51.2390569 81.6841959L48.2968016 81.6841959 48.2968016 81.3799233 49.1051592 81.3799233C49.2292553 81.3799233 49.32978 81.3569462 49.32978 81.2671266L49.32978 74.8704399C48.6552243 74.8704399 47.18479 74.8599958 46.9372911 75.423283 46.9040139 75.4908218 46.8693502 75.5701972 46.7917035 75.5701972 46.7355483 75.5701972 46.6793931 75.5479164 46.6793931 75.4796814 46.6793931 75.423283 46.7008846 75.3111826 46.9816606 74.5209094L52.4072238 74.5209094C52.6879998 75.3111826 52.7108778 75.423283 52.7108778 75.4796814 52.7108778 75.5479164 52.6547226 75.5701972 52.5985674 75.5701972 52.5195342 75.5701972 52.486257 75.4908218 52.4515933 75.423283 52.205481 74.8599958 50.7336601 74.8704399 50.0604909 74.8704399L50.0604909 79.7325346C50.0604909 81.3458058 50.1838937 81.3799233 50.4306993 81.3799233L51.2390569 81.3799233 51.2390569 81.6841959zM55.229404 79.7327434C55.229404 81.3460147 55.3535 81.379436 55.6003056 81.379436L56.2291052 81.379436 56.2291052 81.6844048 53.8151248 81.6844048 53.8151248 81.379436 54.2747655 81.379436C54.3988616 81.379436 54.4993863 81.3571551 54.4993863 81.2673355L54.4993863 76.3377021C54.4993863 75.0516806 54.4661092 74.8260872 54.1853332 74.8260872L53.5225631 74.8260872 53.5225631 74.5211183 55.9372368 74.5211183 55.9372368 74.8260872 55.4879952 74.8260872C55.3535 74.8260872 55.229404 74.8260872 55.229404 74.9388839L55.229404 79.7327434zM60.4445584 74.6456124C59.3325467 74.6456124 57.7040459 75.3780947 57.7040459 77.9960921 57.7040459 80.5333215 59.1980516 81.5603284 60.6684859 81.5603284 61.7811909 81.5603284 63.4096917 80.8271499 63.4096917 78.2098488 63.4096917 75.6719231 61.9163793 74.6456124 60.4445584 74.6456124M60.6469944 74.3072224C62.9486645 74.3072224 64.1404026 75.8522586 64.1404026 77.9960921 64.1404026 80.082831 62.6907665 81.8987185 60.4667432 81.8987185 58.1650732 81.8987185 56.973335 80.352986 56.973335 78.2098488 56.973335 76.1231099 58.4229711 74.3072224 60.6469944 74.3072224M70.9898814 80.4095932L71.0127595 80.4095932 71.0127595 76.4728493C71.0127595 74.859578 70.8886634 74.8254605 70.6411646 74.8254605L70.0130582 74.8254605 70.0130582 74.5211879 72.0679227 74.5211879 72.0679227 74.8254605 71.6082819 74.8254605C71.4841859 74.8254605 71.3829678 74.8484376 71.3829678 74.9389535L71.3829678 81.605099C71.3829678 81.7067553 71.3829678 81.774294 71.3039346 81.774294 71.2706574 81.774294 71.2477794 81.7520132 71.2262879 81.7297324L66.2499664 75.502937 66.2277816 75.502937 66.2277816 79.7328131C66.2277816 81.3460843 66.3511844 81.3795056 66.59799 81.3795056L67.2267896 81.3795056 67.2267896 81.6844744 65.1712319 81.6844744 65.1712319 81.3795056 65.6322592 81.3795056C65.755662 81.3795056 65.8575733 81.3572248 65.8575733 81.2667089L65.8575733 75.6602953C65.8575733 75.2543665 65.755662 74.8254605 65.3632688 74.8254605L64.8571787 74.8254605 64.8571787 74.5211879 66.2839368 74.5211879 70.9898814 80.4095932zM75.9558731 75.3898618C75.3721364 76.7434221 75.0352051 77.5559761 74.6414255 78.5704501L76.9895448 78.5704501 75.9558731 75.3898618zM74.4965312 78.943654C74.1027515 79.9247067 73.8226687 80.7929628 73.8226687 81.0979316 73.8226687 81.1884475 73.8330678 81.3799233 74.1027515 81.3799233L74.5526864 81.3799233 74.8334624 81.3799233 74.8334624 81.6841959 72.5532839 81.6841959 72.5532839 81.3799233C73.0808654 81.3799233 73.1148359 81.3799233 73.2042682 81.15433L76.0466921 74.3858319C76.2928044 74.3071527 76.5513956 74.2611985 76.6304288 74.2611985 76.6747984 74.2611985 76.6976764 74.295316 76.6976764 74.340574 76.6976764 74.4763478 76.5063328 74.4533707 76.5063328 74.6908008 76.5063328 75.1419875 78.0904641 79.6761362 78.5057353 80.6697219 78.6624152 81.0415333 78.8093893 81.3799233 79.0561949 81.3799233L79.4721594 81.3799233 79.4721594 81.6841959 77.1580104 81.6841959 77.1580104 81.3799233 77.7195625 81.3799233C77.9102128 81.3799233 77.9337842 81.3569462 77.9337842 81.2671266 77.9337842 81.1766108 77.4838493 79.9017296 77.1351324 78.943654L74.4965312 78.943654zM80.0823793 74.5211879L82.4970529 74.5211879 82.4970529 74.8254605 82.0485046 74.8254605C81.9133162 74.8254605 81.7892201 74.8254605 81.7892201 74.9389535L81.7892201 79.7328131C81.7892201 81.3119668 81.8682533 81.3119668 82.2502474 81.3119668L82.9684793 81.3119668C83.518939 81.3119668 85.1931959 81.3119668 85.4171235 80.7591238 85.4400015 80.7027254 85.4628796 80.6463271 85.5412195 80.6463271 85.5855891 80.6463271 85.6195595 80.6804446 85.6195595 80.7257025 85.6195595 80.7932413 85.4850643 81.2103105 85.3387835 81.6844744L80.3742476 81.6844744 80.3742476 81.3795056 80.8352749 81.3795056C80.959371 81.3795056 81.0598957 81.3572248 81.0598957 81.2667089L81.0598957 76.3370755C81.0598957 75.0517502 81.025232 74.8254605 80.744456 74.8254605L80.0823793 74.8254605 80.0823793 74.5211879zM6.61355762 86.0984459C6.61355762 84.5548022 6.57265445 84.2846472 6.23572323 84.2846472L5.44123111 84.2846472 5.44123111 83.9191023 11.7770631 83.9191023 11.6418747 84.8528083C11.6155303 85.0150406 11.6155303 85.0825793 11.5205517 85.0825793 11.4130942 85.0825793 11.3992287 85.0018113 11.3867498 84.9210433 11.3597121 84.7038052 11.197486 84.6230372 10.9818777 84.5548022 10.4154728 84.3786444 9.60642191 84.3654152 8.98663487 84.3654152L7.98832016 84.3654152C7.73250202 84.3654152 7.49054936 84.3654152 7.49054936 84.5004927L7.49054936 87.58778 8.77102662 87.58778C10.6983286 87.58778 10.7794417 87.438777 10.7794417 87.1414672L10.7794417 86.5997645 11.1163729 86.5997645 11.1163729 88.8466469 10.7794417 88.8466469 10.7794417 88.3467208C10.7794417 88.0347892 10.7794417 87.9944052 9.20154984 87.9944052L7.49054936 87.9944052 7.49054936 90.174445C7.49054936 92.110092 7.63891001 92.150476 7.93493805 92.150476L8.68991355 92.150476 8.68991355 92.5167171 5.79133453 92.5167171 5.79133453 92.150476 6.34387399 92.150476C6.49223465 92.150476 6.61355762 92.1233213 6.61355762 92.0153985L6.61355762 86.0984459zM14.6938753 90.5644291C14.6938753 92.1777004 14.8165848 92.2118179 15.0640836 92.2118179L15.6928832 92.2118179 15.6928832 92.5167868 13.2782095 92.5167868 13.2782095 92.2118179 13.7385435 92.2118179C13.8626396 92.2118179 13.9631643 92.1895371 13.9631643 92.0990212L13.9631643 87.1693878C13.9631643 85.8833663 13.9291939 85.6577729 13.6491112 85.6577729L12.9863411 85.6577729 12.9863411 85.3535003 15.4017081 85.3535003 15.4017081 85.6577729 14.9517732 85.6577729C14.8165848 85.6577729 14.6938753 85.6577729 14.6938753 85.7705696L14.6938753 90.5644291zM16.4710834 85.3532218L18.8850638 85.3532218 18.8850638 85.6574943 18.4365155 85.6574943C18.3020203 85.6574943 18.1786175 85.6574943 18.1786175 85.7709873L18.1786175 90.5641506C18.1786175 92.1440007 18.2569575 92.1440007 18.6389515 92.1440007L19.3578768 92.1440007C19.9083364 92.1440007 21.5812068 92.1440007 21.8058276 91.5911576 21.8287057 91.5347592 21.8515837 91.4783609 21.9292304 91.4783609 21.9742932 91.4783609 22.0082637 91.5124784 22.0082637 91.5577363 22.0082637 91.6252751 21.8730752 92.0423444 21.7274876 92.5165083L16.7636451 92.5165083 16.7636451 92.2122357 17.2232858 92.2122357C17.3473819 92.2122357 17.4479066 92.1892586 17.4479066 92.0987427L17.4479066 87.1691093C17.4479066 85.883784 17.4146295 85.6574943 17.1338535 85.6574943L16.4710834 85.6574943 16.4710834 85.3532218zM23.4945047 86.4921899C23.4945047 86.086261 23.3932867 85.6580514 23.0002002 85.6580514L22.4948034 85.6580514 22.4948034 85.3530825 24.1129052 85.3530825 26.8194473 91.2867458 29.2452133 85.3530825 30.7045553 85.3530825 30.7045553 85.6580514 30.2567003 85.6580514C30.1215118 85.6580514 29.9974157 85.6580514 29.9974157 85.7708481L29.9974157 90.5647077C29.9974157 92.1779789 30.1215118 92.2120964 30.3676241 92.2120964L30.997117 92.2120964 30.997117 92.516369 28.5824433 92.516369 28.5824433 92.2120964 29.0427773 92.2120964C29.1661801 92.2120964 29.2667048 92.1898156 29.2667048 92.0992997L29.2667048 86.3341353 29.2452133 86.3118544 26.6842588 92.4376898C26.6724732 92.4711111 26.6509817 92.5052286 26.6281036 92.5052286 26.5948265 92.5052286 26.5712551 92.4599707 26.5497636 92.4035723L23.8875911 86.4587687 23.864713 86.4587687 23.864713 90.5647077C23.864713 92.1779789 23.9888091 92.2120964 24.2349214 92.2120964L24.8651076 92.2120964 24.8651076 92.516369 22.8088566 92.516369 22.8088566 92.2120964 23.2698839 92.2120964C23.3932867 92.2120964 23.4945047 92.1898156 23.4945047 92.0992997L23.4945047 86.4921899zM36.3803904 86.0984459C36.3803904 84.5548022 36.3394872 84.2846472 36.002556 84.2846472L35.2080639 84.2846472 35.2080639 83.9191023 41.5432026 83.9191023 41.4087075 84.8528083C41.382363 85.0150406 41.382363 85.0825793 41.2873845 85.0825793 41.1792337 85.0825793 41.1660615 85.0018113 41.1535826 84.9210433 41.1258516 84.7038052 40.9643188 84.6230372 40.7487105 84.5548022 40.1823056 84.3786444 39.3725614 84.3654152 38.7534676 84.3654152L37.7551529 84.3654152C37.4993348 84.3654152 37.2573821 84.3654152 37.2573821 84.5004927L37.2573821 87.58778 38.5371661 87.58778C40.4651614 87.58778 40.5455812 87.438777 40.5455812 87.1414672L40.5455812 86.5997645 40.8825124 86.5997645 40.8825124 88.8466469 40.5455812 88.8466469 40.5455812 88.3467208C40.5455812 88.0347892 40.5455812 87.9944052 38.9683826 87.9944052L37.2573821 87.9944052 37.2573821 90.174445C37.2573821 92.110092 37.4057428 92.150476 37.7017708 92.150476L38.4567463 92.150476 38.4567463 92.5167171 35.5581673 92.5167171 35.5581673 92.150476 36.1107068 92.150476C36.2590674 92.150476 36.3803904 92.1233213 36.3803904 92.0153985L36.3803904 86.0984459zM42.6516093 85.3532218L47.9301983 85.3532218 47.8185811 86.1316582C47.7957031 86.2667358 47.7957031 86.3238304 47.7173631 86.3238304 47.6272375 86.3238304 47.6161451 86.2555953 47.605746 86.1880566 47.5821747 86.0070249 47.4476795 85.9401824 47.2681215 85.883784 46.7960018 85.7368698 46.1228327 85.7257294 45.6056502 85.7257294L44.7751078 85.7257294C44.5615794 85.7257294 44.3584501 85.7257294 44.3584501 85.8378298L44.3584501 88.4105693 45.4260922 88.4105693C47.031715 88.4105693 47.0996559 88.2859359 47.0996559 88.0373654L47.0996559 87.5868749 47.3804319 87.5868749 47.3804319 89.4591608 47.0996559 89.4591608 47.0996559 89.0420915C47.0996559 88.7823806 47.0996559 88.7489594 45.7859015 88.7489594L44.3584501 88.7489594 44.3584501 90.5641506C44.3584501 92.1440007 44.4374833 92.1440007 44.8194774 92.1440007L45.5377093 92.1440007C46.088169 92.1440007 47.7624259 92.1440007 47.9863535 91.5911576 48.0092315 91.5347592 48.0321096 91.4783609 48.1104495 91.4783609 48.1548191 91.4783609 48.1887895 91.5124784 48.1887895 91.5577363 48.1887895 91.6252751 48.0542943 92.0423444 47.9080135 92.5165083L42.9434777 92.5165083 42.9434777 92.2122357 43.4045049 92.2122357C43.528601 92.2122357 43.6291257 92.1892586 43.6291257 92.0987427L43.6291257 87.1691093C43.6291257 85.883784 43.594462 85.6574943 43.313686 85.6574943L42.6516093 85.6574943 42.6516093 85.3532218zM53.1407771 86.1202393C53.1407771 86.1884744 53.1289914 86.2553168 53.0395591 86.2553168 52.9494334 86.2553168 52.9383411 86.1884744 52.9272487 86.0979585 52.8600011 85.6356313 51.9275474 85.5109979 51.5913095 85.5109979 50.4439408 85.5109979 49.9843001 86.3005748 49.9843001 86.8756987 49.9843001 88.8385004 53.6683587 88.060064 53.6683587 90.5422876 53.6683587 91.9522463 52.3656966 92.7306827 51.0290642 92.7306827 50.5118817 92.7306827 49.8276202 92.617886 49.3437148 92.4264102 49.2542825 91.8735671 49.1870349 91.5017558 49.1870349 91.421684 49.1870349 91.3430049 49.2314044 91.2984432 49.2993453 91.2984432 49.4116557 91.2984432 49.4227481 91.4112399 49.4456261 91.5017558 49.5690289 92.133278 50.692133 92.3581751 51.2093154 92.3581751 52.1632606 92.3581751 53.0964075 91.8624267 53.0964075 90.8918181 53.0964075 88.6811421 49.4456261 89.639914 49.4456261 87.1012921 49.4456261 85.9510443 50.6692549 85.1391866 51.9275474 85.1391866 52.2977558 85.1391866 52.7802746 85.1837482 53.1407771 85.3529433L53.1407771 86.1202393zM58.8609817 92.5165779L55.9180331 92.5165779 55.9180331 92.2123053 56.727084 92.2123053C56.8504868 92.2123053 56.9510116 92.1893282 56.9510116 92.0988123L56.9510116 85.7028219C56.2771491 85.7028219 54.8053282 85.6916815 54.5592159 86.255665 54.5245522 86.3232037 54.491275 86.4025792 54.4129351 86.4025792 54.3567799 86.4025792 54.3006247 86.3802984 54.3006247 86.3120633 54.3006247 86.255665 54.3228094 86.1428683 54.6035854 85.3532914L60.0291486 85.3532914C60.3099246 86.1428683 60.3321093 86.255665 60.3321093 86.3120633 60.3321093 86.3802984 60.2759541 86.4025792 60.2197989 86.4025792 60.141459 86.4025792 60.1074885 86.3232037 60.0735181 86.255665 59.8267125 85.6916815 58.3555849 85.7028219 57.6810292 85.7028219L57.6810292 90.5642203C57.6810292 92.1781878 57.8051252 92.2123053 58.0526241 92.2123053L58.8609817 92.2123053 58.8609817 92.5165779zM62.852022 90.5644291C62.852022 92.1777004 62.9754248 92.2118179 63.2222304 92.2118179L63.85103 92.2118179 63.85103 92.5167868 61.4370496 92.5167868 61.4370496 92.2118179 61.8966903 92.2118179C62.0207864 92.2118179 62.1213111 92.1895371 62.1213111 92.0990212L62.1213111 87.1693878C62.1213111 85.8833663 62.088034 85.6577729 61.807258 85.6577729L61.1444879 85.6577729 61.1444879 85.3535003 63.5591616 85.3535003 63.5591616 85.6577729 63.10992 85.6577729C62.9754248 85.6577729 62.852022 85.6577729 62.852022 85.7705696L62.852022 90.5644291zM71.4022409 85.6578425L70.8864449 85.6578425C70.8302897 85.6578425 70.795626 85.6696792 70.7623489 85.7824759 70.6278537 86.176568 69.4589936 89.1322592 68.236058 92.2794263 68.111962 92.5955356 68.0668992 92.7306131 67.9878659 92.7306131 67.9317107 92.7306131 67.9095259 92.6853552 67.8755555 92.5732547 67.6849051 91.8170991 66.1125595 88.1393698 65.2251686 86.007373 65.0795811 85.6578425 65.0005478 85.6578425 64.6629233 85.6578425L64.4272101 85.6578425 64.4272101 85.3535699 66.6401411 85.3535699 66.6401411 85.6578425 66.1125595 85.6578425C66.0002491 85.6578425 65.8879387 85.6578425 65.8879387 85.7260775 65.8879387 85.79292 67.1684159 88.8621042 68.2013943 91.3652161 69.7175848 87.7557218 70.2236749 86.2329664 70.2236749 85.861155 70.2236749 85.6578425 70.0884864 85.6578425 69.8860504 85.6578425L69.2801288 85.6578425 69.2801288 85.3535699 71.4022409 85.3535699 71.4022409 85.6578425zM73.886242 86.2215475C73.3018119 87.5751078 72.9648807 88.3876618 72.5717943 89.4028321L74.9192204 89.4028321 73.886242 86.2215475zM72.4262067 89.7753397C72.032427 90.7563924 71.751651 91.6253447 71.751651 91.9296173 71.751651 92.0201332 71.7627434 92.2123053 72.032427 92.2123053L72.4823619 92.2123053 72.7631379 92.2123053 72.7631379 92.5165779 70.4829594 92.5165779 70.4829594 92.2123053C71.0112343 92.2123053 71.0438182 92.2123053 71.1346371 91.9860156L73.9756743 85.2182139C74.2231732 85.1388384 74.4810712 85.0935805 74.5607977 85.0935805 74.6051672 85.0935805 74.6266587 85.127698 74.6266587 85.1722597 74.6266587 85.3080335 74.4367016 85.2850564 74.4367016 85.5224865 74.4367016 85.9743695 76.0201397 90.5078219 76.4361041 91.5014076 76.5927841 91.873219 76.7390649 92.2123053 76.9865638 92.2123053L77.4011417 92.2123053 77.4011417 92.5165779 75.087686 92.5165779 75.087686 92.2123053 75.6499313 92.2123053C75.8398884 92.2123053 75.8634597 92.1893282 75.8634597 92.0988123 75.8634597 92.0089928 75.4135248 90.7334153 75.0661945 89.7753397L72.4262067 89.7753397zM78.0126788 85.3532218L80.4266592 85.3532218 80.4266592 85.6574943 79.9774176 85.6574943C79.8436157 85.6574943 79.7195196 85.6574943 79.7195196 85.7709873L79.7195196 90.5641506C79.7195196 92.1440007 79.7985528 92.1440007 80.1805469 92.1440007L80.8994721 92.1440007C81.4492385 92.1440007 83.1221089 92.1440007 83.3467297 91.5911576 83.370301 91.5347592 83.3931791 91.4783609 83.4708258 91.4783609 83.5151953 91.4783609 83.549859 91.5124784 83.549859 91.5577363 83.549859 91.6252751 83.4146705 92.0423444 83.269083 92.5165083L78.3045471 92.5165083 78.3045471 92.2122357 78.7648812 92.2122357C78.8882839 92.2122357 78.989502 92.1892586 78.989502 92.0987427L78.989502 87.1691093C78.989502 85.883784 78.9555315 85.6574943 78.6747555 85.6574943L78.0126788 85.6574943 78.0126788 85.3532218z"/>
    </g>
  </g>
</svg>
