<svg xmlns="http://www.w3.org/2000/svg" width="56" height="40" viewBox="0 0 56 40">
  <g fill="#FFFFFF" fill-rule="evenodd" transform="translate(.571 .571)">
    <path d="M6.44427312 25.343814C8.5469753 25.343814 10.9537162 26.914216 10.9537162 29.9043952L10.9537162 38.4667584 7.93889782 38.4667584 7.93889782 30.7653734C7.93889782 29.2196107 6.92590024 28.2823903 5.60839903 28.2823903 4.26532881 28.2823903 3.27743535 29.2196107 3.27743535 30.7653734L3.27743535 38.4667584.262616949 38.4667584.262616949 20.428986 3.27743535 20.428986 3.27743535 26.5092959C4.06310121 25.749199 5.17790993 25.343814 6.44427312 25.343814zM16.8827971 34.9962073L16.8827971 20.4293114 13.8679787 20.4293114 13.8679787 35.1988998C13.8679787 37.6051758 15.3626034 38.4666189 17.3639593 38.4666189L18.7321337 38.4666189 18.7321337 35.6549579 17.6173249 35.6549579C17.1361627 35.6549579 16.8827971 35.4518005 16.8827971 34.9962073M27.9001104 33.8812126C27.9001104 35.6296678 27.1911516 35.8323603 25.2148998 35.8323603 23.6444978 35.8323603 23.0108513 35.2242828 23.0108513 34.464186 23.0108513 33.653416 23.6696019 33.1973579 25.0126722 33.1973579L27.9001104 33.1973579 27.9001104 33.8812126zM25.341815 25.4704039C23.3404591 25.4704039 21.8709385 25.9771351 20.7310257 27.4973288L23.0870935 29.2708881C23.6444978 28.4345492 24.2270063 28.2323215 25.4682654 28.2323215 27.1404785 28.2323215 27.9001104 28.5609995 27.9001104 29.600031L27.9001104 30.7143748 24.531045 30.7143748C21.6175729 30.7143748 20.1480523 32.4879341 20.1480523 34.5906363 20.1480523 36.8453579 21.8709385 38.6189172 24.8857569 38.6189172 26.4566237 38.6189172 27.3682751 38.2897743 27.9001104 37.706801L27.9001104 38.4668978 30.9149288 38.4668978 30.9149288 29.7520504C30.9149288 26.5345395 28.6602073 25.4704039 25.341815 25.4704039L25.341815 25.4704039z"/>
    <polygon points="40.875 25.622 37.987 33.957 35.099 25.622 31.906 25.622 36.771 38.467 39.203 38.467 44.067 25.622"/>
    <path d="M51.8188475,33.8812126 C51.8188475,35.6296678 51.1094237,35.8323603 49.1331719,35.8323603 C47.56277,35.8323603 46.9291235,35.2242828 46.9291235,34.464186 C46.9291235,33.653416 47.5878741,33.1973579 48.9309443,33.1973579 L51.8188475,33.1973579 L51.8188475,33.8812126 Z M49.2600872,25.4704039 C47.2582663,25.4704039 45.7892107,25.9771351 44.6492978,27.4973288 L47.0053656,29.2708881 C47.56277,28.4345492 48.1452785,28.2323215 49.3870024,28.2323215 C51.0587506,28.2323215 51.8188475,28.5609995 51.8188475,29.600031 L51.8188475,30.7143748 L48.4493172,30.7143748 C45.535845,30.7143748 44.0663245,32.4879341 44.0663245,34.5906363 C44.0663245,36.8453579 45.7892107,38.6189172 48.8040291,38.6189172 C50.3748959,38.6189172 51.2865472,38.2897743 51.8188475,37.706801 L51.8188475,38.4668978 L54.8336659,38.4668978 L54.8336659,29.7520504 C54.8336659,26.5345395 52.5784794,25.4704039 49.2600872,25.4704039 L49.2600872,25.4704039 Z"/>
    <polygon points="14.038 2.948 17.053 2.948 17.053 .01 14.038 .01"/>
    <polygon points="14.038 18.048 17.053 18.048 17.053 5.077 14.038 5.077"/>
    <path d="M10.997416 0L3.86970654 0 3.86970654 2.92416465 7.85382276 2.92416465 7.85382276 12.0685714C7.85382276 14.2981889 6.2067138 15.1089588 4.94035061 15.1089588 3.92688814 15.1089588 3.16679128 14.6022276 2.58428281 13.7919225L-.0000464891041 15.6156901C1.21610847 17.211661 2.86275254 18.1995545 5.01612785 18.1995545 8.03141114 18.1995545 11.0206605 15.9959709 11.0206605 12.3475061L11.0206605.00976271186 10.997416.00976271186 10.997416 0zM47.4534276 19.3136194C47.5185123 20.0188591 45.5227351 18.7617937 43.8254179 17.5753918L46.3818538 17.5200697C46.931355 18.1467429 47.4078683 18.8194402 47.4534276 19.3136194L47.4534276 19.3136194zM30.2687303 17.8696678L41.8361492 17.6186266C44.0006818 19.2141327 47.6616988 21.6213385 48.4961782 21.0513821 49.2060668 20.5669656 48.2167787 18.8175806 47.3162847 17.4996145L47.3200039 17.4996145 35.6921492.469725908 35.5787157.303294915C35.4183283.148486199 35.1710063.128495884 34.9799361.259130266 34.8981153.314917191 34.8390741.391624213 34.8046722.477164165L34.8042073.478093947 28.6448659 15.5168542 24.2330499 19.3568542 25.1056504 20.6348397 30.2687303 17.8696678z"/>
  </g>
</svg>
