<svg xmlns="http://www.w3.org/2000/svg" width="64" height="23" viewBox="0 0 64 23">
  <g fill="none" fill-rule="evenodd" transform="translate(0 -20)">
    <rect width="64" height="64"/>
    <g fill="#FFFFFF" transform="translate(0 20.571)">
      <path d="M.0303027167.678333765C-.0121293661.588419146-.0099767141.507363519.0366364812.435125485.0834566624.363094437.153417853.327078913.247099612.327078913L2.5934075.327078913C2.63588098.327078913 2.68050712.342892626 2.7272859.374271669 2.77389909.405940492 2.8057749.439761966 2.82287193.475694696L5.14376197 6.51504269C5.1606934 6.4610194 5.17762484 6.42512807 5.19472186 6.40691332L7.47731953.475694696C7.49420957.439761966 7.52608538.405940492 7.57298836.374271669 7.61960155.342892626 7.66422768.327078913 7.70686675.327078913L10.002132.327078913C10.0956067.327078913 10.1634981.363094437 10.2061371.435125485 10.2486106.507363519 10.2527503.588419146 10.2189288.678333765L6.39345925 9.71711255C6.37623803 9.75325226 6.34655627 9.78699094 6.30420699 9.81845278 6.26156792 9.8501216 6.21909444 9.86572833 6.17666235 9.86572833L4.09811125 9.86572833C4.05547219 9.86572833 4.01299871 9.8501216 3.97056662 9.81845278 3.92792755 9.78699094 3.8982458 9.75325226 3.88131436 9.71711255L.0303027167.678333765M11.2134955.583741268C11.2134955.51171022 11.2368435.450939198 11.2836636.401386805 11.3302768.351917206 11.3876533.327078913 11.4557516.327078913L13.5980957.327078913C13.6659871.327078913 13.7233635.351917206 13.7703079.401386805 13.8168797.450939198 13.8403519.51171022 13.8403519.583741268L13.8403519 9.60906598C13.8403519 9.68117982 13.8168797 9.74207503 13.7703079 9.79142044 13.7233635 9.84101423 13.6659871 9.86572833 13.5980957 9.86572833L11.4557516 9.86572833C11.3876533 9.86572833 11.3302768 9.84101423 11.2836636 9.79142044 11.2368435 9.74207503 11.2134955 9.68117982 11.2134955 9.60906598L11.2134955.583741268M16.9771798 6.56910737C17.1047245 6.54207503 17.1981578 6.58256145 17.2577283 6.69069082 17.3681759 6.9338163 17.5169987 7.1388564 17.704031 7.30539715 17.8909392 7.47222768 18.1013195 7.60494696 18.3352549 7.70401035 18.5689832 7.80323933 18.8198085 7.87291074 19.0876067 7.91339715 19.3553635 7.95396636 19.6251902 7.97425097 19.8973351 7.97425097 20.0077827 7.97425097 20.1715498 7.96535058 20.3882225 7.94721863 20.6050608 7.92921087 20.817511 7.89100129 21.0259043 7.83234153 21.2340906 7.77384735 21.4167762 7.68161449 21.5742096 7.55535317 21.731436 7.42929884 21.810132 7.2581216 21.810132 7.04198706 21.810132 6.9338163 21.7823959 6.84162484 21.7271721 6.7650401 21.6718655 6.68853816 21.6038913 6.62776714 21.5231669 6.58256145 21.4423182 6.53760414 21.3510789 6.50150582 21.2490349 6.47447348 21.1470323 6.44748254 21.0491695 6.42512807 20.9557361 6.40691332 20.7176611 6.36199741 20.4753221 6.3170401 20.2289263 6.27183441 19.9822406 6.2269185 19.7357206 6.18634929 19.4892419 6.15020957 19.2680983 6.10529366 19.0620647 6.06708409 18.8708926 6.03541527 18.6795964 6.00395343 18.5412471 5.97923933 18.4563415 5.96110737 18.2268771 5.91610867 17.9441759 5.84416041 17.6084036 5.74489004 17.2724657 5.64595084 16.9494851 5.49286417 16.6392549 5.28554722 16.328859 5.07843726 16.0610608 4.79908926 15.8359431 4.44791721 15.6105356 4.09662096 15.4980181 3.65073221 15.4980181 3.11025097 15.4980181 2.58798448 15.6211332 2.11506339 15.8678189 1.6916533 16.0546442 1.36734799 16.2949961 1.09950841 16.588295.887720569 16.8815938.676181113 17.1981578.507363519 17.5382768.381102199 17.8781889.255006468 18.2351979.167244502 18.6094282.117567917 18.9834101.0681811125 19.3490298.0432600259 19.7060388.0432600259 20.33511.0432600259 20.913097.0996843467 21.4403312.212160414 21.9673583.324884864 22.4560931.51171022 22.9067426.772843467 23.1276792.908046572 23.3211281 1.04983182 23.4870065 1.19844761 23.6527193 1.34706339 23.7950427 1.49124968 23.9141837 1.63079948 24.0331177 1.77059767 24.1329677 1.90339974 24.2138163 2.02937128 24.2945408 2.1556326 24.3560983 2.25904269 24.3987374 2.34018111 24.4410867 2.41233635 24.4496973 2.48664424 24.4241966 2.56314618 24.3987374 2.63973092 24.343348 2.68700647 24.2584424 2.70493144L22.2309754 3.24541268C22.1798913 3.26354463 22.1266546 3.26126779 22.071555 3.23858215 22.0161242 3.21622768 21.9758448 3.17781113 21.9503441 3.12378784 21.9162743 3.06086417 21.85037 2.96842432 21.7527141 2.84684088 21.6548512 2.72521604 21.5082225 2.60599224 21.3127865 2.4887969 21.0406417 2.36274256 20.7536766 2.27725744 20.4520569 2.23201035 20.1501475 2.18709444 19.9014748 2.16453299 19.7060388 2.16453299 19.5019922 2.16453299 19.3000569 2.17591721 19.1003571 2.19827167 18.9005744 2.22083312 18.7219457 2.26140233 18.5648021 2.31989651 18.4073687 2.37859767 18.2798241 2.4596119 18.182251 2.56314618 18.0843881 2.66672186 18.0356223 2.79952393 18.0356223 2.96163519 18.0356223 3.15992755 18.1268616 3.30171281 18.3097128 3.38723933 18.4924812 3.47293144 18.7156119 3.54723933 18.979229 3.610163 19.0641345 3.62837775 19.2065408 3.65536869 19.4064062 3.69121863 19.6060233 3.72731695 19.8292367 3.76788616 20.0758396 3.81280207 20.3647917 3.86686675 20.6411591 3.91882018 20.9047762 3.96816559 21.1681035 4.01784217 21.3552186 4.05158085 21.4658318 4.06950582 21.7291591 4.1236533 22.0289159 4.19796119 22.3648538 4.29247089 22.7005019 4.38706339 23.0130091 4.53795602 23.302044 4.74506598 23.5909961 4.95238292 23.8354049 5.2246934 24.0353118 5.56253558 24.2348875 5.90025356 24.3349444 6.33943596 24.3349444 6.87979301 24.3349444 7.40226649 24.2476378 7.8458784 24.0736041 8.21062872 23.8992393 8.57550323 23.6738318 8.87948254 23.3977542 9.12260802 23.1213454 9.3658163 22.8131022 9.55731953 22.4731902 9.69682794 22.1331125 9.83666753 21.7929935 9.94007762 21.4530815 10.0076378 21.1129625 10.0751151 20.791969 10.1157257 20.4902665 10.1291798 20.1884398 10.1427167 19.9439483 10.1494644 19.7571229 10.1494644 19.3914618 10.1494644 18.9855627 10.1224321 18.5393014 10.0684088 18.0929987 10.0143855 17.6466132 9.89483053 17.2003519 9.71040621 16.7540492 9.5258577 16.328859 9.25561708 15.9251953 8.89976714 15.5212833 8.544 15.1748305 8.06437257 14.8858784 7.46076067 14.8432393 7.38881242 14.8390996 7.31678137 14.8731281 7.24466753 14.9070737 7.17259508 14.9623803 7.12767917 15.0388823 7.10946442L16.9771798 6.56910737M25.8141061.583741268C25.8141061.51171022 25.8374541.450939198 25.8842743.401386805 25.9308461.351917206 25.9882639.327078913 26.0563208.327078913L28.1987063.327078913C28.2665563.327078913 28.3239741.351917206 28.3708771.401386805 28.4174903.450939198 28.4409211.51171022 28.4409211.583741268L28.4409211 9.60906598C28.4409211 9.68117982 28.4174903 9.74207503 28.3708771 9.79142044 28.3239741 9.84101423 28.2665563 9.86572833 28.1987063 9.86572833L26.0563208 9.86572833C25.9882639 9.86572833 25.9308461 9.84101423 25.8842743 9.79142044 25.8374541 9.74207503 25.8141061 9.68117982 25.8141061 9.60906598L25.8141061.583741268M35.1610039 2.17798706C34.8294955 2.19620181 34.5020854 2.26587322 34.1791876 2.38749806 33.856 2.50899871 33.5648952 2.69147736 33.3056248 2.93460285 33.0462717 3.17781113 32.838044 3.48419146 32.6808176 3.85337128 32.5233842 4.22279948 32.4448952 4.65958085 32.4448952 5.16392238 32.4448952 5.63237257 32.5043001 5.99952393 32.6234411 6.26508668 32.7423752 6.5308978 32.8357671 6.72235964 32.9039483 6.83934799L32.9294903 6.89337128C32.9804502 6.96548512 33.0569521 7.06454851 33.1589547 7.19060285 33.2609987 7.31678137 33.4012937 7.44283571 33.5797982 7.56893144 33.7583441 7.69510996 33.9814748 7.80530918 34.2492316 7.89994308 34.5170298 7.99453558 34.8422872 8.04172833 35.2247141 8.04172833 35.6838913 8.04172833 36.0897076 7.96535058 36.442577 7.81205692 36.7952393 7.65905304 37.0885382 7.44958344 37.3224735 7.18381371 37.5562018 6.91829237 37.7347063 6.60748254 37.8579871 6.25154981 37.981185 5.89582406 38.0429495 5.51989651 38.0429495 5.12335317 38.0429495 4.66401035 37.9684347 4.25426132 37.8198189 3.8938577 37.6708719 3.53378525 37.4691022 3.22512807 37.2140129 2.96842432 36.9590065 2.71167917 36.6613609 2.51582924 36.3214489 2.38066753 35.9813299 2.24558862 35.6200569 2.17798706 35.2375058 2.17798706L35.1610039 2.17798706zM34.9059974.0432600259C34.9653609.0432600259 35.0227788.0411901682 35.0781682.0365536869 35.1333092.0320827943 35.1906856.0298059508 35.2502561.0298059508 35.6497387.0298059508 36.0600259.0681811125 36.4808693.144600259 36.90163.221267788 37.3075291.336062096 37.6985666.489148771 38.0895627.642442432 38.4593635.833697283 38.8080517 1.06336869 39.1564916 1.2930401 39.4625408 1.56555757 39.7261578 1.8807555 39.8195498 2.00701682 39.9237878 2.16680983 40.0385408 2.36038292 40.1533351 2.5542458 40.2595188 2.78387581 40.3573816 3.04947995 40.4549547 3.31529107 40.5378732 3.610163 40.6060543 3.93442691 40.6739457 4.25869082 40.7080983 4.61466494 40.7080983 5.00185252 40.7080983 5.75846831 40.593304 6.45418887 40.3637154 7.08930401 40.134251 7.72429495 39.7918551 8.26932988 39.337273 8.72411902 38.8823596 9.17899094 38.3148875 9.53256404 37.6348564 9.7847141 36.9546598 10.03674 36.1640155 10.1630013 35.2630479 10.1630013 34.3618732 10.1630013 33.5690349 10.0390996 32.8848642 9.79142044 32.2004036 9.54386546 31.6265563 9.19691591 31.1633635 8.75110996 30.6998396 8.30522122 30.3514411 7.77384735 30.1177128 7.15678137 29.8837775 6.53988098 29.7670375 5.85761449 29.7670375 5.10989909 29.7670375 4.29035964 29.8965278 3.57195343 30.1560052 2.95488745 30.4151514 2.33802846 30.7744787 1.81998448 31.2335317 1.40112807 31.6925847.982354463 32.2365019.660326003 32.8656559.435125485 33.494727.210090556 34.1747167.0793997413 34.9059974.0432600259L34.9059974.0432600259zM42.3658473.583741268C42.3658473.51171022 42.3890298.450939198 42.4358085.401386805 42.4825873.351917206 42.5397154.327078913 42.6080207.327078913L44.7374903.327078913C44.7631565.327078913 44.7950323.338463131 44.8331177.360817594 44.8712031.383379043 44.8989392.403663648 44.915912.421547219L49.0986805 5.44765847C49.2261837 5.60091074 49.3044243 5.69550323 49.3346442 5.73143596 49.3640362 5.76745149 49.3876326 5.79448383 49.4046054 5.81249159 49.4215783 5.83058215 49.4493144 5.86444502 49.4873997 5.91383182 49.5258991 5.96338422 49.6128331 6.07383182 49.7490298 6.24480207L49.7233635 5.32603364 49.7233635.583741268C49.7233635.51171022 49.7465459.450939198 49.7937387.401386805 49.8401035.351917206 49.8976455.327078913 49.9655369.327078913L52.0060026.327078913C52.0738939.327078913 52.131436.351917206 52.1782147.401386805 52.2245796.450939198 52.2481759.51171022 52.2481759.583741268L52.2481759 9.60906598C52.2481759 9.68117982 52.2245796 9.74207503 52.1782147 9.79142044 52.131436 9.84101423 52.0738939 9.86572833 52.0060026 9.86572833L49.8893661 9.86572833C49.8636999 9.86572833 49.8318241 9.8545511 49.7937387 9.83198965 49.7552393 9.80963519 49.7275032 9.78935058 49.7105304 9.77113583L45.4896766 4.69104269C45.3791462 4.55596378 45.3071151 4.46807762 45.2731695 4.4276326 45.2388098 4.38706339 45.2114877 4.35560155 45.1903752 4.3330401 45.1688486 4.31064424 45.1390427 4.27682277 45.1009573 4.23169987 45.062458 4.18665977 44.9838034 4.08308409 44.8649935 3.92097283 44.873273 4.02011902 44.8778266 4.11243467 44.8778266 4.19796119 44.8778266 4.2836533 44.8778266 4.39376973 44.8778266 4.52897283L44.8778266 9.60906598C44.8778266 9.68117982 44.8542303 9.74207503 44.8074515 9.79142044 44.7606727 9.84101423 44.7035446 9.86572833 44.6356533 9.86572833L42.6080207 9.86572833C42.5397154 9.86572833 42.4825873 9.84101423 42.4358085 9.79142044 42.3890298 9.74207503 42.3658473 9.68117982 42.3658473 9.60906598L42.3658473.583741268M55.7549288 6.56910737C55.8824321 6.54207503 55.9759897 6.58256145 56.0351876 6.69069082 56.145718 6.9338163 56.2947477 7.1388564 56.4818629 7.30539715 56.668564 7.47222768 56.8788616 7.60494696 57.1127555 7.70401035 57.3466494 7.80323933 57.5975162 7.87291074 57.8653558 7.91339715 58.1331953 7.95396636 58.4026908 7.97425097 58.6750841 7.97425097 58.7856145 7.97425097 58.9491332 7.96535058 59.1660543 7.94721863 59.3825614 7.92921087 59.5949288 7.89100129 59.8035705 7.83234153 60.0117982 7.77384735 60.1943596 7.68161449 60.3516688 7.55535317 60.508978 7.42929884 60.5876326 7.2581216 60.5876326 7.04198706 60.5876326 6.9338163 60.5598965 6.84162484 60.5048383 6.7650401 60.4493661 6.68853816 60.3814748 6.62776714 60.3007503 6.58256145 60.2200259 6.53760414 60.1285382 6.50150582 60.0267012 6.47447348 59.9244502 6.44748254 59.8267529 6.42512807 59.7331953 6.40691332 59.4951617 6.36199741 59.2529884 6.3170401 59.0066753 6.27183441 58.7599483 6.2269185 58.5132212 6.18634929 58.2669082 6.15020957 58.0458473 6.10529366 57.8396895 6.06708409 57.6484347 6.03541527 57.4571798 6.00395343 57.3189133 5.97923933 57.2340492 5.96110737 57.0047089 5.91610867 56.7219664 5.84416041 56.3862354 5.74489004 56.0500906 5.64595084 55.7271928 5.49286417 55.4171281 5.28554722 55.1066494 5.07843726 54.8388098 4.79908926 54.6136093 4.44791721 54.3879948 4.09662096 54.2758085 3.65073221 54.2758085 3.11025097 54.2758085 2.58798448 54.3987581 2.11506339 54.6454851 1.6916533 54.8321863 1.36734799 55.0727038 1.09950841 55.3657956.887720569 55.6593014.676181113 55.9759897.507363519 56.3158603.381102199 56.6557309.255006468 57.0129884.167244502 57.3872186.117567917 57.7610349.0681811125 58.1265718.0432600259 58.4838292.0432600259 59.112652.0432600259 59.6909702.0996843467 60.217956.212160414 60.7449418.324884864 61.2338422.51171022 61.6842432.772843467 61.905304.908046572 62.0986287 1.04983182 62.2646313 1.19844761 62.4302199 1.34706339 62.5726261 1.49124968 62.6918499 1.63079948 62.8106598 1.77059767 62.9104269 1.90339974 62.9915653 2.02937128 63.0722898 2.1556326 63.1335576 2.25904269 63.1766106 2.34018111 63.2188357 2.41233635 63.2275291 2.48664424 63.2018629 2.56314618 63.1766106 2.63973092 63.1211384 2.68700647 63.0362743 2.70493144L61.0086417 3.24541268C60.9577232 3.26354463 60.9043208 3.26126779 60.8492626 3.23858215 60.7937904 3.21622768 60.7536352 3.17781113 60.727969 3.12378784 60.6940233 3.06086417 60.6277878 2.96842432 60.5305045 2.84684088 60.4328072 2.72521604 60.2858473 2.60599224 60.0904528 2.4887969 59.8184735 2.36274256 59.5311772 2.27725744 59.229806 2.23201035 58.9280207 2.18709444 58.6792238 2.16453299 58.4838292 2.16453299 58.2797413 2.16453299 58.0777232 2.17591721 57.8781889 2.19827167 57.6782406 2.22083312 57.4994049 2.26140233 57.3425097 2.31989651 57.1852005 2.37859767 57.0572833 2.4596119 56.96 2.56314618 56.8618887 2.66672186 56.8134541 2.79952393 56.8134541 2.96163519 56.8134541 3.15992755 56.9045278 3.30171281 57.0875032 3.38723933 57.2700647 3.47293144 57.4931953 3.54723933 57.7568952 3.610163 57.8417594 3.62837775 57.9841656 3.65536869 58.1841138 3.69121863 58.3836481 3.72731695 58.6067788 3.76788616 58.8535058 3.81280207 59.142458 3.86686675 59.418577 3.91882018 59.6822768 3.96816559 59.9455627 4.01784217 60.1330918 4.05158085 60.2432083 4.06950582 60.5069082 4.1236533 60.8066235 4.19796119 61.1423545 4.29247089 61.4780854 4.38706339 61.7906339 4.53795602 62.08 4.74506598 62.3685382 4.95238292 62.6131953 5.2246934 62.8127296 5.56253558 63.0126779 5.90025356 63.112859 6.33943596 63.112859 6.87979301 63.112859 7.40226649 63.025511 7.8458784 62.851229 8.21062872 62.676947 8.57550323 62.4513325 8.87948254 62.1752135 9.12260802 61.8990944 9.3658163 61.5906856 9.55731953 61.250815 9.69682794 60.9109444 9.83666753 60.5706598 9.94007762 60.2307891 10.0076378 59.8905045 10.0751151 59.5696766 10.1157257 59.2678913 10.1291798 58.9661061 10.1427167 58.7214489 10.1494644 58.5347477 10.1494644 58.1692109 10.1494644 57.7631048 10.1224321 57.3168435 10.0684088 56.8705821 10.0143855 56.4243208 9.89483053 55.9780595 9.71040621 55.5317982 9.5258577 55.1066494 9.25561708 54.7030272 8.89976714 54.2989909 8.544 53.9524968 8.06437257 53.6635446 7.46076067 53.6209056 7.38881242 53.6167658 7.31678137 53.6507115 7.24466753 53.6846572 7.17259508 53.7401294 7.12767917 53.8167141 7.10946442L55.7549288 6.56910737M3.61401294 14.793066L3.61401294 20.049304 5.8152652 20.049304C6.00209056 20.049304 6.19090298 20.0425977 6.38228202 20.0292264 6.57345408 20.0158551 6.76247348 19.98489 6.94929884 19.9359172 7.136 19.88711 7.31156533 19.8137128 7.47620181 19.7157257 7.6406727 19.6179871 7.78514877 19.4755809 7.909837 19.2888383 8.03419405 19.1200207 8.14762225 18.8819457 8.24991462 18.57511 8.35216559 18.2682329 8.40341527 17.8480931 8.40341527 17.314401 8.40341527 16.9408745 8.36334282 16.6119327 8.28336352 16.3271617 8.20334282 16.0426805 8.10990944 15.8115188 8.00314618 15.6334696 7.87854075 15.4379508 7.73182924 15.2845744 7.56288745 15.1732574 7.39386287 15.0621061 7.21813195 14.9798085 7.03594308 14.9264476 6.85358862 14.8730039 6.66676326 14.8376093 6.475674 14.8196843 6.28429495 14.8019664 6.10421734 14.793066 5.93539974 14.793066L3.61401294 14.793066zM.879234153 12.9653816C.879234153 12.8942199.903575679 12.8342768.952548512 12.785304 1.00135576 12.7364968 1.06142303 12.7118655 1.13266753 12.7118655L6.01546184 12.7118655C6.0508564 12.7118655 6.0887762 12.7141423 6.12884864 12.718489 6.16883829 12.7231669 6.2108978 12.7252367 6.25552393 12.7252367 6.38000517 12.7341371 6.50676326 12.7385666 6.63579819 12.7385666 6.76454334 12.7385666 6.89130142 12.7475084 7.01598965 12.765185 7.66509702 12.8452471 8.24536093 13.0187426 8.75698836 13.2855058 9.26828461 13.5523933 9.7017956 13.890401 10.0576455 14.2994049 10.4132885 14.7085744 10.6823286 15.1755343 10.8648072 15.7002018 11.0469547 16.2250349 11.138194 16.7807503 11.138194 17.367762 11.138194 17.9104373 11.0669495 18.4373402 10.9247503 18.9486365 10.7824683 19.4601397 10.5466701 19.9337232 10.2177283 20.3694282 9.87959638 20.8053402 9.52407762 21.1410712 9.1505097 21.3767038 8.77698318 21.6123777 8.39439069 21.7858732 8.00314618 21.8969832 7.6116947 22.0083001 7.22276843 22.0749909 6.83587063 22.0970556 6.44897283 22.1193273 6.08215265 22.1304217 5.7352031 22.1304217L1.13266753 22.1304217C1.06142303 22.1304217 1.00135576 22.1060802.952548512 22.0571074.903575679 22.0083001.879234153 21.9482329.879234153 21.8769056L.879234153 12.9653816.879234153 12.9653816zM11.5916999 12.9653816C11.5916999 12.8942199 11.6161656 12.8342768 11.6651384 12.785304 11.7139043 12.7364968 11.7738887 12.7118655 11.845216 12.7118655L14.0730867 12.7118655C14.1442484 12.7118655 14.2041915 12.7364968 14.2531643 12.785304 14.3019715 12.8342768 14.3266028 12.8942199 14.3266028 12.9653816L14.3266028 18.2082898C14.3266028 18.5640983 14.3799638 18.8819457 14.486727 19.1620802 14.5934075 19.4422147 14.8289987 19.6713066 15.193749 19.8491488 15.4426287 19.9648124 15.6807038 20.0405278 15.9075188 20.0759224 16.1342924 20.1115653 16.3587477 20.1292833 16.5811746 20.1292833 16.6522122 20.1292833 16.736621 20.1292833 16.834608 20.1292833 16.9323467 20.1292833 17.0168797 20.1248952 17.0881242 20.1159948 17.4703855 20.0715757 17.7885226 20.0005382 18.041956 19.9025511 18.2954722 19.8048124 18.4976145 19.6669599 18.6490039 19.4889521 18.6933402 19.4355912 18.7378008 19.3778008 18.7824269 19.3155809 18.8267633 19.2534437 18.8624476 19.1754515 18.889066 19.0820181 18.9158085 18.9887089 18.9378732 18.8753221 18.9557982 18.7418163 18.9734748 18.6084347 18.9779457 18.4396171 18.9691281 18.2349082L18.9691281 12.9653816C18.9691281 12.8942199 18.9935938 12.8342768 19.0425666 12.785304 19.0913325 12.7364968 19.1513169 12.7118655 19.2226442 12.7118655L21.4371436 12.7118655C21.5083053 12.7118655 21.5682898 12.7364968 21.6172626 12.785304 21.6660285 12.8342768 21.6906598 12.8942199 21.6906598 12.9653816L21.6906598 18.141599C21.6906598 18.3906442 21.6840362 18.6374541 21.6707063 18.8819457 21.6573351 19.1266856 21.6260388 19.3668305 21.577273 19.6023389 21.5283001 19.8381371 21.448238 20.0715757 21.3371281 20.3027374 21.2257697 20.5341061 21.0680466 20.7608797 20.8635032 20.983141 20.614458 21.2499457 20.323229 21.4767193 19.9897335 21.6634618 19.6561966 21.8502872 19.3027063 22.0015938 18.9291798 22.1170505 18.5556119 22.2325485 18.1754204 22.3148875 17.7885226 22.3638603 17.4016248 22.4126261 17.0348047 22.4372574 16.6878551 22.4372574 16.3854489 22.4372574 16.0629651 22.417304 15.7206934 22.3772316 15.3781734 22.3372419 15.0513428 22.2815213 14.740119 22.2104838 14.5087917 22.1571229 14.2509288 22.0771022 13.9664062 21.9702975 13.6816352 21.8636585 13.4015006 21.7214592 13.1258784 21.5434101 12.7434515 21.2855472 12.4499457 21.0165071 12.2454023 20.7363726 12.0407762 20.4561138 11.8896766 20.1693558 11.7918965 19.8758499 11.6938266 19.5823441 11.6361604 19.2911151 11.6184424 19.0019974 11.6005175 18.7131281 11.5916999 18.4262872 11.5916999 18.141599L11.5916999 12.9653816M28.3631358 16.4606261L31.6716792 16.4606261C31.7694592 16.4606261 31.8805692 16.4539198 32.0051746 16.4405485 32.1296559 16.4273014 32.2473894 16.3939353 32.3587063 16.340533 32.4698577 16.2871721 32.5631669 16.20711 32.6388823 16.1004709 32.7143493 15.9936662 32.7522691 15.8469133 32.7522691 15.6602122 32.7522691 15.5801501 32.7456455 15.4867581 32.7322743 15.3799534 32.718903 15.273273 32.6855783 15.1845175 32.6322173 15.1131902 32.5964916 15.0777542 32.5588202 15.0398758 32.5188305 14.9998034 32.4787581 14.9598137 32.4187736 14.9220181 32.3387529 14.8863752 32.2586908 14.8509392 32.1586339 14.824238 32.0384994 14.8063131 31.918489 14.7886365 31.7604347 14.7796947 31.5649159 14.7796947L28.3631358 14.7796947 28.3631358 16.4606261zM25.6149858 12.9653816C25.6149858 12.8942199 25.6393273 12.8342768 25.6883415 12.785304 25.7371074 12.7364968 25.7971746 12.7118655 25.8684191 12.7118655L32.0051746 12.7118655C32.2720207 12.7118655 32.5342717 12.7231669 32.7922587 12.7452316 33.0501216 12.7674618 33.2991669 12.8141992 33.5393532 12.8853195 33.7794981 12.956564 34.0106598 13.0609677 34.2331281 13.1988202 34.4552652 13.3367555 34.6687089 13.521304 34.8734592 13.7524657 35.1313221 14.0459715 35.3024166 14.361749 35.3870323 14.699674 35.4715239 15.0377646 35.5137904 15.3489884 35.5137904 15.6334696 35.5137904 15.8202122 35.4958655 16.0115912 35.4604295 16.20711 35.4248279 16.4028357 35.3691074 16.596326 35.2937232 16.7874981 35.2180078 16.9787529 35.1202277 17.1610246 35.0002173 17.3343959 34.8800828 17.5078913 34.731053 17.6612678 34.5532523 17.7946494 34.3574851 17.9460388 34.1574127 18.0615369 33.9529935 18.141599 33.7482432 18.2216197 33.5570712 18.283881 33.379229 18.3283001L35.8606158 21.7301527C35.9227529 21.8191979 35.9340543 21.9081604 35.8939405 21.9970401 35.8539922 22.0860026 35.776 22.1304217 35.6605433 22.1304217L33.0324036 22.1304217C32.9967607 22.1304217 32.9566882 22.1170505 32.9123519 22.0904321 32.8677257 22.0637309 32.8366779 22.0369884 32.8189599 22.01037L30.5110686 18.5417439 28.3631358 18.5417439 28.3631358 21.8769056C28.3631358 21.9482329 28.3386287 22.0083001 28.2898215 22.0571074 28.2408486 22.1060802 28.1807814 22.1304217 28.1097439 22.1304217L25.8684191 22.1304217C25.7971746 22.1304217 25.7371074 22.1060802 25.6883415 22.0571074 25.6393273 22.0083001 25.6149858 21.9482329 25.6149858 21.8769056L25.6149858 12.9653816 25.6149858 12.9653816zM36.3808124 12.9653816C36.3808124 12.8942199 36.4052367 12.8342768 36.454251 12.785304 36.5030168 12.7364968 36.5630013 12.7118655 36.6343286 12.7118655L44.945718 12.7118655C45.0165071 12.7118655 45.076533 12.7364968 45.1257956 12.785304 45.1746442 12.8342768 45.1990686 12.8942199 45.1990686 12.9653816L45.1990686 14.566251C45.1990686 14.6374955 45.1746442 14.6975627 45.1257956 14.74637 45.076533 14.7953428 45.0165071 14.8196843 44.945718 14.8196843L39.1157154 14.8196843 39.1157154 16.3271617 44.7453558 16.3271617C44.8165589 16.3271617 44.8765847 16.351793 44.9254334 16.4005589 44.974282 16.4495731 44.9991203 16.5096404 44.9991203 16.5806779L44.9991203 18.1548461C44.9991203 18.2261734 44.974282 18.2862406 44.9254334 18.3349237 44.8765847 18.3840207 44.8165589 18.4083622 44.7453558 18.4083622L39.1157154 18.4083622 39.1157154 20.0359741 45.1990686 20.0359741C45.2702717 20.0359741 45.3302975 20.0604812 45.3791462 20.1092885 45.4279948 20.1582613 45.4524191 20.2183286 45.4524191 20.2893661L45.4524191 21.8769056C45.4524191 21.9482329 45.4279948 22.0083001 45.3791462 22.0571074 45.3302975 22.1060802 45.2702717 22.1304217 45.1990686 22.1304217L36.6343286 22.1304217C36.5630013 22.1304217 36.5030168 22.1060802 36.454251 22.0571074 36.4052367 22.0083001 36.3808124 21.9482329 36.3808124 21.8769056L36.3808124 12.9653816zM44.9055627 10.4839948C44.9945666 10.4839948 45.0657697 10.5062665 45.1187581 10.550727 45.1725744 10.6040466 45.1990686 10.6663907 45.1990686 10.7374282L45.1990686 11.6578939C45.1990686 11.8270013 45.1100647 11.9114101 44.9320569 11.9114101L36.6343286 11.9114101C36.5630013 11.9114101 36.5030168 11.8893454 36.454251 11.8447193 36.4052367 11.8003001 36.3762587 11.7425925 36.3674411 11.6712652 36.3674411 11.5024476 36.4475032 11.4090556 36.6076274 11.3911307L44.9055627 10.4839948 44.9055627 10.4839948zM46.3461837 12.9653816C46.3461837 12.8942199 46.370608 12.8342768 46.4194567 12.785304 46.4683053 12.7364968 46.5283312 12.7118655 46.5995343 12.7118655L54.9108409 12.7118655C54.982044 12.7118655 55.0420699 12.7364968 55.0909185 12.785304 55.1397671 12.8342768 55.1641915 12.8942199 55.1641915 12.9653816L55.1641915 14.566251C55.1641915 14.6374955 55.1397671 14.6975627 55.0909185 14.74637 55.0420699 14.7953428 54.982044 14.8196843 54.9108409 14.8196843L49.0808797 14.8196843 49.0808797 16.3271617 54.7108926 16.3271617C54.7820957 16.3271617 54.8421216 16.351793 54.8909702 16.4005589 54.9398189 16.4495731 54.9642432 16.5096404 54.9642432 16.5806779L54.9642432 18.1548461C54.9642432 18.2261734 54.9398189 18.2862406 54.8909702 18.3349237 54.8421216 18.3840207 54.7820957 18.4083622 54.7108926 18.4083622L49.0808797 18.4083622 49.0808797 20.0359741 55.1641915 20.0359741C55.2353946 20.0359741 55.2954204 20.0604812 55.3446831 20.1092885 55.3931177 20.1582613 55.417956 20.2183286 55.417956 20.2893661L55.417956 21.8769056C55.417956 21.9482329 55.3931177 22.0083001 55.3446831 22.0571074 55.2954204 22.1060802 55.2353946 22.1304217 55.1641915 22.1304217L46.5995343 22.1304217C46.5283312 22.1304217 46.4683053 22.1060802 46.4194567 22.0571074 46.370608 22.0083001 46.3461837 21.9482329 46.3461837 21.8769056L46.3461837 12.9653816M56.3117206 12.9653816C56.3117206 12.8942199 56.3361449 12.8342768 56.3849935 12.785304 56.4338422 12.7364968 56.493868 12.7118655 56.5650712 12.7118655L58.793066 12.7118655C58.8642691 12.7118655 58.924295 12.7364968 58.9731436 12.785304 59.0219922 12.8342768 59.0464166 12.8942199 59.0464166 12.9653816L59.0464166 19.9825304 63.7425097 19.9825304C63.8132988 19.9825304 63.8737387 20.0071617 63.9225873 20.0559276 63.971436 20.1049418 63.9958603 20.1650091 63.9958603 20.2360466L63.9958603 21.8769056C63.9958603 21.9482329 63.971436 22.0083001 63.9225873 22.0571074 63.8737387 22.1060802 63.8132988 22.1304217 63.7425097 22.1304217L56.5650712 22.1304217C56.493868 22.1304217 56.4338422 22.1060802 56.3849935 22.0571074 56.3361449 22.0083001 56.3117206 21.9482329 56.3117206 21.8769056L56.3117206 12.9653816"/>
    </g>
  </g>
</svg>
