<svg xmlns="http://www.w3.org/2000/svg" viewBox="0 0 113.3858 113.3858">
  <title>Zero</title>
  <path d="M37.1339,86.8535l26.1638,26.1638a56.6984,56.6984,0,0,0,49.4929-48.0189L76.252,28.46l-9.8362,9.8079L51.08,39.9685,42.52,57.1465l4.62,20.8063L37.1339,86.8819Z" style="fill:#70552b"/><path d="M76.252,28.46l-4.9606,9.0992a30.7424,30.7424,0,0,1,6.86,20.0976c0,7.2567-1.8425,13.3512-5.5276,18.3685S63.4394,83.537,56.126,83.537A20.6683,20.6683,0,0,1,46.8,81.4677l-2.9764,5.3858H37.1906l5.1024-9.1843c-4.6488-5.3008-7.0016-11.9339-7.0016-19.8142q0-10.8,5.4142-18.4252,5.4425-7.611,16.4409-7.6252a20.947,20.947,0,0,1,9.411,2.0693l3.09-5.3858H76.28ZM48.6709,66.1039,61.6252,42.7748a8.141,8.141,0,0,0-4.8189-1.4457,7.2119,7.2119,0,0,0-7.285,5.0173,34.3134,34.3134,0,0,0-1.9276,12.2173,23.7347,23.7347,0,0,0,1.0488,7.54Zm3.1748,6.2929a7.7914,7.7914,0,0,0,5.3008,1.5874q8.6315,0,8.6457-16.0724a40.7218,40.7218,0,0,0-.9071-8.9575L51.874,72.3969Z" />
</svg>
