<svg xmlns="http://www.w3.org/2000/svg" viewBox="0 0 113.3858 113.3858">
  <title>Standart</title>
  <path d="M41.074,77.9811,73.8425,110.75a56.7892,56.7892,0,0,0,36.3969-35.4047L71.8866,36.9921l-3.2882-2.5228-8.9291-8.8441L42.4913,57.1465,59.074,73.7291,57.7984,75.685l-4.11-2.2677-6.6331-6.6331L41.074,78.0094Z" style="fill:#2a566b"/><path d="M59.811,82.9984v7.4268H53.5181V82.9984c-9.4677-.9921-15.222-5.5843-17.263-13.72l10.8-2.4945Q48.926,73.8,57.26,73.8142c2.6929,0,4.7055-.51,6.0378-1.5591A4.5776,4.5776,0,0,0,65.31,68.5417a3.8944,3.8944,0,0,0-1.7858-3.43c-1.1906-.822-3.515-1.5591-6.9449-2.2394-7.4835-1.5307-12.3307-3.6-14.485-6.2079a14.0566,14.0566,0,0,1-3.26-9.1843,14.8975,14.8975,0,0,1,4.0819-10.5165,16.7636,16.7636,0,0,1,10.6016-5.1307V25.6252H59.811v6.2079c8.1354.7654,13.4646,4.5921,15.9874,11.537l-9.9213,3.3165c-1.3323-3.94-4.1953-5.8961-8.5606-5.8961-4.62,0-6.9449,1.5024-6.9449,4.4787a3.95,3.95,0,0,0,1.3039,3.0331c.85.822,2.8346,1.5591,5.8677,2.1543A59.41,59.41,0,0,1,68.74,53.5748a14.3107,14.3107,0,0,1,6.0094,5.074,13.5257,13.5257,0,0,1,2.4094,7.852,15.8079,15.8079,0,0,1-4.3087,10.8C69.9591,80.5323,65.622,82.4031,59.811,82.97Z" />
</svg>
