<svg xmlns="http://www.w3.org/2000/svg" viewBox="0 0 113.3858 113.3858">
  <title>Micro</title>
  <path d="M28.7433,78.4063,63.326,112.989A56.7483,56.7483,0,0,0,111.43,71.5465l-29.622-29.622-7.7669,2.8346-17.32,1.389L41.9528,41.6693l-2.3244-2.3244-3.5433,13.38L28.7717,78.4063Z" style="fill:#5d5071"/><path d="M84.6425,78.4063H73.0772v-21.6a36.383,36.383,0,0,0-.2835-5.9244,3.7456,3.7456,0,0,0-1.4173-2.2961,5.0045,5.0045,0,0,0-3.1465-.9071,6.7215,6.7215,0,0,0-3.8551,1.3606c-1.3323.9071-1.9843,3.4866-1.9843,7.7669v21.6H50.8252v-21.6A25.9262,25.9262,0,0,0,50.4,50.7685a4.1565,4.1565,0,0,0-1.6157-2.2394,5.0219,5.0219,0,0,0-3.0047-.85,5.2376,5.2376,0,0,0-4.422,1.8709c-.9638,1.2472-1.4457,3.6567-1.4457,7.2567v21.6H28.7433V39.3449H39.6V45.326q2.7638-6.7606,10.9984-6.7465A11.2565,11.2565,0,0,1,61.4268,45.326q3.274-6.7606,11.3669-6.7465a13.3128,13.3128,0,0,1,6.6614,1.5874,9.2064,9.2064,0,0,1,3.9969,4.1386c.7937,1.7008,1.1906,4.62,1.1906,8.7874V78.4063Z" />
</svg>
