<svg xmlns="http://www.w3.org/2000/svg" viewBox="0 0 113.3858 113.3858">
  <title>Cent</title>
  <path d="M53.8583,87.3638S64.46,98.3622,75.94,110.0409a56.85,56.85,0,0,0,33.6189-32.8252L61.2,28.8567,43.0016,63.78l-.1134,10.7717L53.83,85.55v1.8142Z" style="fill:#467828"/><path d="M77.1024,63.0709Q75.1465,77.1024,61.2,79.6252v7.71H53.8583v-7.71A19.5153,19.5153,0,0,1,43.852,75.4016a20.7236,20.7236,0,0,1-5.8394-7.9087,26.0131,26.0131,0,0,1-1.8992-10.0913q0-9.5669,4.8756-15.6472a17.6415,17.6415,0,0,1,12.8693-6.7465V28.8567H61.2v6.1512c9.1843,1.3039,14.5417,6.7748,16.0724,16.4693l-11.9055.737q-1.063-8.0787-7.4835-8.0787-8.2488,0-8.2488,13.8331a16.3271,16.3271,0,0,0,2.0693,8.7874,6.8108,6.8108,0,0,0,6.18,3.3165q6.6756,0,7.4835-7.9087l11.7071.9071Z"/>
</svg>
