<svg xmlns="http://www.w3.org/2000/svg" viewBox="0 0 113.3858 113.3858">
  <title>Unlimited</title>
  <path d="M32.0882,71.2346,72.1134,111.26a56.7642,56.7642,0,0,0,39.43-40.2236h0L80.3906,39.8835,56.8346,48.6992,45.8929,42.6047,33.08,49.2378Z" style="fill:#434242"/><path d="M69.6189,35.8583a15.1838,15.1838,0,0,1,12.6142,6.0378q4.4646,5.6126,4.45,14.1732,0,9.4394-4.11,15.0236-4.72,6.463-14.1732,6.463c-5.7543,0-9.978-2.4378-12.7276-7.3417a13.59,13.59,0,0,1-5.4142,3.9118,17.5361,17.5361,0,0,1-7.115,1.5024,14.6369,14.6369,0,0,1-12.4724-6.0378q-3.9543-5.4-3.9685-13.6913a20.8606,20.8606,0,0,1,4.28-13.011A14.2315,14.2315,0,0,1,42.8315,36.737,16.7979,16.7979,0,0,1,50.2583,38.58a14.2347,14.2347,0,0,1,5.8961,4.8472q4.2945-7.526,13.4362-7.54Zm-26.22,10.5449a7.2318,7.2318,0,0,0-5.6126,2.6646,9.4335,9.4335,0,0,0-2.3811,6.52,12.3082,12.3082,0,0,0,1.7858,7.0866,5.5074,5.5074,0,0,0,4.7055,2.6079c2.4945,0,4.6772-1.8142,6.5764-5.4425a63.7189,63.7189,0,0,0,3.4866-9.1559A10.8374,10.8374,0,0,0,43.3984,46.4031Zm26.9575.7654c-2.863,0-5.2441,1.8992-7.115,5.6693C62.05,55.8992,60.86,58.9606,59.6976,62.022c2.3811,3.4583,5.4709,5.1874,9.326,5.1874a8.3773,8.3773,0,0,0,6.4346-2.6362c1.8142-1.9276,2.7213-4.62,2.7213-8.1071C78.18,50.2866,75.5717,47.1685,70.3559,47.1685Z" />
</svg>
