<svg xmlns="http://www.w3.org/2000/svg" viewBox="0 0 87 89">
  <g fill="none" fill-rule="evenodd" transform="translate(-26 -26)">
    <circle cx="70" cy="70" r="70"/>
    <path fill="#fff" d="M70.93 61c-.465.758-.67 1.017-.796 1.308-1.054 2.413-1.908 4.937-3.196 7.217-1.056 1.867-2.1 3.614-2.338 5.823-.14 1.298-.715 2.592-1.296 3.79-1.595 3.28-3.31 6.5-4.945 9.76-.322.64-.88 1.512-.674 2.006.857 2.06-.46 2.84-1.726 3.985-.98.884-1.658 2.26-2.05 3.548-.128.415 1.085 1.228 1.668 1.875.488.542.982 1.082 1.417 1.665 1.67 2.233 3.316 4.483 5.032 6.81 3.635-1.614 7.11-3.668 11.343-2.672l-4.546-4.992c5.726-1.867 9.01 1.914 12.453 4.555 1.54-1.49 2.912-2.77 4.23-4.104.937-.95 3.28-.75 2.822-2.715-.326-1.39-1.47-2.597-2.294-3.857-.206-.316-.69-.466-.858-.79-.348-.665-.63-1.38-.828-2.105-.344-1.26-.422-2.62-.936-3.798-.872-2-2.093-3.846-2.99-5.835-1.288-2.846-2.438-5.755-3.602-8.654-.465-1.158-.814-2.364-1.21-3.55-.034-.1-.035-.21-.06-.37l1.006-.16-3.637-7.85-.358.136c.345 1.277.69 2.553 1.033 3.83-.112.035-.223.07-.335.103L70.93 61m-13.263 52.535l2.907-3.313-.215-.288c-.773.28-1.576.498-2.312.854-4.416 2.13-8.258.696-11.91-1.89-.33-.234-.706-.698-.69-1.04.01-.257.58-.603.96-.712 1.683-.486 3.388-.902 5.486-1.447-.653-.26-1.11-.56-1.587-.596-.482-.034-.988.18-1.475.314-6.274 1.752-10.958-1.217-15.28-5.18-.538-.496-.842-1.247-1.39-2.087 3.38-1 6.643-1.723 10.078-.53l.297-.5c-.488-.394-.92-.99-1.475-1.143-1.293-.36-2.646-.502-3.973-.74-3.26-.59-5.427-2.83-7.413-5.17-1.03-1.214-1.657-2.797-2.332-4.275-.328-.716-.347-1.574-.568-2.678l3.368.433c-.827-1.06-1.632-1.953-2.28-2.947-1.698-2.608-1.936-5.58-1.85-8.572.018-.612.47-1.35.955-1.75.216-.177 1.107.22 1.516.566 1.144.966 2.195 2.04 3.354 3.14.047-.064.275-.23.266-.378-.135-2.115.225-4.466-.593-6.284-1.05-2.333-.907-4.593-.81-6.877.188-4.51 2.49-8.106 5.67-11.292 0 3.24.207 6.5-.07 9.716-.206 2.41-.918 4.802-1.632 7.134-.39 1.27-.296 2.14.525 3.22 1.156 1.522 2.28 2.988 2.876 5.014 1.134 3.854-.766 6.745-2.107 9.89-.088.206-.397.32-.733.575-.44-.89-.824-1.672-1.27-2.58-.57 1.664-.198 2.812 1.17 3.813 1.284.94 2.404 2.102 3.902 3.44l.743-6.495c4.617 2.908 8.038 7.41 4.753 15.34 1.022.822 2.08 1.675 3.138 2.528.164-.1.33-.2.494-.302-.32-1.07-.683-2.13-.94-3.215-.12-.502-.038-1.053-.046-1.582.513.05 1.076-.015 1.53.177 1.425.6 2.808 1.3 4.296 2.002l10.258-29.02c.11.234.29.626.475 1.017 1.968-2.803 4.47-10.406 3.66-11.565-.416.7-.793 1.338-1.19 2.01-.582-1.807.88-4.813 2.33-4.89-.18-1.936-1.38-4.055 1.148-5.49l-.89-1.282.99-.94c-1.107-1.57-2.06-3.037-3.15-4.392-.38-.474-1.086-.71-1.675-.99-9.12-4.314-17.466-9.908-25.78-15.555-.12-.08-.192-.24-.422-.537L43.1 27.27c.974.744 2.154 1.838 3.505 2.644 3.86 2.303 7.805 4.47 11.68 6.747.526.31.854.95 1.273 1.438l-.292.308 4.798 1.867.114-.212-1.396-1.516.157-.287 7.354 1.625c.31-1.21.637-2.203.785-3.222.043-.305-.342-.764-.646-1.006-.44-.35-.985-.567-1.486-.84.396-.63.718-1.724 1.2-1.8 1.3-.206 2.733-1.242 4.006.146 1.152 1.255 1.075 2.536-.237 3.673-.208.18-.385.406-.538.635-.68 1.015-1.344 2.04-1.956 2.972 1.486-.466 3.224-1.084 5.003-1.534.874-.22 1.83-.114 2.745-.194.375-.033.782-.093 1.104-.268 1.41-.77 2.796-1.585 4.367-2.485l-1.304-.515c.12-.172.18-.343.295-.402 3.887-2.022 7.79-4.01 11.663-6.06.88-.466 1.586-1.322 2.498-1.66 1.572-.58 3.243-.896 4.873-1.323l.2.56c-.836.492-1.666.998-2.512 1.474-4.29 2.416-8.643 4.73-12.86 7.265-3.752 2.255-7.414 4.675-10.982 7.21-.842.598-1.364 1.89-1.663 2.966-1.54 5.54-.68 10.803 1.76 15.982 1.106 2.35 1.526 5.02 2.312 7.527.55 1.754 1.18 3.48 1.79 5.215 1.62 4.597 3.245 9.19 4.87 13.785 1.138 3.226 2.337 6.432 3.393 9.685.442 1.362.976 1.278 2.054.675 2.14-1.197 4.568-1.97 6.51-3.41 2.453-1.82 5.51-3.06 6.946-6.29l-2.233.372c.927-2.96 2.488-5.194 4.748-6.952.576-.447 1.16-.936 1.822-1.21 2.277-.95 2.677-2.966 2.945-5.032.352-2.714.61-5.44.947-8.492.136.656.318 1.048.277 1.416-.316 2.883-.83 5.754-.977 8.644-.145 2.845-1.447 5.043-3.068 7.216-.35.47-.277 1.42-.11 2.075.583 2.313-.048 4.456-.8 6.575-.075.216-.826.193-1.352.3-.48 3.172-2.92 5.482-4.708 8.34l-.778-.702c-1.597 2.046-3.096 4.11-4.752 6.038-1.016 1.183-1.82.922-2.207-.603-.824-3.26-.476-6.412.684-9.67-.302.427-.744.812-.883 1.287-.673 2.3-1.26 4.625-1.887 6.938-.102.376-.186.792-.407 1.096-3.02 4.14-7.16 6.506-12.122 7.52-.35.073-.74-.053-1.376-.11l2.367-6.523-.345-.442c-3.227 4.75-7.522 7.908-13.182 8.237-3.058.177-6.243-.22-9.426-1.425"/>
  </g>
</svg>
