<svg xmlns="http://www.w3.org/2000/svg" width="48" height="48" viewBox="0 0 48 48">
  <g fill="none" fill-rule="evenodd">
    <polygon fill="#F3203B" points="0 0 48 .097 48 48 0 48"/>
    <path fill="#FFFFFF" d="M23,31 L25,31 L25,29 L23,29 L23,31 Z M23,27 L25,27 L25,25 L23,25 L23,27 Z M23,23 L25,23 L25,21 L23,21 L23,23 Z M23,19 L25,19 L25,17 L23,17 L23,19 Z M39,14 L9,14 L9,19.7142857 C11.2595455,19.7142857 13.0909091,21.6328571 13.0909091,24 C13.0909091,26.3671429 11.2595455,28.2857143 9,28.2857143 L9,34 L39,34 L39,28.2857143 C36.7404545,28.2857143 34.9090909,26.3671429 34.9090909,24 C34.9090909,21.6328571 36.7404545,19.7142857 39,19.7142857 L39,14 Z"/>
  </g>
</svg>
