<svg xmlns="http://www.w3.org/2000/svg" width="96" height="73" viewBox="0 0 96 73">
  <g fill="none" fill-rule="evenodd" transform="translate(-17 -29)">
    <rect width="128" height="128"/>
    <g transform="translate(17 29)">
      <polygon points="96 73 0 73 0 0 96 0"/>
      <path fill="#111111" d="M38.5582502,17.9082862 L28.4736548,17.9082862 C27.4267347,17.9082862 26.6744216,18.000438 26.6744216,18.000438 L26.6744216,17.9387527 C26.6744216,17.9387527 27.458326,17.2966993 28.4736548,15.9535403 L37.5289625,3.94936161 L37.5289625,0.650704341 L19.8738492,0.650704341 L19.8738492,5.23271607 L28.4736548,5.23271607 C29.5194729,5.23271607 30.2703166,5.14169269 30.2703166,5.14169269 L30.2703166,5.20262569 C30.2703166,5.20262569 29.4864122,5.8427984 28.4736548,7.18821426 L19.448469,19.1299554 L19.448469,22.4891695 L36.9386465,22.4891695 L38.5582502,17.9082862 Z M72.763517,67.3302212 L77.057726,73 L81.3890364,69.5587896 L76.2312102,62.749714 L72.763517,67.3302212 Z M71.6262312,56.6733391 L66.1928996,49.5009223 L61.8623239,52.9432611 L68.1570686,61.2515895 L61.8623239,69.5587896 L66.1928996,73 L71.6262312,65.8283354 L75.094659,61.250085 L81.3890364,52.9432611 L77.0599301,49.5009223 L71.6262312,56.6733391 Z M51.1143117,49.9620573 L51.1143117,54.8807051 C53.87414,55.3335652 55.9731229,57.8284333 55.9731229,61.0582589 C55.9731229,64.4257479 53.87414,67.0353356 51.1143117,67.5073783 L51.1143117,72.4279068 C57.089103,71.9833215 61.3730265,67.1681094 61.3730265,61.0582589 C61.3730265,55.0939706 57.089103,50.3961109 51.1143117,49.9620573 L51.1143117,49.9620573 Z M39.0607719,61.0582589 C39.0607719,67.1681094 43.344328,71.984826 49.3205887,72.4279068 L49.3205887,67.5073783 C46.5596584,67.0353356 44.4588387,64.4272524 44.4588387,61.0582589 C44.4588387,57.8284333 46.5596584,55.3316845 49.3205887,54.8807051 L49.3205887,49.9620573 C43.344328,50.3961109 39.0607719,55.0939706 39.0607719,61.0582589 L39.0607719,61.0582589 Z M19.448469,72.1138385 L24.6702125,72.1138385 L24.6702125,50.2757494 L19.448469,50.2757494 L19.448469,72.1138385 Z M27.0252317,50.2765017 L26.4639356,50.2765017 L26.4639356,54.857385 L26.8169497,54.857385 C30.3371726,54.857385 32.6337846,56.9964345 32.6337846,61.1492823 C32.6337846,65.3337249 30.4260689,67.5337074 26.8169497,67.5337074 L26.4639356,67.5337074 L26.4639356,72.1138385 L27.0252317,72.1138385 C33.7372751,72.1138385 38.0333208,68.0219237 38.0333208,61.1492823 C38.0333208,54.2770169 33.7372751,50.2765017 27.0252317,50.2765017 L27.0252317,50.2765017 Z M3.37585808,45.2878938 C1.51234034,45.2878938 0,46.8341629 0,48.7437733 C0,50.6518791 1.51234034,52.1985243 3.37585808,52.1985243 C5.23974317,52.1985243 6.75208351,50.6518791 6.75208351,48.7437733 C6.75208351,46.8341629 5.23974317,45.2878938 3.37585808,45.2878938 L3.37585808,45.2878938 Z M3.37585808,20.3948795 C1.51234034,20.3948795 0,21.9426531 0,23.850759 C0,25.7592409 1.51234034,27.3073907 3.37585808,27.3073907 C5.23974317,27.3073907 6.75208351,25.7592409 6.75208351,23.850759 C6.75208351,21.9426531 5.23974317,20.3948795 3.37585808,20.3948795 L3.37585808,20.3948795 Z M90.7687057,53.5401789 L92.8805455,53.5401789 L92.8805455,52.3233994 L89.223672,52.3200142 L89.223672,57.2954576 L90.7687057,57.2954576 L90.7687057,55.4497893 L92.8849536,55.4497893 L92.8849536,54.1795993 L90.7687057,54.1795993 L90.7687057,53.5401789 Z M86.3437235,58.2888161 L86.147931,58.2888161 L86.147931,59.9498047 L87.7708408,59.9498047 L87.7708408,59.7519605 L86.3437235,59.7519605 L86.3437235,58.2888161 Z M86.147931,51.4015055 L86.3437235,51.4015055 L86.3437235,49.9387372 L87.7708408,49.9387372 L87.7708408,49.7393885 L86.147931,49.7393885 L86.147931,51.4015055 Z M95.828452,58.4723673 C95.5356818,59.0042147 95.1088322,59.4454148 94.5901476,59.744814 L94.6893295,59.9197143 C95.2355647,59.5984996 95.687026,59.1343556 96,58.5709133 L95.828452,58.4723673 Z M95.828452,51.1762039 L95.9974286,51.0799147 C95.687026,50.5172247 95.2355647,50.0527045 94.6893295,49.7348749 L94.5901476,49.9067662 C95.1088322,50.2099267 95.5356818,50.645861 95.828452,51.1762039 L95.828452,51.1762039 Z M72.6084993,42.6015756 L67.8385845,42.6015756 L67.8385845,38.0816253 L72.6536822,38.0816253 C74.9719673,38.0816253 76.0626009,39.0892767 76.0626009,40.3109459 C76.0626009,41.5329912 74.9267845,42.6015756 72.6084993,42.6015756 L72.6084993,42.6015756 Z M67.8385845,29.9267578 L71.8264317,29.9267578 C71.8712472,29.9267578 71.9076139,29.933152 71.949858,29.9339042 C73.9632507,29.9786637 74.7927052,30.8080296 74.7927052,31.7897281 C74.7927052,32.8233324 73.9316594,33.7952515 71.9513274,33.8031502 C71.9450826,33.8031502 71.9384705,33.8050309 71.931491,33.8050309 L67.8385845,33.8050309 L67.8385845,29.9267578 Z M77.4867796,35.7601529 L77.4867796,35.6992199 C79.3859293,34.7521254 80.4038295,32.888779 80.4038295,31.0558991 C80.4038295,27.3002442 76.8891168,25.344746 71.862431,25.344746 L62.617943,25.344746 L62.617943,47.1832112 L71.862431,47.1832112 C76.8523827,47.1832112 81.4231991,45.4424831 81.4231991,40.6765439 C81.4231991,38.7533929 80.3685648,36.5236962 77.4867796,35.7601529 L77.4867796,35.7601529 Z M70.5859232,22.5715419 C70.6975947,22.5715419 70.9664878,22.5636432 70.993671,22.5636432 C74.7453183,22.5636432 77.7835906,21.7444328 80.5797856,19.9570645 L80.5797856,9.86625756 L72.9427791,9.86625756 L72.9427791,14.4170505 L75.9564396,14.4170505 L75.9564396,16.7310003 C75.9564396,16.7310003 74.136268,17.6852413 71.6302719,17.6852413 C68.3198004,17.6852413 65.5147893,15.2106841 65.5147893,11.0574602 C65.5147893,7.82011212 67.3338588,4.88742902 71.809534,4.88742902 C74.8228271,4.88742902 76.9985842,6.90310796 76.9985842,6.90310796 L79.506417,2.90221659 C79.506417,2.90221659 76.760915,0 71.3022369,0 C64.7992102,0 60.1167224,4.88742902 60.1167224,11.2402593 C60.1167224,18.3874754 65.1276125,22.5715419 70.5859232,22.5715419 L70.5859232,22.5715419 Z M27.8039933,35.2384611 C27.790769,35.2384611 27.7804835,35.2414701 27.7676266,35.2414701 L24.6698452,35.2414701 L24.6698452,29.9267578 L27.2048611,29.9267578 C27.4998355,29.9267578 27.7676266,29.93917 28.0185201,29.9579765 C30.7103904,30.1336291 31.3638889,31.070192 31.3638889,32.552519 C31.3638889,34.2699271 29.995546,35.2136365 27.8039933,35.2384611 L27.8039933,35.2384611 Z M33.1366736,38.2339578 L33.1366736,38.1730248 C35.4894887,37.07435 36.6833449,34.5381076 36.6833449,32.2166352 C36.6833449,29.039844 34.9932119,26.8101473 32.3079537,25.8645572 C31.2805026,25.4982069 30.1211764,25.344746 27.701138,25.344746 L19.448469,25.344746 L19.448469,47.1832112 L24.6698452,47.1832112 L24.6698452,39.8223534 L28.5651226,39.8223534 L32.7730066,47.1832112 L38.6375958,47.1832112 L34.0329841,39.5474026 C33.4691166,38.6307746 33.1366736,38.2339578 33.1366736,38.2339578 L33.1366736,38.2339578 Z M58.5085062,29.9267578 L58.5085062,25.344746 L41.4628106,25.344746 L41.4628106,47.1832112 L58.9702531,47.1832112 L58.9702531,42.6015756 L46.6838194,42.6015756 L46.6838194,38.478066 L56.6839266,38.478066 L56.6839266,33.8975588 L46.6838194,33.8975588 L46.6838194,29.9267578 L58.5085062,29.9267578 Z M48.7019875,9.38669222 C49.1123067,8.01193825 49.6173997,5.63028514 49.6173997,5.63028514 L49.6820516,5.63028514 C49.6820516,5.63028514 50.1867773,8.01193825 50.5974638,9.38669222 L51.86038,13.6305634 L47.4071126,13.6305634 L48.7019875,9.38669222 Z M46.1126051,17.9082862 L53.1567242,17.9082862 L54.5456382,22.4891695 L60.2313326,22.4891695 L52.555388,0.650704341 L46.7433286,0.650704341 L39.069588,22.4891695 L44.7538131,22.4891695 L46.1126051,17.9082862 Z"/>
    </g>
  </g>
</svg>
