<svg xmlns="http://www.w3.org/2000/svg" width="74" height="80" viewBox="0 0 74 80">
  <g fill="none" fill-rule="evenodd" transform="translate(-27 -24)">
    <rect width="128" height="128"/>
    <g fill="#000000" transform="translate(27 24)">
      <path d="M43.1240985,42.5784781 C43.5906794,39.4477037 43.4603632,36.407165 45.4790397,33.8859529 C47.1051353,31.8555152 47.658775,29.3922155 48.269275,26.9555825 C48.3767382,26.5270303 48.3876206,26.0324848 48.6191426,25.6828552 C50.2017088,23.2960539 50.1062162,20.6819125 49.8096721,18.013899 C49.6834368,16.8769293 49.7133632,15.7235286 49.6154221,14.5822492 C49.5329882,13.6174007 49.3689368,12.6595556 49.1839368,11.2723502 C48.5761574,11.9778047 47.5605618,13.347771 47.5605618,13.347771 C47.5605618,13.347771 46.2114221,13.5347071 45.3359368,13.5110034 C44.6930618,13.4934949 43.2867897,13.5721481 43.2867897,13.5721481 C43.2867897,13.5721481 42.2578632,12.3783434 41.720275,11.5279731 C41.5967603,11.5699933 41.4735176,11.6120135 41.3500029,11.6537643 C41.2232235,12.6816431 40.8855985,13.7394209 41.0276132,14.7295892 C41.1756132,15.7617778 40.7786794,16.4831246 40.4464956,17.3628552 C39.2722897,20.4742357 36.9491794,21.3986801 33.8294809,21.2664242 C32.3013265,21.2017778 30.7505912,21.3938316 29.2248853,21.5856162 C22.9988191,22.3691852 20.0692897,27.5753805 19.1170838,32.6129562 C18.73865,34.6159192 19.187275,36.4626532 20.4705765,38.2291178 C21.0478853,35.597468 21.6251941,32.9655488 22.2022309,30.3341684 C23.0268412,33.0436633 23.4811794,35.7060202 21.6907603,38.1677037 C20.7554221,39.4536296 20.3016279,40.8405657 20.8811132,42.7664916 C17.6289221,40.5932929 15.6042603,37.9662222 14.3242235,34.7883098 C12.0421941,29.1228552 12.3022824,23.4081077 14.6082529,17.8649428 C18.4899882,8.53349495 25.2895544,2.37457239 35.4460544,0.402047138 C47.5143118,-1.94165657 57.7031868,6.21134007 57.7956868,18.4106667 C57.8751279,28.9097912 52.6948559,36.6474343 43.9614956,42.2479731 C43.7865618,42.3602963 43.5683706,42.4060875 43.1240985,42.5784781"/>
      <path d="M5.61942941,11.9488754 L5.62759118,11.9488754 C5.62759118,13.1127811 5.57290735,14.2796498 5.63956176,15.4400539 C5.75763529,17.4877306 7.19628235,18.7631515 9.30718676,18.7795825 C11.4374074,18.7962828 12.9029882,17.564229 12.9843338,15.4896162 C13.0754735,13.1655758 13.0738412,10.8329158 12.9911353,8.50860606 C12.9141426,6.33810101 11.4545471,5.06268013 9.289775,5.08584512 C7.14431912,5.10927946 5.71056912,6.45958249 5.62704706,8.59129966 C5.58351765,9.70914478 5.61942941,10.8296835 5.61942941,11.9488754 L5.61942941,11.9488754 Z M18.4483632,11.9281347 C18.4483632,13.0933872 18.3953118,14.2616027 18.4576132,15.4236229 C18.7345691,20.6203906 15.2818706,22.8970236 11.6433559,23.5003906 C9.32623088,23.8844983 7.04501765,23.7514343 4.83889265,22.868202 C1.92078971,21.6997172 0.264767647,19.3473939 0.228855882,16.2185051 C0.200289706,13.7086061 0.220422059,11.1984377 0.220966176,8.68853872 C0.221510294,3.79076094 2.32642941,1.25608081 7.23110588,0.376619529 C10.0403853,-0.126814815 12.7405691,0.250289562 15.1929074,1.78321886 C17.2496721,3.06860606 18.3759956,4.9266532 18.4312235,7.35655219 C18.4660471,8.87951515 18.438025,10.4043636 18.438025,11.9281347 L18.4483632,11.9281347 Z" transform="translate(18.5 56.29)"/>
      <path d="M5.40580882,66.4823704 C7.05339706,66.4823704 8.62834559,66.5876902 10.1807132,66.448431 C11.3734191,66.3414949 12.0576471,65.282101 12.0467647,64.0169158 C12.0353382,62.7134815 11.3758676,61.7308552 10.1461618,61.6266128 C8.59216176,61.4940875 7.01830147,61.5945589 5.40580882,61.5945589 L5.40580882,66.4823704 Z M5.32936029,71.3346263 L5.32936029,79.6217643 L0,79.6217643 L0,56.8530101 C4.00715441,56.8530101 7.96016912,56.5876902 11.8582279,56.9305859 C15.4809632,57.2497778 17.6353971,60.4845253 17.413125,64.358734 C17.1900368,68.2437172 14.4074191,71.1420337 10.6402206,71.3208889 C8.93141912,71.4019663 7.21554412,71.3346263 5.32936029,71.3346263 L5.32936029,71.3346263 Z"/>
      <polygon points="63.099 70.747 63.099 79.641 57.79 79.641 57.79 56.809 73.846 56.809 73.846 61.409 63.213 61.409 63.213 65.919 72.25 65.919 72.25 70.747"/>
      <polygon points="40.046 79.66 40.046 56.817 56.129 56.817 56.129 61.456 45.417 61.456 45.417 65.92 54.489 65.92 54.489 70.726 45.365 70.726 45.365 79.66"/>
      <path d="M37.7124132 34.2593401C38.1145162 37.6470842 38.5177074 41.0437172 38.9293324 44.5111919 36.3276338 45.5199461 33.7553176 45.9625051 31.1389279 45.75833 30.3978397 45.7006869 29.5724132 44.9338182 29.0484279 44.2841212 27.9435971 42.9141549 27.9724353 40.5893064 28.9776926 39.101899 29.8556265 37.8030438 30.7700162 36.5265455 31.7216779 35.2799461 31.8938912 35.0542222 32.3136779 34.9545589 32.6352515 34.909037 34.2414868 34.6825051 35.8534353 34.4931448 37.7124132 34.2593401M27.4667596 45.6253468C25.8580757 45.0596902 24.5943625 44.5931582 23.3151419 44.1732256 22.4192522 43.8796229 22.029664 43.1984108 22.2527522 42.4099933 22.575414 41.2708687 22.9122228 40.0156498 23.6446051 39.1386128 24.7148846 37.8567273 26.141289 36.8660202 27.5497375 35.6347744 27.1998699 36.7116768 26.8138184 37.7605657 26.525164 38.8353131 26.3192154 39.6027205 26.0248478 40.4433939 26.1581566 41.1827879 26.4081787 42.567569 26.9400537 43.9027879 27.4667596 45.6253468M27.2639125 52.6145185C27.270714 54.0203098 26.1261625 55.1858316 24.7057434 55.219771 23.209964 55.255596 21.9930449 54.1030034 21.9821625 52.6406465 21.9715522 51.2378182 23.1218169 50.0679865 24.5414199 50.0372795 26.0388316 50.0049562 27.2565669 51.1578182 27.2639125 52.6145185M28.6964654 52.6068956C28.7051713 51.1184108 29.8826419 49.9967946 31.3944728 50.0369293 32.8494434 50.0757172 33.9224434 51.19033 33.9039434 52.643798 33.8854434 54.1053468 32.801289 55.2032593 31.353936 55.2256162 29.859789 55.2490505 28.6874875 54.0937643 28.6964654 52.6068956M40.8928897 43.9657912C40.3188456 41.4292256 40.9603603 36.100202 41.7844265 34.7943434 41.5107353 37.6113131 41.2160956 40.6402694 40.8928897 43.9657912"/>
    </g>
  </g>
</svg>
