<svg xmlns="http://www.w3.org/2000/svg" width="24" height="64" viewBox="0 0 24 64">
  <g fill="none" fill-rule="evenodd" transform="translate(-20)">
    <rect width="64" height="64"/>
    <g fill="#FFFFFF" transform="translate(20)">
      <path d="M11.7517206,23.5856254 C8.48568889,23.5856254 4.80416508,20.9921016 2.73686349,17.8520381 C0.968228571,15.1670857 0.530387302,12.5613714 0.88695873,10.3548952 C1.70067302,5.31718095 6.27311746,2.21368889 11.7517206,2.21368889 C17.2313397,2.21368889 21.8586413,5.31718095 22.6723556,10.3548952 C23.0299429,12.5715302 22.5677206,15.1955302 20.7736889,17.8896254 C18.6921651,21.012419 15.0055619,23.5856254 11.7517206,23.5856254 M21.4563556,18.5133714 C22.7465143,16.5496889 23.5013079,14.2070857 23.5013079,11.7496889 C23.5013079,5.26029206 18.2401016,0.000101587303 11.7507048,0.000101587303 C5.26130794,0.000101587303 0.000101587302,5.26029206 0.000101587302,11.7496889 C0.000101587302,14.2081016 0.756926984,16.5507048 2.04708571,18.5154032 C3.58308571,21.4309587 5.93483175,24.0315937 8.02448254,26.6098794 C8.36886349,27.0355302 9.0312127,27.7161651 9.0312127,28.0310857 C9.0312127,28.3449905 8.50905397,29.4461968 8.30181587,30.2426413 C6.53927619,36.9921016 9.89673651,49.9698794 11.252927,53.8088635 L8.15553016,53.8088635 L8.15553016,62.5372444 L5.8576254,62.6154667 L5.8576254,63.237181 L5.8576254,63.7044825 L11.7689905,63.7044825 L17.6803556,63.7044825 L17.6803556,63.237181 L17.6803556,62.6154667 L15.4078476,62.5372444 L15.4078476,53.8088635 L12.2494984,53.8088635 C13.604673,49.9698794 16.9631492,36.9921016 15.2006095,30.2426413 C14.9923556,29.4461968 14.4712127,28.3449905 14.4712127,28.0310857 C14.4712127,27.7161651 15.1335619,27.0355302 15.4779429,26.6098794 C17.5665778,24.0305778 19.9203556,21.4299429 21.4563556,18.5133714"/>
      <path d="M11.7512127,17.556927 C10.0861968,17.556927 8.73711746,18.9060063 8.73711746,20.5710222 C8.73711746,22.2360381 10.0861968,23.5851175 11.7512127,23.5851175 C13.4152127,23.5851175 14.7653079,22.2360381 14.7653079,20.5710222 C14.7653079,18.9060063 13.4152127,17.556927 11.7512127,17.556927"/>
    </g>
  </g>
</svg>
