<svg xmlns="http://www.w3.org/2000/svg" width="53" height="102" viewBox="0 0 53 102">
  <g fill="none" fill-rule="evenodd" transform="translate(-37 -13)">
    <rect width="128" height="128"/>
    <g fill="#111111" fill-rule="nonzero" transform="translate(37 13)">
      <path d="M53 30.9275867C52.9762987 31.0483978 52.9289778 31.1633388 52.8607528 31.2658137 52.741398 31.245918 52.741398 31.3453965 52.6419357 31.3652922 52.5424735 31.3851879 52.5424735 31.4448751 52.522581 31.5045622 52.4653608 31.521922 52.4205832 31.5667069 52.4032262 31.6239364 52.3634413 31.6239364 52.3833338 31.6637278 52.3435489 31.6438321 52.3037639 31.6239364 52.3236564 31.6836236 52.3236564 31.7035193 52.3236564 31.723415 51.9854846 31.6836236 51.8860223 31.7433107L51.8661299 31.7433107C51.8462374 31.7433107 51.8064525 31.723415 51.8263449 31.7831021 51.8462374 31.8427892 51.6473128 31.8825806 51.567743 31.9422678 51.4881731 32.0019549 51.1301089 31.9024763 51.090324 32.061642L50.9510768 32.061642 50.8516145 32.1810162 50.5930125 32.1810162C50.5134427 32.2407034 50.5134427 32.3799733 50.4338728 32.4595561 50.354303 32.539139 50.3741955 32.4396604 50.3940879 32.4993476 50.4139804 32.5590347 50.2946256 32.5590347 50.2150558 32.5590347 50.135486 32.5590347 50.2150558 32.5988261 50.1951633 32.5988261 50.0075001 32.6195949 49.8214263 32.6528278 49.6381745 32.6983046 49.618282 32.6983046 49.6580669 32.7182003 49.618282 32.738096L49.5188197 32.738096C49.4790348 32.7182003 49.4989273 32.7778875 49.4790348 32.7778875 49.2226188 32.8169385 48.969811 32.8768239 48.7231214 32.9569488 48.6833365 33.0365317 48.6037666 33.0962188 48.5440893 33.1758016 48.4844119 33.2553844 48.3650571 33.1956973 48.2655948 33.1956973 48.2281576 33.2503071 48.1809485 33.2975239 48.1263476 33.3349673L47.8876381 33.3349673C47.7966032 33.3976492 47.6957593 33.4447173 47.5892512 33.4742372 47.5494663 33.5339243 47.5096814 33.5140286 47.4698965 33.5737158L46.7139831 33.5737158C46.6741981 33.5538201 46.7139831 33.6135072 46.6741981 33.6135072 46.6344132 33.6135072 46.5150585 33.69309 46.3758113 33.69309 46.2502457 33.757629 46.1163619 33.804496 45.9779621 33.83236 45.9182847 33.8920471 45.8387149 33.8721514 45.79893 33.9517342L45.759145 33.9517342 45.6198978 34.0711084 45.540328 34.0711084C45.4408657 34.1108999 45.4209733 34.2302741 45.2618336 34.2103784 45.1026939 34.1904827 45.1822637 34.2700655 45.1623713 34.3098569 45.1424788 34.3496483 44.8440919 34.3297526 44.7048447 34.3297526 44.5655975 34.3297526 44.5655975 34.2899612 44.5059202 34.3496483 44.4462428 34.4093355 44.5059202 34.3894398 44.4860277 34.4093355 44.4661352 34.4292312 44.4064579 34.4093355 44.3865654 34.4491269L43.9290389 34.4491269C43.9091464 34.4889183 43.9290389 34.5486054 43.8892539 34.5883968L43.7698992 34.5883968C43.6903293 34.6281883 43.6505444 34.6878754 43.5709746 34.6878754L43.5311897 34.7475625 43.4516198 34.7475625C43.37205 34.7873539 43.3322651 34.847041 43.2328028 34.8669367 43.1582533 34.93694 43.0702781 34.9910875 42.9742008 35.0261024 42.9214788 35.0808379 42.8611891 35.1277376 42.7951687 35.1653724 42.7951687 35.1056852 42.7155989 35.1056852 42.6957064 35.0459981 42.675814 34.986311 42.6161366 35.0459981 42.6161366 35.0261024 42.6161366 35.0062067 42.5166743 35.0261024 42.4569969 35.0459981 42.3308609 35.1245573 42.1976664 35.1911655 42.0591477 35.2449552 41.9156462 35.3576074 41.7625519 35.4574677 41.6016212 35.5433908L41.4026966 35.5433908C41.3629117 35.5234951 41.3828041 35.5831822 41.3629117 35.5831822 41.2550275 35.5919204 41.1483536 35.611925 41.0446323 35.6428693L41.0446323 35.7821393 40.9650625 35.7821393C40.918703 35.8203424 40.864296 35.8475503 40.8059228 35.8617221L40.7064605 35.8617221 40.6666756 35.9015135 40.6069983 35.9015135 40.467751 35.9810964 40.3881812 35.9810964 40.3285038 36.0208878C39.990332 36.0208878 39.8112999 36.0805749 39.4731281 36.1203663 39.1349563 36.1601577 38.7569996 36.4585933 38.3790429 36.617759 38.2385509 36.6011585 38.0961345 36.6147242 37.9613013 36.6575504L37.9215163 36.6575504 37.7822691 36.6973418 37.6231295 36.8366118C37.5435596 36.8565075 37.5634521 36.8565075 37.4838822 36.8366118 37.433809 36.8863514 37.3872795 36.9395366 37.344635 36.9957774 37.2321693 36.9849852 37.1189289 36.9849852 37.0064632 36.9957774 36.9546493 37.0206409 36.9075362 37.0542986 36.867216 37.095256L36.5091518 37.095256C36.4892593 37.1151517 36.4295819 37.1947345 36.389797 37.2146302L36.17098 37.2146302 35.9322705 37.4533787C35.7980041 37.4630259 35.6713381 37.519331 35.5742062 37.6125444 35.3752816 37.6125444 35.2758193 37.6523358 35.0172174 37.6921272 34.7586154 37.7319186 34.9973249 37.7319186 34.9774325 37.7319186L34.8978626 37.7319186C34.8580777 37.7120229 34.8779702 37.77171 34.8580777 37.77171L34.738723 37.77171C34.698938 37.8115014 34.5994757 37.77171 34.5795833 37.8313971 34.4329218 37.8338121 34.2866418 37.8471124 34.1419492 37.8711886 34.1220567 37.8711886 34.1419492 37.91098 34.1021643 37.91098 34.0623794 37.91098 33.9828095 37.9507714 33.8435623 37.9308757 33.7043151 37.91098 33.8435623 37.9706671 33.8236699 37.9706671 33.8037774 37.9706671 33.7043151 37.9507714 33.6844226 37.9905628 33.6645302 38.0303542 33.0279715 38.0303542 32.7494771 37.9905628L32.6102299 37.9905628 32.570445 37.9507714 32.5107676 37.9507714C32.4510902 37.9308757 32.3914128 37.8910843 32.311843 37.9308757L32.311843 37.8910843 31.575822 37.8910843 31.4564673 38.0104585 31.2973276 38.0104585 31.2575427 37.9706671C31.1978653 37.9507714 31.1381879 37.9706671 31.098403 37.91098 31.0479599 37.9384528 31.0065166 37.9799029 30.9790483 38.0303542L30.1634575 38.0303542C30.1634575 37.9706671 30.0838876 37.9706671 30.0838876 37.91098 30.0838876 37.8512929 29.6263611 37.9308757 29.407544 37.91098L29.2682968 38.0502499C29.1290496 38.0502499 29.0693722 37.9706671 28.9699099 37.9507714 28.8704476 37.9308757 28.8704476 37.9507714 28.8704476 38.0303542 28.8704476 38.109937 28.6516306 38.1298328 28.5322758 38.1298328 28.4129211 38.1298328 28.4328136 38.1895199 28.3731362 38.1895199 28.3134588 38.1895199 28.3134588 38.0900413 28.3333513 37.9905628L28.2935663 37.9905628C28.2736739 37.8115014 28.1742116 37.6921272 28.1543191 37.4732744 28.0771206 37.3533086 28.0105589 37.2268206 27.9553945 37.095256 27.9166186 37.0288178 27.8960348 36.9533317 27.8957172 36.8764032 27.8957172 36.8366118 27.8559323 36.7769247 27.8559323 36.7371332 27.8559323 36.6973418 27.8758247 36.6973418 27.8758247 36.6575504 27.8758247 36.617759 27.8360398 36.5182805 27.8360398 36.4386976L27.7962549 36.4386976C27.7563308 36.2357011 27.7429571 36.0283754 27.75647 35.8219307 27.75647 35.7821393 27.716685 35.7821393 27.716685 35.7622436 27.716685 35.7423479 27.6371152 35.5234951 27.6570077 35.4240165 27.6769001 35.324538 27.5973303 35.3842251 27.5973303 35.3444337 27.5973303 35.3046423 27.4779755 35.2847466 27.3984057 35.2648509 27.4268034 35.2097644 27.4676742 35.1620741 27.5177605 35.1255809 27.5177605 35.0857895 27.497868 35.0261024 27.5376529 35.0261024 27.5774378 35.0261024 27.239266 34.8868324 27.1596962 34.7475625L27.239266 34.648084C27.239266 34.5883968 27.1795887 34.5883968 27.1398037 34.5486054 27.0599528 34.4500577 26.9735566 34.3570005 26.8812018 34.2700655 26.8613093 34.2103784 26.8812018 34.1904827 26.8613093 34.1307956 26.8414169 34.0711084 26.7817395 34.1108999 26.7817395 34.0512127 26.6836379 34.0161788 26.5901286 33.9694165 26.5032451 33.9119428 26.5032451 33.8124642 26.5828149 33.7726728 26.6027074 33.6731943 26.6225998 33.5737158 26.4634601 33.6135072 26.4435677 33.5339243L26.3639979 33.5339243C26.3639979 33.4543415 26.2645356 33.4742372 26.2446431 33.3946544 26.2247506 33.3150716 26.1650733 33.3349673 26.1053959 33.3150716 26.0457185 33.2951759 26.1451808 33.1161145 26.0855034 33.0365317 26.0258261 32.9569488 25.807009 32.8176789 25.7075467 32.738096 25.6080844 32.6585132 25.6677618 32.6386175 25.6876543 32.539139 25.7075467 32.4396604 25.6279769 32.5789304 25.6080844 32.6187218 25.588192 32.6585132 25.7274392 32.7778875 25.7075467 32.9171574L25.807009 32.9768445C25.806438 33.0110464 25.813222 33.0449717 25.8269015 33.0763231 25.8666864 33.1360102 25.8865788 33.1360102 25.9263638 33.215593L25.9263638 33.2553844C25.9462562 33.2951759 25.9263638 33.354863 25.9462562 33.3946544 25.9661487 33.4344458 26.065611 33.5339243 26.0258261 33.6334029 25.9860411 33.7328814 26.0457185 33.6731943 26.0457185 33.69309L26.0855034 33.7726728 26.1053959 33.7726728C26.1133344 33.8140453 26.1267122 33.8541852 26.1451808 33.8920471 26.202305 33.9669561 26.2692086 34.0338707 26.3441054 34.0910042 26.3441054 34.1307956 26.3838903 34.1506913 26.4236752 34.1506913 26.4634601 34.1506913 26.5032451 34.2899612 26.5231375 34.3894398 26.54303 34.4889183 26.5828149 34.4690226 26.6424923 34.4889183L26.6424923 34.8072496C26.5032451 34.9465196 26.3242129 35.0658938 26.284428 35.3046423 26.2446431 35.5433908 26.2247506 35.3643294 26.1849657 35.4041208 26.1451808 35.4439123 25.9462562 35.3842251 25.8467939 35.4041208 25.7473316 35.4240165 25.7274392 35.5234951 25.6478693 35.5632865L25.5682995 35.6030779 25.4688372 35.662765C25.2898051 35.7025565 25.1903428 35.6030779 24.9317408 35.6428693 24.6731389 35.6826607 24.9118484 35.6030779 24.8919559 35.6030779L23.9967953 35.6030779C23.897333 35.6030779 23.8376556 35.5632865 23.7381933 35.6030779L23.5193763 35.7224522 23.4596989 35.7224522 23.3801291 35.7821393C23.3403441 35.802035 23.3005592 35.7821393 23.2806668 35.8219307 23.2607743 35.8617221 23.2607743 35.802035 23.2408818 35.7821393 23.2209894 35.7622436 23.161312 35.8418264 23.1016346 35.8418264 23.0419573 35.8418264 22.8032478 35.9810964 22.7037855 36.0606792 22.6043232 36.140262 22.465076 36.3193234 22.3258287 36.4386976 22.3010664 36.571222 22.2306853 36.6908895 22.1269042 36.7769247L22.0075494 36.7769247C21.947872 36.7968204 21.9279796 36.8764032 21.8683022 36.9161946L21.7887324 36.9161946 21.7091625 36.955986C21.6892701 36.9758817 21.6494852 36.955986 21.6494852 36.9957774 21.6494852 37.0355688 21.3312058 37.1947345 21.1322812 37.2544216 20.9333566 37.3141088 20.8736793 37.3936916 20.7543245 37.5130658L20.7145396 37.5528572 20.5553999 37.5528572C20.4957226 37.6324401 20.3962603 37.6722315 20.3166904 37.7518143 20.2594285 37.7578357 20.2046519 37.7783803 20.1575508 37.8115014 20.1177658 37.8313971 20.0580885 37.8512929 20.0183035 37.8910843 19.969097 37.8773754 19.9175074 37.9031744 19.8989488 37.9507714 19.7105869 37.993878 19.5246595 38.0470088 19.3419599 38.109937 19.302175 38.1497285 19.2226052 38.1497285 19.1629278 38.1895199 19.0804947 38.2990843 18.9795056 38.3933562 18.8645409 38.4680598 18.8645409 38.5078512 18.824756 38.5078512 18.824756 38.5675383 18.824756 38.6272254 18.7650786 38.6471211 18.7054013 38.6471211 18.683964 38.7065693 18.641507 38.7561105 18.5860465 38.7863911 18.5860465 38.8261825 18.605939 38.9057653 18.5661541 38.9256611 18.5263691 38.9455568 18.4269069 38.9853482 18.4269069 39.064931 18.4269069 39.1445138 18.3672295 39.1246181 18.2876596 39.1246181 18.2320303 39.1897968 18.1645249 39.24381 18.0887351 39.2837838 17.9835187 39.2670184 17.8769404 39.2603562 17.7704557 39.2638881 17.7306708 39.2638881 17.6709934 39.2439924 17.6709934 39.2240967 17.6415194 39.2429994 17.6060071 39.2501031 17.5715311 39.2439924 17.5118538 39.1843052 17.3328216 39.2439924 17.2731442 39.1644095L16.8355102 39.1644095 16.8355102 39.0251396C16.7642296 38.9436305 16.6841755 38.8702356 16.5968007 38.8062868 16.5968007 38.7664954 16.5570157 38.7863911 16.5769082 38.7465997L16.4973384 38.7068083C16.437661 38.5675383 16.5769082 38.5277469 16.5769082 38.4083727L16.4973384 38.3287898C16.4774459 38.2293113 16.5371233 38.2293113 16.5769082 38.1895199 16.6086906 38.0165556 16.5949808 37.8382992 16.5371233 37.6722315 16.5279847 37.6375676 16.514623 37.6041579 16.4973384 37.5727529 16.4733405 37.5077357 16.4534095 37.4412884 16.437661 37.3737959L16.3978761 37.3340045 16.3978761 37.294213C16.3815591 37.2366397 16.3545672 37.1826471 16.3183062 37.1350474 16.2984138 36.955986 16.1989515 36.8764032 16.1989515 36.6973418 16.1989515 36.5182805 16.1193816 36.6774461 16.0597043 36.6774461 16.0000269 36.6774461 15.9801344 36.5381762 15.960242 36.4188019 15.9403495 36.2994277 15.8806721 36.3193234 15.8209948 36.3193234L15.8209948 36.1999491C15.7613174 36.1004706 15.6419626 36.0606792 15.6817476 35.8418264 15.7215325 35.6229736 15.7215325 35.802035 15.70164 35.7821393 15.6817476 35.7622436 15.7613174 35.7224522 15.8011023 35.7025565 15.8408872 35.6826607 15.7215325 35.5433908 15.70164 35.4439123 15.6817476 35.3444337 15.5623928 35.3643294 15.4629305 35.3444337 15.4444449 35.1393985 15.4378031 34.9334673 15.4430381 34.7276668 15.3634682 34.6281883 15.2640059 34.5486054 15.1844361 34.4491269 15.1938463 34.349579 15.1654389 34.2501365 15.1048663 34.170587L15.1048663 34.1108999 15.0451889 34.0114213C14.9855115 33.9119428 14.965619 33.8522557 15.0849738 33.7527771 15.2043285 33.6532986 15.0849738 33.4145501 14.965619 33.3747587L14.965619 32.3003905 14.8263718 32.1412248C14.8464924 32.0293805 14.8464924 31.9148421 14.8263718 31.8029978 14.7269095 31.7632064 14.6274472 31.6438321 14.4882 31.7035193 14.4551942 31.5398312 14.4484792 31.3719284 14.4683076 31.2061266 14.4499581 31.0208868 14.4499581 30.8342866 14.4683076 30.6490468 14.4882 30.5893596 14.5677699 30.5296725 14.5677699 30.4500897 14.5677699 30.3705069 14.4683076 30.3108197 14.4882 30.1914455 14.5080925 30.0720713 14.6274472 30.0720713 14.746802 30.0521755 14.8661568 30.0322798 15.0451889 30.0720713 15.2043285 30.0521755L15.3634682 29.9129056C15.482823 29.952697 15.5425003 29.8930099 15.6419626 29.9328013 15.7414249 29.9725927 15.6618551 29.8930099 15.6817476 29.9129056 15.70164 29.9328013 15.70164 29.9328013 15.7215325 29.9328013 15.7414249 29.9328013 15.9403495 29.9129056 16.0398118 29.9129056 16.1392741 29.9129056 16.1193816 29.8731142 16.1193816 29.8134271 16.437661 29.7736356 16.7360479 29.8731142 16.9946498 29.8134271 17.2532518 29.7537399 17.173682 29.6940528 17.2532518 29.6741571 17.3328216 29.6542614 17.5118538 29.6940528 17.6312085 29.6741571 17.7505633 29.6542614 17.7505633 29.6343657 17.8301331 29.6343657 17.9097029 29.6343657 18.3871219 29.5945743 18.5860465 29.5348872 18.752015 29.5768708 18.9280675 29.5401872 19.0634655 29.4354086 19.3817449 29.3956172 19.7597016 29.4950957 20.038196 29.4354086L20.0779809 29.4354086C20.1457718 29.3964292 20.2198076 29.3695026 20.296798 29.3558258 20.3166904 29.3558258 20.3166904 29.3359301 20.3365829 29.3359301 20.3564753 29.3359301 20.6747547 29.2961387 20.8338943 29.3558258 20.8907435 29.3211642 20.9384857 29.2734143 20.9731416 29.2165558 21.251636 29.1767644 21.5699153 29.2165558 21.8683022 29.1966601 21.9519914 29.0998548 22.0629069 29.0305212 22.1865815 28.9977031L22.3457212 28.8385374C22.8430327 28.8584331 23.4398064 28.798746 23.8177631 28.9181202 23.930349 29.0615095 24.0177908 29.2229669 24.0763651 29.3956172 24.0962576 29.4752 24.0763651 29.5348872 24.11615 29.5945743 24.1559349 29.6542614 24.2553972 29.6741571 24.3349671 29.6940528 24.4145369 29.7139485 24.374752 29.7935314 24.4344294 29.8333228 24.42806 29.9003046 24.434817 29.9678859 24.4543218 30.0322798 24.5537841 30.091967 24.6731389 30.1317584 24.7129238 30.2312369 24.7527087 30.3307155 24.8322785 30.430194 24.8720635 30.5495682 24.8737183 30.38951 24.8603987 30.2296478 24.8322785 30.0720713 24.7612447 29.9759518 24.7074016 29.868248 24.6731389 29.7537399L24.2951822 29.1966601 24.2951822 29.0971816C24.2553972 29.0772859 24.2355048 29.0175988 24.1758274 28.9977031 24.11615 28.9778073 24.1957199 28.9181202 24.1758274 28.8783288L24.1360425 28.8186417C24.11615 28.7589546 24.1559349 28.6793717 24.1360425 28.5997889L24.1360425 28.5202061C24.1360425 28.460519 24.1559349 28.4008318 24.1559349 28.321249L24.11615 28.2416662C24.0962576 28.1421876 24.1559349 28.0228134 24.0763651 27.9631263 23.9967953 27.9034391 24.0365802 27.7243778 24.0564727 27.6248992 23.9778061 27.5747466 23.8898643 27.5409174 23.7978707 27.5254207 23.7779782 27.4458379 23.6785159 27.4458379 23.638731 27.366255 23.5989461 27.2866722 23.5790536 27.3065679 23.4994838 27.3264636 23.419914 27.3463593 23.4398064 27.2866722 23.4596989 27.2468808 23.4795913 27.2070894 23.2209894 27.028028 23.0817422 26.9285495L23.2408818 26.5903225C23.2615223 26.5345238 23.2882043 26.4811511 23.3204517 26.4311568 23.3602366 26.3913654 23.419914 26.3913654 23.419914 26.3316783 23.419914 26.2719911 23.5591612 26.2520954 23.6785159 26.2520954 23.7978707 26.2520954 23.897333 26.1725126 23.9769028 26.0929298L24.0564727 26.0929298 24.1758274 25.9536598 25.1704503 25.9536598C25.2102353 25.9536598 25.1903428 25.8939727 25.2102353 25.874077L25.2500202 25.874077 25.2500202 25.8342856C25.2699126 25.8143899 25.3096975 25.8541813 25.3096975 25.8143899 25.3096975 25.7745985 25.4290523 25.874077 25.5086221 25.8342856L26.2048582 25.8342856 26.2446431 25.7944942C26.284428 25.7745985 26.3242129 25.7745985 26.3441054 25.7149113 26.3639979 25.6552242 26.2645356 25.5159543 26.2446431 25.3766843 26.316351 25.3602113 26.3899578 25.3535187 26.4634601 25.3567886 26.5032451 25.3567886 26.5032451 25.3169972 26.5231375 25.3169972 26.689167 25.3215972 26.8553173 25.3149501 27.020449 25.2971015L27.3586208 25.2573101 27.6769001 25.2573101C27.7763624 25.2374144 27.8161473 25.1777272 27.9156096 25.1777272 28.0150719 25.1777272 28.1145342 25.1180401 28.1742116 25.0384573L28.2736739 25.0384573C28.3273111 24.9593384 28.3676297 24.8719672 28.3930286 24.7798131 28.4924909 24.7798131 28.5919532 24.7798131 28.6118457 24.7002303 28.6317381 24.6206474 28.7908778 24.6803345 28.8704476 24.6604388 28.9500175 24.6405431 28.9898024 24.5410646 29.0494798 24.5211689 29.1091572 24.5012732 29.2285119 24.5012732 29.3279742 24.4813775L29.407544 24.4813775C29.4274365 24.4813775 29.4274365 24.4614818 29.4274365 24.4415861 29.4274365 24.4216903 29.5070063 24.4415861 29.5268988 24.4017946L30.3822745 24.4017946C30.4419519 24.3421075 30.5613066 24.3222118 30.6408765 24.2625247L30.8596935 24.2625247C30.9193709 24.242629 30.9392633 24.1630462 30.9989407 24.1630462L31.1182955 24.1630462 31.2177578 24.103359C31.2575427 24.0834633 31.2973276 24.0834633 31.3172201 24.0436719 31.3371125 24.0038805 31.9736712 24.0834633 32.1725958 23.9839848 32.3072602 23.9689915 32.4403737 23.9423645 32.570445 23.904402L32.6301223 23.904402C32.6699073 23.904402 32.7096922 23.8447148 32.7693695 23.8845062 32.9386628 23.8368407 33.1116792 23.8035629 33.2865735 23.7850277 33.3263584 23.7253406 33.3462508 23.7452363 33.4258207 23.7054449L33.5451754 23.6457578 33.9430246 23.6457578C33.9629171 23.7054449 34.0225944 23.7253406 34.0424869 23.765132 34.2279505 23.6974844 34.4222921 23.6572693 34.6193682 23.6457578 34.738723 23.5661749 34.8779702 23.5462792 34.9376475 23.4070093 34.9973249 23.2677393 35.1962495 23.5462792 35.3156043 23.5064878 35.434959 23.4666964 35.3951741 23.4468007 35.4150665 23.4070093 35.434959 23.3672179 35.7134534 23.2677393 35.912378 23.2677393 35.9622361 23.2321499 36.0088349 23.1922015 36.0516252 23.1483651L36.5091518 23.1483651 36.648399 23.0289908C36.8274311 23.0687822 36.9070009 22.9096166 37.0462482 22.8897209L37.125818 22.8897209C37.364227 22.8727804 37.6035375 22.8727804 37.8419465 22.8897209 37.9427396 22.7900136 38.0653172 22.7150928 38.2000108 22.6708681 38.2397957 22.611181 38.2994731 22.5912853 38.3193655 22.5315981L38.4188278 22.5315981C38.4792645 22.4501563 38.5325113 22.3636161 38.5779675 22.2729539L38.9360317 22.2729539C38.9758166 22.2331625 39.035494 22.2132668 39.0553865 22.1535797 39.244586 22.104462 39.4375465 22.0711876 39.6322678 22.0541012 39.7118376 21.994414 39.7118376 21.8551441 39.7914075 21.7755613 39.8709773 21.6959784 39.990332 21.9148312 40.1693642 21.8750398 40.3483963 21.8352484 40.2688265 21.8153527 40.2688265 21.7357698L40.4080737 21.7357698 40.5274284 21.6163956C40.6467832 21.6362913 40.6865681 21.5567085 40.7462455 21.5169171L40.9451701 21.5169171C40.9650625 21.5567085 41.0048474 21.5766042 41.0247399 21.6163956 41.0446323 21.656187 41.4822664 21.656187 41.7209759 21.6163956 41.9596854 21.5766042 41.8801156 21.5169171 41.9994704 21.4970214L42.4371045 21.4970214C42.5465193 21.5181504 42.6490191 21.5659915 42.7354913 21.6362913 42.8763725 21.6677605 43.0238402 21.6308876 43.1333405 21.5368128 43.2398478 21.5304852 43.3467292 21.5371664 43.4516198 21.5567085 43.4914048 21.5368128 43.4715123 21.5964999 43.4914048 21.5964999L43.5908671 21.5964999C43.7306121 21.6524544 43.8783028 21.686026 44.0285011 21.6959784 44.1279634 21.7755613 44.3069956 21.7158741 44.3666729 21.795457 44.4263503 21.8750398 44.4064579 21.8750398 44.4462428 21.8949355 44.4860277 21.9148312 44.4860277 21.8750398 44.5258126 21.8551441 44.5655975 21.8352484 44.6252749 21.8153527 44.7247372 21.8352484 44.8241995 21.8551441 44.7247372 21.795457 44.7446297 21.795457 44.8613347 21.7902927 44.9760385 21.7632991 45.0828015 21.7158741 45.1623713 21.6163956 45.281726 21.5964999 45.3612959 21.4970214 45.4383427 21.4976894 45.5140732 21.4770322 45.5801129 21.4373342 45.79893 21.4174385 46.0376395 21.2980643 46.1768867 21.4771257 46.3161339 21.656187 46.1967791 21.3975428 46.2166716 21.3776471L46.5946283 21.3776471C46.6119303 21.4077489 46.6189161 21.4426837 46.6145208 21.4771257 46.6741981 21.4572299 46.7338755 21.3776471 46.8333378 21.3776471 47.0086199 21.3407782 47.1911905 21.3846023 47.3306493 21.4970214L47.8677457 21.4970214 48.0069929 21.6362913C48.186025 21.6760827 48.3849496 21.5964999 48.4844119 21.6362913 48.5838742 21.6760827 48.5241968 21.7357698 48.6037666 21.7357698 48.6833365 21.7357698 48.7629063 21.6163956 48.8424761 21.6362913 48.922046 21.656187 48.8822611 21.6959784 48.922046 21.7357698L48.9817234 21.7357698 49.0215083 21.7755613 49.1010781 21.8551441C49.1186524 21.9002252 49.1319721 21.9468516 49.140863 21.994414 49.1607555 22.0342055 49.2005404 22.0739969 49.1806479 22.1137883 49.1363275 22.1811283 49.1027708 22.2549652 49.0811856 22.3326411 48.922046 22.4321196 48.9021535 22.5912853 49.0612932 22.7106595 49.0447857 22.8025869 49.0944341 22.8936238 49.1806479 22.9295123 49.1607555 23.1284694 49.2801102 23.1682608 49.3000027 23.3075307 49.3552361 23.3442067 49.4025799 23.3915582 49.4392499 23.4468007 49.3596801 23.5263835 49.2602178 23.6059663 49.3000027 23.765132 49.3397876 23.9242977 49.3795725 23.8248191 49.399465 23.904402L49.4591424 23.904402C49.4591424 24.0237762 49.5387122 24.0237762 49.5586047 24.1232547 49.5784971 24.2227333 49.6381745 24.1232547 49.6580669 24.1431504 49.6723775 24.2553094 49.6790237 24.3683139 49.6779594 24.4813775 49.7177443 24.5410646 49.7575292 24.5609603 49.7774217 24.6206474L49.9166689 24.6206474C49.8466002 24.8224516 49.7227983 25.0013057 49.5586047 25.1379358 49.5983896 25.3169972 49.3795725 25.4164757 49.4989273 25.53585 49.5560137 25.5995056 49.6232278 25.6532857 49.6978519 25.6950156 49.6978519 25.7547027 49.7575292 25.7745985 49.7973142 25.8143899 49.8370991 25.8541813 49.7973142 26.0332426 49.8370991 26.0929298L49.8370991 26.1327212C49.8569915 26.1526169 49.8569915 26.1725126 49.876884 26.212304 49.8967764 26.2520954 49.9365614 26.2719911 49.9365614 26.3117826 49.9439196 26.4249139 49.9372379 26.5385213 49.9166689 26.6500096 49.9365614 26.7096967 50.0161312 26.689801 50.0559161 26.7096967L50.6526899 26.8091752C50.6601215 26.855301 50.6601215 26.9023194 50.6526899 26.9484452 50.610422 26.9364604 50.5650808 26.9424854 50.527408 26.9650927 50.4897353 26.9877 50.463083 27.0248783 50.4537653 27.0678194L50.6725823 27.167298C50.6684218 27.2003269 50.6684218 27.2337475 50.6725823 27.2667765 50.7919371 27.4060465 50.9311843 27.505525 51.0505391 27.644795 51.1369807 27.6782825 51.2175546 27.7252916 51.2892486 27.7840649L51.2892486 27.8835434 51.5478505 28.2615619 51.6473128 28.2615619 51.6473128 28.3610404 51.8064525 28.5202061C51.8350026 28.6030999 51.8827117 28.6780836 51.9456997 28.7390589 51.9456997 28.798746 51.9655921 28.8385374 52.0252695 28.8385374L52.0252695 28.8783288C52.080316 28.9381666 52.1271439 29.0050745 52.1645167 29.0772859L52.2043017 29.0772859C52.2241941 29.1966601 52.3236564 29.2364515 52.3435489 29.3558258L52.4032262 29.3956172C52.4032262 29.4950957 52.4629036 29.4950957 52.4430112 29.5945743 52.4842624 29.6540077 52.5114707 29.7220396 52.522581 29.7935314L52.6419357 29.7935314C52.6236055 29.8881171 52.5826544 29.976859 52.522581 30.0521755 52.5827899 30.2055266 52.6229078 30.3660245 52.6419357 30.5296725 52.7215056 30.5495682 52.7215056 30.6689425 52.8010754 30.6888382 52.8806452 30.7087339 52.781183 30.7087339 52.8010754 30.7286296 52.8209679 30.7485253 52.9204302 30.907691 53 30.9872738M46.3937695 17.7042548L46.3349868 17.7443912 46.25661 17.7443912C46.1586389 17.7845276 46.1194505 17.925005 46.0018852 18.0052779 45.88432 18.0855507 45.5708126 18.0855507 45.2964936 18.1256871L44.7282614 18.5270513C44.7016413 18.5887716 44.6401816 18.6268582 44.5744472 18.6223699 44.5087129 18.6178816 44.4527334 18.5717764 44.4343483 18.5069831 44.414754 18.5069831 44.414754 18.5471195 44.3951598 18.5471195 44.3755656 18.5471195 44.1600293 18.6073241 43.9836814 18.6273923 43.8073335 18.6474605 43.8269277 18.7678698 43.8465219 18.888279 43.7546183 18.8805573 43.6621019 18.8873254 43.5722029 18.9083472 43.5134203 18.9083472 43.5134203 18.888279 43.4742318 18.9284154 43.4350434 18.9685518 43.4350434 19.0086883 43.395855 19.0287565L43.2978839 19.0287565C43.1999129 19.0889611 43.0627534 19.1090293 42.9647823 19.1692339L42.200608 19.1692339 42.1222312 19.269575C42.0046659 19.3498478 41.5344048 19.2093703 41.4364338 19.3498478L41.3580569 19.4501888 41.3188685 19.4501888 41.1425206 19.6308027 40.809419 19.6308027C40.7559157 19.6689134 40.7094701 19.7164826 40.6722595 19.7712801L40.4959116 19.7712801C40.4763174 19.7311437 40.4567232 19.6910073 40.3979405 19.6709391L40.2999695 19.7712801 39.7317373 19.7712801C39.6734232 19.8031333 39.6256787 19.8520329 39.5945778 19.9117576L39.2026936 19.9117576 38.9479688 19.6508709C38.8737485 19.6644728 38.7972279 19.6502235 38.7324325 19.6107345L38.6736498 19.6107345 38.5756788 19.5505299C38.5560846 19.4100524 38.4777077 19.3297796 38.4777077 19.2093703 38.4777077 19.0889611 38.3993309 18.9685518 38.320954 18.888279 38.2425772 18.8080062 38.1837945 18.5671877 38.1250119 18.3263692L38.0074466 18.3263692C37.9682582 18.2862328 37.948664 18.2260282 37.8702871 18.2260282 37.7919103 18.2260282 37.8310987 18.1658235 37.7919103 18.1457553 37.7527219 18.1256871 37.7723161 18.0654825 37.7135334 18.0654825 37.6547508 18.0654825 37.7135334 17.7845276 37.7135334 17.5637773 37.7135334 17.343027 37.6547508 17.5035727 37.6351566 17.4634363L37.3608376 17.4634363C37.302055 17.3630952 37.2236781 17.3028906 37.1844897 17.2025496L37.1257071 17.1624131C37.1061128 17.0620721 37.027736 17.0018675 36.9689534 16.9416629 36.9101707 16.8814582 36.9689534 16.8212536 36.9689534 16.7409808 36.9689534 16.660708 36.8121997 16.7409808 36.753417 16.7209126 36.6946344 16.7008444 36.6750402 16.660708 36.655446 16.6005033 36.6358517 16.5402987 36.4986923 16.5202305 36.4007212 16.5001623 36.3027501 16.4800941 36.381127 16.2994802 36.3615328 16.1991392 36.3419386 16.0987981 36.2831559 16.0586617 36.2635617 15.9783889L36.1264022 15.8579796 35.9892427 15.8579796C35.9696485 15.7777068 35.9108659 15.7777068 35.8912717 15.7175022 35.7850748 15.6160261 35.6577833 15.5405483 35.5189816 15.4967519 35.4993874 15.3763427 35.4210106 15.316138 35.4014164 15.215797 35.3818222 15.115456 35.3818222 15.1756606 35.3622279 15.1756606 35.3426337 15.1756606 35.3230395 15.0552513 35.2838511 14.9749785L35.1662858 14.9749785 34.9115611 14.7140918C34.9311553 14.6538872 34.9115611 14.633819 34.9115611 14.5736144L34.539271 14.1923184C34.5196768 14.152182 34.5588652 14.152182 34.5588652 14.1120456L34.3629231 14.0317727C34.3433289 13.9715681 34.2649521 13.9514999 34.2649521 13.8712271 34.2162861 13.8298963 34.1819292 13.7735956 34.166981 13.7106814 34.1081984 13.7106814 34.1277926 13.6103404 34.0690099 13.6103404L34.0690099 13.2491126C33.9622415 13.1975325 33.8506352 13.1571892 33.7359083 13.1287034 33.687695 12.9773371 33.6287557 12.829778 33.5595604 12.6872028 33.4615894 12.6470664 33.4419951 12.5467254 33.3440241 12.506589 33.246053 12.4664525 33.1872704 12.3861797 33.1676762 12.2858387 33.148082 12.1854976 33.1088935 12.3059069 33.1284877 12.2657705L33.0305167 12.2657705C32.9060724 12.1490946 32.7592637 12.0602455 32.599444 12.0048838 32.6190382 12.125293 32.6778209 12.225634 32.6974151 12.3460433 32.7170093 12.4664525 32.6778209 12.5266572 32.7366035 12.60693 32.7953861 12.6872028 32.6974151 12.6269982 32.6974151 12.6470664 32.6904754 12.815312 32.7036358 12.9837958 32.7366035 13.1487716L32.7757919 13.188908C32.7953861 13.2491126 32.7757919 13.3494537 32.8345746 13.4096583 32.8933572 13.4698629 32.7170093 13.5902722 32.7170093 13.7307496 32.7170093 13.8712271 32.599444 13.9113635 32.5210672 13.9514999L32.5210672 14.0317727C32.4818787 14.0317727 32.4818787 14.0719092 32.4622845 14.0719092 32.4426903 14.0719092 32.4035019 14.1722502 32.3643135 14.2324548 32.325125 14.2926594 32.227154 14.3127277 32.1487771 14.3327959 32.0704003 14.3528641 32.1487771 14.9749785 32.1487771 15.3362062 32.0899945 15.3562745 32.1095887 15.4164791 32.0312119 15.4365473 32.0409202 15.5743489 31.9988655 15.7107438 31.9136466 15.8178432 31.9136466 16.0385935 31.9136466 16.1590028 31.9332408 16.3195484 31.8954319 16.3738303 31.8490811 16.4213023 31.7960813 16.4600259 31.7960813 16.5001623 31.7960813 16.5202305 31.8156755 16.5402987 31.8352697 16.5603669 31.7764871 16.5603669 31.7764871 16.5804351 31.7764871 16.6005033 31.7372987 16.86139 31.7568929 16.9817993 31.7764871 17.1022085 31.7177045 17.0018675 31.7177045 17.0620721 31.7177045 17.1222767 31.7372987 17.1222767 31.7372987 17.1423449 31.6393276 17.4835045 31.6981102 17.9651415 31.6589218 18.3665056 31.5413565 18.3865738 31.5413565 18.5471195 31.4629797 18.5872559 31.3846028 18.6273923 31.3650086 18.7478016 31.3258202 18.8080062 31.2866318 18.8682108 31.2278491 19.0086883 31.2278491 19.1692339 31.2671978 19.2324759 31.3000308 19.2997303 31.3258202 19.369916 31.3258202 19.5304617 31.0710954 19.5705981 31.0123128 19.7110755 30.9535302 19.851553 30.8359649 19.851553 30.7379938 19.9117576 30.6400228 19.9719622 30.7183996 19.9920304 30.7575881 20.0120986 30.7967765 20.0321668 30.6792112 20.0522351 30.6988054 20.1124397 30.634693 20.1639488 30.5869561 20.233794 30.5616459 20.3131218 30.4969125 20.3723322 30.4494407 20.4487353 30.4244864 20.533872 30.385298 20.5138038 30.4048922 20.5539403 30.385298 20.5539403 30.3657038 20.5539403 30.2089501 20.8549634 30.1501675 21.015509L29.7778774 21.1559865C29.6603122 21.2964639 29.5819353 21.4770778 29.4447758 21.5974871 29.4077442 21.7473385 29.3619416 21.8947718 29.3076163 22.0389876L29.2488337 22.0389876C29.09208 22.1995333 28.8569495 22.2798061 28.7589784 22.5005564 28.6610073 22.7213067 28.6414131 22.5808292 28.6218189 22.6410339 28.6022247 22.7012385 28.5630363 22.7012385 28.4846594 22.7012385 28.4062826 22.7012385 28.3474999 22.8015795 28.2887173 22.8617841L28.0927752 22.8617841C27.9948041 22.942057 27.8380504 22.9821934 27.7596736 23.1026026 27.6812967 23.2230119 27.524543 23.0825344 27.426572 23.1026026 27.3286009 23.1226708 27.2698183 23.2230119 27.1718472 23.2230119 27.0738761 23.2230119 27.1718472 23.3032847 27.1718472 23.3634893 27.0294903 23.4094052 26.9012097 23.4923844 26.7995572 23.6043078L26.6623977 23.6043078C26.6232093 23.6845807 26.5252382 23.7046489 26.505644 23.8049899 26.4860498 23.9053309 26.4664556 23.8651945 26.4076729 23.8651945 26.3488903 23.8651945 26.2705134 24.005672 26.2117308 24.0859448 26.1529482 24.1662176 26.1725424 24.0859448 26.1137597 24.0859448 26.0549771 24.0859448 25.6630928 24.0658766 25.4867449 24.0859448L25.2320202 23.8250581C25.1421851 23.7969068 25.0564951 23.7564009 24.9772954 23.7046489 24.9968896 23.6645124 24.9772954 23.6444442 24.9772954 23.6043078L24.7421649 23.6043078C24.663788 23.4638304 24.5070343 23.4036257 24.4286575 23.2430801L24.2719038 23.2430801C24.1739327 23.142739 24.1151501 22.942057 23.8996137 23.0022616L23.644889 22.8617841 23.644889 22.7614431C23.644889 22.7213067 23.6057006 22.7413749 23.6057006 22.7213067 23.6057006 22.7012385 23.37057 22.6410339 23.2138163 22.6611021 23.0570626 22.6811703 23.0374684 22.5005564 22.9786858 22.4002154L22.8415263 22.4002154C22.7435552 22.3801472 22.7043668 22.2798061 22.5868015 22.2597379 22.4692362 22.2396697 22.4888305 22.1995333 22.4692362 22.1593969 22.449642 22.1192605 22.4300478 22.1995333 22.3908594 22.1794651 22.3618272 22.1603984 22.3268474 22.1532332 22.2928883 22.1593969L22.2536999 22.1593969C22.2145115 22.1593969 22.1753231 22.1192605 22.1557288 22.1593969 22.1361346 22.1995333 22.1165404 22.1192605 22.077352 22.1192605 22.0381636 22.1192605 22.0185694 22.079124 22.0185694 22.0189194 22.0185694 21.9587148 21.6462793 22.0590558 21.4699314 21.978783 21.2935835 21.8985102 21.2543951 21.7580327 21.156424 21.6376235 21.058453 21.5172142 21.058453 21.6576917 21.0976414 21.6175553 21.0110741 21.6198648 20.924803 21.6062712 20.8429166 21.5774188L20.8233224 21.5774188C20.7645398 21.5774188 20.7057571 21.5974871 20.6665687 21.5372824 20.6273803 21.4770778 20.6665687 21.4570096 20.6469745 21.4369414L20.3138729 21.3165321C20.2416372 21.1920464 20.1631552 21.0714757 20.0787423 20.9553044 19.8828002 20.9753726 19.7848292 20.9352362 19.7260465 20.8348952L18.9814664 20.8348952C18.8779049 20.7457185 18.7439611 20.7023973 18.6091764 20.7144859L18.6091764 20.6141449C18.2760748 20.5940767 17.8841906 20.6141449 17.5314947 20.5940767 17.5119005 20.533872 17.4727121 20.533872 17.4335237 20.4937356L16.9044799 20.4937356C16.8848857 20.433531 16.8261031 20.433531 16.8261031 20.3733264L16.6497552 20.3733264C16.4742061 20.2623098 16.2823355 20.1809945 16.081523 20.1325079 16.0458317 20.0764286 15.9991183 20.0285852 15.9443635 19.9920304 15.8592168 20.008535 15.7713192 20.00161 15.6896388 19.9719622 15.7484214 19.8314848 15.6504504 19.7512119 15.6112619 19.6308027L15.4741024 19.6308027C15.434914 19.6308027 15.4545082 19.5705981 15.3761314 19.5906663 15.2977545 19.6107345 15.336943 19.5705981 15.3565372 19.5304617L14.9646529 19.1491657 14.8274934 19.1491657C14.7822441 18.9929755 14.6937669 18.8535639 14.5727687 18.7478016 14.6315513 18.5872559 14.4356092 18.5872559 14.4747976 18.406642 14.402189 18.3079344 14.3164491 18.2201204 14.2200729 18.1457553 14.2200729 18.0253461 14.141696 18.0052779 14.141696 17.8848686 14.141696 17.7644594 14.1808844 17.824664 14.2004786 17.7845276L14.1025076 17.7443912C14.1025076 17.6841865 14.1221018 17.6039137 14.1221018 17.5437091 14.1221018 17.4835045 14.0633192 17.4634363 14.0241307 17.4032316L13.9849423 17.3630952C13.9849423 17.343027 14.0633192 17.3229588 13.9849423 17.3229588 13.9065655 17.3229588 14.0633192 17.2025496 14.1221018 17.1423449 14.0757086 17.0472545 14.0427229 16.9459035 14.0241307 16.8413218L14.0241307 16.8011854C14.0241307 16.761049 14.0633192 16.7409808 14.0437249 16.7008444 14.0241307 16.660708 13.867377 16.5603669 13.8869712 16.4198895L13.7890002 16.3195484 13.7890002 15.9382525C13.9261597 15.8780479 13.9065655 15.7375704 13.8869712 15.5970929L14.0045365 15.5970929C13.948777 15.5086974 13.8753079 15.4334511 13.7890002 15.3763427 13.769406 15.2760016 13.7890002 15.215797 13.769406 15.115456 13.7498118 15.0151149 13.8281886 15.0552513 13.8085944 14.9749785 13.7890002 14.8947057 13.867377 14.8746375 13.8869712 14.8345011 13.9065655 14.7943646 13.867377 14.7742964 13.867377 14.73416 13.867377 14.6940236 13.9261597 14.6538872 13.9849423 14.633819 14.0014863 14.4537308 14.0080282 14.2728255 14.0045365 14.0919774 14.1041538 14.0113874 14.1734017 13.8979105 14.2004786 13.770886L14.3572323 13.6103404C14.3461911 13.5371914 14.3461911 13.4627391 14.3572323 13.3895901 14.332225 13.1159225 14.332225 12.8404611 14.3572323 12.5667936L14.3572323 12.5266572C14.3572323 12.4865207 14.3572323 12.4865207 14.3768266 12.4463843 14.3964208 12.4062479 14.3964208 12.3661115 14.416015 12.3259751 14.3518263 12.2728868 14.278811 12.2320969 14.2004786 12.2055658 14.1612902 12.1052248 14.2592613 12.0048838 14.2200729 11.9246109 14.1808844 11.8443381 14.2592613 11.9045427 14.2592613 11.8844745 14.2592613 11.8644063 14.2592613 11.8242699 14.2592613 11.7841335L14.2592613 11.7038606C14.2722581 11.6582221 14.2788555 11.6109233 14.2788555 11.5633832 14.2950945 11.3965616 14.2950945 11.2284996 14.2788555 11.061678L14.1612902 10.961337C14.1612902 10.4997682 14.1612902 10.0582676 14.141696 9.59669884L14.3768266 9.37594855C14.3964208 9.27560752 14.3572323 9.19533469 14.3768266 9.11506185 14.3964208 9.03478902 14.416015 9.05485723 14.4356092 9.01472082 14.4552034 8.9745844 14.4943918 8.81403874 14.6119571 8.77390232L14.6119571 8.63342487C14.6315513 8.57322025 14.7099282 8.55315204 14.7295224 8.49294742 14.8251729 8.47030615 14.9131396 8.42179362 14.9842471 8.35246996 14.9646529 8.27219713 14.9254645 8.1919243 14.9254645 8.13171968 14.9254645 8.07151505 14.8862761 8.13171968 14.8862761 8.11165147 14.8862761 8.09158326 14.8666819 7.99124222 14.8470876 7.89090118L15.0822182 7.79056015C15.1018124 7.75042373 15.0822182 7.71028731 15.0822182 7.65008269 15.0822182 7.58987807 15.1410008 7.56980986 15.2193777 7.54974165 15.2977545 7.52967344 15.2389719 7.38919599 15.1997835 7.34905958 15.160595 7.30892316 15.2781603 7.06810467 15.336943 6.90755901 15.3957256 6.74701334 15.434914 6.96776363 15.4936967 6.98783184 15.5524793 7.00790004 15.5720735 6.94769542 15.5720735 6.90755901 15.5720735 6.86742259 15.4936967 6.84735438 15.4741024 6.76708155 15.659321 6.57005041 15.7396774 6.29322224 15.6896388 6.02455787 15.7337996 5.94693396 15.7730681 5.86649697 15.8072041 5.78373937L15.9639578 5.78373937C16.0031462 5.76367117 16.0031462 5.72353475 16.0423346 5.70346654 16.0812315 5.6064809 16.1270763 5.5125733 16.1794941 5.42251164 16.1794941 5.40244343 16.1990883 5.40244343 16.2186825 5.40244343 16.2382767 5.40244343 16.2970594 5.24189777 16.3362478 5.14155673 16.3754362 5.04121569 16.355842 5.0813521 16.4146246 5.10142031 16.4082082 4.92723858 16.4147586 4.75280931 16.4342188 4.57964691 16.5321899 4.61978333 16.5713783 4.72012437 16.6693494 4.76026078 16.7673205 4.8003972 16.7085378 4.78032899 16.6889436 4.8204654L16.8848857 4.8204654C16.9240742 4.76026078 16.8848857 4.67998795 16.9044799 4.59971512 16.9240742 4.51944229 17.002451 4.51944229 17.002451 4.45923766 17.002451 4.39903304 17.1787989 4.33882842 17.2963642 4.31876021 17.4139295 4.298692 17.5119005 4.33882842 17.5902774 4.2786238 17.6686542 4.21841917 17.7078426 4.25855559 17.7470311 4.19835096L17.8450021 4.19835096C17.8841906 4.15821455 17.8450021 4.13814634 17.8645963 4.07794172L18.1585095 4.07794172 18.1585095 4.19835096 18.3740459 4.19835096 18.5307996 4.31876021 19.0206549 4.31876021C19.0206549 4.37896483 19.0990317 4.37896483 19.0990317 4.43916946L19.7848292 4.43916946C20.0064943 4.41980204 20.2293672 4.41980204 20.4510324 4.43916946 20.509815 4.45923766 20.5685976 4.5395105 20.6469745 4.51944229 20.7253513 4.49937408 20.6273803 4.43916946 20.6665687 4.43916946 20.7057571 4.43916946 20.7449456 4.51944229 20.8037282 4.5395105 20.8750351 4.55225246 20.9479577 4.55225246 21.0192645 4.5395105L21.430743 4.5395105C21.5682128 4.54559117 21.7059378 4.53887418 21.8422214 4.51944229 21.9010041 4.49937408 21.9205983 4.41910125 21.9989751 4.41910125 22.077352 4.41910125 22.0185694 4.47930587 22.0185694 4.51944229 22.0185694 4.5595787 22.0969462 4.57964691 22.1165404 4.61978333L22.3320768 4.61978333C22.3825193 4.58566066 22.4285967 4.54521029 22.4692362 4.49937408 22.5246942 4.50524034 22.5711671 4.54490455 22.5868015 4.59971512 22.8219321 4.65991974 22.9394973 4.47930587 23.1354395 4.49937408L23.2138163 4.59971512C23.37057 4.5595787 23.4097584 4.65991974 23.4881353 4.74019257L23.6840774 4.74019257C23.7817932 4.80497405 23.8679481 4.88642548 23.9388022 4.98101107 23.9975848 4.98101107 24.0759617 4.96094286 24.0759617 5.02114748 24.2129946 5.02968144 24.3504072 5.02968144 24.4874401 5.02114748 24.6472418 5.06336885 24.8129723 5.07694801 24.9772954 5.0612839 25.0164838 5.04121569 24.9968896 5.10142031 25.0164838 5.10142031L25.7022813 5.10142031C25.7218755 5.10142031 25.7414697 5.0612839 25.7414697 5.04121569 25.8286892 5.02559046 25.9062457 4.97504244 25.957006 4.90073823 26.0353829 4.90073823 26.0549771 4.84053361 26.1137597 4.8204654 26.1725424 4.8003972 26.3488903 4.78032899 26.4468613 4.86060182L26.5252382 4.94087465C26.6043407 4.99910626 26.676659 5.06644056 26.7407745 5.14155673 26.8387456 5.14155673 26.8387456 5.24189777 26.9367167 5.24189777 27.0346877 5.24189777 26.9954993 5.28203418 26.9954993 5.3221706L27.152253 5.3221706C27.2461093 5.43858335 27.3675409 5.52840547 27.5049488 5.5830573L27.5049488 5.68339834C27.5873055 5.75176144 27.6799496 5.80598155 27.7792678 5.843944 27.8184562 5.92421683 27.8380504 6.00448966 27.8772388 6.06469428L28.1319636 6.06469428 28.2887173 6.20517174C28.3083115 6.32558098 28.445471 6.32558098 28.4650652 6.46605844 28.4846594 6.60653589 28.5238478 6.48612664 28.5434421 6.50619485 28.5630363 6.52626306 28.5826305 6.56639947 28.6218189 6.58646768 28.6586675 6.6820591 28.7283512 6.76056546 28.817761 6.80721797 28.817761 6.94769542 28.9745147 6.92762721 28.9745147 7.06810467L29.2096453 7.16844571C29.2096453 7.24871854 29.2096453 7.34905958 29.2096453 7.38919599 29.2096453 7.42933241 29.6015295 7.71028731 29.6995006 8.03137864 29.8286386 8.08796604 29.9531348 8.15507543 30.0717906 8.23206071 30.110979 8.35246996 30.1305733 8.49294742 30.2481385 8.53308383 30.2258529 8.39838665 30.1793451 8.2690974 30.110979 8.15178788L30.013008 8.03137864C29.9679576 7.90978964 29.9479444 7.7799727 29.9542253 7.65008269 29.9323324 7.57878582 29.9256503 7.50350388 29.9346311 7.42933241 29.9346311 7.4092642 29.8954427 7.42933241 29.8954427 7.38919599 29.8954427 7.34905958 29.8758485 7.28885495 29.9150369 7.28885495 29.9542253 7.28885495 29.8562543 7.20858212 29.8954427 7.1483775 29.9346311 7.08817288 29.9150369 7.12830929 29.9346311 7.12830929 29.9542253 7.12830929 29.9542253 7.04803646 29.9934138 7.04803646 30.0326022 7.04803646 30.0521964 6.84735438 30.110979 6.78714976L30.3461096 6.78714976C30.3657038 6.76708155 30.4048922 6.74701334 30.385298 6.68680872L30.4244864 6.68680872C30.4644129 6.59268336 30.5171913 6.50484377 30.5812401 6.42592202 30.5616459 6.28544457 30.5812401 6.22523994 30.5616459 6.06469428 30.5420517 5.90414862 30.7183996 5.74360296 30.7771823 5.6031255 30.8359649 5.46264805 30.6792112 5.6031255 30.659617 5.5830573 30.6400228 5.56298909 30.6792112 5.54292088 30.7183996 5.52285267 30.7575881 5.50278447 30.7575881 5.46264805 30.7771823 5.42251164L30.8751533 5.26196597C30.9143418 5.22182956 30.933936 5.22182956 30.9143418 5.16162493 30.8947475 5.10142031 30.9731244 5.0813521 31.0123128 5.0612839L31.0123128 4.76026078C31.0515012 4.76026078 31.031907 4.72012437 31.0906897 4.72012437 31.1222093 4.65544709 31.1694424 4.6001606 31.2278491 4.5595787 31.2670376 4.5595787 31.2474434 4.5395105 31.2474434 4.51944229 31.2474434 4.49937408 31.3454144 4.47930587 31.3454144 4.41910125 31.4532611 4.38720463 31.553384 4.33251395 31.6393276 4.25855559 31.6001392 3.97760068 31.7177045 3.71671398 31.7372987 3.39562266L31.8352697 3.39562266C31.9227529 3.28864485 31.971236 3.15386461 31.9724292 3.01432671 32.0508061 2.9942585 32.0704003 2.91398567 32.1683713 2.91398567 32.2663424 2.91398567 32.5406614 2.67316718 32.7170093 2.51262152 32.8475428 2.54966228 32.9869778 2.50205962 33.0697051 2.39221227L34.2845463 2.39221227 34.6176479 2.03098453 34.6176479 1.89050708C34.6764305 1.89050708 34.6960247 1.85037066 34.6960247 1.81023425 34.6960247 1.77009783 34.7939958 1.72996142 34.8527784 1.70989321 34.8641159 1.69960045 34.8711354 1.68522184 34.8723726 1.66975679 34.9703437 1.66975679 34.9703437 1.56941575 35.0487206 1.56941575L35.0487206 1.52927934C35.2976494 1.47408473 35.5405319 1.39340648 35.7737064 1.28846085 35.7794439 1.24181938 35.7794439 1.19462485 35.7737064 1.14798339L36.106808 1.04764235C36.1459964 1.00750594 36.1459964.9071649 36.2243733.9071649 36.2256105.891699856 36.23263.877321238 36.2439675.867028484 36.3223444.826892069 36.3223444.746619238 36.381127.686414615L36.5770691.606141784 36.7730112.525868953 36.7730112.405459707 37.4196202.405459707C37.5956684.420352584 37.7726158.420352584 37.948664.405459707 38.0074466.385391499 38.046635.305118668 38.0858235.264982253L38.5560846.264982253C38.6073074.224153828 38.65338.176966729 38.693244.124504799 38.8891862.0843683834 38.9479688.244914045 39.0851283.224845837 39.2222878.20477763 39.1439109.164641214 39.1635051.124504799L39.9472736.124504799C39.9794603.190616628 40.0357757.24108459 40.1040273.264982253 40.1824042.244914045 40.2019984.184709422 40.2411868.124504799 40.2803752.0643001757 40.3783463.224845837 40.4959116.224845837L40.7114479.00409555259C40.8486074-.0159726551 40.9269842.044231968 41.0837379.044231968 41.2404916.044231968 41.3776511.0643001757 41.4756222.124504799 41.5735933.184709422 41.6323759.365323291 41.730347.485732538L41.8675064.485732538C41.9066949.525868953 41.9066949.586073576 41.9850717.606141784 42.0634486.626209992 42.2789849.566005369 42.376956.626209992 42.474927.686414615 42.4161444.646278199 42.3965502.706482823 42.376956.766687446 42.5533039.746619238 42.6512749.786755653 42.7371496.830476325 42.8301293.857684603 42.9255939.867028484 42.9628999.9452335 42.995615 1.02564931 43.023565 1.10784698 43.1298808 1.08930142 43.2348845 1.14720965 43.2782897 1.24832443 43.3370724 1.26839264 43.4350434 1.22825622 43.4938261 1.24832443 43.532507 1.26629757 43.5661856 1.2938922 43.5917971 1.32859726 43.6927192 1.39742501 43.8059183 1.44516398 43.9248987 1.46907472L43.9640872 1.46907472C44.0816524 1.48914292 44.1992177 1.44900651 44.3363772 1.46907472L44.4735367 1.52927934 44.689073 1.64968859 44.7282614 1.689825 45.0025804 1.87043887C45.0025804 1.89050708 45.0417688 1.89050708 45.0221746 1.93064349 45.0025804 1.97077991 45.1201457 2.05105274 45.2181167 2.07112095 45.2489591 2.15539063 45.288364 2.23610685 45.335682 2.31193944L45.5512184 2.31193944C45.5708126 2.41228048 45.5512184 2.57282614 45.5708126 2.67316718 45.6432129 2.66986893 45.7157161 2.67661958 45.7863489 2.69323539 45.8059431 2.71330359 45.8059431 2.75344001 45.8059431 2.79357642 45.8697935 2.87491646 45.9420606 2.94893179 46.0214794 3.01432671 46.0606679 3.09459954 46.0214794 3.21500879 46.0410737 3.29528162 46.0606679 3.37555445 46.1390447 3.37555445 46.1586389 3.43575907 46.1782331 3.49596369 46.1390447 3.63644115 46.1978274 3.71671398 46.25661 3.79698681 46.4133637 3.93746426 46.530929 4.0378053 46.6484942 4.13814634 46.530929 4.33882842 46.530929 4.5395105 46.530929 4.74019257 46.6680885 4.65991974 46.7268711 4.76026078L46.7856537 4.76026078C46.7856537 4.84053361 46.8444364 4.84053361 46.8836248 4.88067003 46.9228132 4.92080644 46.9228132 4.94087465 46.903219 5.00107927L46.9424074 5.00107927C46.9424074 5.22182956 47.0795669 5.3221706 47.1971322 5.44257984L47.1971322 5.48271626 47.2363206 5.48271626 47.2363206 5.52285267 47.3342917 5.6031255C47.3643624 5.66362417 47.4123814 5.71280477 47.4714512 5.74360296 47.4660394 5.82378011 47.4660394 5.9042443 47.4714512 5.98442145L47.7261759 6.24530815 47.8437412 6.24530815C47.7849586 6.28544457 47.8829296 6.32558098 47.824147 6.34564919 47.7653643 6.3657174 47.7849586 6.56639947 47.7261759 6.6266041 47.6673933 6.68680872 47.7261759 6.86742259 47.7457701 6.96776363 47.7658694 6.99098711 47.7939474 7.00536573 47.824147 7.00790004 47.8829296 7.1483775 47.8437412 7.36912778 47.8633354 7.56980986 47.8829296 7.77049194 47.9417123 7.6701509 48.0004949 7.69021911 47.9929192 7.86439925 47.9994731 8.03892289 48.0200891 8.21199251 48.0720764 8.25192621 48.1182581 8.29922503 48.1572486 8.35246996 48.1456369 8.42847403 48.1594469 8.50626663 48.196437 8.57322025 48.1897833 8.64907862 48.2033261 8.72536585 48.2356254 8.79397053 48.2356254 8.9745844 48.2944081 9.03478902 48.3140023 9.19533469 48.3335965 9.35588035 48.3531907 9.21540289 48.3531907 9.2354711 48.3357513 9.31836466 48.3662137 9.40416274 48.4315676 9.45622139L48.5099444 9.4963578 48.5099444 9.69703988C48.5883213 9.7572445 48.6079155 9.83751733 48.7646692 9.81744912 48.9214229 9.79738092 48.843046 9.89772195 48.8626402 9.95792658 48.8401962 10.0057355 48.8065364 10.0471044 48.7646692 10.0783358 48.8375014 10.2057164 48.8716104 10.3524397 48.8626402 10.4997682 48.8626402 10.5599728 48.8626402 10.6001092 48.8626402 10.6603138 48.8726264 10.7939064 48.8726264 10.9280854 48.8626402 11.061678 48.8305858 11.1743016 48.7844858 11.2822219 48.7254808 11.3827693L48.6862923 11.4429739 48.6862923 11.5031786C48.6487531 11.5808482 48.5952838 11.6493016 48.5295386 11.7038606 48.5491328 11.7239289 48.5099444 11.7841335 48.5295386 11.8443381L48.3140023 11.9446791C48.3140023 11.9647473 48.3335965 12.0048838 48.2944081 12.0048838 48.3470373 12.1115605 48.3802371 12.2271704 48.3923791 12.3460433L48.3531907 12.3861797C48.3563451 12.4338945 48.3496693 12.4817555 48.3335965 12.5266572L48.2944081 12.60693C48.2748139 12.6470664 48.3140023 12.6872028 48.2552197 12.707271 48.2500237 12.7969904 48.2301531 12.8851791 48.196437 12.9681577 48.196437 12.9882259 48.1768428 13.0082942 48.1572486 13.0082942 48.1710656 13.0320571 48.1746932 13.0606072 48.1672746 13.0872005 48.159856 13.1137938 48.142049 13.1360717 48.1180602 13.1487716 48.1376544 13.1688398 48.1572486 13.2491126 48.098466 13.2290444 48.0396833 13.2089762 48.0788717 13.2892491 48.0788717 13.3494537 48.0788717 13.4096583 48.0592775 13.3695219 48.0396833 13.3695219 48.0200891 13.3695219 48.0200891 13.4297265 48.0396833 13.5099993 48.0592775 13.5902722 48.0396833 13.5902722 47.9809007 13.5902722 47.922118 13.5902722 47.9613065 13.6504768 48.0004949 13.6504768L47.9613065 13.6504768C47.9809007 13.6906132 47.9613065 13.7909543 47.922118 13.8110225 47.922118 14.1923184 47.922118 14.6538872 47.922118 15.0753195L47.824147 15.1756606C47.8633354 15.2960698 47.9613065 15.3562745 47.922118 15.5368883 47.7835802 15.5589574 47.6542623 15.6216951 47.549828 15.7175022 47.5302338 15.7576386 47.5694222 15.7576386 47.5694222 15.797775 47.5428632 15.9160561 47.4891231 16.0261365 47.4126685 16.1188663L47.4126685 16.3998213C47.3416181 16.4199348 47.2750675 16.454015 47.2167264 16.5001623 47.2559148 16.5001623 47.2363206 16.5402987 47.2559148 16.5603669L47.3146975 16.6005033C47.3342917 16.6205715 47.3146975 16.6807762 47.3930743 16.660708 47.4192087 16.7097548 47.4262109 16.7671272 47.4126685 16.8212536 47.4322627 16.86139 47.4518569 16.9015264 47.5106396 16.9015264 47.5694222 16.9015264 47.5890164 16.9617311 47.5890164 17.0219357 47.5890164 17.0821403 47.6477991 17.0420039 47.6673933 17.0620721 47.6869875 17.0821403 47.5694222 17.242686 47.549828 17.3630952 47.5302338 17.4835045 47.4910454 17.4634363 47.4126685 17.4835045 47.3342917 17.5035727 47.2167264 17.4634363 47.1383496 17.5236409L47.0991611 17.5838455 47.0403785 17.5838455C46.9919506 17.6088499 46.9365721 17.6159397 46.8836248 17.6039137 46.8444364 17.6039137 46.8640306 17.6440501 46.8444364 17.6440501 46.8248422 17.6440501 46.7072769 17.6239819 46.6876827 17.6841865L46.3937695 17.6841865M48.7928934 74.4645452C48.7994133 74.5104276 48.7994133 74.5569946 48.7928934 74.6028771 48.7730325 74.6819239 48.6935893 74.7016856 48.6538676 74.741209 48.614146 74.7807323 48.5942852 74.8597791 48.614146 74.998111L48.5744243 74.998111C48.614146 75.0771578 48.5347027 75.0771578 48.5347027 75.1364429 48.4538771 75.2004765 48.3805885 75.2733994 48.3162337 75.3538216L48.1970688 75.3538216C48.1139249 75.4228014 48.0404477 75.5025582 47.9785998 75.5909619 47.8991565 75.5909619 47.8991565 75.6304853 47.8197132 75.6107236 47.7402699 75.5909619 47.8197132 75.650247 47.7998524 75.650247 47.6776332 75.6603232 47.5573628 75.6869166 47.4423576 75.7292938L47.1643062 75.7688172 47.1245845 75.8083406C47.0848629 75.8281023 47.0252804 75.7885789 47.0252804 75.847864 47.0252804 75.9071491 46.9458371 75.847864 46.8862547 75.8676257 46.8266722 75.8873874 46.6479249 75.7688172 46.5088991 75.7490555 46.3698734 75.7292938 46.3500126 75.8676257 46.3102909 75.9664342 46.2705693 76.0652427 46.2507085 76.0059576 46.2308477 76.0059576 46.2109868 76.0059576 46.1315436 75.9861959 46.1315436 76.045481 46.1315436 76.1047661 45.9130745 76.1047661 45.754188 76.0850044 45.6742514 75.9572783 45.6013218 75.8253407 45.535719 75.6897704 45.3569716 75.5514385 45.31725 75.2352514 45.2179459 75.0573961 45.1186418 74.8795408 45.2179459 74.9585876 45.198085 74.9190642 45.1782242 74.8795408 45.1782242 74.9190642 45.1782242 74.8795408 45.1504548 74.7790423 45.1173061 74.6800927 45.0789201 74.5831154L45.0590593 74.5831154 45.0590593 74.4843069C45.0262649 74.3935807 44.9717269 74.3121819 44.9001728 74.2471665L44.9001728 73.8716943 45.0193377 73.7531241C44.9994768 73.5950305 45.0391985 73.496222 45.0193377 73.3776518 44.9994768 73.2590817 44.8604511 73.1602732 44.8803119 73.0021796L44.7810078 72.9231328C44.7214254 72.8243243 44.8008687 72.646469 44.761147 72.5278989 44.7214254 72.4093287 44.6817037 72.4488521 44.6419821 72.4290904L44.6419821 72.1524266C44.6004854 72.0706643 44.5540588 71.9914731 44.5029564 71.9152863 44.5029564 71.8757629 44.5228172 71.8560012 44.5228172 71.8164778 44.5228172 71.7769544 44.4632347 71.6188608 44.3837914 71.5595757 44.3994595 71.4746512 44.3994595 71.3875981 44.3837914 71.3026736L44.2646265 71.2038652C44.2447657 71.085295 44.2844874 70.9864865 44.2447657 70.887678 44.2050441 70.7888695 44.1454616 70.7493461 44.1256008 70.6702993 44.10574 70.5912525 44.1256008 70.5912525 44.1256008 70.5714908 44.1256008 70.5517291 44.0262967 70.4133973 44.0064359 70.3343505 43.9865751 70.2553037 44.0262967 69.9786399 44.0064359 69.7217379 43.9865751 69.4648358 43.9071318 69.6229294 43.8674101 69.5636443 43.8276885 69.5043592 43.8674101 69.3265039 43.887271 69.2276954 43.9071318 69.128887 43.8078277 69.0498402 43.7482452 68.9905551 43.7604239 68.8585384 43.7537372 68.7254706 43.7283844 68.5953211 43.5694979 68.5557977 43.6489411 68.3384191 43.6290803 68.1605638 43.6092195 67.9827085 43.549637 68.081517 43.5099154 68.0419936 43.4701938 68.0024702 43.4900546 67.9827085 43.4900546 67.9629468 43.4534673 67.9124978 43.4202927 67.8596834 43.3907505 67.8048532 43.3845267 67.7193312 43.3845267 67.6334732 43.3907505 67.5479512 43.3510288 67.4689044 43.2715856 67.4491427 43.2517247 67.3700959 43.2318639 67.2910491 43.2715856 67.3305725 43.2715856 67.3305725 43.2715856 67.3305725 43.2318639 67.2910491 43.2715856 67.2515257 43.3113072 67.2120023 43.2318639 67.2120023 43.2715856 67.1922406 43.2432032 67.1433263 43.2432032 67.0830614 43.2715856 67.0341471 43.2715856 67.0143854 43.2318639 67.0143854 43.2517247 66.9946237 43.2715856 66.974862 43.2318639 66.8958152 43.2715856 66.8958152 43.3113072 66.8958152 43.2715856 66.7377216 43.2517247 66.6784365L43.0133949 66.4412961 43.0133949 65.9472537C42.9736733 65.927492 42.9736733 65.8682069 42.9140908 65.8682069 42.8924256 65.6978428 42.8857799 65.5259194 42.89423 65.3544028L42.6559002 65.1172624C42.6957668 64.9796478 42.6488011 64.8316655 42.5367352 64.7417902L42.5367352 63.9513223C42.516335 63.6882239 42.516335 63.4239528 42.5367352 63.1608544 42.568018 63.0715891 42.6079264 62.9855525 42.6559002 62.9039523 42.6161785 62.6865737 42.6559002 62.3901482 42.6360393 62.2122929L42.7552043 62.1134845C42.7154826 61.7775356 42.5764569 61.5206335 42.6559002 61.1451613 42.6559002 61.1056379 42.7353434 61.1253996 42.7552043 61.1056379 42.7750651 61.0858762 42.5963177 60.9475443 42.5367352 60.8684975L42.5367352 60.3744551C42.5516492 60.2101086 42.5516492 60.0447592 42.5367352 59.8804127 42.5168744 59.7618425 42.3579879 59.663034 42.4175703 59.5444638 42.4771528 59.4258936 42.3381271 59.4456553 42.2785446 59.4061319 42.2984054 59.0306597 42.2984054 58.6749491 42.1395189 58.4575705L42.1395189 58.3192386C42.0203539 58.2599535 42.0004931 58.161145 41.901189 58.1018599 41.9053493 58.0492434 41.9053493 57.9963829 41.901189 57.9437663 41.8416066 57.8844813 41.8416066 57.7856728 41.7621633 57.7461494 41.7467787 57.6414985 41.6980474 57.5445224 41.6231376 57.4694856 41.6231376 57.3311537 41.5039726 57.2718686 41.5238335 57.1335368 41.5436943 56.9952049 41.464251 57.05449 41.4046685 57.0347283 41.3450861 57.0149666 41.5635551 56.7383028 41.5039726 56.5209241L41.2855036 56.4221157C41.3450861 56.3035455 41.4443902 56.2442604 41.5039726 56.1652136 41.4694777 56.1264952 41.4293029 56.0931832 41.3848077 56.0664051L41.3848077 55.9280732 41.4841118 55.9280732C41.5039726 55.8292647 41.4245294 55.7699797 41.4046685 55.6711712 41.3848077 55.5723627 41.3848077 55.6118861 41.3649469 55.6316478 41.3450861 55.6514095 41.3649469 55.5921244 41.3450861 55.5328393L41.3450861 55.4537925C41.3108143 55.4053406 41.2840356 55.3520507 41.2656428 55.2956989 41.2656428 55.2166521 41.2855036 55.1178437 41.2855036 55.0190352 41.2855036 54.9202267 41.2656428 54.8411799 41.2656428 54.7621331 41.277544 54.7169271 41.2842076 54.6705147 41.2855036 54.6238012 41.2656428 54.5645161 41.1861995 54.5249927 41.1464779 54.4854693 41.1067563 54.4459459 41.0670346 54.3471375 41.0471738 54.2285673 41.027313 54.1099971 41.1067563 54.1495205 41.1464779 54.0902354 41.1861995 54.0309503 41.1663387 53.5764313 41.1266171 53.3392909L41.027313 53.2404824C41.0471738 53.0823888 40.9677305 53.0626271 40.8882872 53.0033421 40.808844 52.944057 40.9081481 52.8650102 40.8684264 52.8057251 40.8455762 52.7352281 40.8120926 52.6685953 40.7691223 52.6081081 40.7889831 52.5685847 40.7889831 52.5685847 40.7691223 52.5092996 40.7492615 52.4500145 40.8882872 52.4302528 40.9081481 52.351206 40.9280089 52.2721593 40.8882872 52.3116827 40.8485656 52.2523976 40.8147373 52.2108672 40.7879074 52.1641492 40.7691223 52.1140657 40.7492615 52.0152572 40.808844 51.896687 40.7691223 51.7978785 40.7294007 51.69907 40.6300966 51.69907 40.6300966 51.6397849L40.6300966 51.5607382C40.6038855 51.5193328 40.5901045 51.47134 40.5903749 51.4224063 40.5307925 51.3828829 40.5506533 51.2840744 40.4910709 51.244551 40.4910709 51.1767155 40.4775707 51.1095514 40.4513492 51.046934L40.4116276 50.9678872C40.3917668 50.8097937 40.4513492 50.6121767 40.4116276 50.4738448 40.3719059 50.3355129 40.3321843 50.3750363 40.2924627 50.3355129L40.1534369 50.2169427C40.1137153 49.9798024 40.2130194 49.7624237 40.1335761 49.5845684 40.0541328 49.4067132 39.9548287 49.4462366 39.8952463 49.3276664L39.8952463 49.1893345C39.846673 49.0469624 39.8068774 48.9017734 39.7760814 48.7545772 39.8013625 48.7146842 39.8352924 48.6809236 39.8753855 48.6557687 39.8753855 48.6162453 39.8952463 48.4779134 39.8952463 48.4186283 39.8952463 48.3593432 39.7959422 48.3198198 39.7562205 48.2605347 39.7684607 48.1026757 39.7684607 47.944113 39.7562205 47.786254 39.6966381 47.7664923 39.6966381 47.7072072 39.6569164 47.6874455 39.6420915 47.6428746 39.6353662 47.596032 39.6370556 47.5491136L39.5377515 47.331735C39.4828754 47.287118 39.4358853 47.233683 39.3987258 47.1736414 39.3987258 47.0353095 39.378865 46.9562627 39.3987258 46.8376925 39.0610919 45.8496077 38.7433187 44.9010462 38.4056848 43.9129613 38.385824 43.873438 38.4255456 43.8536763 38.4056848 43.8339146 38.385824 43.8141529 38.3461024 43.8339146 38.3063807 43.8141529 38.2666591 43.7943912 38.2269374 43.6362976 38.1474942 43.5572508 38.1474942 43.1422552 38.1474942 42.6877361 38.1474942 42.2134554 38.1474942 42.173932 38.1077725 42.173932 38.0680509 42.1541703L38.0680509 42.1146469 38.0481901 42.1146469 38.0084684 42.0751235 37.9091643 41.976315C37.8893035 41.9170299 37.9091643 41.8577448 37.8495819 41.7984598 37.8507529 41.7047525 37.8373541 41.6114287 37.8098602 41.521796L37.7701386 41.521796C37.6906953 41.5415577 37.6708345 41.5810811 37.6311129 41.6206045 37.651016 41.6644748 37.6863266 41.6996092 37.730417 41.719413 37.7105561 41.8577448 37.730417 42.0356001 37.6708345 42.1344086 37.611252 42.2332171 37.730417 42.2332171 37.7502778 42.2925022 37.7701386 42.3517873 37.730417 42.3517873 37.730417 42.3913107 37.730417 42.4308341 37.7502778 42.6679744 37.7502778 42.8063063L37.8893035 42.8458297C37.8893035 43.023685 37.9687468 43.1224935 37.9687468 43.280587L38.1077725 43.3201104C38.0680509 43.3991572 38.0879117 43.5374891 38.0084684 43.5770125 37.9290252 43.6165359 37.9886076 43.6362976 37.9886076 43.675821 37.9886076 43.7153444 37.948886 43.7351061 37.9290252 43.7746295 37.9091643 43.8141529 37.9290252 43.8536763 37.9091643 43.8931997L37.8694427 43.932723 37.8694427 43.9920081C37.8234387 44.0882001 37.7836366 44.1872088 37.7502778 44.2884336 37.7502778 44.3081953 37.7502778 44.327957 37.7502778 44.3477187 37.7248636 44.4297396 37.6916104 44.5091492 37.6509737 44.5848591 37.6708345 44.6441441 37.6311129 44.6836675 37.611252 44.7231909 37.5913912 44.7627143 37.611252 44.782476 37.611252 44.8022377L37.5913912 44.8022377 37.5913912 44.8812845 37.5516696 44.9603313C37.5119479 45.0591398 37.5119479 45.1579483 37.4722263 45.2369951 37.4325047 45.3160418 37.3729222 45.3950886 37.392783 45.4938971 37.3385733 45.5986021 37.3048731 45.712611 37.2934789 45.829846L37.174314 45.8693694C37.1544532 45.9286545 37.174314 46.0274629 37.1544532 46.1065097L36.8962625 46.3634118C36.8764017 46.481982 36.7969584 46.5412671 36.7969584 46.679599 36.7969584 46.8179308 36.6182111 47.3119733 36.4196029 47.5491136 36.2209947 47.786254 36.4196029 47.6281604 36.4394637 47.6874455L36.300438 47.9245859C36.3094705 47.9636716 36.3161031 48.0032682 36.3202988 48.0431561L36.181273 48.3000581C36.1751731 48.3343074 36.1822642 48.3695863 36.2011339 48.3988666 36.086561 48.4941174 35.9977955 48.6164101 35.9429432 48.7545772 35.962804 48.8731473 35.9230824 49.0312409 35.962804 49.1102877 36.0025257 49.1893345 35.8436391 49.2090962 35.8237783 49.2683813 35.8039175 49.3276664 35.6450309 49.5055217 35.5854485 49.6240918 35.525866 49.742662 35.307397 50.1576577 35.3669795 50.592415 35.3471186 50.6319384 35.2676754 50.6714618 35.2478145 50.7109852 35.2279537 50.7505086 35.2676754 50.8690788 35.2478145 50.9481255 35.2279537 51.0271723 35.1683713 51.0864574 35.1485104 51.1655042L35.1087888 51.3038361 35.0492063 51.4026446C35.0293455 51.442168 35.0492063 51.4816914 35.0293455 51.5014531 35.0094847 51.5212148 34.9101806 51.6200232 34.870459 51.6793083 34.88583 51.7507112 34.8924983 51.8236967 34.8903198 51.896687 34.8307373 51.9362104 34.8108765 52.0152572 34.7512941 52.0547806L34.7512941 52.1338274C34.7115724 52.1535891 34.7314332 52.2326359 34.6718508 52.2721593 34.6499242 52.3833723 34.609659 52.4902102 34.5526859 52.5883464 34.5526859 52.6081081 34.532825 52.6476315 34.5129642 52.6476315 34.5175175 52.6946581 34.510708 52.7420864 34.4931034 52.7859634 34.4834619 52.8394924 34.4701911 52.8923109 34.4533818 52.944057 34.435676 53.0156379 34.4224104 53.0882345 34.4136601 53.1614356 34.3937993 53.2800058 34.314356 53.398576 34.314356 53.5171462 34.314356 53.6357164 34.2150519 53.596193 34.1753303 53.6357164 34.1356087 53.6752398 34.1753303 53.853095 34.1753303 53.9519035 34.1753303 54.050712 34.1157478 54.0309503 34.095887 54.0902354L34.0363046 54.2285673 34.0164437 54.2285673C34.0164437 54.248329 34.0363046 54.2680907 34.0363046 54.2878524 34.0363046 54.3076141 33.9568613 54.3866609 33.9568613 54.4261842 33.9568613 54.4657076 33.8178355 54.2878524 33.7185314 54.3471375 33.6192273 54.4064226 33.7185314 54.5249927 33.6986706 54.5842778 33.6788098 54.6435629 33.5993665 54.6633246 33.5795057 54.7226097 33.5596449 54.7818948 33.5795057 55.3154606 33.5993665 55.6909329 33.5484706 55.7076479 33.5077987 55.7462053 33.4885586 55.7959798 33.4693185 55.8457543 33.473541 55.9014926 33.5000624 55.9478349 33.4802016 56.0268817 33.4802016 56.1256902 33.3808975 56.1454519 33.2815934 56.1652136 33.1624285 56.4418774 33.0035419 56.5406858 32.8446554 56.6394943 32.9240987 56.9359198 32.9240987 57.1137751 32.9240987 57.2916303 32.9240987 57.1730602 32.884377 57.1532985 32.9046487 57.2191565 32.8974931 57.2903557 32.8645162 57.3509154 32.884377 57.4102005 32.9439595 57.4497239 33.0035419 57.4892473 33.0631244 57.5287707 33.0035419 57.5880558 32.9836811 57.6473409 32.9638203 57.706626 32.665908 57.8647196 32.5467431 58.0030514L32.447439 58.0030514C32.4672998 58.0425748 32.4672998 58.0820982 32.5268823 58.0820982 32.5864647 58.0820982 32.6261864 58.1809067 32.6460472 58.2401918 32.665908 58.2994769 32.5666039 58.3982854 32.5467431 58.4773322 32.5268823 58.556379 32.6460472 58.6156641 32.6460472 58.7342342L32.5467431 58.7342342C32.5070215 58.7342342 32.5467431 58.7737576 32.5070215 58.7737576 32.4672998 58.7737576 32.4275782 58.8923278 32.4077174 58.9713746 32.3878565 59.0504214 32.4275782 59.208515 32.4077174 59.3468468L32.3084133 59.4456553 32.3084133 59.4851787 32.2686916 59.4851787 32.2686916 59.5247021C32.2099041 59.64086 32.1957785 59.7743828 32.22897 59.9001744 32.2488308 59.9594595 32.3282741 59.9792212 32.3481349 60.0582679 32.3679957 60.1373147 32.3084133 60.1373147 32.2488308 60.1570764 32.234296 60.2084883 32.2276011 60.2617801 32.22897 60.31517 32.117696 60.413434 32.0295435 60.5348821 31.9707793 60.6708806 31.9906402 60.8684975 31.9707793 61.0661145 31.9906402 61.3032549 31.9432237 61.3342984 31.9026745 61.3746453 31.8714752 61.4218251 31.8714752 61.6589654 31.8714752 61.8763441 31.8714752 62.1530078 31.8714752 62.4296716 31.8317536 62.2320546 31.7721711 62.2320546 31.7468528 62.375528 31.7401778 62.5216448 31.7523103 62.666812 31.7523103 62.6865737 31.7324495 62.6865737 31.7324495 62.7063354 31.7324495 62.7260971 31.7324495 62.7656205 31.7324495 62.7853822 31.7324495 62.8051439 31.6927279 62.9039523 31.6927279 62.9632374 31.6927279 63.0225225 31.672867 63.1015693 31.672867 63.1608544 31.6502278 63.2713282 31.6435402 63.3844503 31.6530062 63.4968033 31.624402 63.5411141 31.5828025 63.5756074 31.5338413 63.5956117L31.5338413 63.8327521C31.5934238 63.9315606 31.5934238 64.0698925 31.672867 64.1489393 31.6708777 64.2367001 31.6160339 64.3146574 31.5338413 64.3465562 31.5338413 64.7813136 31.5537021 65.1567858 31.5537021 65.5915432 31.5537021 66.0263005 31.573563 66.1053473 31.573563 66.322726 31.5722937 66.3565067 31.5655883 66.3898664 31.5537021 66.4215344 31.4733989 66.4808116 31.4347126 66.5808941 31.454398 66.6784365 31.3948156 66.7179599 31.3352331 66.7377216 31.3153723 66.7970067 31.2955115 66.8562918 31.3352331 67.0539087 31.3153723 67.1329555L31.2756507 67.2120023 31.2160682 67.2712874 31.2160682 67.5281895C31.1366249 67.5479512 31.0571816 67.6862831 31.1167641 67.7455681L30.9777384 67.8839C30.9687799 68.041868 30.9687799 68.2002128 30.9777384 68.3581808L30.8585735 68.3581808C30.8982951 68.536036 30.7195477 68.6150828 30.7394085 68.8522232L30.6202436 68.9905551C30.6196736 69.0245266 30.6264467 69.0582234 30.6401044 69.0893636L30.5408003 69.2672188C30.4934111 69.3795093 30.4796181 69.5030271 30.5010787 69.6229294 30.362053 69.6426911 30.4017746 69.8007847 30.4017746 69.9193548 30.3879499 69.9741138 30.3679628 70.0271468 30.3421922 70.0774484L30.2627489 70.2157803 30.2230272 70.2157803C30.2031664 70.235542 30.1833056 70.2948271 30.143584 70.3145888 30.1411975 70.368024 30.1479125 70.4214758 30.1634448 70.4726824L30.1237231 70.4726824C30.143584 70.5319675 30.0840015 70.5517291 30.1038623 70.6110142 30.1237231 70.6702993 29.9846974 70.9864865 29.9052541 71.1445801L29.9052541 71.3026736C29.8258108 71.4805289 29.7860892 71.6781459 29.7066459 71.8757629L29.7066459 71.9152863 29.5676202 71.9152863C29.5477594 71.9745713 29.5676202 72.0536181 29.5477594 72.1129032 29.5278986 72.1721883 29.369012 72.3302819 29.4285945 72.4883755 29.4881769 72.646469 29.4087336 72.5476606 29.3888728 72.5674223 29.3634809 72.7094363 29.3235513 72.8484923 29.2697079 72.9824179 29.2498471 73.041703 29.2697079 73.0812264 29.2498471 73.1405115 29.2314268 73.1917853 29.2181221 73.2447383 29.2101254 73.2986051 29.2101254 73.3381285 29.2299863 73.3776518 29.2299863 73.4171752 29.2299863 73.4566986 29.1306822 73.5357454 29.0909605 73.5752688 29.0512389 73.6147922 29.150543 74.2274048 28.9916564 74.3854984 28.8327699 74.543592 28.9916564 74.6226388 28.9916564 74.7807323 28.9075191 74.8810825 28.8144584 74.9736787 28.713605 75.0573961 28.7334658 75.1166812 28.6738833 75.1364429 28.6540225 75.1562046 28.6341617 75.1759663 28.5745792 75.2550131 28.5745792 75.3538216 28.5745792 75.45263 28.5149968 75.4921534 28.4355535 75.5119151 28.3561102 75.5316768 28.375971 75.5712002 28.3958319 75.650247 28.4156927 75.7292938 28.3163886 75.7292938 28.3163886 75.8083406 28.3163886 75.8873874 28.2568061 75.8873874 28.2170845 75.9071491L28.1177804 75.9071491C28.0979196 75.9466725 28.0383371 75.9466725 28.0383371 76.0059576L27.8595897 76.0059576C27.8000073 76.0850044 27.7007032 76.1640511 27.6411207 76.2430979L27.502095 76.2430979 27.283626 76.3616681 25.6947604 76.3616681 25.5358739 76.5 24.9003276 76.3616681C24.9003276 76.2430979 24.7613019 76.1442895 24.7811627 76.0257193 24.8010235 75.9071491 24.8407452 75.9269108 24.9003276 75.8873874L24.9003276 75.7688172C24.9599101 75.7292938 24.9797709 75.6700087 25.0393534 75.650247 25.0393534 75.1562046 25.0194926 74.7609706 25.0194926 74.1878814 25.0489197 74.169106 25.0843755 74.1620502 25.1187967 74.1681197 25.1264753 73.9841392 25.2225347 73.8150361 25.3769873 73.7136007L25.3769873 73.496222C25.5517117 73.5228858 25.7299776 73.4803155 25.8735078 73.3776518L25.6153171 73.1207498C25.635178 72.9824179 25.5557347 72.9428945 25.4762914 72.8836094 25.4873718 72.7652955 25.4873718 72.6462128 25.4762914 72.5278989 25.5358739 72.5081372 25.5358739 72.4290904 25.6153171 72.4093287 25.6947604 72.389567 25.5358739 71.8955246 25.7146212 71.8362395 25.8933686 71.7769544 25.6947604 71.6188608 25.7146212 71.5200523 25.7344821 71.4212438 25.7543429 71.4607672 25.7543429 71.4410055 25.7543429 71.4212438 25.7344821 71.342197 25.7344821 71.3026736 25.7344821 71.2631502 25.7742037 71.2433885 25.7742037 71.2236269 25.7691066 71.196922 25.7624754 71.1705298 25.7543429 71.1445801 25.7543429 71.1050567 25.7742037 71.085295 25.7742037 71.0457716 25.7742037 71.0062482 25.7742037 70.9469631 25.7742037 70.9074397 25.7742037 70.8679163 25.7940645 70.887678 25.7940645 70.8679163 25.7940645 70.8481546 25.7940645 70.7493461 25.7940645 70.7098227 25.7940645 70.6702993 25.8337862 70.6505376 25.8337862 70.6110142 25.8330372 70.5622251 25.8193333 70.5145008 25.7940645 70.4726824L25.7543429 70.4726824C25.7344821 70.433159 25.7543429 70.3738739 25.7146212 70.3343505 25.6835542 70.1693432 25.7354618 69.9996409 25.853647 69.8798314 25.8426825 69.8343661 25.8426825 69.7869649 25.853647 69.7414996 25.7970219 69.6617825 25.7503381 69.5755167 25.7146212 69.4845975 25.7742037 69.4253124 25.7742037 69.3462656 25.853647 69.3067422 25.9330902 69.2672188 25.9132294 69.188172 25.9529511 69.1486486L25.853647 68.93127 25.7146212 68.93127C25.6831859 68.7572548 25.7264006 68.578092 25.8337862 68.4372276 25.7742037 68.3779425 25.6748996 68.2988957 25.6947604 68.2198489 25.7146212 68.1408021 25.7543429 68.1803255 25.7940645 68.1408021 25.8337862 68.1012787 25.7940645 68.1012787 25.8139253 68.081517L25.853647 68.081517 25.9529511 67.9629468C25.9534481 67.8965575 25.9467898 67.8303066 25.9330902 67.7653298 25.96238 67.6999076 26.0108354 67.6448063 26.072116 67.6072363 26.1081998 67.4008606 26.1545993 67.1964027 26.2111417 66.9946237 26.1912809 66.9353386 26.1714201 66.8760535 26.1515593 66.8365301L26.1118376 66.8365301C26.0323943 66.6389131 26.3700283 66.6191514 26.3104458 66.382011L26.4296107 66.382011C26.4494716 66.3029643 26.4296107 66.2239175 26.4296107 66.1448707 26.4296107 66.0658239 26.5884973 65.9670154 26.6878014 65.927492 26.7871055 65.8879686 26.6679406 65.7496367 26.6878014 65.6508282 26.7076622 65.5520198 26.727523 65.5717815 26.8069663 65.5717815 26.8864096 65.5717815 26.8069663 65.2358326 26.7871055 65.0975007 26.7672447 64.9591688 26.6878014 65.0975007 26.6878014 65.077739 26.6878014 65.0579773 26.8268271 64.8998838 26.7871055 64.7022668 26.846213 64.6709001 26.8946072 64.6227474 26.9261312 64.5639349 26.9012792 64.5342454 26.8811817 64.5009168 26.8665488 64.4651264 26.8069663 64.3465562 26.8069663 64.2872711 26.9261312 64.2082244 26.9078941 63.9506703 26.9212327 63.6918649 26.9658529 63.4375182 26.9658529 63.3979948 26.945992 63.3782331 26.945992 63.3387097 26.945992 63.2991863 26.9857137 63.3387097 26.9857137 63.2991863 27.0187501 63.0370516 27.0320277 62.7728247 27.0254353 62.5087184 27.0850178 62.4296716 27.0850178 62.3308631 27.1446002 62.271578L27.1446002 62.1727695C27.1680048 62.1261134 27.2020033 62.0855187 27.2439043 62.0541994 27.283626 61.8565824 27.3432084 61.6984888 27.3630692 61.5403952L27.2637651 61.4613484C27.3034868 61.3427783 27.4226517 61.2834932 27.4822342 61.1846847 27.5418166 61.0858762 27.4027909 60.9475443 27.3829301 60.8092124 27.4608176 60.7419738 27.5338231 60.6693326 27.6013991 60.5918338 27.598294 60.5057292 27.6049564 60.4195508 27.6212599 60.3349317L27.8397289 60.0977913C27.8490208 60.0588086 27.8490208 60.0182039 27.8397289 59.9792212 27.8845026 59.8892363 27.924284 59.7968764 27.9588938 59.7025574 27.9787546 59.663034 27.9787546 59.7025574 27.9588938 59.6235106 27.9504198 59.5892745 27.9576987 59.5530617 27.9787546 59.5247021 27.939033 59.5049404 27.9588938 59.4258936 27.9588938 59.3666085L28.0780587 59.3666085C28.0882565 59.2548554 28.0882565 59.1424128 28.0780587 59.0306597 28.1177804 59.010898 28.1177804 58.9318512 28.1773628 58.9318512 28.2369453 58.9318512 28.2766669 58.6947108 28.3163886 58.5761407L28.3561102 58.4773322C28.3561102 58.4575705 28.3561102 58.4378088 28.3561102 58.4180471L28.4355535 58.2599535C28.4554143 58.2204301 28.4554143 58.161145 28.4554143 58.1413833L28.4951359 58.1413833C28.5149968 58.1018599 28.4951359 58.0623365 28.5149968 58.0425748L28.5547184 58.0030514 28.5547184 57.963528 28.5745792 57.963528C28.59444 57.8844813 28.5547184 57.8251962 28.5745792 57.7461494L28.5745792 57.706626 28.2568061 57.509009C28.2568061 57.4892473 28.2568061 57.4497239 28.2170845 57.4694856L28.2170845 57.0940134 28.0780587 56.9754432C28.1773628 56.8371113 28.1376412 56.5604475 28.3362494 56.5209241 28.5348576 56.4814008 28.3163886 56.0268817 28.3362494 55.750218 28.3561102 55.4735542 28.4554143 55.5921244 28.5547184 55.552601 28.6540225 55.5130776 28.5547184 55.354984 28.5745792 55.2561755 28.6142597 55.1607865 28.6607192 55.0683312 28.713605 54.9795118 28.713605 54.9597501 28.6937441 54.9399884 28.7334658 54.9399884 28.7094183 54.8718429 28.7246485 54.796072 28.7731874 54.7423714 28.7533266 54.5842778 28.8724915 54.4064226 28.9122132 54.2285673 28.9068813 54.1555149 28.9135901 54.0820867 28.932074 54.0111886L28.9717956 53.9716652C28.9916564 53.9321418 28.9717956 53.853095 29.0313781 53.853095 29.0909605 53.853095 29.0313781 53.7740482 29.0115173 53.7147632L29.150543 53.596193C29.150543 53.4183377 29.150543 53.2997675 29.1306822 53.1021505 29.1108213 52.9045336 29.2299863 53.0428654 29.2498471 52.9638187 29.2272906 52.8932027 29.1937852 52.8265264 29.150543 52.7662017 29.1704038 52.6278698 29.2895687 52.5685847 29.369012 52.4895379 29.3838427 52.4045396 29.3838427 52.3176342 29.369012 52.2326359 29.3954499 52.1817983 29.4370844 52.1403716 29.4881769 52.1140657 29.4881769 51.9362104 29.4881769 51.7385934 29.4881769 51.6002616L29.6073418 51.6002616C29.5678121 51.5377863 29.5345507 51.4715957 29.5080377 51.4026446 29.6463257 51.261544 29.7994738 51.1356617 29.9648366 51.0271723 29.9687051 50.981142 29.9687051 50.9348707 29.9648366 50.8888405 30.1038623 50.7505086 30.1833056 50.5528916 30.3223313 50.4343214 30.4613571 50.3157512 30.3024705 50.2564661 30.3421922 50.1576577L30.4414962 50.1576577 30.4414962 50.0588492 30.580522 49.9205173 30.6798261 49.9205173C30.7791302 49.8809939 30.8188518 49.7624237 30.9181559 49.7229003 30.9512525 49.6246579 30.9980514 49.5315271 31.0571816 49.4462366 30.9975992 49.4264749 31.0770425 49.3671898 31.0373208 49.3474281L31.2955115 49.0707643C31.2557898 48.9521941 31.3550939 48.8336239 31.3948156 48.7348155L31.3948156 48.4779134C31.5338413 48.43839 31.5934238 48.3198198 31.7324495 48.2802964 31.8714752 48.240773 31.8913361 48.0826795 31.8714752 47.9048242 31.8516144 47.7269689 31.9707793 47.8060157 32.010501 47.7467306 32.0068904 47.6743156 32.0068904 47.601767 32.010501 47.5293519L31.9707793 47.4503051C31.9310577 47.3712584 31.8516144 47.2329265 31.8913361 47.1143563 31.9310577 46.9957861 31.9111969 47.0155478 31.9509185 46.9957861 31.9906402 46.9760244 32.1495267 46.7191223 32.22897 46.5807905 32.2427285 46.4662015 32.2693765 46.3535124 32.3084133 46.2448416 32.2885524 46.1262714 32.3481349 46.0669863 32.3481349 45.9681779 32.3259469 45.8724315 32.2926207 45.779584 32.2488308 45.6915141 32.2082524 45.5883633 32.2155209 45.4726477 32.2686916 45.3753269L32.3282741 45.3160418C32.3548413 45.2186859 32.3747478 45.1196506 32.3878565 45.0196164 32.4077174 44.9405696 32.447439 44.8615228 32.4672998 44.8022377 32.4871606 44.7429526 32.4275782 44.3477187 32.4871606 44.1896251L32.4871606 44.1501017C32.4871606 44.1105783 32.5268823 44.0908166 32.5268823 44.0512932 32.5268823 44.0117698 32.5268823 43.9524847 32.5467431 43.9129613L32.5864647 43.8536763C32.6063256 43.8141529 32.6063256 43.7548678 32.6063256 43.7153444 32.6063256 43.675821 32.665908 43.6165359 32.665908 43.5177274 32.665908 43.4189189 32.7254905 43.3596338 32.7652121 43.3003487 32.8049338 43.2410636 32.6857688 43.2410636 32.665908 43.1817786 32.6460472 43.1224935 32.8247946 43.2015402 32.884377 43.1620169L32.884377 42.9841616C32.884377 42.9446382 32.8049338 42.9643999 32.7850729 42.9248765 32.7652121 42.8853531 33.0432636 42.4901192 33.2418718 42.3517873 33.44048 42.2134554 33.222011 42.1344086 33.2815934 42.0751235L33.2815934 42.0356001 33.3411759 42.0356001C33.3808975 41.9960767 33.4007583 41.9367916 33.44048 41.8972682L33.4802016 41.8972682C33.5199233 41.8577448 33.5199233 41.7984598 33.5795057 41.7984598 33.6390882 41.7984598 33.5795057 41.7391747 33.6192273 41.7391747 33.658949 41.7391747 33.6192273 41.719413 33.5993665 41.719413 33.5795057 41.719413 33.6390882 41.5613194 33.6986706 41.521796 33.7582531 41.4822726 33.7185314 41.4032258 33.7383923 41.3637024 33.7582531 41.324179 33.7979747 41.2253705 33.7979747 41.1068003 33.7979747 40.9882302 33.8376964 41.0079919 33.8376964 40.9487068 33.8376964 40.8894217 33.8178355 40.86966 33.8972788 40.86966 33.9767221 40.86966 33.9370005 40.7708515 33.9370005 40.672043 34.0630583 40.6848133 34.1903419 40.6781476 34.314356 40.6522813L34.314356 40.3163325 34.532825 40.1977623C34.6270074 40.1133858 34.7134153 40.0207956 34.7910157 39.9210985 34.8307373 39.9013368 34.8505981 39.8618134 34.8903198 39.8420517 34.9300414 39.82229 35.0293455 39.7037198 35.1087888 39.6246731 35.1881321 39.6301642 35.264206 39.5923171 35.307397 39.5258646 35.4464227 39.5258646 35.5854485 39.4072944 35.7244742 39.367771 35.8634999 39.3282476 35.7244742 39.3282476 35.744335 39.3282476 35.8628146 39.298036 35.9764615 39.2514737 36.081969 39.1899157 36.1216906 39.170154 36.1018298 39.0911072 36.1018298 39.0515838 36.1018298 39.0120604 36.2607163 38.9330137 36.4196029 38.9330137L36.4196029 38.9922988C36.4791853 39.0515838 36.4990462 39.1306306 36.5586286 39.2096774 36.6182111 39.2887242 36.9161234 39.5851497 37.1147316 39.7630049 37.1631923 39.8994551 37.222981 40.0316559 37.2934789 40.1582389 37.392783 40.0989538 37.3530614 39.9210985 37.392783 39.8420517 37.3017642 39.6834986 37.354687 39.4816404 37.5119479 39.3875327 37.5516696 39.2887242 37.6509737 39.2689625 37.6708345 39.1899157 37.6906953 39.1108689 38.0283292 39.0120604 38.1872158 38.9330137 38.3461024 38.8539669 38.2467983 38.8737286 38.2666591 38.8342052L38.2666591 38.5970648C38.3063807 38.5575414 38.3659632 38.5575414 38.4255456 38.5377797L38.5447106 38.4587329 38.6638755 38.4587329 38.7035971 38.4192095 38.9022053 38.3401627 39.0015094 38.2413543 39.2199784 38.2413543C39.2398392 38.2215926 39.2199784 38.1623075 39.2398392 38.1425458 39.3061263 38.0978687 39.3662235 38.0447156 39.4185866 37.9844522 39.5178907 37.9844522 39.5377515 37.9449288 39.6171948 37.9054054L39.6569164 37.9054054C39.6718634 38.0101194 39.6785041 38.1158416 39.6767773 38.2215926 39.7562205 38.3006393 39.9548287 38.2808777 40.034272 38.3796861 40.1137153 38.4784946 39.9746895 38.6168265 39.9349679 38.7353967 39.9244362 38.7823752 39.9314983 38.8315633 39.9548287 38.8737286L39.9548287 38.913252C39.9746895 38.9330137 39.9746895 38.9527754 39.9945504 38.9922988 40.0285729 39.0408984 40.0553324 39.0941504 40.0739936 39.1503923 40.0806903 39.2471352 40.1077569 39.3413958 40.1534369 39.4270561 40.1389137 39.4432646 40.1317314 39.464704 40.1335761 39.4863412 40.1534369 39.5061029 40.1335761 39.5456263 40.1732977 39.565388 40.2130194 39.5851497 40.1534369 39.5851497 40.1534369 39.6049114 40.1534369 39.6246731 40.1732977 39.6641965 40.1732977 39.6839582L40.252741 39.82229C40.2966182 39.9177499 40.3571346 40.0047262 40.4314884 40.0791921 40.5109317 40.1582389 40.5903749 40.2372857 40.4513492 40.2965708 40.3123235 40.3558559 40.5307925 40.3756176 40.5506533 40.4349026 40.5705141 40.4941877 40.5109317 40.6522813 40.5903749 40.7115664 40.6557208 40.7851851 40.7289815 40.8514533 40.808844 40.9091834 40.7691223 41.0079919 40.808844 41.1660854 40.7889831 41.2648939 40.8404379 41.3129139 40.8870054 41.3658683 40.9280089 41.4229875 40.8539031 41.7071236 40.8139025 41.9989975 40.808844 42.2925022L40.7095399 42.3913107C40.7889831 42.6482127 41.0074522 42.7470212 41.0868954 43.023685 41.1351704 43.0808602 41.1691949 43.1485696 41.1861995 43.2213019L41.4841118 43.2213019C41.4841118 43.3991572 41.6429984 43.4584423 41.6231376 43.6955827 41.6577383 43.7520581 41.7054046 43.7994865 41.7621633 43.8339146 41.7423025 43.8931997 41.7820241 43.9524847 41.7621633 44.0710549 41.7423025 44.1896251 41.7820241 44.1105783 41.8018849 44.13034 41.8217457 44.1501017 41.7820241 44.3081953 41.8416066 44.3477187 41.901189 44.3872421 41.8018849 44.3872421 41.8217457 44.4267655 41.8416066 44.4662889 41.8416066 44.5848591 41.8614674 44.6639058 41.8813282 44.7429526 41.8813282 44.6836675 41.901189 44.7034292 41.9210498 44.7231909 41.8813282 44.782476 41.8813282 44.8022377 41.8813282 44.8219994 41.9409107 44.9010462 42.0203539 44.9010462 42.0159525 44.9602504 42.0159525 45.0196973 42.0203539 45.0789015 41.9787131 45.1020755 41.9443401 45.1362769 41.9210498 45.17771 41.9409107 45.1974717 41.9607715 45.2369951 42.0004931 45.2567568 42.0159947 45.3973137 42.063545 45.5324935 42.1395189 45.6519907 42.2129043 45.6487428 42.2863941 45.6553904 42.3579879 45.6717524 42.3381271 45.7507992 42.2785446 45.7705609 42.238823 45.829846 42.2464339 45.9285094 42.2464339 46.0276081 42.238823 46.1262714 42.2586838 46.1657948 42.3381271 46.1460331 42.3778487 46.1657948 42.4175703 46.1855565 42.3579879 46.481982 42.238823 46.5412671 42.2292317 46.6596452 42.2292317 46.7785995 42.238823 46.8969776 42.238823 46.936501 42.2785446 46.9562627 42.2785446 46.9957861 42.2931415 47.0846209 42.3198698 47.1710545 42.3579879 47.2526882L42.4771528 47.2526882C42.4771528 47.4107817 42.4771528 47.6083987 42.4771528 47.8455391L42.6956218 47.9443476C42.7122805 48.1415051 42.7189093 48.3393748 42.7154826 48.5371985L42.8545084 48.6755304C42.8492259 48.7610837 42.8492259 48.8468791 42.8545084 48.9324324 42.9140908 48.9521941 42.9140908 49.0114792 42.9736733 49.0312409 43.0332557 49.0510026 43.0133949 49.1695728 42.9935341 49.288143 42.9736733 49.4067132 43.0133949 49.3079047 43.0133949 49.3276664 43.0133949 49.3474281 43.112699 49.7821854 43.0928382 49.9798024 43.0352349 50.1464719 42.9952963 50.3186753 42.9736733 50.4936065 43.0133949 50.592415 43.1722815 50.5726533 43.2120031 50.6517001 43.2517247 50.7307469 43.1722815 50.7109852 43.1524206 50.7307469L43.2318639 50.7702703C43.2318639 50.790032 43.2517247 50.8493171 43.2120031 50.8493171 43.2603209 50.8908866 43.2949269 50.9459798 43.3113072 51.0074106 43.3907505 51.046934 43.3907505 51.1655042 43.4701938 51.2050276L43.4701938 51.244551C43.4701938 51.3235978 43.4503329 51.442168 43.4701938 51.4816914L43.5893587 51.6200232C43.5694979 51.6793083 43.5297762 51.69907 43.4900546 51.7583551 43.5265309 51.8422661 43.6210014 51.884993 43.7085236 51.8571636 43.768106 51.9559721 43.8674101 52.0350189 43.9071318 52.1535891 43.9468534 52.2721593 43.9468534 52.1535891 43.9468534 52.1733508 43.9468534 52.1931125 43.9468534 52.5092996 43.9468534 52.6871549 43.9468534 52.8650102 44.0262967 52.6871549 44.0858792 52.7069166 44.1809503 52.7767669 44.2618261 52.8639451 44.324209 52.9638187 44.2646265 53.0626271 44.1851833 53.1021505 44.1256008 53.200959 44.0660183 53.2997675 44.1851833 53.2602441 44.2050441 53.2997675 44.1980985 53.3667391 44.1847986 53.4329065 44.1653224 53.4973845 44.1454616 53.5566696 44.10574 53.6159547 44.10574 53.6752398 44.10574 53.7345248 44.1851833 53.8135716 44.2050441 53.8926184 44.2249049 53.9716652 44.1851833 54.0704737 44.2050441 54.1495205 44.2252183 54.2252661 44.2665332 54.2937806 44.324209 54.3471375 44.324209 54.3668992 44.324209 54.3668992 44.3043482 54.3668992L44.4632347 54.5645161C44.4632347 54.6040395 44.4235131 54.5842778 44.4433739 54.6238012 44.4632347 54.6633246 44.761147 54.8411799 44.7015646 55.0585586L44.6022605 55.0585586C44.5625388 55.157367 44.6419821 55.2166521 44.7214254 55.2561755L44.7214254 55.4142691C44.542678 55.3747457 44.5625388 55.552601 44.5029564 55.6118861 44.4433739 55.6711712 44.6022605 55.6118861 44.6022605 55.6316478 44.6022605 55.6514095 44.6022605 55.9478349 44.6022605 56.1454519L44.5029564 56.2442604C44.5625388 56.3233072 44.6419821 56.3825923 44.7214254 56.4616391 44.8008687 56.5406858 44.6618429 57.0742517 44.8604511 57.2916303L44.8604511 57.4299622C44.9001728 57.4892473 44.9994768 57.509009 45.0789201 57.5485324L45.1583634 57.5880558 45.1583634 57.6473409C45.1782242 57.6671026 45.198085 57.6275792 45.198085 57.6671026 45.198085 57.706626 45.1186418 57.8054345 45.1186418 57.9240046L45.0789201 57.9240046C45.1186418 58.161145 45.0193377 58.556379 45.0789201 58.7539959 45.1385026 58.9516129 45.1782242 58.8725661 45.2179459 58.8923278 45.2576675 58.9120895 45.2378067 59.1294682 45.198085 59.3073235 45.1583634 59.4851787 45.2378067 59.3270851 45.2179459 59.3666085 45.1845727 59.4550191 45.1447448 59.5408822 45.0987809 59.6235106 45.1300506 59.7002503 45.1700317 59.7731831 45.2179459 59.8408893 45.198085 59.860651 45.2179459 59.9001744 45.2179459 59.9199361L45.2179459 59.9594595C45.2179459 59.9792212 45.2378067 59.9989829 45.2378067 60.0187446L45.2378067 60.117553C45.2378067 60.117553 45.1782242 60.1768381 45.2378067 60.1965998 45.2052655 60.2948357 45.2467982 60.4022817 45.3371108 60.4535019 45.352643 60.538222 45.3592989 60.6243169 45.3569716 60.710404L45.5953014 61.0463528C45.5953014 61.1846847 45.5158582 61.2242081 45.4959973 61.3427783 45.4761365 61.4613484 45.6548839 61.4020634 45.6946055 61.4613484L45.5953014 61.4613484C45.5855506 61.5343751 45.5923364 61.6086472 45.6151623 61.6787271 45.6946055 61.7182505 45.7939096 61.7380122 45.8336313 61.817059L45.7939096 61.8763441 45.754188 61.8763441 45.754188 61.9553909C45.7265999 62.016147 45.6859168 62.0701204 45.6350231 62.1134845 45.6350231 62.2122929 45.5754406 62.2913397 45.6350231 62.4099099 45.6946055 62.5284801 45.6350231 62.5087184 45.6350231 62.5087184 45.6350231 62.5087184 45.6151623 62.5284801 45.6151623 62.5482418 45.6339473 62.5983254 45.6607772 62.6450433 45.6946055 62.6865737L45.7343272 62.6865737C45.7343272 62.7260971 45.754188 62.7260971 45.754188 62.7656205L45.7939096 62.7656205C45.8336313 62.8446672 45.9130745 62.8841906 45.972657 62.9632374L45.972657 63.1015693C45.972657 63.121331 45.9925178 63.121331 46.0123786 63.1410927 46.0113719 63.2140428 46.0180283 63.2868979 46.0322395 63.3584714 46.0322395 63.3782331 46.0322395 63.4177565 46.0719611 63.4177565 46.0483962 63.4923021 46.0632543 63.5736139 46.1116827 63.6351351 46.1315436 63.7339436 46.0918219 63.8327521 46.1116827 63.9117989 46.1315436 63.9908457 46.2109868 63.9908457 46.2308477 64.0501308L46.2308477 64.0106074 46.3698734 64.1489393 46.3698734 64.4848881C46.409595 64.5441732 46.4294558 64.5836966 46.5088991 64.62322 46.5360104 64.7046204 46.5692045 64.7838884 46.6082032 64.8603604L46.747229 64.8998838 46.6082032 65.0184539 46.6082032 65.2160709C46.6479249 65.275356 46.7273681 65.2951177 46.747229 65.3741645 46.7941192 65.3974522 46.8349174 65.4312811 46.8663939 65.472973 46.9061155 65.5124964 46.9458371 65.5322581 46.9458371 65.5915432 46.9458371 65.6508282 46.8862547 65.6113049 46.8465331 65.6113049 46.8068114 65.6113049 46.7869506 65.7693984 46.7273681 65.8089218 46.7214191 65.8950611 46.7281095 65.9816033 46.747229 66.0658239 46.8407787 66.1639924 46.9565324 66.238518 47.0848629 66.2832026 47.0997043 66.3345523 47.1064051 66.3878913 47.1047237 66.4412961L46.9855588 66.5598663C46.9855588 66.7970067 46.965698 67.0539087 47.0054196 67.2515257 47.0451412 67.4491427 47.1245845 67.3305725 47.1444453 67.4096193 47.1643062 67.4886661 47.1245845 67.5281895 47.184167 67.5479512 47.2011427 67.6944314 47.2276799 67.8396574 47.2636103 67.9827085 47.1604446 68.1103138 47.1170737 68.275739 47.1444453 68.4372276 47.2192446 68.5276134 47.3061126 68.607399 47.402636 68.6743679 47.4224968 68.7731764 47.5019401 68.8324615 47.5218009 68.93127L47.4423576 68.93127C47.4593556 68.9707578 47.4868143 69.0049098 47.5218009 69.0300785 47.5019401 69.1684103 47.5218009 69.3462656 47.5019401 69.4845975 47.5260819 69.5420122 47.5677735 69.5904096 47.621105 69.6229294 47.6409658 69.7414996 47.5416617 69.7414996 47.5218009 69.781023L47.621105 69.9588782C47.6409658 70.0972101 47.6012442 70.2750654 47.7005483 70.3541122 47.6975753 70.4309323 47.7183727 70.5068092 47.7601307 70.5714908 47.7601307 70.6307759 47.7402699 70.690061 47.7799916 70.7295844 47.8485866 70.8061322 47.9215289 70.8787104 47.9984606 70.9469631 48.0183214 71.0457716 47.9388781 71.0457716 47.9190173 71.085295 47.8991565 71.1248184 48.0183214 71.2433885 47.9984606 71.342197 47.9785998 71.4410055 47.8594348 71.4410055 47.8792957 71.539814 47.8991565 71.6386225 48.0381822 71.6188608 48.0977647 71.6583842L48.0977647 71.6979076C48.1972321 71.7690763 48.2844297 71.8558386 48.3559553 71.9548096 48.3360945 71.994333 48.276512 72.0140947 48.2566512 72.0536181 48.2693724 72.1019915 48.3073393 72.1397689 48.3559553 72.1524266 48.3360945 72.19195 48.395677 72.2117117 48.395677 72.2314734 48.395677 72.2512351 48.395677 72.2907585 48.4155378 72.3302819 48.4353986 72.3698053 48.4949811 72.389567 48.4949811 72.4686138 48.5534662 72.5542821 48.6002194 72.6473219 48.6340068 72.7452775 48.6538676 72.7848009 48.6935893 72.8045626 48.7134501 72.844086 48.7333109 72.8836094 48.6935893 73.1602732 48.7134501 73.3578901 48.7333109 73.5555071 48.8127542 73.3776518 48.8524758 73.3974135 48.8921974 73.4171752 48.8524758 74.0890729 48.8524758 74.3657367M50.9350649 87.0549896L50.9350649 101.211262 46.911748 101.211262 46.911748 99.6882427C46.911748 99.649191 46.8922174 99.6687169 46.8922174 99.6882427 46.3365253 100.233149 45.679714 100.664284 44.9586816 100.957426 44.0650577 101.249323 43.1226175 101.362123 42.1853272 101.289366 41.59917 101.264223 41.0199773 101.152361 40.4666288 100.957426 39.4828646 100.605365 38.5938499 100.030654 37.8690504 99.278199 37.1404476 98.5340643 36.5808767 97.6416336 36.2284746 96.6617292 35.8118295 95.4584349 35.6912442 94.1725061 35.8769226 92.9127577 36.0363543 91.8226147 36.4512679 90.785584 37.0878238 89.8862441 37.380298 89.4757335 37.714061 89.0962526 38.0838877 88.7537423 38.4503936 88.404275 38.8493131 88.0904478 39.2752582 87.8164994 40.2321791 87.2170511 41.3302168 86.880312 42.4587565 86.8402047 43.4548204 86.8206788 44.294639 86.9183083 45.0368043 87.2697744 45.5482946 87.5005256 46.0120107 87.8250475 46.4039508 88.2265432L46.7750334 88.6170611 46.7750334 87.0549896 50.9350649 87.0549896 50.9350649 87.0549896zM46.0523988 96.4274185C46.6828488 95.7239461 46.9939214 94.7909561 46.911748 93.8500006 46.8834613 93.378251 46.7710176 92.9153605 46.5797268 92.483188 46.3980895 92.1012789 46.1463393 91.7568629 45.8375615 91.4678415 45.1547857 90.8109434 44.2237984 90.4770066 43.2790445 90.5501245 42.7967376 90.5803462 42.3253096 90.7064722 41.8923673 90.9211165 40.6608749 91.5491504 39.9118792 92.8404704 39.9783622 94.2209925 40.0147725 95.3445311 40.6174876 96.3733056 41.5798766 96.9546176 42.2043127 97.3290335 42.9222002 97.5186178 43.6501271 97.5013427 44.5705152 97.5170254 45.4504302 97.1236636 46.0523988 96.4274185L46.0523988 96.4274185zM35.7772218 82.0845889C35.7972031 82.9889239 35.7972031 83.9718967 35.7772218 84.8958911L33.6392152 84.93521C33.4253068 84.9290382 33.2112741 84.9421997 32.9998114 84.9745289 32.6243237 85.026278 32.3129582 85.2866749 32.2005566 85.6429505 32.0934342 86.0735711 32.0530159 86.5176384 32.0806684 86.960134 33.139681 86.9797935 34.2586377 86.960134 35.357613 86.9797935L35.357613 90.1646254 32.060687 90.1646254 32.060687 101.232899 27.8845807 101.232899 27.8845807 90.1449659 22.3697227 90.1449659 22.3697227 101.232899 18.2335792 101.232899 18.2335792 99.6798021C18.2535606 99.6601427 18.2335792 99.6601427 18.2135978 99.6601427 17.3070472 100.58196 16.0949222 101.153849 14.7967836 101.272218 13.1383299 101.429494 11.6796899 101.095283 10.5807146 100.46618 8.25206068 99.1249224 6.83914818 96.6527105 6.88416121 93.9982193 6.86991198 92.6102337 7.27312247 91.2490925 8.04308065 90.0859875 8.7040884 89.0612596 9.60951216 88.2109154 10.6806214 87.6088961 11.8195595 86.9797935 13.0983672 86.6259233 14.816765 86.7831989 15.9608738 86.8686066 17.0306153 87.3738101 17.8139704 88.1986798L18.113691 88.5132311 18.113691 82.3598213 22.3897041 82.3598213 22.3897041 86.9404746C24.1880274 86.960134 26.0462947 86.9404746 27.8845807 86.960134 27.684767 83.9915561 29.0235188 82.4974375 31.5411714 82.1239078 32.8199791 81.9273132 34.3985073 82.04527 35.7772218 82.0845889L35.7772218 82.0845889zM17.3743803 96.4163324C18.0308859 95.7137545 18.3571571 94.7721111 18.2735419 93.8212842 18.2402122 92.7928186 17.7510373 91.8302307 16.9347902 91.1869171 16.2563424 90.6575327 15.4006672 90.3979501 14.5370258 90.4595172 14.0435016 90.4894199 13.5610904 90.616436 13.1183485 90.8330469 12.7418348 91.0284368 12.403564 91.2880372 12.1192801 91.5997657 11.4619466 92.2960434 11.1226393 93.2265358 11.1801557 94.1751544 11.1974138 94.6603522 11.3200503 95.1362919 11.5398203 95.5709758 11.9323997 96.3417222 12.6125094 96.933394 13.4380505 97.2223701 13.9211027 97.410865 14.4370236 97.504372 14.9566346 97.4976025 15.8809796 97.4866082 16.7581728 97.0943078 17.3743803 96.4163324L17.3743803 96.4163324z"/>
      <polygon points="4.13 102 0 102 0 87.527 4.13 87.527"/>
      <polyline points="4.13 82.703 4.13 86.149 0 86.149 0 82.703 4.13 82.703"/>
    </g>
  </g>
</svg>
