<svg xmlns="http://www.w3.org/2000/svg" width="88" height="62" viewBox="0 0 88 62">
  <g fill="#111111" fill-rule="evenodd">
    <path d="M10.2892069 40.0582324C13.6464727 40.0582324 17.48918 42.5403973 17.48918 47.2666509L17.48918 60.8002546 12.6755897 60.8002546 12.6755897 48.6275063C12.6755897 46.1842859 11.0581937 44.7029228 8.95461396 44.7029228 6.8102096 44.7029228 5.23289591 46.1842859 5.23289591 48.6275063L5.23289591 60.8002546.41930565 60.8002546.41930565 32.2898939 5.23289591 32.2898939 5.23289591 41.9003838C6.48732421 40.6989807 8.26727632 40.0582324 10.2892069 40.0582324zM26.9558086 55.3147289L26.9558086 32.2904083 22.1422183 32.2904083 22.1422183 55.6351031C22.1422183 59.438444 24.5286011 60.8000341 27.7240531 60.8000341L29.9085398 60.8000341 29.9085398 56.3559449 28.1285877 56.3559449C27.3603431 56.3559449 26.9558086 56.034836 26.9558086 55.3147289M44.5465305 53.5523771C44.5465305 56.3159716 43.4145759 56.6363458 40.2592063 56.6363458 37.7518342 56.6363458 36.7401266 55.6752233 36.7401266 54.4738202 36.7401266 53.1923236 37.7919165 52.4714818 39.9363209 52.4714818L44.5465305 52.4714818 44.5465305 53.5523771zM40.4618447 40.2583193C37.2663927 40.2583193 34.9200922 41.0592547 33.1000578 43.4620608L36.8618581 46.2653347C37.7518342 44.9434239 38.6818926 44.6237846 40.6637408 44.6237846 43.333669 44.6237846 44.5465305 45.1432904 44.5465305 46.7855753L44.5465305 48.5468984 39.1673341 48.5468984C34.5155576 48.5468984 32.1692571 51.3501722 32.1692571 54.6736867 32.1692571 58.2374818 34.9200922 61.0407556 39.7336825 61.0407556 42.2417968 61.0407556 43.697379 60.520515 44.5465305 59.5990719L44.5465305 60.800475 49.3601207 60.800475 49.3601207 47.0258559C49.3601207 41.9402836 45.7601342 40.2583193 40.4618447 40.2583193L40.4618447 40.2583193z"/>
    <polygon points="65.263 40.498 60.651 53.673 56.04 40.498 50.943 40.498 58.709 60.8 62.593 60.8 70.359 40.498"/>
    <path d="M82.7362269,53.5523771 C82.7362269,56.3159716 81.6035301,56.6363458 78.4481605,56.6363458 C75.9407884,56.6363458 74.9290808,55.6752233 74.9290808,54.4738202 C74.9290808,53.1923236 75.9808707,52.4714818 78.1252751,52.4714818 L82.7362269,52.4714818 L82.7362269,53.5523771 Z M78.6507989,40.2583193 C75.4546047,40.2583193 73.1090464,41.0592547 71.289012,43.4620608 L75.0508123,46.2653347 C75.9407884,44.9434239 76.8708468,44.6237846 78.8534373,44.6237846 C81.5226232,44.6237846 82.7362269,45.1432904 82.7362269,46.7855753 L82.7362269,48.5468984 L77.3562883,48.5468984 C72.7045118,48.5468984 70.3582113,51.3501722 70.3582113,54.6736867 C70.3582113,58.2374818 73.1090464,61.0407556 77.9226367,61.0407556 C80.430751,61.0407556 81.8863332,60.520515 82.7362269,59.5990719 L82.7362269,60.800475 L87.5498172,60.800475 L87.5498172,47.0258559 C87.5498172,41.9402836 83.9490884,40.2583193 78.6507989,40.2583193 L78.6507989,40.2583193 Z"/>
    <polygon points="22.413 4.66 27.227 4.66 27.227 .016 22.413 .016"/>
    <polygon points="22.413 28.526 27.227 28.526 27.227 8.024 22.413 8.024"/>
    <path d="M17.5589529 0L6.17854186 0 6.17854186 4.62191156 12.5397552 4.62191156 12.5397552 19.0754887C12.5397552 22.5996044 9.90990936 23.8811011 7.88797877 23.8811011 6.26984049 23.8811011 5.05623678 23.0801657 4.1261784 21.7994038L-.0000742265268 24.6820364C1.94169171 27.2046155 4.57079529 28.7660721 8.00896801 28.7660721 12.8233005 28.7660721 17.5960662 25.2831054 17.5960662 19.5163706L17.5960662.0154308653 17.5589529.0154308653 17.5589529 0zM75.7662076 30.5269543C75.8701248 31.6416506 72.68358 29.654743 69.9735695 27.7795255L74.0552862 27.6920839C74.9326437 28.6825985 75.6934656 29.7458586 75.7662076 30.5269543L75.7662076 30.5269543zM48.328372 28.2446558L66.7974164 27.8478622C70.2534035 30.3697064 76.0987425 34.1745169 77.4311086 33.2736483 78.5645477 32.5079835 76.9850072 29.7429194 75.5472394 27.6597526L75.5531775 27.6597526 56.9876386.742445062 56.8065259.479385549C56.5504444.234696113 56.1555592.203099579 55.8504882.409579253 55.7198495.497755626 55.6255818.618998139 55.5706542.754201912L55.5699119.755671518 45.7356394 24.5258173 38.691542 30.595291 40.0847739 32.6152647 48.328372 28.2446558z"/>
  </g>
</svg>
