<svg xmlns="http://www.w3.org/2000/svg" width="102" height="58" viewBox="0 0 102 58">
  <g fill="none" fill-rule="evenodd" transform="translate(-13 -35)">
    <rect width="128" height="128"/>
    <path fill="#111111" fill-rule="nonzero" d="M73.7485006,89.6632662 L72.9040384,92.24584 L74.5833667,92.24584 L73.7485006,89.6632662 Z M37.059976,35 L37.0287885,35 L37.0287885,35 L37.059976,35 L37.059976,35 Z M44.7656937,37.1557823 C44.7656937,37.1557823 44.7656937,37.167907 44.7656937,37.1751819 C44.7656937,37.1824567 44.7656937,37.1751819 44.7656937,37.1921565 L44.7656937,37.1557823 Z M43.6669332,36.2367255 C43.0311875,36.2367255 42.5681727,36.6416924 42.5681727,37.1363826 L42.5681727,37.2091312 C42.5681727,37.6504724 42.9760096,38.0627143 43.6669332,38.0627143 C44.3578569,38.0627143 44.7512995,37.6165231 44.7632947,37.1727569 C44.7064274,36.6131144 44.2223993,36.1987992 43.6669332,36.2343005 L43.6669332,36.2367255 Z M61.1031587,35 L58.6393443,35 L58.6393443,35.7784096 L60.0547781,35.7784096 C60.6761295,35.7784096 61.0383846,35.4655908 61.1007597,35 L61.1031587,35 Z M67.0743703,35 L66.5153938,35 L65.9516194,36.3919224 L67.6309476,36.3919224 L67.0743703,35 Z M82.5721711,35 L79.1007597,35 C78.9854161,35.2686295 78.9258111,35.5583188 78.9256297,35.8511581 L78.9256297,35.8705577 C78.9040545,36.3987876 79.0966935,36.9130369 79.4589843,37.2943467 C79.8212751,37.6756564 80.3218315,37.8909927 80.8448621,37.8905427 C81.3640535,37.8929866 81.8616195,37.6805669 82.2218869,37.3026665 C82.5821542,36.9247662 82.773738,36.4143062 82.7520992,35.8899574 L82.7520992,35.8705577 C82.7534198,35.5708045 82.6921063,35.2741476 82.5721711,35 L82.5721711,35 Z M87.4254298,37.0078602 L88.089964,35 L86.8280688,35 L87.4254298,37.0078602 Z M91.47501,37.0078602 L92.0819672,35 L90.820072,35 L91.47501,37.0078602 Z M43.6669332,69.6161886 C43.0311875,69.6161886 42.5681727,69.9096078 42.5681727,70.406723 L42.5681727,70.4261226 C42.5681727,70.8674638 42.9760096,71.2239318 43.6669332,71.2239318 C44.3578569,71.2239318 44.7656937,70.8747387 44.7656937,70.4261226 L44.7656937,70.404298 C44.7656937,69.9193076 44.3026789,69.6137637 43.6669332,69.6137637 L43.6669332,69.6161886 Z M43.6669332,66.9463166 C43.0959616,66.9463166 42.760096,67.2955097 42.760096,67.6907768 L42.760096,67.7101764 C42.760096,68.1587925 43.1151539,68.5007108 43.6669332,68.5007108 C44.2187125,68.5007108 44.5761695,68.1709173 44.5761695,67.7198762 L44.5761695,67.7004766 C44.5761695,67.3052095 44.2403039,66.9487415 43.6669332,66.9487415 L43.6669332,66.9463166 Z M76.7544982,67.5258801 L75.910036,69.6089138 L77.5893643,69.6089138 L76.7544982,67.5258801 Z M69.8572571,67.1475876 L68.4682127,67.1475876 L68.4682127,68.992976 L69.8836465,68.992976 C70.564974,68.992976 70.9560176,68.6268083 70.9560176,68.083619 L70.9560176,68.0642194 C70.9560176,67.4579814 70.5385846,67.1475876 69.8572571,67.1475876 L69.8572571,67.1475876 Z M65.0063974,58.0370432 L65.0063974,58.0127937 C65.0279726,57.4845639 64.8353337,56.9703145 64.4730429,56.5890048 C64.1107521,56.207695 63.6101956,55.9923588 63.0871651,55.9928088 C62.5679737,55.9903649 62.0704076,56.2027846 61.7101403,56.5806849 C61.349873,56.9585853 61.1582892,57.4690453 61.179928,57.9933941 L61.179928,58.0127937 C61.1583528,58.5410236 61.3509918,59.0552729 61.7132826,59.4365826 C62.0755734,59.8178924 62.5761298,60.0332287 63.0991603,60.0327787 C63.6174843,60.0351649 64.1142734,59.8234054 64.474391,59.4465779 C64.8345086,59.0697503 65.026691,58.5605692 65.0063974,58.0370432 L65.0063974,58.0370432 Z M75.9220312,47.4715277 L77.6013595,47.4715277 L76.7568972,45.388494 L75.9220312,47.4715277 Z M92.8880448,69.1020988 L92.8880448,69.0851242 C92.90962,68.5568943 92.716981,68.042645 92.3546902,67.6613353 C91.9923994,67.2800255 91.491843,67.0646892 90.9688125,67.0651392 C90.449621,67.0626953 89.952055,67.275115 89.5917877,67.6530154 C89.2315203,68.0309157 89.0399365,68.5413757 89.0615754,69.0657246 L89.0615754,69.0851242 C89.0400002,69.613354 89.2326391,70.1276033 89.5949299,70.5089131 C89.9572208,70.8902228 90.4577772,71.1055591 90.9808077,71.1051091 C91.4999991,71.107553 91.9975652,70.8951333 92.3578325,70.517233 C92.7180998,70.1393326 92.9096836,69.6288726 92.8880448,69.1045238 L92.8880448,69.1020988 Z M104.70092,65.8744878 L102.541783,72.3442596 L101.32547,72.3442596 L99.8860456,68.1393929 L98.4466214,72.3442596 L97.2303079,72.3442596 L95.0711715,65.8744878 L96.5681727,65.8744878 L97.8852459,70.2248516 L99.3102759,65.8599381 L100.509796,65.8599381 L101.934826,70.2248516 L103.251899,65.8744878 L104.70092,65.8744878 Z M94.3490604,69.0875491 C94.3481247,69.9844388 93.9884669,70.8428421 93.3518524,71.4676078 C92.715238,72.0923735 91.8557594,72.4304158 90.9688125,72.4048834 C89.0087965,72.4048834 87.6101559,70.9280876 87.6101559,69.0996739 L87.6101559,69.0826992 C87.6097379,68.1836677 87.9698097,67.322848 88.6081503,66.6968054 C89.246491,66.0707627 90.1085939,65.7329534 90.997601,65.7605151 C92.957617,65.7605151 94.3562575,67.2373108 94.3562575,69.0657246 L94.3490604,69.0875491 Z M84.5129948,68.6025587 L87.2191124,72.3006104 L85.5397841,72.3006104 L83.5701719,69.5652647 L82.8336665,70.3363994 L82.8336665,72.3006104 L81.435026,72.3006104 L81.435026,65.8696379 L82.8336665,65.8696379 L82.8336665,68.6777323 L85.4126349,65.8696379 L87.0919632,65.8696379 L84.5129948,68.6025587 Z M86.0555778,50.1583744 L81.497401,50.1583744 L81.497401,43.7298269 L82.8960416,43.7298269 L82.8960416,48.870725 L86.0651739,48.870725 L86.0555778,50.1583744 Z M82.3034786,54.7997324 L83.8916433,54.7997324 L81.4494202,58.6626808 L81.4494202,61.2234301 L80.0507797,61.2234301 L80.0507797,58.6917802 L77.6085566,54.8118572 L79.2423031,54.8118572 L80.7584966,57.392006 L82.3034786,54.7997324 Z M80.1443423,50.1535245 L78.6833267,50.1535245 L78.1027589,48.7131031 L75.4158337,48.7131031 L74.8352659,50.1535245 L73.4102359,50.1535245 L76.1355458,43.6837528 L77.4262295,43.6837528 L80.1443423,50.1535245 Z M73.3766493,43.7298269 L71.217513,50.1995986 L70.0011995,50.1995986 L68.5617753,45.997157 L67.1223511,50.1995986 L65.9060376,50.1995986 L63.7469012,43.7298269 L65.2439024,43.7298269 L66.5609756,48.0801907 L67.9860056,43.7152772 L69.1855258,43.7152772 L70.6105558,48.0801907 L71.9156337,43.7298269 L73.3766493,43.7298269 Z M66.467413,57.995819 L66.467413,58.0152187 C66.4678311,58.9142502 66.1077593,59.7750698 65.4694186,60.4011125 C64.831078,61.0271552 63.9689751,61.3649644 63.079968,61.3374028 C61.119952,61.3374028 59.7213115,59.8606071 59.7213115,58.0321933 L59.7213115,58.0127937 C59.7208934,57.1137622 60.0809652,56.2529425 60.7193059,55.6268999 C61.3576465,55.0008572 62.2197494,54.6630479 63.1087565,54.6906096 C65.0711715,54.6906096 66.467413,56.1674053 66.467413,57.995819 L66.467413,57.995819 Z M62.2714914,50.1535245 L60.8728509,50.1535245 L60.8728509,43.7298269 L62.2714914,43.7298269 L62.2714914,50.1535245 Z M60.1123551,65.8720629 L61.5109956,65.8720629 L61.5109956,68.6801572 L64.0995602,65.8696379 L65.7788884,65.8696379 L63.1903239,68.5952839 L65.8964414,72.2933356 L64.2171132,72.2933356 L62.247501,69.5579898 L61.5109956,70.3291245 L61.5109956,72.2933356 L60.1123551,72.2933356 L60.1123551,65.8720629 Z M67.0695722,65.8720629 L69.9748101,65.8720629 C70.7832867,65.8720629 71.4142343,66.1024333 71.8268693,66.5243749 C72.1973783,66.9197151 72.3938194,67.4497993 72.3714514,67.9938958 L72.3714514,68.0132954 C72.4127512,68.9114204 71.8548226,69.7265733 71.0087965,70.004181 L72.5609756,72.2981855 L70.9272291,72.2981855 L69.5645742,70.2418262 L68.4658137,70.2418262 L68.4658137,72.2981855 L67.0671731,72.2981855 L67.0695722,65.8720629 Z M72.1339464,57.0670625 L70.6945222,61.2719291 L69.4782087,61.2719291 L67.3190724,54.8021574 L68.8160736,54.8021574 L70.1331467,59.1525211 L71.5581767,54.7876077 L72.7576969,54.7876077 L74.1827269,59.1525211 L75.4998001,54.8021574 L76.9608157,54.8021574 L74.8016793,61.2719291 L73.5853659,61.2719291 L72.1339464,57.0670625 Z M73.4054378,72.2957605 L76.1307477,65.8259888 L77.4190324,65.8259888 L80.1443423,72.2957605 L78.6833267,72.2957605 L78.1027589,70.8553391 L75.4158337,70.8553391 L74.8352659,72.2957605 L73.4054378,72.2957605 Z M59.3758497,45.0320261 L57.4422231,45.0320261 L57.4422231,50.1535245 L56.0435826,50.1535245 L56.0435826,45.0320261 L54.109956,45.0320261 L54.109956,43.7298269 L59.3878449,43.7298269 L59.3758497,45.0320261 Z M53.1647341,54.7997324 L54.8440624,57.5156786 L56.5233906,54.7997324 L58.029988,54.7997324 L58.029988,61.2234301 L56.6409436,61.2234301 L56.6409436,57.0306882 L54.8512595,59.7757338 L54.8152739,59.7757338 L53.0279888,57.0670625 L53.0279888,61.2331299 L51.6557377,61.2331299 L51.6557377,54.7997324 L53.1647341,54.7997324 Z M53.1191523,48.2523622 C53.1191523,49.5278869 52.1595362,50.2432478 50.784886,50.2432478 C49.7916411,50.2468061 48.831824,49.8808292 48.0883647,49.2150681 L48.9136345,48.213563 C49.4319795,48.6971916 50.1061356,48.974591 50.8112755,48.9943975 C51.3822471,48.9943975 51.7277089,48.7640271 51.7277089,48.3881595 L51.7277089,48.3687599 C51.7277089,48.009867 51.5093962,47.8279957 50.4466214,47.5515511 C49.1655338,47.2217577 48.3402639,46.8628648 48.3402639,45.5873401 L48.3402639,45.5727904 C48.3402639,44.4063885 49.2662935,43.6328288 50.5641743,43.6328288 C51.4237253,43.619963 52.2606113,43.9116613 52.9296281,44.4573125 L52.209916,45.5218664 C51.7348768,45.1468926 51.1585744,44.9262256 50.5569772,44.8889539 C50.0219912,44.8889539 49.7389044,45.1314491 49.7389044,45.4491178 L49.7389044,45.4685174 C49.7389044,45.8904591 50.009996,46.0286813 51.1087565,46.3124007 C52.3970412,46.651894 53.1239504,47.1199097 53.1239504,48.2402375 L53.1191523,48.2523622 Z M48.5609756,39.0811941 L47.0903639,39.0811941 L47.0903639,37.6140982 L48.5609756,37.6140982 L48.5609756,39.0811941 Z M46.980008,59.9357806 L50.1491403,59.9357806 L50.1491403,61.2210051 L45.5909636,61.2210051 L45.5909636,54.7997324 L46.9896042,54.7997324 L46.980008,59.9357806 Z M46.8264694,50.1535245 L41.987605,50.1535245 L41.987605,43.7298269 L46.7856857,43.7298269 L46.7856857,44.985952 L43.3766493,44.985952 L43.3766493,46.2905761 L46.3730508,46.2905761 L46.3730508,47.5467012 L43.3766493,47.5467012 L43.3766493,48.8949745 L46.8264694,48.8949745 L46.8264694,50.1535245 Z M42.1411435,54.7997324 L43.5397841,54.7997324 L43.5397841,61.2234301 L42.1411435,61.2234301 L42.1411435,54.7997324 Z M43.6669332,65.7799147 C45.0103958,65.7799147 45.9004398,66.5510494 45.9004398,67.5428548 L45.9004398,67.5622544 C45.9198651,68.1483215 45.6057052,68.6939097 45.0919632,68.9663015 C45.7373051,69.3057948 46.1187525,69.7180366 46.1187525,70.4794715 L46.1187525,70.4988711 C46.1187525,71.6919475 45.0751699,72.3903336 43.6669332,72.3903336 C42.2586965,72.3903336 41.215114,71.6628481 41.215114,70.5352454 L41.215114,70.5158458 C41.215114,69.7350113 41.5701719,69.2766954 42.2419032,68.9638766 C41.7281613,68.6914847 41.4140014,68.1458966 41.4334266,67.5598294 L41.4334266,67.5404298 C41.4334266,66.5583243 42.3234706,65.7774898 43.6669332,65.7774898 L43.6669332,65.7799147 Z M42.1411435,76.9322686 L43.5397841,76.9322686 L43.5397841,83.3559662 L42.1411435,83.3559662 L42.1411435,76.9322686 Z M45.5837665,76.9322686 L46.982407,76.9322686 L46.982407,82.0731667 L50.1515394,82.0731667 L50.1515394,83.3583912 L45.5933627,83.3583912 L45.5837665,76.9322686 Z M49.1151539,68.5589096 L49.1151539,70.6613429 C49.1151539,70.9814366 49.2518992,71.1463333 49.5589764,71.1463333 C49.7970605,71.1474928 50.0315228,71.0874097 50.2403039,70.9717368 L50.2403039,72.1017644 C49.9108412,72.297919 49.533358,72.3962507 49.1511395,72.3854837 C48.3066773,72.3854837 47.7357057,72.0459905 47.7357057,70.908688 L47.7357057,68.5783092 L47.1551379,68.5783092 L47.1551379,67.3852329 L47.7357057,67.3852329 L47.7357057,66.1291078 L49.1151539,66.1291078 L49.1151539,67.3852329 L50.2594962,67.3852329 L50.2594962,68.5783092 L49.1151539,68.5589096 Z M51.2742903,65.5859186 L52.6537385,65.5859186 L52.6537385,68.0642194 C52.9681349,67.5764771 53.5028831,67.2798259 54.0787685,67.2736851 C55.1223511,67.2736851 55.7317073,67.9720712 55.7317073,69.0996739 L55.7317073,72.2957605 L54.3522591,72.2957605 L54.3522591,69.5507149 C54.3522591,68.8887031 54.0427829,68.5516348 53.517393,68.5516348 C52.9920032,68.5516348 52.6537385,68.891128 52.6537385,69.5531399 L52.6537385,72.2957605 L51.2742903,72.2957605 L51.2742903,65.5859186 Z M51.5141943,76.9322686 L53.0207917,76.9322686 L54.70012,79.6482147 L56.3794482,76.9322686 L57.8860456,76.9322686 L57.8860456,83.3559662 L56.4970012,83.3559662 L56.4970012,79.1607994 L54.7073171,81.905845 L54.6713315,81.905845 L52.9008397,79.1898988 L52.9008397,83.3559662 L51.5309876,83.3559662 L51.5141943,76.9322686 Z M40.5001999,78.2174931 L37.0671731,78.2174931 L37.0671731,79.585166 L40.1091563,79.585166 L40.1091563,80.8703905 L37.0671731,80.8703905 L37.0671731,83.3583912 L35.6685326,83.3583912 L35.6685326,76.9516682 L40.507397,76.9516682 L40.5001999,78.2174931 Z M40.5001999,56.0752571 L37.0671731,56.0752571 L37.0671731,57.44293 L40.1091563,57.44293 L40.1091563,58.7281545 L37.0671731,58.7281545 L37.0671731,61.2161552 L35.6685326,61.2161552 L35.6685326,54.7997324 L40.507397,54.7997324 L40.5001999,56.0752571 Z M40.5001999,45.0053516 L37.0671731,45.0053516 L37.0671731,46.3730245 L40.1091563,46.3730245 L40.1091563,47.658249 L37.0671731,47.658249 L37.0671731,50.1535245 L35.6685326,50.1535245 L35.6685326,43.7298269 L40.507397,43.7298269 L40.5001999,45.0053516 Z M37.0311875,68.2218413 C37.3033184,68.1474961 37.5841648,68.1107875 37.8660536,68.1127185 C39.1015594,68.1127185 40.089964,68.7189564 40.089964,70.1690777 L40.089964,70.1884773 C40.089964,71.5464504 39.1303479,72.4097333 37.6741303,72.4097333 C36.7831811,72.4279627 35.9235188,72.0775807 35.2942823,71.4397525 L36.1387445,70.4212727 C36.6185526,70.8626139 37.0983607,71.1196588 37.654938,71.1196588 C38.309876,71.1196588 38.7177129,70.7995652 38.7177129,70.2297015 L38.7177129,70.2103019 C38.7177129,69.6598378 38.2546981,69.3397441 37.592563,69.3397441 C37.2257842,69.347578 36.8643295,69.4300517 36.5297881,69.5822393 L35.7213115,69.041475 L35.9036385,65.8744878 L39.8068772,65.8744878 L39.8068772,67.1136383 L37.1031587,67.1136383 L37.0311875,68.2218413 Z M115,92.997575 L115,35 L109.551779,35 L109.551779,39.083619 L108.153139,39.083619 L108.153139,35 L104.403439,35 L107.056777,39.0811941 L105.377449,39.0811941 L103.415034,35.9045071 L102.678529,36.6756418 L102.678529,39.083619 L101.284686,39.083619 L101.284686,35 L97.0695722,35 C97.2686925,35.0727486 97.5229908,35.1479221 97.8660536,35.2424952 C99.1567373,35.5819885 99.8812475,36.0500042 99.8812475,37.170332 C99.8812475,38.4579814 98.9216313,39.1733423 97.5469812,39.1733423 C96.5546792,39.1789069 95.5949768,38.8155629 94.8504598,38.1524375 L95.6757297,37.1533573 C96.1939559,37.6371747 96.8681852,37.9146042 97.5733707,37.9341918 C98.1467413,37.9341918 98.4898041,37.7038214 98.4898041,37.3279538 C98.4898041,36.9423865 98.2714914,36.7605151 97.2087165,36.4840706 C96.109956,36.212476 95.3494602,35.8923823 95.157537,35 L93.4782087,35 L92.0939624,39.1224183 L90.8776489,39.1224183 L89.457417,35 L87.9988005,39.1224183 L86.782487,39.1224183 L85.3958417,35 L84.1003599,35 C84.1763056,35.2773424 84.2166208,35.5634119 84.2203119,35.8511581 C84.2207299,36.7695893 83.8606581,37.6304089 83.2223175,38.2564516 C82.5839768,38.8824943 81.7218739,39.2203035 80.8328669,39.1927419 C78.8728509,39.1927419 77.4742103,37.7159461 77.4742103,35.8875324 C77.4745066,35.5765126 77.5132261,35.2837952 77.5893643,35 L74.5641743,35 L77.217513,39.0811941 L75.5381847,39.0811941 L73.5685726,35.9045071 L72.8320672,36.6756418 L72.8320672,39.083619 L71.4334266,39.083619 L71.4334266,35 L68.4634146,35 L70.1811275,39.083619 L68.720112,39.083619 L68.1395442,37.6431976 L65.452619,37.6431976 L64.8720512,39.083619 L63.4470212,39.083619 L65.1623351,35 L62.5233906,35 C62.4854444,35.8211925 61.9485419,36.5328846 61.1751299,36.7871896 L62.7273091,39.0811941 L61.1007597,39.0811941 L59.7381048,37.0248349 L58.6393443,37.0248349 L58.6393443,39.0811941 L57.2407037,39.0811941 L57.2407037,35 L53.5629748,35 L56.2163135,39.0811941 L54.5369852,39.0811941 L52.564974,35.9045071 L51.8284686,36.6756418 L51.8284686,39.083619 L50.42503,39.083619 L50.42503,35 L45.6989204,35 C45.5454153,35.2424948 45.3353455,35.4431757 45.0871651,35.5844134 C45.7267508,35.8915516 46.1286485,36.5493162 46.1139544,37.2649051 C46.1139544,38.4773811 45.0703719,39.1757672 43.6621351,39.1757672 C42.2538984,39.1757672 41.2103159,38.4482816 41.2103159,37.320679 C41.1711951,36.5701305 41.578443,35.8891826 42.2371052,35.5844134 C41.9906758,35.4425396 41.7823055,35.2419086 41.6301479,35 L38.6697321,35 C39.5045982,35.2230956 40.0947621,35.8366084 40.0947621,36.9520863 C40.0947621,38.327034 39.1351459,39.1903169 37.6789284,39.1903169 C36.7879792,39.2085464 35.9283169,38.8581644 35.2990804,38.2203361 L36.1435426,37.2018563 C36.6233507,37.6431976 37.1031587,37.9002425 37.6597361,37.9002425 C38.3146741,37.9002425 38.722511,37.5777239 38.722511,37.0102851 C38.722511,36.4476963 38.2594962,36.1251777 37.5973611,36.1251777 C37.2305903,36.1330777 36.8691485,36.2155485 36.5345862,36.3676729 L35.7213115,35.8244837 L35.7692923,35 L13,35 L13,92.997575 L35.6685326,92.997575 L35.6685326,88.0118739 L40.507397,88.0118739 L40.507397,89.2970984 L37.0671731,89.2970984 L37.0671731,90.6647713 L40.1091563,90.6647713 L40.1091563,91.9499958 L37.0671731,91.9499958 L37.0671731,92.997575 L42.0787685,92.997575 L42.0787685,88.0118739 L46.8768493,88.0118739 L46.8768493,89.2704239 L43.4678129,89.2704239 L43.4678129,90.5726231 L46.4642143,90.5726231 L46.4642143,91.8311732 L43.4678129,91.8311732 L43.4678129,92.997575 L51.6941224,92.997575 C51.7744259,92.9096113 51.8197131,92.7947387 51.8212715,92.6750564 C51.8212715,92.2967639 51.6029588,92.1148925 50.5401839,91.838448 C49.2590964,91.5086546 48.4338265,91.1497617 48.4338265,89.874237 C48.4338265,88.6884355 49.3598561,87.9148758 50.6577369,87.9148758 C51.514794,87.9008847 52.3497673,88.1899347 53.0183926,88.7320846 L52.2986805,89.7966385 C51.8235667,89.4217987 51.247307,89.2011481 50.6457417,89.1637261 C50.1107557,89.1637261 49.8276689,89.4062213 49.8276689,89.72389 C49.8276689,90.1652312 50.1011595,90.3034535 51.197521,90.5871728 C52.4882047,90.9266661 53.2127149,91.3946818 53.2127149,92.5150096 C53.2134072,92.6891736 53.1981307,92.843589 53.1671331,92.9951501 L56.2283087,92.9951501 L56.2283087,89.318923 L54.2946821,89.318923 L54.2946821,88.0167238 L59.572571,88.0167238 L59.572571,89.318923 L57.6221511,89.318923 L57.6221511,93 L61.1439424,93 L61.1439424,88.0118739 L62.542583,88.0118739 L62.542583,92.9951501 L66.0187925,92.9951501 L64.0395842,88.009449 L65.5821671,88.009449 L67.2447021,92.5344092 L68.9072371,88.009449 L70.4138345,88.009449 L68.4346261,92.9951501 L71.0015994,92.9951501 L73.119952,87.9657998 L74.4154338,87.9657998 L76.5337865,92.9951501 L78.5753699,92.9951501 L78.5753699,88.0118739 L79.9740104,88.0118739 L79.9740104,92.997575 L115,92.997575 Z"/>
  </g>
</svg>
