<svg xmlns="http://www.w3.org/2000/svg" width="59" height="40" viewBox="0 0 59 40">
  <g fill="none" fill-rule="evenodd" transform="translate(-3 -13)">
    <rect width="64" height="64"/>
    <g fill="#FFFFFF" transform="translate(3 13)">
      <path d="M5.68595983 37.8406365L2.71871491 37.8406365 2.71871491 30.6014633 1.01432599 30.6014633 1.01432599 39.4383051 5.43324504 39.4383051 5.68595983 37.8406365zM11.8724465 37.8406365L8.52612941 37.8406365 8.52612941 35.7512163 11.3670169 35.7512163 11.3670169 34.1535477 8.52612941 34.1535477 8.52612941 32.1998313 11.7460891 32.1998313 11.4933743 30.6014633 6.82245842 30.6014633 6.82245842 39.4383051 11.6197317 39.4383051 11.8724465 37.8406365zM13.5115029 39.4383051L15.2158918 39.4383051 15.2158918 30.6014633 13.5115029 30.6014633 13.5115029 39.4383051zM22.9165134 33.2994526C22.9165134 31.7073801 21.5531459 30.6014633 20.0124472 30.6014633L17.2347384 30.6014633 17.2347384 39.4383051 18.9391273 39.4383051 18.9391273 35.9967424 20.0124472 35.9967424C21.5273 35.9967424 22.9165134 34.8908256 22.9165134 33.2994526L22.9165134 33.2994526zM21.1489458 33.2994526C21.1489458 34.1556462 20.5178768 34.6452995 19.7604503 34.6452995L18.9391273 34.6452995 18.9391273 31.9536057 19.7604503 31.9536057C20.5178768 31.9536057 21.1489458 32.4425594 21.1489458 33.2994526L21.1489458 33.2994526zM30.4886238 30.6014633L24.4284945 30.6014633 24.0501402 32.0767185 27.7109149 32.0767185 23.6710681 39.4383051 29.9839121 39.4383051 30.3629843 37.9637494 26.4487769 37.9637494 30.4886238 30.6014633zM31.8756833 39.4383051L33.5800723 39.4383051 33.5800723 30.6014633 31.8756833 30.6014633 31.8756833 39.4383051zM43.9952239 37.5580367L43.9952239 34.3382169 40.9016216 34.3382169 40.6496248 35.7512163 42.290835 35.7512163 42.290835 37.1152503C41.6468431 37.8161539 40.6998806 38.0868622 39.765123 38.0868622 38.0607341 38.0868622 36.9249535 36.6731633 36.9249535 35.0139384 36.9249535 33.3547135 38.0607341 31.9410146 39.765123 31.9410146 41.1292085 31.9410146 41.9246858 32.3593184 42.4925761 33.13367L43.6290747 32.0270537C42.9599549 31.1183972 41.8105333 30.3433461 39.765123 30.3433461 37.2652569 30.3433461 35.2205645 32.3593184 35.2205645 35.0139384 35.2205645 37.6685584 37.2652569 39.6845307 39.765123 39.6845307 42.0381202 39.6845307 43.0604664 38.7744752 43.9952239 37.5580367L43.9952239 37.5580367zM37.6108013 13.2131077C37.6108013 9.19025665 34.8553486 6.50835597 31.4121096 6.50835597 27.9674348 6.50835597 25.2119821 9.19025665 25.2119821 13.2131077 25.2119821 17.2359587 27.9674348 19.9178594 31.4121096 19.9178594 34.8553486 19.9178594 37.6108013 17.2359587 37.6108013 13.2131077L37.6108013 13.2131077zM43.7692883 17.5241546C42.034028 22.440273 37.3595224 25.9531852 31.4121096 25.9531852 26.5638626 25.9531852 22.5620666 23.6196378 20.3077358 20.0948341 17.9177144 23.3790082 13.9898662 25.2823603 10.4798588 25.2823603L.837210258 25.2823603.837210258 1.17743131 10.4798588 1.17743131C14.0350964 1.17743131 18.0189439 2.84854783 20.3996321 6.19008137 22.6697575 2.74362214 26.6291951.473030166 31.4121096.473030166 37.0263983.473030166 41.5063423 3.60331331 43.4498051 8.08923639L49.8875707 1.17743131 57.8085998 1.17743131 48.7158931 12.2254072 58.497104 25.2823603 50.5767929 25.2823603 43.7692883 17.5241546zM15.8802015 13.2249993C15.8802015 7.68282421 10.9292891 6.5741094 6.7465722 6.5741094L6.7465722 19.8751896C10.9292891 19.8751896 15.8802015 18.7657753 15.8802015 13.2249993L15.8802015 13.2249993z"/>
    </g>
  </g>
</svg>
