<svg xmlns="http://www.w3.org/2000/svg" width="88" height="62" viewBox="0 0 88 62">
  <g fill="none" fill-rule="evenodd" transform="translate(-21 -34)">
    <rect width="128" height="128"/>
    <g fill="#111111" transform="translate(21 34)">
      <path d="M7.53409595 58.6529866L3.05568756 58.6529866 3.05568756 47.4322681.483284585 47.4322681.483284585 61.1293729 7.15267815 61.1293729 7.53409595 58.6529866zM16.8712469 58.6529866L11.8207119 58.6529866 11.8207119 55.4143852 16.1084113 55.4143852 16.1084113 52.937999 11.8207119 52.937999 11.8207119 49.9097386 16.680538 49.9097386 16.2991202 47.4322681 9.24939246 47.4322681 9.24939246 61.1293729 16.4898291 61.1293729 16.8712469 58.6529866zM19.3450447 61.1293729L21.9174477 61.1293729 21.9174477 47.4322681 19.3450447 47.4322681 19.3450447 61.1293729zM33.5398548 51.6141515C33.5398548 49.1464391 31.4821491 47.4322681 29.1568008 47.4322681L24.9644558 47.4322681 24.9644558 61.1293729 27.5368588 61.1293729 27.5368588 55.7949507 29.1568008 55.7949507C31.4431405 55.7949507 33.5398548 54.0807797 33.5398548 51.6141515L33.5398548 51.6141515zM30.8720974 51.6141515C30.8720974 52.9412517 29.9196364 53.7002142 28.7764666 53.7002142L27.5368588 53.7002142 27.5368588 49.5280889 28.7764666 49.5280889C29.9196364 49.5280889 30.8720974 50.2859671 30.8720974 51.6141515L30.8720974 51.6141515zM44.9683022 47.4322681L35.8218601 47.4322681 35.250817 49.7189137 40.7759572 49.7189137 34.6786903 61.1293729 44.2065502 61.1293729 44.7786769 58.8438115 38.8710353 58.8438115 44.9683022 47.4322681zM47.0617658 61.1293729L49.6341688 61.1293729 49.6341688 47.4322681 47.0617658 47.4322681 47.0617658 61.1293729zM65.3535664 58.2149568L65.3535664 53.2242363 60.6844491 53.2242363 60.3041149 55.4143852 62.7811634 55.4143852 62.7811634 57.5286379C61.8091982 58.6150385 60.379965 59.0346364 58.9691526 59.0346364 56.3967496 59.0346364 54.6825367 56.8434032 54.6825367 54.2716045 54.6825367 51.6998059 56.3967496 49.5085727 58.9691526 49.5085727 61.0279419 49.5085727 62.2285411 50.1569435 63.0856475 51.3571885L64.800944 49.6419332C63.7910537 48.2335157 62.0562529 47.0321865 58.9691526 47.0321865 55.1961504 47.0321865 52.1101337 50.1569435 52.1101337 54.2716045 52.1101337 58.3862655 55.1961504 61.5110226 58.9691526 61.5110226 62.3997456 61.5110226 63.942754 60.1004366 65.3535664 58.2149568L65.3535664 58.2149568zM55.7176743 20.4803169C55.7176743 14.2448978 51.55892 10.0879517 46.3621025 10.0879517 41.1631179 10.0879517 37.0043636 14.2448978 37.0043636 20.4803169 37.0043636 26.715736 41.1631179 30.8726821 46.3621025 30.8726821 51.55892 30.8726821 55.7176743 26.715736 55.7176743 20.4803169L55.7176743 20.4803169zM65.0125659 27.1624396C62.3935693 34.7824232 55.3384236 40.2274371 46.3621025 40.2274371 39.0447321 40.2274371 33.0048946 36.6104386 29.6024745 31.1469928 25.9952591 36.2374627 20.0670296 39.1876584 14.7694398 39.1876584L.215967056 39.1876584.215967056 1.82501853 14.7694398 1.82501853C20.1352947 1.82501853 26.1480429 4.41524914 29.7411719 9.59462612 33.1674306 4.25261432 39.1433373.733196757 46.3621025.733196757 54.8356456.733196757 61.5971429 5.58513563 64.5303758 12.5383164L74.2467774 1.82501853 86.2018415 1.82501853 72.4783858 18.9493811 87.2409883 39.1876584 75.2870078 39.1876584 65.0125659 27.1624396zM22.9200781 20.4987489C22.9200781 11.9083775 15.4477567 10.1898696 9.13485876 10.1898696L9.13485876 30.8065439C15.4477567 30.8065439 22.9200781 29.0869517 22.9200781 20.4987489L22.9200781 20.4987489z"/>
    </g>
  </g>
</svg>
