<svg xmlns="http://www.w3.org/2000/svg" width="63" height="19" viewBox="0 0 63 19">
  <g fill="none" fill-rule="evenodd" transform="translate(0 -22)">
    <rect width="62.984" height="64"/>
    <g fill="#FFFFFF" fill-rule="nonzero" transform="translate(0 22.857)">
      <path d="M31.5273728 5.05050505C32.9702819 5.05050505 33.5062831 5.58868687 33.5062831 7.03482828L33.5062831 9.20856566C33.5062831 10.647596 32.9524682 11.2077576 31.5273728 11.2077576L31.0820305 11.2077576 31.0820305 5.05050505 31.5273728 5.05050505zM28.7128094 2.88226263L28.6237409 2.88226263 28.6237409 13.3753535 31.6810159 13.3753535C32.9928671 13.3753535 33.9443091 13.2838788 34.6295001 12.823596 35.496009 12.2511515 35.9925657 11.1133737 35.9925657 9.70181818L35.9925657 6.54157576C35.9925657 5.12517172 35.508733 4.01648485 34.6307725 3.41947475 33.8930948 2.92105051 32.9022081 2.88226263 31.6810159 2.88226263L28.7128094 2.88226263zM40.0839891 9.41931313L40.0839891 6.82375758C40.0839891 5.40412121 40.1867359 4.78254545 41.1766683 4.78254545 42.1659644 4.78254545 42.2693474 5.40412121 42.2693474 6.82375758L42.2693474 9.41931313C42.2693474 10.8399192 42.1662825 11.4614949 41.1766683 11.4614949 40.1867359 11.4614949 40.0839891 10.839596 40.0839891 9.41931313M38.5380151 3.60080808L38.5373789 3.60080808C37.6638717 4.50585859 37.5973885 5.62133333 37.5973885 7.21874747L37.5973885 9.03822222C37.5973885 10.6362828 37.6638717 11.7507879 38.5373789 12.6571313 39.1656296 13.3029495 40.0785814 13.6449293 41.1766683 13.6449293 42.283662 13.6449293 43.2010672 13.3029495 43.829636 12.6571313 44.7044156 11.7507879 44.7693083 10.6362828 44.7693083 9.03822222L44.7693083 7.21874747C44.7693083 5.62230303 44.7044156 4.50715152 43.829636 3.60080808 43.2010672 2.95563636 42.283662 2.6139798 41.1766683 2.6139798 40.0792176 2.6139798 39.166902 2.9559596 38.5380151 3.60080808M47.2629072 3.60080808L47.262271 3.60080808C46.3881276 4.50715152 46.3225987 5.62133333 46.3225987 7.21874747L46.3225987 9.03822222C46.3225987 10.6362828 46.3881276 11.7507879 47.262271 12.6571313 47.8911579 13.3029495 48.8044278 13.6449293 49.9012423 13.6449293 52.0178907 13.6449293 53.4385326 12.3549091 53.4385326 10.4355556L53.4385326 9.65462626 50.9932852 9.65462626 50.9932852 9.89963636C50.9932852 11.0241616 50.6875895 11.4614949 49.9012423 11.4614949 48.9129004 11.4614949 48.8091993 10.839596 48.8091993 9.41931313L48.8091993 6.82375758C48.8091993 5.40767677 48.8534154 4.78254545 49.9012423 4.78254545 50.6506898 4.78254545 50.9662466 5.1940202 50.9932852 6.20541414L50.9967844 6.2920404 53.4385326 6.2920404 53.4385326 5.58189899C53.4385326 3.89010101 51.9180067 2.61430303 49.9012423 2.61430303 48.8041097 2.6139798 47.8921122 2.9559596 47.2629072 3.60080808M54.6740394 5.6950303C54.6740394 6.67959596 55.0595786 7.50383838 55.7912124 8.07886869 56.3205336 8.49454545 56.9939548 8.7670303 57.7729857 9.07991919L58.3592471 9.32008081C59.0985153 9.63006061 59.4430194 10.0192323 59.4430194 10.5490101 59.4430194 11.1366465 58.9477351 11.5468283 58.2377322 11.5468283 57.4695168 11.5468283 56.9122027 11.145697 56.3163983 10.1633939L56.2664563 10.0819394 54.3470309 11.442101 54.3906109 11.5145051C55.2695257 12.9283232 56.5451134 13.6446061 58.1823826 13.6446061 60.3562892 13.6446061 61.8176482 12.3326061 61.8176482 10.3809293 61.8176482 9.37115152 61.4200212 8.49971717 60.6992028 7.92533333 60.2230046 7.54456566 59.5848927 7.2840404 58.8453064 6.98149495L58.1041295 6.67151515C57.2748385 6.30561616 56.9204733 5.94909091 56.9204733 5.48363636 56.9204733 4.9719596 57.3422761 4.6280404 57.970845 4.6280404 58.6391765 4.6280404 59.2235293 4.99426263 59.7550771 5.74707071L59.8069277 5.82109091 61.579072 4.54917172 61.5354921 4.47709091C60.7819093 3.2420202 59.6243373 2.61430303 58.0968132 2.61430303 56.0173827 2.61333333 54.6740394 3.82383838 54.6740394 5.6950303M0 .0287676768L2.6965477.0287676768 2.6965477 4.44735354C3.70620234 2.94949495 4.69549848 2.65470707 5.89792272 2.65470707 6.65436845 2.65470707 7.27530287 2.95046465 7.66338688 3.50222222 8.0905974 4.0950303 8.1100016 4.74472727 8.1100016 5.53373737L8.1100016 5.72993939 8.1100016 13.3805253 5.4128177 13.3805253 5.4128177 6.83442424C5.4128177 5.65171717 5.2967106 5.19822222 4.50113837 5.19822222 3.99662915 5.19822222 3.39573513 5.53373737 2.6965477 6.24323232L2.6965477 13.3808485 0 13.3808485 0 .0287676768zM26.3327728 11.2129293L26.61811 11.2129293 26.61811 13.3737374C26.2939644 13.4141414 25.9065166 13.4141414 25.576009 13.4141414 22.9182697 13.4141414 22.0447625 12.1997576 22.0447625 9.75062626L22.0447625 5.05050505 20.5318711 5.05050505 20.5318711 2.89131313 22.0447625 2.89131313 22.0447625.0287676768 24.7413102.0287676768 24.7413102 2.89131313 26.6241539 2.89131313 26.6241539 5.05050505 24.7413102 5.05050505 24.7413102 8.83038384C24.7416283 10.5580606 24.7276319 11.2129293 26.3327728 11.2129293M17.7949245 7.18642424C17.7949245 5.81139394 16.7467795 5.45260606 14.5547411 5.45260606 12.3630207 5.45260606 11.3145576 5.81139394 11.3145576 7.18642424 11.3145576 8.54852525 12.3242123 8.86529293 14.4908026 8.87078788L16.5272894 10.4921212 16.522836 8.70820202 16.5209274 8.70820202C17.3829828 8.49971717 17.7949245 8.05656566 17.7949245 7.18642424M17.5840231 11.259798L17.5875222 11.259798 17.5913394 13.3711515 16.9210992 13.3711515 14.6912067 11.588202 13.681552 11.588202C10.6357287 11.588202 9.16069136 10.1488485 9.16069136 7.18642424 9.16069136 4.22432323 10.6357287 2.78626263 13.681552 2.78626263L15.4279301 2.78626263C18.4740715 2.78626263 19.9484727 4.22432323 19.9484727 7.18642424 19.9484727 9.33462626 19.1723046 10.6812121 17.5840231 11.259798M18.7718147 16.3371313C18.7718147 16.0332929 18.7489113 15.8920404 18.5278307 15.8920404 18.3054776 15.8920404 18.2828924 16.0332929 18.2828924 16.3371313L18.2828924 16.882101C18.2828924 17.1856162 18.3054776 17.3288081 18.5278307 17.3288081 18.7489113 17.3288081 18.7718147 17.1859394 18.7718147 16.882101L18.7718147 16.3371313zM17.9943742 15.6748283C18.1193882 15.5448889 18.3007061 15.4734545 18.5275126 15.4734545 18.7530467 15.4734545 18.9375456 15.5448889 19.0625596 15.6748283 19.2365612 15.8587475 19.2511938 16.0895354 19.2511938 16.420202L19.2511938 16.8025859C19.2511938 17.1326061 19.2365612 17.3643636 19.0625596 17.5479596 18.9372275 17.6782222 18.7530467 17.7490101 18.5275126 17.7490101 18.3007061 17.7490101 18.1190701 17.6782222 17.9943742 17.5479596 17.8191002 17.3646869 17.8047856 17.1329293 17.8047856 16.8025859L17.8047856 16.420202C17.8047856 16.0895354 17.8194183 15.8587475 17.9943742 15.6748283L17.9943742 15.6748283zM20.4024037 16.882101C20.4024037 17.1940202 20.4485285 17.3281616 20.6941029 17.3281616 20.9409498 17.3281616 20.9845297 17.1930505 20.9845297 16.882101L20.9845297 15.5309899 21.4559564 15.5309899 21.4559564 16.9913535C21.4559564 17.5001212 21.2110181 17.7454545 20.6937848 17.7454545 20.177824 17.7454545 19.9303409 17.4975354 19.9303409 16.9913535L19.9303409 15.5309899 20.4020856 15.5309899 20.4020856 16.882101 20.4024037 16.882101z"/>
      <polygon points="22.579 15.947 22.04 15.947 22.04 15.531 23.588 15.531 23.588 15.947 23.05 15.947 23.05 17.693 22.579 17.693"/>
      <path d="M24.4238448 17.0472727C24.5463139 17.2518788 24.665284 17.3465859 24.8373769 17.3465859 24.9996088 17.3465859 25.1045823 17.2499394 25.1045823 17.1193535 25.1045823 16.9994343 25.0295103 16.9115152 24.8691871 16.8429899 24.6595581 16.7553939 24.4766497 16.6933333 24.3420927 16.5863434 24.1935392 16.4686869 24.1181491 16.3025455 24.1181491 16.1011717 24.1181491 15.7191111 24.3828097 15.4744242 24.8074754 15.4744242 25.1157159 15.4744242 25.3517473 15.6030707 25.5034818 15.8564848L25.1656578 16.1014949C25.0520956 15.9398788 24.9270816 15.8593939 24.781073 15.8593939 24.6360186 15.8593939 24.5459958 15.9418182 24.5459958 16.0578586 24.5459958 16.1671111 24.6302928 16.246303 24.8017496 16.3229091 25.0174225 16.4176162 25.206693 16.4793535 25.3348879 16.5831111 25.4770794 16.6991515 25.5585134 16.8740202 25.5585134 17.0841212 25.5585134 17.4765253 25.2674504 17.7493333 24.8252891 17.7493333 24.4900099 17.7493333 24.2348924 17.6016162 24.0570736 17.3113535L24.4238448 17.0472727zM26.7606195 16.5200808L26.8919955 16.5200808C27.1887844 16.5200808 27.2991656 16.456404 27.2991656 16.2107475 27.2991656 15.9621818 27.1887844 15.8965657 26.8919955 15.8965657L26.7606195 15.8965657 26.7606195 16.5200808zM26.8251942 15.5309899C27.1133943 15.5309899 27.3258862 15.542303 27.4808017 15.6305455 27.6722989 15.7407677 27.7772724 15.9414949 27.7772724 16.2075152 27.7772724 16.4741818 27.6722989 16.6774949 27.4808017 16.7880404 27.328431 16.8740202 27.1133943 16.8885657 26.8251942 16.8885657L26.7609376 16.8885657 26.7609376 17.6924444 26.289511 17.6924444 26.289511 15.5309899 26.8251942 15.5309899zM29.3576014 16.3371313C29.3576014 16.0332929 29.33438 15.8920404 29.1136174 15.8920404 28.8915825 15.8920404 28.8683611 16.0332929 28.8683611 16.3371313L28.8683611 16.882101C28.8683611 17.1856162 28.8919006 17.3288081 29.1136174 17.3288081 29.33438 17.3288081 29.3576014 17.1859394 29.3576014 16.882101L29.3576014 16.3371313zM28.580161 15.6748283C28.705493 15.5448889 28.8858567 15.4734545 29.1132993 15.4734545 29.3401058 15.4734545 29.5236505 15.5448889 29.6483463 15.6748283 29.822666 15.8587475 29.838253 16.0895354 29.838253 16.420202L29.838253 16.8025859C29.838253 17.1326061 29.822666 17.3643636 29.6483463 17.5479596 29.5236505 17.6782222 29.3401058 17.7490101 29.1132993 17.7490101 28.8858567 17.7490101 28.7051749 17.6782222 28.580161 17.5479596 28.4055232 17.3646869 28.3908905 17.1329293 28.3908905 16.8025859L28.3908905 16.420202C28.3908905 16.0895354 28.4055232 15.8587475 28.580161 15.6748283L28.580161 15.6748283zM31.7853532 15.5303434L32.2876357 15.5303434 31.6542953 16.5291313 32.3957903 17.6924444 31.8397486 17.6924444 31.1475594 16.5659798 31.7853532 15.5303434zM30.6500484 15.5303434L31.121157 15.5303434 31.121157 17.6921212 30.6500484 17.6921212 30.6500484 15.5303434z"/>
      <polygon points="33.069 15.531 34.504 15.531 34.504 15.947 33.54 15.947 33.54 16.335 34.198 16.335 34.198 16.751 33.54 16.751 33.54 17.276 34.564 17.276 34.564 17.692 33.069 17.692"/>
      <polygon points="35.325 15.531 35.778 15.531 36.459 16.842 36.451 15.531 36.861 15.531 36.861 17.692 36.474 17.692 35.726 16.232 35.735 17.692 35.325 17.692"/>
      <rect width="1" height="1" x="37.86" y="17.242"/>
      <path d="M40.0754004 16.3371313C40.0754004 16.0332929 40.0521789 15.8920404 39.8317345 15.8920404 39.6103357 15.8920404 39.5874324 16.0332929 39.5874324 16.3371313L39.5874324 16.882101C39.5874324 17.1856162 39.6100176 17.3288081 39.8317345 17.3288081 40.0521789 17.3288081 40.0754004 17.1859394 40.0754004 16.882101L40.0754004 16.3371313zM39.2985961 15.6748283C39.4239282 15.5448889 39.6042918 15.4734545 39.8320526 15.4734545 40.058541 15.4734545 40.2420856 15.5448889 40.3670996 15.6748283 40.5414193 15.8587475 40.5566882 16.0895354 40.5566882 16.420202L40.5566882 16.8025859C40.5566882 17.1326061 40.5414193 17.3643636 40.3670996 17.5479596 40.2417675 17.6782222 40.058541 17.7490101 39.8320526 17.7490101 39.6046099 17.7490101 39.4239282 17.6782222 39.2985961 17.5479596 39.1242764 17.3646869 39.1096437 17.1329293 39.1096437 16.8025859L39.1096437 16.420202C39.1096437 16.0895354 39.1242764 15.8587475 39.2985961 15.6748283L39.2985961 15.6748283zM41.7066256 16.882101C41.7066256 17.1940202 41.7537047 17.3281616 41.9976886 17.3281616 42.2454898 17.3281616 42.2890697 17.1930505 42.2890697 16.882101L42.2890697 15.5309899 42.7604964 15.5309899 42.7604964 16.9913535C42.7604964 17.5001212 42.5149219 17.7454545 41.9980067 17.7454545 41.4830002 17.7454545 41.2355171 17.4975354 41.2355171 16.9913535L41.2355171 15.5309899 41.7069437 15.5309899 41.7069437 16.882101 41.7066256 16.882101z"/>
      <polygon points="43.883 15.947 43.344 15.947 43.344 15.531 44.893 15.531 44.893 15.947 44.354 15.947 44.354 17.693 43.883 17.693"/>
      <path d="M45.7280667,17.0472727 C45.8502177,17.2518788 45.9695059,17.3465859 46.1406445,17.3465859 C46.304785,17.3465859 46.4091223,17.2499394 46.4091223,17.1193535 C46.4091223,16.9994343 46.3337322,16.9115152 46.173409,16.8429899 C45.96378,16.7553939 45.7815078,16.6933333 45.6463146,16.5863434 C45.4987154,16.4686869 45.422371,16.3025455 45.422371,16.1011717 C45.422371,15.7191111 45.6876678,15.4744242 46.1120154,15.4744242 C46.420574,15.4744242 46.6562873,15.6030707 46.8070675,15.8564848 L46.4701979,16.1014949 C46.3559994,15.9398788 46.2319397,15.8593939 46.0859311,15.8593939 C45.9399224,15.8593939 45.8498996,15.9418182 45.8498996,16.0578586 C45.8498996,16.1671111 45.9345147,16.246303 46.1059715,16.3229091 C46.3216444,16.4176162 46.5109149,16.4793535 46.6391098,16.5831111 C46.7816194,16.6991515 46.8627353,16.8740202 46.8627353,17.0841212 C46.8627353,17.4765253 46.5719904,17.7493333 46.1298291,17.7493333 C45.794868,17.7493333 45.5387962,17.6016162 45.3606593,17.3113535 L45.7280667,17.0472727 Z"/>
      <polygon points="47.905 15.947 47.367 15.947 47.367 15.531 48.915 15.531 48.915 15.947 48.377 15.947 48.377 17.693 47.905 17.693"/>
      <path d="M50.3637621,16.8895354 L50.1369556,15.9146667 L49.90665,16.8895354 L50.3637621,16.8895354 Z M50.454421,17.2606061 L49.8131281,17.2606061 L49.7040192,17.6930909 L49.246271,17.6930909 L49.8573442,15.5309899 L50.4127497,15.5309899 L51.0247773,17.6930909 L50.5676652,17.6930909 L50.454421,17.2606061 Z"/>
      <polygon points="51.672 15.531 52.125 15.531 52.806 16.842 52.799 15.531 53.208 15.531 53.208 17.692 52.821 17.692 52.074 16.232 52.082 17.692 51.672 17.692"/>
      <path d="M54.6113734,17.275798 C54.9180234,17.275798 55.0385839,17.1507071 55.0385839,16.8368485 L55.0385839,16.3820606 C55.0385839,16.0688485 54.9196139,15.9469899 54.6113734,15.9469899 L54.5009921,15.9469899 L54.5009921,17.275798 L54.6113734,17.275798 L54.6113734,17.275798 Z M54.6431836,15.5309899 C54.9078442,15.5309899 55.0999776,15.542303 55.2424871,15.6402424 C55.4145801,15.7575758 55.5160545,15.9825455 55.5160545,16.2786263 L55.5160545,16.9412525 C55.5160545,17.2370101 55.414262,17.4648889 55.2424871,17.5806061 C55.1031586,17.6746667 54.9078442,17.6927677 54.6431836,17.6927677 L54.0298836,17.6927677 L54.0298836,15.5313131 L54.6431836,15.5313131 L54.6431836,15.5309899 Z"/>
      <polygon points="56.131 17.488 56.372 17.488 56.372 15.72 56.131 15.72 56.131 15.53 57.088 15.53 57.088 15.72 56.844 15.72 56.844 17.488 57.088 17.488 57.088 17.692 56.131 17.692"/>
      <polygon points="57.763 15.531 58.218 15.531 58.898 16.842 58.89 15.531 59.301 15.531 59.301 17.692 58.914 17.692 58.165 16.232 58.174 17.692 57.763 17.692"/>
      <path d="M60.3251153,15.6748283 C60.4466301,15.5448889 60.6304929,15.4734545 60.8582536,15.4734545 C61.288009,15.4734545 61.5599859,15.7226667 61.5793901,16.1396364 L61.1022376,16.1396364 C61.090786,15.9773737 61.0055347,15.8920404 60.8582536,15.8920404 C60.6244489,15.8920404 60.6123611,16.041697 60.6123611,16.3371313 L60.6123611,16.882101 C60.6123611,17.175596 60.6244489,17.3288081 60.8582536,17.3288081 C61.0293923,17.3288081 61.1022376,17.224404 61.1022376,16.9994343 L61.1022376,16.9170101 L60.8547545,16.9170101 L60.8547545,16.5478788 L61.5797082,16.5478788 L61.5797082,17.718303 L61.3700792,17.718303 L61.3029598,17.5440808 C61.178582,17.6866263 61.0389354,17.7486869 60.8429848,17.7486869 C60.6282662,17.7486869 60.4450396,17.6743434 60.3254334,17.5476364 C60.1495232,17.3643636 60.136481,17.1358384 60.136481,16.8022626 L60.136481,16.420202 C60.1361629,16.0895354 60.1492051,15.8587475 60.3251153,15.6748283"/>
      <rect width="1" height="1" x="62.42" y="17.242"/>
    </g>
  </g>
</svg>
