<svg xmlns="http://www.w3.org/2000/svg" width="109" height="32" viewBox="0 0 109 32">
  <g fill="none" fill-rule="evenodd" transform="translate(-10 -48)">
    <rect width="128" height="128"/>
    <g fill="#111111" fill-rule="nonzero" transform="translate(10 48)">
      <path d="M55.1225556 8.92606968C57.66812 8.92606968 58.6137276 9.90056372 58.6137276 12.5191141L58.6137276 16.4551335C58.6137276 19.0608077 57.6366933 20.0751009 55.1225556 20.0751009L54.3368875 20.0751009 54.3368875 8.92606968 55.1225556 8.92606968zM50.1571336 5L50 5 50 24 55.3936111 24C57.7079646 24 59.3864882 23.8343653 60.5952946 23.0009241 62.1239801 21.9643902 63 19.9041986 63 17.3482734L63 11.6259742C63 9.06126975 62.1464278 7.0537535 60.5975394 5.97273819 59.2961364 5.0702338 57.548025 5 55.3936111 5L50.1571336 5zM69.1605606 17.3386175L69.1605606 12.6326662C69.1605606 10.0587511 69.3324758 8.93178422 70.9888229 8.93178422 72.6441054 8.93178422 72.8170851 10.0587511 72.8170851 12.6326662L72.8170851 17.3386175C72.8170851 19.9142907 72.6446376 21.0412577 70.9888229 21.0412577 69.3324758 21.0412577 69.1605606 19.9137047 69.1605606 17.3386175M66.573849 6.78919917L66.5727845 6.78919917C65.1112392 8.43012864 65 10.4525742 65 13.3488147L65 16.647669C65 19.5450816 65.1112392 21.565769 66.5727845 23.2090427 67.6239688 24.3799631 69.1515125 25 70.9888229 25 72.8410361 25 74.3760312 24.3799631 75.4277477 23.2090427 76.891422 21.565769 77 19.5450816 77 16.647669L77 13.3488147C77 10.4543323 76.891422 8.43247282 75.4277477 6.78919917 74.3760312 5.61945087 72.8410361 5 70.9888229 5 69.152577 5 67.6260978 5.62003692 66.573849 6.78919917M81.5856951 6.78866591L81.5846223 6.78866591C80.1105051 8.43198768 80 10.4521482 80 13.3484735L80 16.6474244C80 19.5449219 80.1105051 21.5656685 81.5846223 23.2089902 82.6451498 24.3799449 84.1852481 25 86.0348681 25 89.6042915 25 92 22.661021 92 19.1809765L92 17.7650473 87.8764417 17.7650473 87.8764417 18.2092834C87.8764417 20.248198 87.3609298 21.0411417 86.0348681 21.0411417 84.3681717 21.0411417 84.1932946 19.9135558 84.1932946 17.3383932L84.1932946 12.6323041C84.1932946 10.0647603 84.2678587 8.9313137 86.0348681 8.9313137 87.2987036 8.9313137 87.8308449 9.67737241 87.8764417 11.5111648L87.8823424 11.6682298 92 11.6682298 92 10.3806485C92 7.31319265 89.4358516 5.00000042 86.0348681 5.00000042 84.1847117 4.99941435 82.6467591 5.61946943 81.5856951 6.78866591M96.5130935 14.9082789C97.434192 15.6619785 98.6060464 16.1560444 99.9616777 16.7233704L100.981861 17.1588283C102.268299 17.7208795 102.867788 18.4265205 102.867788 19.3871065 102.867788 20.452601 102.005919 21.1963372 100.770407 21.1963372 99.4335959 21.1963372 98.4637854 20.4690112 97.426996 18.6879124L97.3400894 18.5402201 94 21.0064471 94.0758356 21.1377291C95.60528 23.7012455 97.8249947 25 100.67409 25 104.457015 25 107 22.621099 107 19.0823446 107 17.251429 106.308069 15.6713558 105.053736 14.6298907 104.22508 13.9394878 103.114669 13.4671068 101.827677 12.9185354L100.537918 12.3564842C99.0948265 11.693041 98.4781776 11.0465941 98.4781776 10.2026381 98.4781776 9.27487262 99.212178 8.65128291 100.305983 8.65128291 101.46898 8.65128291 102.485842 9.31531218 103.410815 10.6802938L103.501043 10.8145062 106.584841 8.50827926 106.509006 8.37758329C105.197658 6.13816949 103.183308 5.00000106 100.525186 5.00000106 96.9066638 4.99824281 94.5690441 7.19311449 94.5690441 10.5859348 94.5690441 12.3711362 95.2399404 13.8656416 96.5130935 14.9082789zM0 0L4.65495195 0 4.65495195 7.94228721C6.39788194 5.24992737 8.10566778 4.72005423 10.1813689 4.72005423 11.4871936 4.72005423 12.55909 5.25167038 13.2290253 6.24343953 13.9665032 7.30899584 14 8.47680837 14 9.89503244L14 10.2477002 14 23.999419 9.34394979 23.999419 9.34394979 12.2329815C9.34394979 10.1070979 9.14351834 9.29195313 7.77015101 9.29195313 6.89923514 9.29195313 5.86193371 9.89503244 4.65495195 11.1703302L4.65495195 24 0 24 0 0zM46.4738931 20.0532226L46.9890873 20.0532226 46.9890873 23.9275555C46.4038221 24 45.7042607 24 45.1075084 24 40.3087928 24 38.7316207 21.8226075 38.7316207 17.4313105L38.7316207 9.00398445 36 9.00398445 36 5.13254932 38.7316207 5.13254932 38.7316207 0 43.6004073 0 43.6004073 5.13254932 47 5.13254932 47 9.00398445 43.6004073 9.00398445 43.6004073 15.7813141C43.6009816 18.8790418 43.5757101 20.0532226 46.4738931 20.0532226M31.2070592 12.8983418C31.2070592 10.4301463 29.361012 9.78611781 25.5002801 9.78611781 21.6401085 9.78611781 19.793501 10.4301463 19.793501 12.8983418 19.793501 15.3433292 21.5717571 15.9119309 25.3876684 15.9217944L28.9744346 18.8321068 28.966591 15.6299508 28.9632294 15.6299508C30.4815263 15.2557181 31.2070592 14.4602559 31.2070592 12.8983418M30.8356088 20.2100956L30.8417716 20.2100956 30.8484947 24 29.6680329 24 25.7406304 20.7995847 23.9623743 20.7995847C18.5979123 20.7995847 16 18.2159282 16 12.8983418 16 7.58133569 18.5979123 5 23.9623743 5L27.0381859 5C32.4032082 5 35 7.58133569 35 12.8983418 35 16.7543897 33.6329726 19.1715272 30.8356088 20.2100956M33.0057181 29.5181818C33.0057181 28.9840909 32.9582142 28.7357955 32.4996701 28.7357955 32.0384869 28.7357955 31.9916428 28.9840909 31.9916428 29.5181818L31.9916428 30.4761364C31.9916428 31.0096591 32.0384869 31.2613636 32.4996701 31.2613636 32.9582142 31.2613636 33.0057181 31.0102273 33.0057181 30.4761364L33.0057181 29.5181818zM31.3932263 28.3539773C31.6525181 28.1255682 32.0285903 28 32.4990103 28 32.9667913 28 33.3494612 28.1255682 33.608753 28.3539773 33.9696503 28.6772727 34 29.0829545 34 29.6642045L34 30.3363636C34 30.9164773 33.9696503 31.3238636 33.608753 31.6465909 33.3488014 31.8755682 32.9667913 32 32.4990103 32 32.0285903 32 31.6518584 31.8755682 31.3932263 31.6465909 31.0296899 31.3244318 31 30.9170455 31 30.3363636L31 29.6642045C31 29.0829545 31.0303497 28.6772727 31.3932263 28.3539773L31.3932263 28.3539773zM35.9282736 30.4405196C35.9282736 31.003941 36.0189741 31.2462414 36.5018766 31.2462414 36.9872811 31.2462414 37.0729775 31.0021895 37.0729775 30.4405196L37.0729775 28 38 28 38 30.6378631C38 31.556853 37.5183486 32 36.501251 32 35.4866555 32 35 31.5521822 35 30.6378631L35 28 35.927648 28 35.927648 30.4405196 35.9282736 30.4405196z"/>
      <polygon points="39.043 28.77 38 28.77 38 28 41 28 41 28.77 39.957 28.77 39.957 32 39.043 32"/>
      <path d="M42.732839 30.7655584C42.9775424 31.1253197 43.2152542 31.2918443 43.5591102 31.2918443 43.8832627 31.2918443 44.0930085 31.1219096 44.0930085 30.8922989 44.0930085 30.6814436 43.9430085 30.5268542 43.6226695 30.4063654 43.2038136 30.2523444 42.8383475 30.1432225 42.5694915 29.9551009 42.2726695 29.7482239 42.1220339 29.4560955 42.1220339 29.1020176 42.1220339 28.4302359 42.6508475 28 43.4993644 28 44.1152542 28 44.5868644 28.2262006 44.8900424 28.6717818L44.2150424 29.102586C43.9881356 28.8184143 43.7383475 28.6768968 43.4466102 28.6768968 43.1567797 28.6768968 42.9769068 28.8218244 42.9769068 29.0258596 42.9769068 29.2179596 43.145339 29.3572038 43.4879237 29.4919011 43.9188559 29.6584257 44.2970339 29.7669793 44.553178 29.9494174 44.8372881 30.1534527 45 30.4609264 45 30.8303495 45 31.5203183 44.4184322 32 43.5349576 32 42.8650424 32 42.3552966 31.7402671 42 31.2298949L42.732839 30.7655584zM46.9499679 29.8304172L47.2148813 29.8304172C47.8133419 29.8304172 48.0359205 29.7125766 48.0359205 29.2579632 48.0359205 28.7979662 47.8133419 28.6765366 47.2148813 28.6765366L46.9499679 28.6765366 46.9499679 29.8304172zM47.0801796 28C47.6613214 28 48.0898012 28.0209361 48.4021809 28.1842381 48.7883258 28.3882159 49 28.759683 49 29.2519815 49 29.7454763 48.7883258 30.1217287 48.4021809 30.3263048 48.0949326 30.4854195 47.6613214 30.5123374 47.0801796 30.5123374L46.9506094 30.5123374 46.9506094 32 46 32 46 28 47.0801796 28zM51.0037363 29.5181818C51.0037363 28.9840909 50.9556044 28.7357955 50.498022 28.7357955 50.0378022 28.7357955 49.9896703 28.9840909 49.9896703 29.5181818L49.9896703 30.4761364C49.9896703 31.0096591 50.0384615 31.2613636 50.498022 31.2613636 50.9556044 31.2613636 51.0037363 31.0102273 51.0037363 30.4761364L51.0037363 29.5181818zM49.3923077 28.3539773C49.6520879 28.1255682 50.0259341 28 50.4973626 28 50.9674725 28 51.3479121 28.1255682 51.6063736 28.3539773 51.9676923 28.6772727 52 29.0829545 52 29.6642045L52 30.3363636C52 30.9164773 51.9676923 31.3238636 51.6063736 31.6465909 51.3479121 31.8755682 50.9674725 32 50.4973626 32 50.0259341 32 49.6514286 31.8755682 49.3923077 31.6465909 49.0303297 31.3244318 49 30.9170455 49 30.3363636L49 29.6642045C49 29.0829545 49.0303297 28.6772727 49.3923077 28.3539773L49.3923077 28.3539773zM54.950984 28L55.8141399 28 54.7257653 29.8478098 56 32 55.0444606 32 53.8549563 29.9159815 54.950984 28zM53 28L53.8095845 28 53.8095845 31.999402 53 31.999402 53 28z"/>
      <polygon points="57 28 59.878 28 59.878 28.77 57.945 28.77 57.945 29.488 59.265 29.488 59.265 30.258 57.945 30.258 57.945 31.229 60 31.229 60 32 57 32"/>
      <polygon points="61 28 61.886 28 63.216 30.427 63.2 28 64 28 64 32 63.245 32 61.785 29.298 61.801 32 61 32"/>
      <rect width="1" height="1" x="66" y="31"/>
      <path d="M70.0021983 29.5181818C70.0021983 28.9840909 69.9540558 28.7357955 69.4970323 28.7357955 69.0380303 28.7357955 68.9905474 28.9840909 68.9905474 29.5181818L68.9905474 30.4761364C68.9905474 31.0096591 69.0373709 31.2613636 69.4970323 31.2613636 69.9540558 31.2613636 70.0021983 31.0102273 70.0021983 30.4761364L70.0021983 29.5181818zM68.3917344 28.3539773C68.6515718 28.1255682 69.0255001 28 69.4976918 28 69.9672455 28 70.3477687 28.1255682 70.6069466 28.3539773 70.9683447 28.6772727 71 29.0829545 71 29.6642045L71 30.3363636C71 30.9164773 70.9683447 31.3238636 70.6069466 31.6465909 70.3471093 31.8755682 69.9672455 32 69.4976918 32 69.0261596 32 68.6515718 31.8755682 68.3917344 31.6465909 68.0303363 31.3244318 68 30.9170455 68 30.3363636L68 29.6642045C68 29.0829545 68.0303363 28.6772727 68.3917344 28.3539773L68.3917344 28.3539773zM72.9267835 30.4405196C72.9267835 31.003941 73.0193992 31.2462414 73.4993742 31.2462414 73.9868586 31.2462414 74.0725907 31.0021895 74.0725907 30.4405196L74.0725907 28 75 28 75 30.6378631C75 31.556853 74.5168961 32 73.5 32 72.4868586 32 72 31.5521822 72 30.6378631L72 28 72.9274093 28 72.9274093 30.4405196 72.9267835 30.4405196z"/>
      <polygon points="76.044 28.77 75 28.77 75 28 78 28 78 28.77 76.957 28.77 76.957 32 76.044 32"/>
      <path d="M79.7337992,30.7655584 C79.9777637,31.1253197 80.2160102,31.2918443 80.5578145,31.2918443 C80.8856417,31.2918443 81.094028,31.1219096 81.094028,30.8922989 C81.094028,30.6814436 80.9434562,30.5268542 80.6232529,30.4063654 C80.2045743,30.2523444 79.8405337,30.1432225 79.570521,29.9551009 C79.2757306,29.7482239 79.1232529,29.4560955 79.1232529,29.1020176 C79.1232529,28.4302359 79.6531131,28 80.5006353,28 C81.1168996,28 81.5876747,28.2262006 81.8888183,28.6717818 L81.2160102,29.102586 C80.9879288,28.8184143 80.7401525,28.6768968 80.4485388,28.6768968 C80.156925,28.6768968 79.9771283,28.8218244 79.9771283,29.0258596 C79.9771283,29.2179596 80.1461245,29.3572038 80.4885642,29.4919011 C80.9193139,29.6584257 81.2973316,29.7669793 81.5533672,29.9494174 C81.8379924,30.1534527 82,30.4609264 82,30.8303495 C82,31.5203183 81.4193139,32 80.5362135,32 C79.8672173,32 79.3557814,31.7402671 79,31.2298949 L79.7337992,30.7655584 Z"/>
      <polygon points="83.043 28.77 82 28.77 82 28 85 28 85 28.77 83.956 28.77 83.956 32 83.043 32"/>
      <path d="M86.8849937,30.5133802 L86.5024146,28.7098221 L86.1139331,30.5133802 L86.8849937,30.5133802 Z M87.0379181,31.1998804 L85.9561796,31.1998804 L85.7721338,32 L85,32 L86.0307637,28 L86.9676265,28 L88,32 L87.2289394,32 L87.0379181,31.1998804 Z"/>
      <polygon points="90 28 90.885 28 92.216 30.427 92.201 28 93 28 93 32 92.245 32 90.786 29.298 90.802 32 90 32"/>
      <path d="M95.1738014,31.2284689 C95.7928082,31.2284689 96.0361729,30.9970096 96.0361729,30.4162679 L96.0361729,29.5747608 C96.0361729,28.9952153 95.7960188,28.7697368 95.1738014,28.7697368 L94.9509846,28.7697368 L94.9509846,31.2284689 L95.1738014,31.2284689 L95.1738014,31.2284689 Z M95.2380137,28 C95.7722603,28 96.1601027,28.020933 96.447774,28.2021531 C96.7951627,28.4192584 97,28.8355263 97,29.3833732 L97,30.6094498 C97,31.1566986 96.7945205,31.5783493 96.447774,31.7924641 C96.166524,31.9665072 95.7722603,32 95.2380137,32 L94,32 L94,28.0005981 L95.2380137,28.0005981 L95.2380137,28 Z"/>
      <polygon points="97 31.623 97.505 31.623 97.505 28.35 97 28.35 97 28 99 28 99 28.35 98.49 28.35 98.49 31.623 99 31.623 99 32 97 32"/>
      <polygon points="100 28 100.887 28 102.215 30.427 102.198 28 103 28 103 32 102.245 32 100.783 29.298 100.802 32 100 32"/>
      <path d="M104.392119,28.3540276 C104.644708,28.125586 105.026897,28 105.500336,28 C106.393654,28 106.959004,28.4381304 106.999339,29.1711891 L106.007498,29.1711891 C105.983694,28.8859213 105.806485,28.7359 105.500336,28.7359 C105.014334,28.7359 104.989208,28.9990055 104.989208,29.5183975 L104.989208,30.4764881 C104.989208,30.9924705 105.014334,31.261827 105.500336,31.261827 C105.856077,31.261827 106.007498,31.0782782 106.007498,30.6827674 L106.007498,30.5378605 L105.493063,30.5378605 L105.493063,29.8889047 L107,29.8889047 L107,31.9465833 L106.564251,31.9465833 L106.424732,31.6402898 C106.166192,31.8908936 105.875913,32 105.468597,32 C105.022269,32 104.641402,31.8692996 104.39278,31.6465407 C104.027122,31.3243358 104.000011,30.9225742 104.000011,30.3361273 L104.000011,29.664441 C103.99935,29.0831084 104.02646,28.6773689 104.392119,28.3540276"/>
      <rect width="1" height="1" x="108" y="31"/>
    </g>
  </g>
</svg>
