<svg xmlns="http://www.w3.org/2000/svg" width="64" height="49" viewBox="0 0 64 49">
  <g fill="none" fill-rule="evenodd" transform="translate(0 -8)">
    <rect width="64" height="64"/>
    <polygon points="64 57 0 57 0 8 64 8"/>
    <path fill="#FEFEFE" d="M25.7055002,20.0206305 L18.9824365,20.0206305 C18.2844898,20.0206305 17.7829478,20.0824858 17.7829478,20.0824858 L17.7829478,20.0410806 C17.7829478,20.0410806 18.3055507,19.6101133 18.9824365,18.7085407 L25.0193083,10.6509414 L25.0193083,8.43677415 L13.2492328,8.43677415 L13.2492328,11.5123711 L18.9824365,11.5123711 C19.6796486,11.5123711 20.1802111,11.4512732 20.1802111,11.4512732 L20.1802111,11.4921734 C20.1802111,11.4921734 19.6576082,11.9218784 18.9824365,12.8249657 L12.965646,20.840655 L12.965646,23.09547 L24.6257643,23.09547 L25.7055002,20.0206305 Z M48.5090113,53.1942581 L51.3718173,57 L54.2593576,54.6901464 L50.8208068,50.1196711 L48.5090113,53.1942581 Z M47.7508208,46.0410084 L44.1285997,41.2266465 L41.2415493,43.5372574 L45.4380457,49.1140806 L41.2415493,54.6901464 L44.1285997,57 L47.7508208,52.186143 L50.063106,49.1130708 L54.2593576,43.5372574 L51.3732867,41.2266465 L47.7508208,46.0410084 Z M34.0762078,41.5361754 L34.0762078,44.8377335 C35.9160933,45.1417081 37.3154153,46.8163457 37.3154153,48.9843108 C37.3154153,51.2446801 35.9160933,52.9963211 34.0762078,53.3131718 L34.0762078,56.6159922 C38.059402,56.317572 40.915351,53.0854433 40.915351,48.9843108 C40.915351,44.9808844 38.059402,41.8275265 34.0762078,41.5361754 L34.0762078,41.5361754 Z M26.0405146,48.9843108 C26.0405146,53.0854433 28.8962187,56.3185818 32.8803924,56.6159922 L32.8803924,53.3131718 C31.0397722,52.9963211 29.6392258,51.24569 29.6392258,48.9843108 C29.6392258,46.8163457 31.0397722,45.1404458 32.8803924,44.8377335 L32.8803924,41.5361754 C28.8962187,41.8275265 26.0405146,44.9808844 26.0405146,48.9843108 L26.0405146,48.9843108 Z M12.965646,56.4051793 L16.4468083,56.4051793 L16.4468083,41.7467359 L12.965646,41.7467359 L12.965646,56.4051793 Z M18.0168211,41.7472409 L17.6426237,41.7472409 L17.6426237,44.8220804 L17.8779665,44.8220804 C20.2247817,44.8220804 21.7558564,46.2578807 21.7558564,49.0454086 C21.7558564,51.8541441 20.2840459,53.3308447 17.8779665,53.3308447 L17.6426237,53.3308447 L17.6426237,56.4051793 L18.0168211,56.4051793 C22.4915167,56.4051793 25.3555472,53.6585515 25.3555472,49.0454086 C25.3555472,44.4325182 22.4915167,41.7472409 18.0168211,41.7472409 L18.0168211,41.7472409 Z M2.25057206,38.3987232 C1.00822689,38.3987232 0,39.4366299 0,40.7184231 C0,41.9992065 1.00822689,43.0373656 2.25057206,43.0373656 C3.49316211,43.0373656 4.50138901,41.9992065 4.50138901,40.7184231 C4.50138901,39.4366299 3.49316211,38.3987232 2.25057206,38.3987232 L2.25057206,38.3987232 Z M2.25057206,21.6897136 C1.00822689,21.6897136 0,22.7286302 0,24.0094135 C0,25.2904494 1.00822689,26.3296184 2.25057206,26.3296184 C3.49316211,26.3296184 4.50138901,25.2904494 4.50138901,24.0094135 C4.50138901,22.7286302 3.49316211,21.6897136 2.25057206,21.6897136 L2.25057206,21.6897136 Z M60.5124704,43.9379283 L61.9203637,43.9379283 L61.9203637,43.1211859 L59.482448,43.1189137 L59.482448,46.4585948 L60.5124704,46.4585948 L60.5124704,45.2197216 L61.9233024,45.2197216 L61.9233024,44.3671283 L60.5124704,44.3671283 L60.5124704,43.9379283 Z M57.5624823,47.1253697 L57.431954,47.1253697 L57.431954,48.2402799 L58.5138939,48.2402799 L58.5138939,48.1074803 L57.5624823,48.1074803 L57.5624823,47.1253697 Z M57.431954,42.5023804 L57.5624823,42.5023804 L57.5624823,41.5205223 L58.5138939,41.5205223 L58.5138939,41.3867128 L57.431954,41.3867128 L57.431954,42.5023804 Z M63.8856347,47.2485753 C63.6904545,47.6055688 63.4058882,47.9017168 63.0600984,48.1026834 L63.1262197,48.2200822 C63.4903764,48.0044723 63.7913507,47.6929236 64,47.3147226 L63.8856347,47.2485753 Z M63.8856347,42.3511505 L63.9982857,42.2865181 C63.7913507,41.908822 63.4903764,41.5970208 63.1262197,41.3836832 L63.0600984,41.4990623 C63.4058882,41.7025536 63.6904545,41.995167 63.8856347,42.3511505 L63.8856347,42.3511505 Z M48.4056662,36.5955782 L45.225723,36.5955782 L45.225723,33.5616389 L48.4357881,33.5616389 C49.9813116,33.5616389 50.7084006,34.2380076 50.7084006,35.0580322 C50.7084006,35.8783092 49.9511896,36.5955782 48.4056662,36.5955782 L48.4056662,36.5955782 Z M45.225723,28.0878237 L47.8842878,28.0878237 C47.9141648,28.0878237 47.9384093,28.0921157 47.966572,28.0926206 C49.3088338,28.1226646 49.8618035,28.6793623 49.8618035,29.3383106 C49.8618035,30.0320998 49.2877729,30.6844839 47.9675516,30.6897858 C47.9633884,30.6897858 47.9589803,30.6910481 47.9543273,30.6910481 L45.225723,30.6910481 L45.225723,28.0878237 Z M51.657853,32.0033903 L51.657853,31.9624901 C52.9239529,31.3267691 53.602553,30.0760297 53.602553,28.8457405 C53.602553,26.3248215 51.2594112,25.0122268 47.9082874,25.0122268 L41.7452954,25.0122268 L41.7452954,39.6709226 L47.9082874,39.6709226 C51.2349218,39.6709226 54.2821327,38.5024886 54.2821327,35.3034336 C54.2821327,34.0125514 53.5790432,32.5159056 51.657853,32.0033903 L51.657853,32.0033903 Z M47.0572821,23.150761 C47.1317298,23.150761 47.3109919,23.1454591 47.329114,23.1454591 C49.8302122,23.1454591 51.8557271,22.5955782 53.719857,21.3958378 L53.719857,14.6225564 L48.6285194,14.6225564 L48.6285194,17.6771983 L50.6376264,17.6771983 L50.6376264,19.2303975 C50.6376264,19.2303975 49.4241786,19.8709154 47.7535146,19.8709154 C45.5465336,19.8709154 43.6765262,18.2099113 43.6765262,15.4221309 C43.6765262,13.2491164 44.8892392,11.280603 47.8730227,11.280603 C49.8818848,11.280603 51.3323895,12.633593 51.3323895,12.633593 L53.004278,9.94806319 C53.004278,9.94806319 51.1739433,8 47.5348246,8 C43.1994735,8 40.0778149,11.280603 40.0778149,15.5448316 C40.0778149,20.342278 43.4184083,23.150761 47.0572821,23.150761 L47.0572821,23.150761 Z M18.5359955,31.6532136 C18.5271794,31.6532136 18.5203223,31.6552334 18.5117511,31.6552334 L16.4465635,31.6552334 L16.4465635,28.0878237 L18.1365741,28.0878237 C18.3332236,28.0878237 18.5117511,28.0961552 18.6790134,28.1087788 C20.4735936,28.2266825 20.9092593,28.8553343 20.9092593,29.850321 C20.9092593,31.0031018 19.9970307,31.6365505 18.5359955,31.6532136 L18.5359955,31.6532136 Z M22.0911157,33.6638895 L22.0911157,33.6229893 C23.6596591,32.8855226 24.4555633,31.1831133 24.4555633,29.6248647 C24.4555633,27.492498 23.3288079,25.9958523 21.5386358,25.3611412 C20.8536684,25.1152348 20.0807843,25.0122268 18.4674253,25.0122268 L12.965646,25.0122268 L12.965646,39.6709226 L16.4465635,39.6709226 L16.4465635,34.7300729 L19.043415,34.7300729 L21.8486711,39.6709226 L25.7583972,39.6709226 L22.6886561,34.5455168 C22.3127444,33.930246 22.0911157,33.6638895 22.0911157,33.6638895 L22.0911157,33.6638895 Z M39.0056708,28.0878237 L39.0056708,25.0122268 L27.6418737,25.0122268 L27.6418737,39.6709226 L39.3135021,39.6709226 L39.3135021,36.5955782 L31.1225463,36.5955782 L31.1225463,33.8277429 L37.7892844,33.8277429 L37.7892844,30.7531559 L31.1225463,30.7531559 L31.1225463,28.0878237 L39.0056708,28.0878237 Z M32.4679916,14.3006564 C32.7415378,13.3778764 33.0782665,11.7792325 33.0782665,11.7792325 L33.1213677,11.7792325 C33.1213677,11.7792325 33.4578515,13.3778764 33.7316425,14.3006564 L34.5735867,17.1492823 L31.6047418,17.1492823 L32.4679916,14.3006564 Z M30.7417368,20.0206305 L35.4378162,20.0206305 L36.3637588,23.09547 L40.1542217,23.09547 L35.0369254,8.43677415 L31.162219,8.43677415 L26.046392,23.09547 L29.8358754,23.09547 L30.7417368,20.0206305 Z"/>
  </g>
</svg>
