<svg xmlns="http://www.w3.org/2000/svg" width="102" height="36" viewBox="0 0 102 36">
  <g fill="none" fill-rule="evenodd" transform="translate(-13 -46)">
    <rect width="128" height="128"/>
    <g fill="#111111" transform="translate(13 46)">
      <path d="M.0482949547 1.07531318C-.0193311772.932778078-.0159003881.804286487.058389392.689772786.133009056.575587205.244509702.518494414.393815006.518494414L4.13324321.518494414C4.20093532.518494414 4.27205821.543562743 4.3466119.593305657 4.42090168.643507938 4.47170375.697122663 4.49895213.754084206L8.19787063 10.3278234C8.22485511 10.2421842 8.25183959 10.1852883 8.27908797 10.1564137L11.916978.754084206C11.9438965.697122663 11.9946986.643507938 12.0694502.593305657 12.14374.543562743 12.2148629.518494414 12.2828189.518494414L15.9408978.518494414C16.0898732.518494414 16.198075.575587205 16.266031.689772786 16.3337232.804286487 16.3403208.932778078 16.2864179 1.07531318L10.1895757 15.4038318C10.1621294 15.4611215 10.1148241 15.514605 10.0473299 15.5644791 9.97937387 15.6146814 9.91168176 15.6394216 9.84405563 15.6394216L6.53136481 15.6394216C6.4634088 15.6394216 6.39571669 15.6146814 6.32809056 15.5644791 6.26013454 15.514605 6.21282924 15.4611215 6.18584476 15.4038318L.0482949547 1.07531318M17.8715084.925362578C17.8715084.811176996 17.9087193.714841115 17.9833389.63628931 18.0576287.557868752 18.1490724.518494414 18.2576041.518494414L21.6719651.518494414C21.7801669.518494414 21.8716106.557868752 21.9464282.63628931 22.020652.714841115 22.0580608.811176996 22.0580608.925362578L22.0580608 15.2325535C22.0580608 15.3468703 22.020652 15.443403 21.9464282 15.5216267 21.8716106 15.6002441 21.7801669 15.6394216 21.6719651 15.6394216L18.2576041 15.6394216C18.1490724 15.6394216 18.0576287 15.6002441 17.9833389 15.5216267 17.9087193 15.443403 17.8715084 15.3468703 17.8715084 15.2325535L17.8715084.925362578M27.0573803 10.4135282C27.2606546 10.3706758 27.409564 10.4348559 27.5045045 10.6062656 27.6805304 10.9916747 27.9177167 11.3167099 28.2157995 11.5807148 28.5136843 11.8451791 28.848978 12.0555693 29.2218124 12.2126073 29.5943169 12.3699078 29.9940699 12.4803528 30.4208732 12.544533 30.8476106 12.6088444 31.2776468 12.6410001 31.7113777 12.6410001 31.8874036 12.6410001 32.1484075 12.626891 32.4937296 12.5981477 32.8393157 12.5696013 33.1779082 12.5090305 33.5100349 12.4160414 33.8418318 12.3233148 34.1329871 12.1771048 34.3838965 11.9769519 34.6344761 11.7771271 34.7598978 11.5057723 34.7598978 11.1631499 34.7598978 10.9916747 34.7156934 10.8455303 34.6276805 10.7241261 34.5395356 10.6028531 34.4312018 10.5065172 34.3025472 10.4348559 34.1736947 10.3635884 34.028282 10.3063643 33.8656494 10.2635119 33.7030828 10.2207252 33.5471138 10.1852883 33.3982044 10.1564137 33.0187723 10.0852118 32.6325446 10.0139443 32.2398512 9.94228296 31.846696 9.87108103 31.4538047 9.80676961 31.0609793 9.74947995 30.7085317 9.67827802 30.3801656 9.61770716 30.0754851 9.56750488 29.7706067 9.51763072 29.5501125 9.47845325 29.4147943 9.44970998 29.0490854 9.37837681 28.5985304 9.26432247 28.0633933 9.10695637 27.5279922 8.95011525 27.0132419 8.70743808 26.5188124 8.3787936 26.024119 8.05047724 25.5973157 7.60764718 25.2385343 7.05095966 24.8792911 6.49407527 24.6999664 5.78724027 24.6999664 4.93045466 24.6999664 4.10254357 24.8961811 3.35285617 25.2893364 2.68165495 25.5870893 2.16755733 25.9701501 1.74297072 26.4375951 1.40723886 26.9050401 1.07190074 27.409564.804286487 27.9516287.6041336 28.4933635.404243208 29.0623467.265120546 29.6587762.186371869 30.2548098.108082559 30.8375162.0685769728 31.4064994.0685769728 32.4090815.0685769728 33.3302484.158022345 34.1705278.336322474 35.0104774.515016347 35.7893984.811176996 36.507621 1.22513254 36.8597387 1.43946019 37.1680479 1.66422204 37.4324166 1.89981183 37.6965213 2.13540162 37.9233493 2.36396966 38.1132303 2.58518782 38.3027814 2.80679972 38.4619172 3.01732118 38.5907697 3.2170147 38.7194243 3.41716759 38.8175317 3.58109608 38.8854877 3.70971892 38.9529819 3.82410138 38.966705 3.94189627 38.9260634 4.06316923 38.8854877 4.18457344 38.7972109 4.25951594 38.6618926 4.28793108L35.4306171 5.14471669C35.3492018 5.17345996 35.2643558 5.16985064 35.1765408 5.13388875 35.0881979 5.09845184 35.0240026 5.03755286 34.9833609 4.95191368 34.9290621 4.85216535 34.8240272 4.70562719 34.6683881 4.5128898 34.5124191 4.32008679 34.2787296 4.13108997 33.9672536 3.94530871 33.5335226 3.74548395 33.0761721 3.6099706 32.5954657 3.53824368 32.1142975 3.46704175 31.7179754 3.43127673 31.4064994 3.43127673 31.0813001 3.43127673 30.7594657 3.4493233 30.441194 3.4847602 30.1227904 3.52052523 29.8381009 3.58483665 29.5876533 3.67756321 29.3367439 3.7706179 29.1334696 3.89904387 28.9779625 4.06316923 28.8219935 4.22736023 28.744273 4.43788169 28.744273 4.69486487 28.744273 5.00920334 28.8896856 5.23396519 29.1811048 5.36954416 29.472392 5.50538563 29.8280065 5.62318052 30.2481462 5.72292885 30.3834644 5.75180336 30.6104243 5.79459014 30.9289599 5.85142044 31.2470996 5.90864448 31.6028461 5.9729559 31.9958693 6.04415783 32.4563868 6.12986264 32.8968473 6.21222063 33.3169871 6.29044431 33.7366649 6.36919299 34.0348797 6.42267647 34.2111695 6.45109161 34.6308473 6.53692767 35.1085847 6.65472257 35.6439858 6.80454193 36.178925 6.95449253 36.6769832 7.19369164 37.1376326 7.522008 37.5981501 7.85065248 37.9876766 8.28232647 38.3062781 8.8178831 38.6243519 9.35324286 38.7838176 10.0494468 38.7838176 10.9060355 38.7838176 11.7342747 38.6446727 12.4375004 38.3673066 13.0157126 38.0894127 13.5941216 37.7301695 14.0759979 37.2901708 14.461407 36.8496442 14.8469474 36.3583816 15.1505236 35.8166468 15.3716761 35.2746481 15.5933536 34.7325834 15.7572821 34.1908486 15.8643803 33.648784 15.9713473 33.1372005 16.0357243 32.6563622 16.0570521 32.175326 16.0785111 31.7856675 16.0892078 31.4879146 16.0892078 30.9051423 16.0892078 30.2582406 16.0463554 29.5470116 15.9607162 28.8357167 15.875077 28.1242898 15.6855552 27.4130608 15.3932008 26.7017658 15.1006494 26.024119 14.6722566 25.3807801 14.1081536 24.7370453 13.5441818 24.1848862 12.7838633 23.7243687 11.8270013 23.6564127 11.712947 23.649815 11.5987614 23.7040479 11.4844445 23.7581488 11.3701933 23.8462937 11.2989914 23.9682186 11.2701169L27.0573803 10.4135282M41.1412316.925362578C41.1412316.811176996 41.1784424.714841115 41.2530621.63628931 41.3272859.557868752 41.4187956.518494414 41.5272613.518494414L44.9416882.518494414C45.0498241.518494414 45.1413338.557868752 45.2160854.63628931 45.2903752.714841115 45.327718.811176996 45.327718.925362578L45.327718 15.2325535C45.327718 15.3468703 45.2903752 15.443403 45.2160854 15.5216267 45.1413338 15.6002441 45.0498241 15.6394216 44.9416882 15.6394216L41.5272613 15.6394216C41.4187956 15.6394216 41.3272859 15.6002441 41.2530621 15.5216267 41.1784424 15.443403 41.1412316 15.3468703 41.1412316 15.2325535L41.1412316.925362578M56.0378499 3.45260449C55.5095084 3.48147901 54.9876986 3.59192403 54.4730802 3.78472704 53.958 3.97733318 53.4940517 4.26660332 53.0808396 4.65201247 52.6674955 5.03755286 52.3356326 5.52323533 52.085053 6.10846925 51.8341436 6.69409691 51.7090517 7.38649465 51.7090517 8.18599059 51.7090517 8.92859062 51.8037283 9.51060896 51.9936093 9.93158626 52.1831604 10.3529573 52.3320039 10.6564678 52.4406675 10.841921L52.4813752 10.9275602C52.5625925 11.041877 52.6845175 11.198915 52.8470841 11.3987397 53.0097167 11.5987614 53.2333118 11.7985861 53.5178034 11.9984765 53.8023609 12.1984982 54.1579754 12.373189 54.5847128 12.5232052 55.0115162 12.6731558 55.5298952 12.7479671 56.1393881 12.7479671 56.8712018 12.7479671 57.5179715 12.626891 58.0803571 12.3838857 58.6424127 12.1413398 59.1098577 11.8092828 59.4826921 11.3879774 59.8551966 10.9670657 60.1396882 10.4743615 60.3361669 9.91012725 60.5325136 9.3462211 60.6309508 8.75029049 60.6309508 8.12167917 60.6309508 7.39351641 60.5121928 6.74397107 60.2753364 6.17264942 60.0379521 5.60185276 59.7163816 5.11256098 59.3098331 4.70562719 58.9034166 4.29862778 58.429044 3.98816112 57.8873092 3.77389909 57.3452445 3.55976832 56.7694657 3.45260449 56.1597749 3.45260449L56.0378499 3.45260449zM55.6314334.0685769728C55.726044.0685769728 55.8175537.065295778 55.9058305.0579459014 55.9937115.0508585205 56.0851552.0472492062 56.1800957.0472492062 56.816771.0472492062 57.4706662.108082559 58.1413855.229224274 58.8119728.350759732 59.4588745.532734799 60.0820906.775411972 60.7052406 1.01841726 61.2946106 1.32159967 61.8503325 1.68568105 62.4056585 2.04976244 62.8934243 2.48176455 63.313564 2.98142491 63.4624075 3.1815778 63.6285369 3.43488604 63.8114243 3.74174338 63.9943777 4.0490601 64.163608 4.41307586 64.319577 4.83411878 64.4750841 5.25548983 64.6072354 5.72292885 64.7158991 6.23696084 64.8241009 6.75099283 64.8785317 7.31529272 64.8785317 7.92907303 64.8785317 9.12848101 64.6955783 10.2313562 64.3296714 11.2381581 63.9639625 12.244763 63.4182691 13.1087673 62.6937788 13.8297114 61.9687607 14.5507868 61.0643519 15.1112805 59.9805524 15.5109956 58.896489 15.9105139 57.6363997 16.1106668 56.2004825 16.1106668 54.7642354 16.1106668 53.5006494 15.9142545 52.4102523 15.5216267 51.3193933 15.1291958 50.4048241 14.5792019 49.6666106 13.8724982 48.9278693 13.1656632 48.3726093 12.3233148 48.0001048 11.345125 47.6272704 10.3671977 47.441216 9.28565024 47.441216 8.10035141 47.441216 6.80119511 47.6475912 5.66235799 48.0611332 4.68416818 48.4741475 3.70630648 49.0468254 2.88508903 49.7784411 2.22110643 50.5100569 1.55725509 51.376925 1.04676679 52.3796391.689772786 53.3822212.33304128 54.4659547.125866635 55.6314334.0685769728L55.6314334.0685769728zM67.5205692.925362578C67.5205692.811176996 67.5575162.714841115 67.6320699.63628931 67.7066235.557868752 67.7976714.518494414 67.906533.518494414L71.3003752.518494414C71.3412807.518494414 71.3920828.536540986 71.4527814.57197789 71.5134799.607742914 71.5576843.639898624 71.5847348.668248148L78.251022 8.63577678C78.4542303 8.87871645 78.5789263 9.02866706 78.6270893 9.0856286 78.6739327 9.14272139 78.7115395 9.1855738 78.7385899 9.21412019 78.7656404 9.24279784 78.8098448 9.29647818 78.8705433 9.37476749 78.9319017 9.4533193 79.0704528 9.62840386 79.2875162 9.89943055L79.2466106 8.44297377 79.2466106.925362578C79.2466106.811176996 79.2835576.714841115 79.358771.63628931 79.4326649.557868752 79.5243726.518494414 79.6325744.518494414L82.8845666.518494414C82.9927684.518494414 83.0844761.557868752 83.1590298.63628931 83.2329237.714841115 83.2705304.811176996 83.2705304.925362578L83.2705304 15.2325535C83.2705304 15.3468703 83.2329237 15.443403 83.1590298 15.5216267 83.0844761 15.6002441 82.9927684 15.6394216 82.8845666 15.6394216L79.5111772 15.6394216C79.4702717 15.6394216 79.4194696 15.6217032 79.358771 15.5859381 79.2974127 15.5505012 79.2532083 15.5183455 79.2261578 15.489471L72.4991721 7.43636881C72.3230142 7.22223803 72.2082147 7.0829185 72.1541138 7.01880395 72.0993532 6.95449253 72.0558085 6.90461837 72.0221604 6.86885335 71.9878525 6.83335082 71.9403493 6.77973609 71.8796507 6.70820604 71.8182924 6.63680724 71.6929366 6.47261625 71.5035834 6.21563307 71.5167788 6.37280231 71.5240362 6.5191436 71.5240362 6.65472257 71.5240362 6.79056404 71.5240362 6.9651236 71.5240362 7.17945125L71.5240362 15.2325535C71.5240362 15.3468703 71.4864295 15.443403 71.4118758 15.5216267 71.3373221 15.6002441 71.2462743 15.6394216 71.1380724 15.6394216L67.906533 15.6394216C67.7976714 15.6394216 67.7066235 15.6002441 67.6320699 15.5216267 67.5575162 15.443403 67.5205692 15.3468703 67.5205692 15.2325535L67.5205692.925362578M88.8594179 10.4135282C89.0626261 10.3706758 89.2117335 10.4348559 89.3060802 10.6062656 89.482238 10.9916747 89.7197542 11.3167099 90.017969 11.5807148 90.3155239 11.8451791 90.6506856 12.0555693 91.0234541 12.2126073 91.3962225 12.3699078 91.7960414 12.4803528 92.2229107 12.544533 92.6497801 12.6088444 93.0792885 12.6410001 93.5134153 12.6410001 93.6895731 12.6410001 93.9501811 12.626891 94.2958991 12.5981477 94.6409573 12.5696013 94.9794179 12.5090305 95.3119405 12.4160414 95.6438034 12.3233148 95.9347607 12.1771048 96.1854722 11.9769519 96.4361837 11.7771271 96.5615395 11.5057723 96.5615395 11.1631499 96.5615395 10.9916747 96.5173351 10.8455303 96.429586 10.7241261 96.3411772 10.6028531 96.2329754 10.5065172 96.1043208 10.4348559 95.9756662 10.3635884 95.8298577 10.3063643 95.667555 10.2635119 95.5045925 10.2207252 95.3488875 10.1852883 95.1997801 10.1564137 94.820414 10.0852118 94.4344502 10.0139443 94.0418887 9.94228296 93.6486675 9.87108103 93.2554463 9.80676961 92.8628849 9.74947995 92.5105692 9.67827802 92.1820052 9.61770716 91.8771928 9.56750488 91.5723803 9.51763072 91.3520181 9.47845325 91.2167658 9.44970998 90.8512549 9.37837681 90.4006339 9.26432247 89.8655627 9.10695637 89.3298318 8.95011525 88.8152135 8.70743808 88.3210479 8.3787936 87.8262225 8.05047724 87.3993532 7.60764718 87.0404398 7.05095966 86.6808668 6.49407527 86.5020699 5.78724027 86.5020699 4.93045466 86.5020699 4.10254357 86.6980207 3.35285617 87.0912419 2.68165495 87.3887969 2.16755733 87.7721216 1.74297072 88.2392367 1.40723886 88.7070116 1.07190074 89.2117335.804286487 89.7534023.6041336 90.2950712.404243208 90.8644502.265120546 91.4608797.186371869 92.0566494.108082559 92.6392238.0685769728 93.2086028.0685769728 94.2107891.0685769728 95.1324838.158022345 95.9723674.336322474 96.812251.515016347 97.591436.811176996 98.3092626 1.22513254 98.6615783 1.43946019 98.9696895 1.66422204 99.2342561 1.89981183 99.498163 2.13540162 99.7251229 2.36396966 99.9151358 2.58518782 100.104489 2.80679972 100.263493 3.01732118 100.392807 3.2170147 100.521462 3.41716759 100.619107 3.58109608 100.687723 3.70971892 100.755019 3.82410138 100.768875 3.94189627 100.727969 4.06316923 100.687723 4.18457344 100.599314 4.25951594 100.464062 4.28793108L97.2325226 5.14471669C97.1513713 5.17345996 97.0662613 5.16985064 96.9785123 5.13388875 96.8901035 5.09845184 96.8261061 5.03755286 96.7852005 4.95191368 96.7310996 4.85216535 96.6255369 4.70562719 96.4704916 4.5128898 96.3147865 4.32008679 96.0805692 4.13108997 95.7691591 3.94530871 95.3356921 3.74548395 94.8778137 3.6099706 94.3975032 3.53824368 93.916533 3.46704175 93.5200129 3.43127673 93.2086028 3.43127673 92.8833376 3.43127673 92.5613713 3.4493233 92.2433635 3.4847602 91.924696 3.52052523 91.6396766 3.58483665 91.3896248 3.67756321 91.1389133 3.7706179 90.9350453 3.89904387 90.78 4.06316923 90.6236352 4.22736023 90.5464424 4.43788169 90.5464424 4.69486487 90.5464424 5.00920334 90.6915912 5.23396519 90.9832083 5.36954416 91.2741656 5.50538563 91.6297801 5.62318052 92.0500517 5.72292885 92.185304 5.75180336 92.4122639 5.79459014 92.7309314 5.85142044 93.0489392 5.90864448 93.4045537 5.9729559 93.7977749 6.04415783 94.2582924 6.12986264 94.6983571 6.21222063 95.1186287 6.29044431 95.5382406 6.36919299 95.8371151 6.42267647 96.0126132 6.45109161 96.4328849 6.53692767 96.9105563 6.65472257 97.4456274 6.80454193 97.9806986 6.95449253 98.4788228 7.19369164 98.94 7.522008 99.3998577 7.85065248 99.7897801 8.28232647 100.107788 8.8178831 100.426455 9.35324286 100.586119 10.0494468 100.586119 10.9060355 100.586119 11.7342747 100.446908 12.4375004 100.169146 13.0157126 99.8913842 13.5941216 99.5318111 14.0759979 99.0917464 14.461407 98.6516818 14.8469474 98.1601552 15.1505236 97.6184864 15.3716761 97.0768176 15.5933536 96.534489 15.7572821 95.9928202 15.8643803 95.4504916 15.9713473 94.9391721 16.0357243 94.4582018 16.0570521 93.9772316 16.0785111 93.5873092 16.0892078 93.2897542 16.0892078 92.7071798 16.0892078 92.0599483 16.0463554 91.3487193 15.9607162 90.6374903 15.875077 89.9262613 15.6855552 89.2150323 15.3932008 88.5038034 15.1006494 87.8262225 14.6722566 87.1829495 14.1081536 86.5390168 13.5441818 85.9867917 12.7838633 85.5262743 11.8270013 85.4583182 11.712947 85.4517206 11.5987614 85.5058215 11.4844445 85.5599224 11.3701933 85.6483312 11.2989914 85.7703881 11.2701169L88.8594179 10.4135282M5.75983312 23.4503716L5.75983312 31.7827035 9.26807891 31.7827035C9.56583182 31.7827035 9.86675162 31.7720724 10.171762 31.7508759 10.4764424 31.7296794 10.7776921 31.6805927 11.075445 31.6029597 11.373 31.5255891 11.6528072 31.4092379 11.9151966 31.2539062 12.1773221 31.0989681 12.4075809 30.8732219 12.6063027 30.5771925 12.8044968 30.3095783 12.985273 29.9321752 13.1483014 29.4457709 13.3112639 28.959301 13.3929431 28.293284 13.3929431 27.4472607 13.3929431 26.8551363 13.3290776 26.3336888 13.2016106 25.882262 13.0740776 25.4312946 12.9251682 25.0648508 12.7550142 24.7826024 12.5564243 24.4726607 12.3226028 24.2295242 12.0533519 24.0530615 11.783969 23.8768613 11.5038978 23.746401 11.2135343 23.6618118 10.9229069 23.5770914 10.6251539 23.5209829 10.3206054 23.4925678 10.0155951 23.4644808 9.72859638 23.4503716 9.45954334 23.4503716L5.75983312 23.4503716zM1.40127943 20.5530766C1.40127943 20.4402691 1.44007374 20.3452457 1.51812419 20.2676126 1.59591074 20.190242 1.69164295 20.1511958 1.80518887 20.1511958L9.5871423 20.1511958C9.64355239 20.1511958 9.70398706 20.1548051 9.76785252 20.1616956 9.83158603 20.1691111 9.89861837 20.1723923 9.96974127 20.1723923 10.1681332 20.1865015 10.3701539 20.1935232 10.5758034 20.1935232 10.7809909 20.1935232 10.9830116 20.207698 11.1817335 20.2357194 12.2162484 20.362636 13.141044 20.6376658 13.9564502 21.0605462 14.7713286 21.4836234 15.4622367 22.0194425 16.0293726 22.6678067 16.5961785 23.3164333 17.0249612 24.0566708 17.3157865 24.8883881 17.6060841 25.7203679 17.7514968 26.6013031 17.7514968 27.5318499 17.7514968 28.3921136 17.6379508 29.2273746 17.4113208 30.0378953 17.1845589 30.8487442 16.8087555 31.5994816 16.2845045 32.2901731 15.7456067 32.9811928 15.1789987 33.5134026 14.5836248 33.8869338 13.9883169 34.2605306 13.3785602 34.5355604 12.7550142 34.7116949 12.1311384 34.8881576 11.5112872 34.9938777 10.8946688 35.0288552 10.2780505 35.0641609 9.69343079 35.0817481 9.14047995 35.0817481L1.80518887 35.0817481C1.69164295 35.0817481 1.59591074 35.0431612 1.51812419 34.9655282 1.44007374 34.8881576 1.40127943 34.7929373 1.40127943 34.6798673L1.40127943 20.5530766 1.40127943 20.5530766zM18.4742717 20.5530766C18.4742717 20.4402691 18.5132639 20.3452457 18.5913144 20.2676126 18.6690349 20.190242 18.7646352 20.1511958 18.8783131 20.1511958L22.4289819 20.1511958C22.5423959 20.1511958 22.6379301 20.190242 22.7159806 20.2676126 22.7937671 20.3452457 22.8330233 20.4402691 22.8330233 20.5530766L22.8330233 28.8642775C22.8330233 29.4283149 22.9180673 29.9321752 23.0882212 30.3762521 23.2582432 30.8203291 23.6337167 31.1834917 24.2150375 31.465412 24.6116895 31.6487651 24.9911216 31.7687913 25.352608 31.8248997 25.7140285 31.8814019 26.0717542 31.9094889 26.4262471 31.9094889 26.5394631 31.9094889 26.6739897 31.9094889 26.8301565 31.9094889 26.9859276 31.9094889 27.120652 31.9025328 27.2341979 31.8884236 27.8434269 31.8180092 28.350458 31.7053986 28.7543674 31.5500668 29.1584088 31.3951288 29.4805731 31.1766012 29.7218499 30.8944184 29.792511 30.8098292 29.86337 30.7182183 29.9344929 30.6195856 30.0051539 30.5210841 30.0620259 30.3974487 30.1044489 30.2493355 30.1470699 30.1014193 30.1822354 29.9216754 30.2108034 29.7100383 30.2389754 29.4985981 30.2461009 29.2309839 30.2320479 28.9064737L30.2320479 20.5530766C30.2320479 20.4402691 30.2710401 20.3452457 30.3490906 20.2676126 30.4268111 20.190242 30.5224114 20.1511958 30.6360893 20.1511958L34.1654476 20.1511958C34.2788616 20.1511958 34.3744618 20.190242 34.4525123 20.2676126 34.5302329 20.3452457 34.569489 20.4402691 34.569489 20.5530766L34.569489 28.7585575C34.569489 29.1533508 34.5589327 29.5446005 34.5376882 29.9321752 34.5163777 30.3201437 34.4664994 30.7008279 34.3887788 31.0741623 34.3107283 31.447956 34.1831294 31.8180092 34.0060479 32.184453 33.8285705 32.551225 33.5771992 32.9107127 33.2512083 33.2630474 32.8542924 33.6859934 32.3901462 34.0454811 31.8586378 34.3415105 31.3270634 34.6376712 30.7636882 34.8775265 30.1683803 35.0605516 29.5730065 35.2436422 28.9670763 35.3741682 28.350458 35.4518012 27.7338396 35.5291062 27.1492199 35.5681524 26.5962691 35.5681524 26.1143092 35.5681524 25.6003506 35.5365217 25.0548551 35.4729978 24.5089638 35.4096051 23.9880776 35.3212753 23.4920647 35.2086647 23.1233868 35.1240755 22.7124179 34.9972245 22.2589599 34.8279149 21.8051061 34.6588677 21.3586417 34.4334496 20.9193687 34.1512012 20.3098758 33.74243 19.8421009 33.3159403 19.51611 32.8718633 19.1899871 32.4275896 18.9491721 31.9730128 18.7933351 31.5077394 18.6370362 31.042466 18.5451307 30.5808018 18.5168926 30.1224845 18.4883247 29.664561 18.4742717 29.209853 18.4742717 28.7585575L18.4742717 20.5530766M45.2037477 26.0938335L50.4767387 26.0938335C50.6325757 26.0938335 50.8096572 26.0832024 51.0082471 26.0620059 51.2066391 26.0410062 51.3942768 25.9881134 51.5716882 25.9034585 51.7488357 25.8188693 51.8975472 25.6919527 52.0182186 25.5229056 52.1384942 25.3535959 52.1989288 25.1209592 52.1989288 24.8249954 52.1989288 24.6980788 52.1883726 24.5500313 52.1670621 24.3807216 52.1457516 24.2116088 52.0926404 24.0709112 52.0075964 23.9578412 51.9506585 23.9016672 51.8906197 23.8416213 51.8268862 23.7780974 51.7630207 23.7147047 51.6674204 23.6547901 51.5398875 23.5982879 51.4122885 23.5421138 51.2528228 23.4997864 51.0613583 23.4713713 50.8700918 23.4433499 50.6181928 23.4291751 50.3065847 23.4291751L45.2037477 23.4291751 45.2037477 26.0938335zM40.8238836 20.5530766C40.8238836 20.4402691 40.8626779 20.3452457 40.9407943 20.2676126 41.0185149 20.190242 41.1142471 20.1511958 41.227793 20.1511958L51.0082471 20.1511958C51.433533 20.1511958 51.8514955 20.1691111 52.2626624 20.2040887 52.6736313 20.2393287 53.0705472 20.3134181 53.4533441 20.4261599 53.836075 20.5390987 54.204489 20.7046021 54.5590479 20.9231297 54.9130789 21.1417885 55.2532549 21.4343399 55.5795757 21.8007837 55.9905446 22.2660572 56.2632264 22.7666362 56.3980828 23.3023241 56.5327413 23.8382745 56.6001035 24.331635 56.6001035 24.7826024 56.6001035 25.0786318 56.5715356 25.3820111 56.5150595 25.6919527 56.4583195 26.0022225 56.3695149 26.3089486 56.2493713 26.6119998 56.1286999 26.9151822 55.9728629 27.2041242 55.7815964 27.4789571 55.590132 27.7539868 55.3526158 27.9971234 55.0692458 28.2085636 54.7572419 28.4485502 54.4383765 28.6316408 54.1125834 28.7585575 53.7862626 28.8854084 53.4815821 28.9841068 53.1981462 29.0545212L57.1528564 34.4472306C57.2518875 34.5883876 57.2698991 34.7294134 57.2059677 34.8703079 57.1423001 35.0113336 57.018 35.0817481 56.8339909 35.0817481L52.6453933 35.0817481C52.5885873 35.0817481 52.5247219 35.0605516 52.4540608 35.0183554 52.3829379 34.976028 52.3334554 34.933635 52.3052173 34.8914388L48.6270155 29.392878 45.2037477 29.392878 45.2037477 34.6798673C45.2037477 34.7929373 45.1646895 34.8881576 45.086903 34.9655282 45.0088525 35.0431612 44.9131203 35.0817481 44.7999043 35.0817481L41.227793 35.0817481C41.1142471 35.0817481 41.0185149 35.0431612 40.9407943 34.9655282 40.8626779 34.8881576 40.8238836 34.7929373 40.8238836 34.6798673L40.8238836 20.5530766 40.8238836 20.5530766zM57.9819198 20.5530766C57.9819198 20.4402691 58.0208461 20.3452457 58.0989625 20.2676126 58.1766831 20.190242 58.2722833 20.1511958 58.3859612 20.1511958L71.632238 20.1511958C71.7450582 20.1511958 71.8407245 20.190242 71.9192367 20.2676126 71.9970893 20.3452457 72.0360155 20.4402691 72.0360155 20.5530766L72.0360155 23.0908183C72.0360155 23.203757 71.9970893 23.2989773 71.9192367 23.3763479 71.8407245 23.4539809 71.7450582 23.4925678 71.632238 23.4925678L62.3406714 23.4925678 62.3406714 25.882262 71.3129107 25.882262C71.4263907 25.882262 71.5220569 25.9213082 71.5999094 25.9986132 71.677762 26.0763119 71.717348 26.1715322 71.717348 26.2841428L71.717348 28.7795571C71.717348 28.8926271 71.677762 28.9878473 71.5999094 29.0650211 71.5220569 29.142851 71.4263907 29.1814378 71.3129107 29.1814378L62.3406714 29.1814378 62.3406714 31.7615726 72.0360155 31.7615726C72.1494955 31.7615726 72.2451617 31.800422 72.3230142 31.8777925 72.4008668 31.9554256 72.439793 32.0506459 72.439793 32.1632565L72.439793 34.6798673C72.439793 34.7929373 72.4008668 34.8881576 72.3230142 34.9655282 72.2451617 35.0431612 72.1494955 35.0817481 72.0360155 35.0817481L58.3859612 35.0817481C58.2722833 35.0817481 58.1766831 35.0431612 58.0989625 34.9655282 58.0208461 34.8881576 57.9819198 34.7929373 57.9819198 34.6798673L57.9819198 20.5530766zM71.5682406 16.6195145C71.7100906 16.6195145 71.8235705 16.6548202 71.9080207 16.7253002 71.9937904 16.8098238 72.0360155 16.9086534 72.0360155 17.021264L72.0360155 18.4804114C72.0360155 18.748485 71.8941656 18.8822921 71.6104657 18.8822921L58.3859612 18.8822921C58.2722833 18.8822921 58.1766831 18.8473146 58.0989625 18.776572 58.0208461 18.7061576 57.9746624 18.6146779 57.9606093 18.5016079 57.9606093 18.2339936 58.0882083 18.0859461 58.3434062 18.057531L71.5682406 16.6195145 71.5682406 16.6195145zM73.8642303 20.5530766C73.8642303 20.4402691 73.9031565 20.3452457 73.9810091 20.2676126 74.0588616 20.190242 74.1545278 20.1511958 74.2680078 20.1511958L87.5141527 20.1511958C87.6276326 20.1511958 87.7232988 20.190242 87.8011514 20.2676126 87.8790039 20.3452457 87.9179301 20.4402691 87.9179301 20.5530766L87.9179301 23.0908183C87.9179301 23.203757 87.8790039 23.2989773 87.8011514 23.3763479 87.7232988 23.4539809 87.6276326 23.4925678 87.5141527 23.4925678L78.222652 23.4925678 78.222652 25.882262 87.1954851 25.882262C87.3089651 25.882262 87.4046313 25.9213082 87.4824838 25.9986132 87.5603364 26.0763119 87.5992626 26.1715322 87.5992626 26.2841428L87.5992626 28.7795571C87.5992626 28.8926271 87.5603364 28.9878473 87.4824838 29.0650211 87.4046313 29.142851 87.3089651 29.1814378 87.1954851 29.1814378L78.222652 29.1814378 78.222652 31.7615726 87.9179301 31.7615726C88.0314101 31.7615726 88.1270763 31.800422 88.2055886 31.8777925 88.2827814 31.9554256 88.3223674 32.0506459 88.3223674 32.1632565L88.3223674 34.6798673C88.3223674 34.7929373 88.2827814 34.8881576 88.2055886 34.9655282 88.1270763 35.0431612 88.0314101 35.0817481 87.9179301 35.0817481L74.2680078 35.0817481C74.1545278 35.0817481 74.0588616 35.0431612 73.9810091 34.9655282 73.9031565 34.8881576 73.8642303 34.7929373 73.8642303 34.6798673L73.8642303 20.5530766M89.7468047 20.5530766C89.7468047 20.4402691 89.7857309 20.3452457 89.8635834 20.2676126 89.941436 20.190242 90.0371022 20.1511958 90.1505821 20.1511958L93.7014489 20.1511958C93.8149288 20.1511958 93.9105951 20.190242 93.9884476 20.2676126 94.0663001 20.3452457 94.1052264 20.4402691 94.1052264 20.5530766L94.1052264 31.6768522 101.589625 31.6768522C101.702445 31.6768522 101.798771 31.7158984 101.876624 31.7932033 101.954476 31.870902 101.993402 31.9661223 101.993402 32.0787329L101.993402 34.6798673C101.993402 34.7929373 101.954476 34.8881576 101.876624 34.9655282 101.798771 35.0431612 101.702445 35.0817481 101.589625 35.0817481L90.1505821 35.0817481C90.0371022 35.0817481 89.941436 35.0431612 89.8635834 34.9655282 89.7857309 34.8881576 89.7468047 34.7929373 89.7468047 34.6798673L89.7468047 20.5530766"/>
    </g>
  </g>
</svg>
