<?xml version="1.0" standalone="no"?>
<!DOCTYPE svg PUBLIC "-//W3C//DTD SVG 20010904//EN"
 "http://www.w3.org/TR/2001/REC-SVG-20010904/DTD/svg10.dtd">
<svg version="1.0" xmlns="http://www.w3.org/2000/svg"
 width="1024.000000pt" height="1024.000000pt" viewBox="0 0 1024.000000 1024.000000"
 preserveAspectRatio="xMidYMid meet">
<metadata>
Created by potrace 1.11, written by Peter Selinger 2001-2013
</metadata>
<g transform="translate(0.000000,1024.000000) scale(0.100000,-0.100000)"
fill="#000000" stroke="none">
<path d="M0 5120 l0 -5120 5120 0 5120 0 0 5120 0 5120 -5120 0 -5120 0 0
-5120z m5566 3520 c607 -35 1005 -109 1365 -253 298 -120 498 -248 692 -443
270 -273 396 -539 442 -933 13 -107 15 -417 15 -2031 0 -1153 4 -1980 10
-2095 30 -557 97 -922 202 -1092 l20 -33 -915 0 -915 0 -30 113 c-40 144 -67
284 -83 420 l-12 109 -61 -60 c-187 -182 -390 -325 -621 -438 -537 -262 -1345
-374 -2005 -278 -800 116 -1357 520 -1606 1164 -161 418 -175 1063 -33 1505
40 124 146 332 224 440 180 251 390 422 700 571 380 182 1027 322 1970 424
599 65 925 153 1141 305 114 82 181 182 205 310 17 91 5 360 -20 464 -82 328
-336 525 -751 583 -150 21 -602 18 -715 -5 -203 -41 -367 -109 -496 -207 -189
-143 -320 -420 -351 -745 l-3 -30 -897 -3 -898 -2 0 49 c0 76 28 272 56 401
90 403 266 715 575 1016 227 221 501 391 839 522 513 198 1246 292 1956 252z"/>
<path d="M6240 5009 c-54 -45 -179 -106 -294 -143 -202 -66 -358 -96 -896
-171 -726 -102 -1070 -272 -1236 -610 -60 -123 -76 -207 -78 -400 -1 -205 14
-285 81 -425 38 -80 59 -107 132 -180 135 -133 278 -199 527 -242 171 -29 529
-32 702 -5 217 34 369 89 520 190 229 153 367 326 472 591 88 223 112 444 108
1012 l-3 412 -35 -29z"/>
</g>
</svg>
