<?xml version="1.0" encoding="UTF-8"?>
<svg width="31px" height="29px" viewBox="0 0 31 29" version="1.1" xmlns="http://www.w3.org/2000/svg" xmlns:xlink="http://www.w3.org/1999/xlink">
    <!-- Generator: Sketch 46.2 (44496) - http://www.bohemiancoding.com/sketch -->
    <title>Fill 1</title>
    <desc>Created with Sketch.</desc>
    <defs></defs>
    <g id="Symbols" stroke="none" stroke-width="1" fill="none" fill-rule="evenodd">
        <g id="icon_other_fest" transform="translate(-9.000000, -10.000000)" fill="#FFFFFF">
            <g id="другие-фестивали">
                <path d="M17.7620751,11.0567192 C17.8809098,11.6811442 17.8809098,12.3135746 17.7303859,12.9219887 C17.6036289,13.3782993 17.3659596,13.7785717 17.1124457,14.1628332 C17.2629696,14.0987896 17.4451827,13.962697 17.6353182,13.8346098 C17.9680552,13.6184627 18.3007922,13.4103211 18.6335293,13.2101849 C18.6810631,13.1781631 18.7127524,13.1461413 18.7206747,13.0820977 C18.8236647,12.5617435 19.0375671,12.0814166 19.4099157,11.6811442 C19.7268081,11.3369099 20.1150013,11.1527846 20.566573,11.0807356 C20.9864554,11.016692 21.3984155,11.0246974 21.818298,11.0807356 C21.8737542,11.088741 21.8975211,11.1127573 21.8816765,11.1848064 C21.7628418,11.7211714 21.588551,12.2415256 21.2478916,12.6818253 C20.9309992,13.0820977 20.5031945,13.3062502 20.0120112,13.4103211 C19.6792742,13.4823701 19.3465372,13.4823701 19.0058778,13.4343374 C18.9741886,13.426332 18.9187324,13.4343374 18.8870432,13.4583538 C18.3483261,13.7385445 17.8254536,14.0827788 17.3421927,14.4590348 C17.682852,14.3629695 17.9759775,14.2909204 18.2928699,14.282915 C18.60184,14.282915 18.8870432,14.3469586 19.1484794,14.5070675 C19.7664196,14.9153454 20.2576029,15.443705 20.6220291,16.0841409 C20.6378738,16.1081572 20.6537184,16.1321736 20.669563,16.1722008 C20.5586507,16.1962172 20.4715052,16.2202335 20.3764375,16.228239 C19.877332,16.3162989 19.3703041,16.3563261 18.8553539,16.2842771 C18.0076668,16.1561899 17.2708919,15.7799338 16.7004856,15.1074762 C16.0904677,15.5477758 15.5913621,16.0921463 15.1477128,16.692555 C15.5042167,16.460397 15.7973422,16.300288 16.1221569,16.2202335 C16.4232047,16.1481845 16.7084079,16.1561899 17.0015334,16.2602608 C17.6590851,16.5004242 18.2453361,16.8686748 18.7523639,17.3810235 C18.7602862,17.4690835 18.7365193,17.4850944 18.6969077,17.5091107 C18.1740353,17.7652851 17.6353182,17.9734267 17.0490672,18.0214594 C16.20138,18.1095194 15.4170713,17.9414049 14.7119857,17.4450671 C14.2208025,18.0374703 13.8722208,18.7019226 13.6028623,19.4144075 C13.8642985,19.0941895 14.1098901,18.8620315 14.3950933,18.6939171 C14.7040634,18.5258027 15.0288781,18.4617591 15.3774597,18.4937809 C16.0191669,18.5578245 16.6212625,18.7419498 17.1916688,19.0541623 C17.2312803,19.0781786 17.2708919,19.102195 17.3184258,19.1262113 C16.8272425,19.63856 16.2964477,20.0148161 15.6705852,20.2309632 C14.9021211,20.495143 14.1257347,20.5111539 13.3651929,20.2309632 C13.0562228,20.9354427 12.8898543,21.6879549 12.8106312,22.4484725 C12.8660874,22.3363962 12.9136213,22.2243199 12.9690774,22.1202491 C13.1512906,21.7760148 13.3889599,21.4798132 13.7216969,21.2636661 C13.9435216,21.1355789 14.1891132,21.0795408 14.4347048,21.047519 C15.052645,20.9674645 15.6547406,20.9914808 16.2568362,21.1595953 C16.2885254,21.1756062 16.328137,21.1836116 16.3677485,21.191617 C15.9557884,21.8400584 15.512139,22.368418 14.9100434,22.7446741 C14.3079479,23.1209301 13.6503961,23.3050555 12.9373882,23.2810391 C12.8898543,23.2810391 12.8502428,23.2730337 12.8027089,23.2650282 C12.7393304,23.2570228 12.7234858,23.2810391 12.7155635,23.3450827 C12.7155635,23.6332789 12.6997189,23.9294804 12.7155635,24.2176766 C12.7314081,24.6579763 12.7710197,25.082265 12.8106312,25.5065538 C12.8581651,25.4184939 12.881932,25.2904067 12.9215436,25.1383032 C13.008689,24.7940689 13.1512906,24.4658455 13.3968822,24.2016657 C13.5315615,24.0575676 13.6900077,23.9534968 13.8642985,23.8654369 C14.4267825,23.6012571 15.0288781,23.4491535 15.6626629,23.4171317 L15.9003322,23.4171317 C15.7181191,24.1376221 15.4249936,24.778058 14.9417327,25.2984121 C14.4267825,25.8507881 13.7929977,26.2190387 13.0403782,26.3631368 C12.9928444,26.3711423 12.9611551,26.3791477 12.9690774,26.4511967 C13.1275236,27.1716871 13.3493483,27.8761666 13.6266292,28.5566297 C13.6424738,28.3725044 13.6266292,28.1563573 13.6345515,27.9482156 C13.6503961,27.4118506 13.8326093,26.9395291 14.2841809,26.6113057 C14.5060056,26.4351858 14.7436749,26.2750769 14.9813442,26.1229733 C15.2982366,25.938848 15.638896,25.8027554 15.9953999,25.6986846 C16.0270892,25.6906791 16.0667007,25.6826737 16.1221569,25.6746682 C16.1063123,25.7707336 16.1063123,25.866799 16.0904677,25.9628644 C16.0429338,26.6353221 15.9003322,27.2837634 15.5517506,27.8681611 C15.1873243,28.4925861 14.6961411,28.9889239 14.030667,29.293131 C14.0623562,29.597338 14.949655,30.9982915 15.2110912,31.2544659 C15.1952466,31.2064332 15.1873243,31.1744114 15.1714797,31.1423896 C15.052645,30.8061607 14.9654996,30.453921 14.9813442,30.0936758 C14.9892665,29.8054797 15.0684896,29.5332944 15.2427805,29.2851255 C15.6309737,28.7087332 16.1221569,28.2444172 16.7321748,27.884172 C16.7559417,27.8601557 16.7955533,27.8441448 16.8510095,27.8201284 C16.8747764,27.9241993 16.890621,28.0202646 16.9064656,28.11633 C17.0094557,28.6767114 17.0490672,29.2531037 16.9302326,29.8134851 C16.7717864,30.6220354 16.3994378,31.310504 15.7735753,31.8388636 C16.2251469,32.4552831 16.7797087,32.9676318 17.3976489,33.4079315 C17.1282903,33.0316754 16.9539995,32.7114575 16.8826987,32.3352014 C16.8351648,32.0710216 16.8430871,31.8148473 16.9223102,31.5666783 C17.1599796,30.8782098 17.5244058,30.2697957 18.0472783,29.7494415 C18.0631229,29.7334306 18.0789675,29.7094143 18.1106568,29.6853979 C18.142346,29.757447 18.1740353,29.8214906 18.2057245,29.8855342 C18.4433938,30.381872 18.6335293,30.9022261 18.6889854,31.4626075 C18.7761308,32.3191905 18.5939177,33.1197354 18.1106568,33.8402257 C18.0948122,33.8642421 18.0789675,33.8882584 18.0631229,33.9202802 C18.6969077,34.3365635 19.3544595,34.6888033 20.0595451,34.9609885 C20.0278559,34.9129558 19.980322,34.880934 19.9407105,34.8489122 C19.8931766,34.808885 19.853565,34.7688578 19.8139535,34.7208251 C19.5129057,34.4406344 19.2752364,34.1204164 19.1801687,33.7041331 C19.1167902,33.4719751 19.1405571,33.2318116 19.1801687,32.9916482 C19.2593918,32.3912395 19.4336826,31.8228527 19.7347304,31.2944931 C19.7426527,31.2704768 19.7664196,31.238455 19.7822642,31.2064332 C19.853565,31.238455 19.9169435,31.3024985 19.9644774,31.3505312 C20.3526706,31.8228527 20.6933299,32.3191905 20.8834654,32.9115937 C21.1211347,33.6801168 21.1369793,34.4326289 20.8596984,35.201152 C21.5647841,35.4973536 22.2936366,35.6574625 23.0304114,35.7455225 C22.967033,35.7054952 22.8878099,35.6734734 22.8165091,35.6334462 C22.4758497,35.4573263 22.1668796,35.2331738 21.9450549,34.9129558 C21.7786864,34.6727924 21.7232303,34.4006071 21.6836187,34.1284219 C21.6043956,33.5039969 21.6281625,32.8875774 21.7866087,32.2871687 C21.8024534,32.2471415 21.8103757,32.2071142 21.8262203,32.167087 C22.4124712,32.5433431 22.9036545,32.9596264 23.2760031,33.4959914 C23.6958855,34.1284219 23.9097879,34.8248959 23.8939433,35.6014244 C23.8939433,35.6494571 23.886021,35.6974898 23.8780986,35.7455225 C23.8780986,35.8095661 23.886021,35.8415879 23.9573217,35.8415879 L25.0189113,35.8415879 C25.1219014,35.8415879 25.1219014,35.8335824 25.113979,35.7295116 C25.0822898,35.3772719 25.113979,35.0250321 25.2011245,34.6807978 C25.3833376,33.9282857 25.7636085,33.3038607 26.3419371,32.791512 C26.5796064,32.5913758 26.8410427,32.399245 27.0945566,32.2071142 C27.1183235,32.1911033 27.1420905,32.1830979 27.181702,32.1590815 C27.2213136,32.3111851 27.2530028,32.4472777 27.2846921,32.5833703 C27.3876821,33.1677681 27.3876821,33.7441603 27.2846921,34.3205526 C27.2054689,34.7848687 26.9598773,35.1210975 26.5954511,35.3852773 C26.4132379,35.505359 26.2151802,35.6014244 26.0250447,35.7054952 C26.7142857,35.6574625 27.4431383,35.4973536 28.1482239,35.2651956 C28.1165346,35.1451138 28.0769231,35.0490485 28.0452338,34.9449776 C27.8154868,34.0083402 27.9343215,33.1037245 28.4017378,32.2551469 C28.5918732,31.8949017 28.8453872,31.5586729 29.122668,31.238455 C29.146435,31.2224441 29.1543573,31.1984277 29.1860465,31.1664059 C29.2098134,31.2064332 29.2256581,31.2224441 29.2335804,31.2464604 C29.5742397,31.846869 29.7802198,32.4873049 29.8515206,33.1757735 C29.8990544,33.7041331 29.708919,34.1444328 29.3682596,34.5286943 C29.2256581,34.6807978 29.0751342,34.8248959 28.9087657,34.9850049 C29.6296959,34.6968087 30.2951699,34.344569 30.9210325,33.9202802 C30.5566062,33.3759097 30.3823154,32.8475501 30.3110146,32.2791633 C30.2080245,31.4225803 30.4377715,30.6460518 30.7863532,29.8935396 C30.8180424,29.829496 30.8497317,29.7654524 30.8893432,29.6934034 C31.0081779,29.7974742 31.1032456,29.917556 31.2062356,30.0216268 C31.5785842,30.4699319 31.8637874,30.9662697 32.0618451,31.5266511 C32.1886021,31.8868963 32.1727575,32.2471415 32.0460005,32.5993812 C31.9430105,32.8715665 31.8162535,33.1117299 31.6419627,33.3438879 C31.7845643,33.3679043 33.0442116,32.2071142 33.2660363,31.8868963 C33.2264247,31.8548745 33.1868132,31.8148473 33.1551239,31.7828255 C32.5134168,31.1984277 32.1489905,30.4699319 32.0301559,29.6213544 C31.9509328,29.0449621 32.006389,28.4685698 32.1252236,27.9081884 C32.1331459,27.884172 32.1410682,27.8601557 32.1489905,27.8201284 C32.8619985,28.2364118 33.3927933,28.7247441 33.7968311,29.36518 C33.9790442,29.6613816 34.0345004,29.989605 34.0107335,30.3338393 C33.9869665,30.6380463 33.9077434,30.9262425 33.7968311,31.2144386 C34.0345004,31.0303133 34.8821876,29.6853979 35.0089445,29.3251528 C33.9869665,28.8128041 33.3690263,28.0202646 33.0759008,26.9715509 C32.9570662,26.5712785 32.90161,26.1630006 32.8778431,25.7627282 C32.9253769,25.6906791 32.9649885,25.6986846 32.9966777,25.70669 C33.7096857,25.8988208 34.3513928,26.2510605 34.8980322,26.7634092 C35.1594684,27.0035727 35.2862254,27.3157852 35.3416816,27.6600195 C35.3892154,27.9562211 35.3812931,28.2604281 35.3416816,28.5566297 C35.6664963,27.8921775 35.888321,27.1476708 36.0546895,26.3791477 C35.9437772,26.3551314 35.8407871,26.3391205 35.7457194,26.3151041 C34.8267314,26.0749407 34.1137235,25.5305702 33.6146179,24.7220199 C33.3848709,24.3377583 33.2026578,23.9374859 33.0759008,23.5131971 C33.0679785,23.4891808 33.0600562,23.4651644 33.0521339,23.4171317 C33.1155124,23.4171317 33.1709686,23.4091263 33.2185024,23.4171317 C33.8918988,23.4331426 34.5256836,23.5852462 35.1515461,23.8814478 C35.5714286,24.0735785 35.8249425,24.4098074 35.9833887,24.850107 C36.0626118,25.0662541 36.1022234,25.314423 36.1576795,25.5465811 C36.1814465,25.5145593 36.1972911,25.4345048 36.221058,25.3624557 C36.2844365,24.7380307 36.3161257,24.1136058 36.2923588,23.4811753 C36.2923588,23.4411481 36.2844365,23.3931154 36.2923588,23.3530882 C36.2923588,23.2730337 36.2685919,23.2650282 36.1972911,23.2650282 C36.0150779,23.2730337 35.8170202,23.2890446 35.6268847,23.2650282 C34.8821876,23.2009846 34.2404804,22.9287994 33.693841,22.4564779 C33.2898032,22.1202491 32.9570662,21.7119712 32.6797853,21.2716715 C32.6639407,21.1836116 32.69563,21.1756062 32.7193969,21.1676007 C33.4403271,20.9674645 34.1612573,20.9514536 34.8821876,21.1115626 C35.2466139,21.191617 35.5159724,21.4157696 35.7536417,21.6959603 C35.9200102,21.9121074 36.0626118,22.1602763 36.1656018,22.4164507 C36.118068,21.7119712 35.9516995,20.9514536 35.7061078,20.2069469 C34.612829,20.583203 33.6146179,20.4631212 32.6560184,19.9187507 C32.3153591,19.7106091 31.9905443,19.4784511 31.7053412,19.2062658 C31.7370304,19.0941895 31.8162535,19.0541623 31.879632,19.0061296 C32.4341937,18.7259389 33.0204447,18.549819 33.6304626,18.4937809 C34.1216458,18.4377428 34.5256836,18.6058572 34.9059545,18.9180697 C35.072323,19.0541623 35.2070023,19.2302822 35.3575262,19.3823857 C35.3812931,19.406402 35.4050601,19.4304184 35.428827,19.4704456 C35.3575262,19.1342168 34.5969844,17.6772251 34.3593151,17.3970344 C33.8047534,17.8053123 33.2264247,17.9814322 32.6164068,18.0374703 C31.8637874,18.1015139 31.1666241,17.9013777 30.4932277,17.5971707 C30.3902377,17.5571434 30.2951699,17.5011053 30.168413,17.4370617 C30.2476361,17.3490018 30.3268592,17.2929636 30.4060823,17.2129091 C30.8655763,16.7886204 31.3884488,16.4764079 31.9746997,16.2682662 C32.4025045,16.1001518 32.8223869,16.1561899 33.2264247,16.3483207 C33.4403271,16.4363806 33.6225403,16.5724732 33.820598,16.6765441 C33.4324048,16.1001518 32.9253769,15.5477758 32.3628929,15.0354271 C32.236136,15.1635143 32.1410682,15.2916015 32.0222336,15.3796614 C31.4359826,15.9160265 30.7625863,16.228239 29.9782775,16.300288 C29.4474827,16.3483207 28.9246103,16.3082934 28.4096601,16.1882117 C28.3383593,16.1481845 28.3462816,16.1321736 28.3542039,16.1081572 C28.7344748,15.443705 29.2415027,14.8833236 29.8911321,14.4750457 C30.2159468,14.282915 30.5645285,14.2428877 30.9210325,14.3069313 C31.1983133,14.3389531 31.4439049,14.4190076 31.7053412,14.4910566 C31.1745464,14.0827788 30.6754408,13.7625608 30.1604907,13.4663592 C30.0971122,13.4343374 30.0337337,13.426332 29.9703552,13.4343374 C29.3286481,13.5223974 28.7186302,13.4423429 28.1719908,13.0820977 C27.8234091,12.8499397 27.6015845,12.5217163 27.4193713,12.1374548 C27.2846921,11.8332477 27.1737797,11.5050243 27.1104012,11.1687955 C27.1024789,11.1127573 27.1104012,11.088741 27.1579351,11.0807356 C27.7362637,11.0006811 28.3145924,11.0006811 28.8691541,11.2008173 C29.3444927,11.3689317 29.6772297,11.713166 29.9228214,12.1374548 C30.0971122,12.4336564 30.2159468,12.7538743 30.2793253,13.0981086 C30.2872476,13.1301304 30.3110146,13.1701576 30.3427038,13.1861685 C30.8734986,13.4823701 31.3805265,13.818599 31.8637874,14.194855 C31.6419627,13.7945826 31.4439049,13.4423429 31.3092257,13.0580813 C31.2062356,12.7458688 31.1745464,12.4176455 31.1666241,12.0894221 C31.1349348,11.5290407 31.1983133,10.9846702 31.4122157,10.4563106 C31.4835165,10.2962016 31.5706619,10.1521035 31.6578073,10 C31.6974189,10.0160109 31.7211858,10.0400272 31.752875,10.0560381 C32.1569129,10.3522397 32.5213391,10.696474 32.8382315,11.0967464 C33.2898032,11.6651333 33.464094,12.3135746 33.3531817,13.034065 C33.2501917,13.65849 32.9887554,14.2028605 32.6084845,14.6911928 C32.5926399,14.7152092 32.568873,14.7392255 32.5451061,14.7712473 C33.1392793,15.2916015 33.6542295,15.8519829 34.1374904,16.4924188 C34.1216458,16.3963534 34.1058012,16.3403152 34.0820342,16.300288 C33.8760542,15.6598521 33.7809865,15.0114108 33.9315104,14.3469586 C34.0741119,13.7465499 34.2721697,13.1861685 34.6445183,12.7058416 C34.739586,12.5777544 34.8504983,12.4736836 34.969333,12.3455964 C35.3575262,12.8099124 35.6348071,13.2502121 35.8328648,13.730539 C36.0309226,14.2028605 36.118068,14.6831874 36.0071556,15.2035415 C35.8566317,15.8439774 35.5159724,16.372337 35.0564784,16.8286476 C34.9217991,16.9647402 34.7791975,17.0688111 34.6445183,17.1888928 C34.8346537,17.5251216 35.0406338,17.853345 35.2070023,18.1895738 C35.3971377,18.5258027 35.555584,18.8780424 35.7219525,19.2382876 C35.658574,18.4697645 35.7298748,17.7492742 36.094301,17.0768165 C36.4587273,16.4203697 36.8944544,15.8439774 37.5836954,15.4917377 C37.6074623,15.5317649 37.6153846,15.5637867 37.6312292,15.5878031 C37.7183746,15.8039502 37.8055201,16.0200973 37.8768209,16.2522553 C38.0115001,16.6445223 38.0748786,17.0367893 38.0828009,17.4450671 C38.1065679,17.9574158 37.9481216,18.4137264 37.6549962,18.8380152 C37.266803,19.3903911 36.7439305,19.7666472 36.1259903,20.0228216 C36.094301,20.0388325 36.0626118,20.0548434 36.0150779,20.0708543 C36.2527473,20.8073555 36.4270381,21.5598677 36.5221058,22.3123798 C36.5696397,22.1522709 36.6092512,21.9921619 36.6567851,21.8320529 C36.7597751,21.4477914 36.8865321,21.0715353 37.1321237,20.7513174 C37.3381038,20.4631212 37.5757731,20.2069469 37.8372093,19.9667834 C38.2016356,19.6545709 38.5977511,19.406402 39.0493228,19.2542985 C39.1285459,19.2302822 39.207769,19.2222767 39.2949144,19.1982604 C39.3028367,19.2542985 39.310759,19.2783149 39.3186813,19.3023312 C39.3899821,19.7906636 39.413749,20.2789959 39.3662152,20.7593228 C39.2869921,21.6159058 38.8750319,22.2643472 38.162024,22.7046468 C37.7183746,22.992843 37.2351137,23.136941 36.7201636,23.2089901 C36.6092512,23.225001 36.6092512,23.2169955 36.6092512,23.3370773 C36.6330181,23.8894532 36.6250958,24.4578401 36.577562,25.0182214 C36.5617174,25.1863359 36.5458727,25.3544503 36.5300281,25.5145593 C36.577562,25.4505157 36.6171735,25.3864721 36.6488628,25.3224285 C36.8389982,24.9461724 37.0529006,24.5859272 37.369793,24.3057365 C37.9085101,23.8174042 38.5106057,23.4731699 39.2315359,23.3130609 C39.4771275,23.2570228 39.7385638,23.2169955 40,23.2570228 L40,23.3690991 C39.9286992,23.9054641 39.8177869,24.3537692 39.6514183,24.7940689 C39.3582929,25.5866083 38.8037312,26.0829461 38.0115001,26.331115 C37.5678508,26.4592022 37.1242014,26.491224 36.6647074,26.4592022 C36.577562,26.4431913 36.4824942,26.4271804 36.3795042,26.4191749 C36.221058,27.1716871 36.0071556,27.8921775 35.7298748,28.6046624 C36.2052134,28.044281 36.7756197,27.5959759 37.4886277,27.3798288 C38.2095579,27.1716871 38.9225658,27.0916326 39.643496,27.3237906 C39.437516,27.9081884 39.1760797,28.3725044 38.8591873,28.8047986 C38.3838487,29.437229 37.7500639,29.7494415 36.9736775,29.7814633 C36.4349604,29.8054797 35.9120879,29.6853979 35.4209047,29.4772563 C35.3496039,29.4532399 35.325837,29.4612454 35.2862254,29.525289 C34.969333,30.1577194 34.5969844,30.758128 34.1612573,31.3345203 C34.2087912,31.3505312 34.3038589,31.2944931 34.3910043,31.2304495 C34.7316637,31.0303133 35.0881676,30.8301771 35.4842832,30.7421171 C35.9833887,30.6540572 36.4904166,30.6460518 36.9974444,30.7181008 C37.4094045,30.7821444 37.8055201,30.8942207 38.1541017,31.1103678 C38.185791,31.1343841 38.2254025,31.1664059 38.2570917,31.1824168 C37.9243547,31.6627437 37.5757731,32.0389998 37.1638129,32.3672232 C36.5934066,32.8235338 35.9516995,32.9996536 35.2149246,32.8875774 C34.6207513,32.7835065 34.0978789,32.5273322 33.6225403,32.1590815 C33.5512395,32.1030434 33.5195502,32.1110488 33.4720164,32.1590815 C32.9966777,32.6954466 32.4817276,33.183779 31.9033989,33.6320841 C32.3628929,33.5200078 32.7431638,33.4239424 33.1392793,33.415937 C33.7017634,33.3839152 34.2404804,33.5280132 34.7633529,33.7361549 C35.1673907,33.9042693 35.555584,34.1364273 35.8566317,34.4646507 C35.8724764,34.4966725 35.8962433,34.5206889 35.9200102,34.5527107 C35.4842832,34.9129558 35.0644007,35.1771356 34.6049067,35.3852773 C33.9790442,35.6574625 33.361104,35.7054952 32.7352415,35.4653318 C32.1331459,35.2331738 31.649885,34.8409068 31.2458472,34.3365635 C31.2062356,34.2885309 31.1745464,34.2404982 31.1349348,34.18446 C30.4853054,34.6167542 29.811909,34.968994 29.1068234,35.273201 C29.1781242,35.2812065 29.2415027,35.2812065 29.3048812,35.273201 C29.6930744,35.2571901 30.0812676,35.273201 30.4536162,35.361261 C30.9923332,35.4973536 31.4755942,35.7615334 31.9113212,36.0977622 C32.2599029,36.361942 32.5530284,36.6661491 32.7669307,37.058416 C32.8223869,37.1704923 32.8223869,37.1704923 32.7193969,37.218525 C32.2202913,37.4426776 31.7291081,37.5947811 31.1983133,37.6588247 C30.5803731,37.7388792 30.0258114,37.610792 29.5187835,37.2505468 C28.9562995,36.8502744 28.5760286,36.3139093 28.3225147,35.6814789 C28.2829031,35.5774081 28.2829031,35.5774081 28.1799131,35.6094299 C27.641196,35.7775443 27.1024789,35.9136369 26.5399949,36.0097023 C26.3657041,36.0337186 26.1914132,36.0657404 26.0012778,36.0897568 C26.056734,36.1137731 26.0805009,36.1217786 26.1201124,36.129784 C26.5558395,36.2258494 26.9915666,36.3299202 27.3797598,36.5700837 C27.8867876,36.8742907 28.2987478,37.2905741 28.6473294,37.770901 C28.8612318,38.0911189 29.0355226,38.4273477 29.122668,38.8116093 C29.1385127,38.8836583 29.122668,38.9076747 29.0513672,38.9156801 C28.5522617,38.9957346 28.0531561,39.0277564 27.5540506,38.9637128 C26.7855865,38.8836583 26.1834909,38.5154077 25.7477639,37.8669663 C25.4308715,37.3866394 25.2565806,36.8502744 25.1773575,36.2818875 C25.1615129,36.1618058 25.1694352,36.1618058 25.0506006,36.1618058 C24.6703297,36.1698113 24.2979811,36.1698113 23.9335548,36.1618058 C23.8305648,36.1618058 23.8305648,36.1618058 23.8147202,36.2738821 C23.759264,36.7782253 23.6087401,37.2665577 23.3393815,37.7148628 C23.0383338,38.2272115 22.6263736,38.6354894 22.0401227,38.8276202 C21.7549195,38.931691 21.461794,38.9717182 21.1607462,38.9877291 C20.7408638,39.0197509 20.3289037,38.9877291 19.9248658,38.9076747 C19.9010989,38.7235493 19.9248658,38.6194785 19.9644774,38.5074022 C20.2734475,37.7068574 20.8200869,37.0984433 21.5172502,36.6261218 C21.8737542,36.3779529 22.3015589,36.2578712 22.7214413,36.1618058 C22.8165091,36.1377895 22.9036545,36.1217786 23.0066445,36.0977622 C22.2381804,35.9936914 21.5014056,35.825577 20.7883976,35.6014244 C20.7250192,35.5774081 20.7091745,35.6014244 20.6854076,35.6574625 C20.5111168,36.0977622 20.2655252,36.4980346 19.9407105,36.8502744 C19.3623818,37.450683 18.6731408,37.7548901 17.8254536,37.6668301 C17.2708919,37.5947811 16.7480194,37.4426776 16.2409916,37.2105196 C16.2489139,36.9703561 16.557884,36.5460673 16.9064656,36.2578712 C17.7699974,35.505359 18.7523639,35.1371084 19.9010989,35.2972174 C19.5525173,35.113092 19.2039356,34.9609885 18.8553539,34.7688578 C18.5226169,34.5927379 18.1898799,34.3926017 17.8492205,34.1924655 C17.5244058,34.6407706 17.1837465,34.968994 16.7797087,35.2091574 C16.0429338,35.665468 15.2665474,35.7615334 14.4505495,35.4092936 C13.9910555,35.2091574 13.571173,34.9529831 13.1829798,34.6407706 C13.1433683,34.6087488 13.1037567,34.576727 13.0641452,34.5366998 C13.5870176,33.9603075 14.2524917,33.6881222 14.9813442,33.4959914 C15.7181191,33.3118661 16.431127,33.4399533 17.1362126,33.6721113 C16.534117,33.1917844 15.9953999,32.6954466 15.512139,32.1430706 C15.4725275,32.095038 15.4408382,32.1030434 15.4012267,32.1350652 C14.9734219,32.471294 14.5060056,32.7194629 13.9752108,32.8475501 C13.2146691,33.02367 12.5095834,32.9035883 11.8837209,32.4072504 C11.5589062,32.1590815 11.2816254,31.8788908 11.0201891,31.5666783 C10.9251214,31.4385912 10.837976,31.3185094 10.7270636,31.1744114 C10.8775875,31.0943569 11.0122668,31.0143024 11.1469461,30.9582643 C11.6064401,30.758128 12.089701,30.6940845 12.5888065,30.6780736 C13.444416,30.6460518 14.1970355,30.9262425 14.8941988,31.4145748 C14.4347048,30.7901498 14.0227447,30.1417085 13.674163,29.437229 C13.6345515,29.4612454 13.6028623,29.4692508 13.5790953,29.4772563 C13.0166113,29.7174197 12.4303603,29.829496 11.8282648,29.7654524 C11.2182469,29.7014088 10.6953744,29.4612454 10.2913366,28.9969294 C9.87937644,28.5166025 9.59417327,27.9802374 9.37234858,27.3958397 C10.0932788,27.0916326 10.8062867,27.1796926 11.5113723,27.3958397 C12.2481472,27.6039813 12.8027089,28.0763028 13.2938922,28.6446896 C13.008689,27.9081884 12.7947866,27.2037089 12.6442627,26.491224 C12.6284181,26.4271804 12.6046512,26.4191749 12.5650396,26.4271804 C12.0421671,26.491224 11.527217,26.491224 11.0201891,26.3391205 C10.4656274,26.171006 9.98236647,25.8828099 9.65755175,25.3864721 C9.34065934,24.9301615 9.18221314,24.4018019 9.0792231,23.8574314 C9.04753386,23.689317 9.02376693,23.529208 9,23.3610936 L9,23.2490173 C9.17429083,23.2490173 9.34858165,23.2330064 9.51495017,23.2570228 C10.0536673,23.3290718 10.5448505,23.5372135 11.0043445,23.8254096 C11.2657807,23.9855186 11.5192947,24.153633 11.7411193,24.3937965 C12.0104779,24.706009 12.216458,25.0582487 12.4065934,25.4345048 C12.4303603,25.474532 12.446205,25.5065538 12.4620496,25.5465811 C12.4541273,25.3304339 12.4382826,25.1783304 12.4303603,25.010216 C12.3828265,24.4578401 12.3669819,23.8894532 12.3907488,23.3370773 C12.3986711,23.2169955 12.3986711,23.225001 12.2798364,23.2089901 C11.7886532,23.1529519 11.3370815,23.0008484 10.9092768,22.7526795 C10.2754919,22.3764234 9.83184258,21.8560693 9.68131868,21.1035571 C9.57832865,20.5992139 9.57832865,20.0868652 9.64170713,19.5825219 C9.65755175,19.4624402 9.67339637,19.3423584 9.6971633,19.1982604 C9.87145413,19.2542985 10.0299003,19.2943257 10.1883465,19.3583693 C10.6161513,19.5344892 10.9805776,19.8066745 11.3212369,20.1268924 C11.962944,20.7192956 12.319448,21.4718077 12.4620496,22.3363962 C12.5808842,21.5678731 12.7314081,20.8553882 12.9611551,20.1589142 C12.9849221,20.0788597 12.9690774,20.0548434 12.8977766,20.030827 C12.422438,19.8386962 12.0025556,19.5585055 11.6381293,19.1982604 C11.0994122,18.6298735 10.8300537,17.9654213 10.9251214,17.1728819 C10.9805776,16.604495 11.1469461,16.0601245 11.3766931,15.5637867 C11.7886532,15.6678576 12.089701,15.9400428 12.3511372,16.2522553 C13.0641452,17.1168437 13.4206491,18.1015139 13.2622029,19.2703094 C13.3018145,19.2222767 13.3097368,19.2062658 13.3176591,19.1822495 C13.5949399,18.5258027 13.927677,17.8853668 14.3237925,17.2769527 C14.363404,17.2129091 14.3554817,17.1808873 14.3000256,17.1328546 C13.9197547,16.8526639 13.5949399,16.5244406 13.3572706,16.1001518 C12.9849221,15.4757268 12.8264758,14.81928 13.0324559,14.0987896 C13.2067467,13.5063865 13.5077945,12.9940378 13.8801431,12.5137108 C13.9118324,12.4576727 13.9593662,12.4016346 14.0069001,12.3455964 C14.593151,12.8819615 14.8704319,13.5544191 15.052645,14.2909204 C15.2348582,15.0434326 15.1001789,15.7639229 14.8625096,16.4764079 C15.3457705,15.8679938 15.868643,15.2996069 16.4469716,14.7712473 C16.4152824,14.7392255 16.4073601,14.7232146 16.3915155,14.6991983 C16.0746231,14.2909204 15.8211091,13.8346098 15.7022745,13.3142557 C15.5596729,12.7298579 15.5755175,12.1614711 15.8448761,11.6171006 C16.0429338,11.2088227 16.328137,10.856583 16.660874,10.5523759 C16.8747764,10.3602452 17.1045234,10.1841253 17.3184258,10.0080054 C17.5640174,10.3202179 17.6907743,10.6804631 17.7620751,11.0567192 Z" id="Fill-1"></path>
            </g>
        </g>
    </g>
</svg>