<svg xmlns="http://www.w3.org/2000/svg" viewBox="0 0 40 40">
  <path fill-rule="evenodd" d="M16.29 29.25c7.547 0 11.675-6.252 11.675-11.674 0-.178 0-.354-.012-.53.803-.58 1.496-1.3 2.047-2.124-.75.33-1.543.55-2.357.645.857-.513 1.498-1.32 1.804-2.27-.805.48-1.686.815-2.605.997-1.272-1.353-3.293-1.684-4.93-.808-1.637.876-2.483 2.74-2.063 4.55-3.3-.165-6.374-1.724-8.458-4.287-1.09 1.874-.533 4.272 1.27 5.476-.653-.02-1.29-.195-1.862-.513v.052c0 1.953 1.377 3.635 3.292 4.022-.604.165-1.238.19-1.853.07.537 1.672 2.077 2.817 3.833 2.85-1.453 1.142-3.248 1.762-5.096 1.76-.327 0-.653-.02-.977-.06 1.877 1.205 4.06 1.844 6.29 1.84"/>
</svg>
