<svg xmlns="http://www.w3.org/2000/svg" viewBox="0 0 40 40">
  <path d="M20.98 25.362s.36-.04.545-.24c.17-.18.165-.524.165-.524s-.024-1.605.72-1.84c.745-.237 1.678 1.55 2.676 2.235.755.52 1.33.405 1.33.405l2.67-.037s1.398-.085.736-1.184c-.054-.09-.386-.813-1.987-2.298-1.678-1.555-1.45-1.303.567-3.992 1.23-1.638 1.72-2.637 1.566-3.064-.146-.408-1.05-.3-1.05-.3l-3.007.02c-.133-.017-.268.007-.387.068-.115.083-.206.194-.266.322-.312.808-.683 1.592-1.11 2.346-1.34 2.274-1.876 2.394-2.095 2.252-.51-.33-.382-1.322-.382-2.027 0-2.204.334-3.123-.65-3.36-.328-.08-.568-.132-1.404-.14-1.074-.01-1.982 0-2.496.255-.342.168-.606.54-.445.563.2.027.65.122.888.447.308.42.297 1.36.297 1.36s.178 2.596-.413 2.92c-.406.218-.962-.23-2.156-2.294-.405-.718-.763-1.46-1.073-2.225-.055-.13-.14-.245-.248-.335-.14-.093-.298-.157-.463-.187l-2.858.02s-.43.01-.585.197c-.14.167-.01.51-.01.51s2.237 5.236 4.77 7.874c2.324 2.42 4.96 2.262 4.96 2.262l1.195-.008z"/>
</svg>
