<svg xmlns="http://www.w3.org/2000/svg" viewBox="0 0 40 40">
  <path fill-rule="nonzero" d="M18.253 22.966V17.15l5.62 2.918-5.62 2.898zm12.34-6.825s-.202-1.423-.826-2.052c-.79-.828-1.677-.828-2.087-.878-2.906-.21-7.27-.21-7.27-.21h-.012s-4.365 0-7.278.21c-.406.05-1.292.052-2.083.877-.625.63-.827 2.053-.827 2.053S10 17.817 10 19.493v1.57c0 1.675.208 3.354.208 3.354s.203 1.423.826 2.052c.79.824 1.83.797 2.295.883 1.66.16 7.07.208 7.07.208s4.37-.006 7.28-.216c.41-.048 1.295-.052 2.086-.876.623-.63.826-2.054.826-2.054s.208-1.677.208-3.353v-1.57c0-1.673-.207-3.35-.207-3.35v.002z"/>
</svg>
