<svg xmlns="http://www.w3.org/2000/svg" viewBox="0 0 40 40" xmlns:xlink="http://www.w3.org/1999/xlink">
  <path d="M16.79 24.237v-8.31l8.028 4.17-8.028 4.14zm17.63-9.75s-.29-2.035-1.182-2.934c-1.13-1.18-2.395-1.182-2.98-1.253-4.154-.3-10.39-.3-10.39-.3h-.016s-6.234 0-10.395.3c-.58.07-1.846.074-2.976 1.253-.893.9-1.183 2.934-1.183 2.934S5 16.88 5 19.274v2.244c0 2.392.297 4.79.297 4.79s.29 2.034 1.18 2.932c1.13 1.178 2.616 1.14 3.278 1.263 2.377.227 10.103.297 10.103.297s6.245-.01 10.4-.31c.585-.068 1.85-.074 2.98-1.252.89-.9 1.18-2.934 1.18-2.934s.298-2.395.298-4.79v-2.243c0-2.39-.297-4.786-.297-4.786v.003z"/>
</svg>
