<svg viewBox="0 0 40 40" xmlns="http://www.w3.org/2000/svg">
  <path d="M24.14,11 L15.86,11 C13.176,11 11,13.175 11,15.86 L11,24.14 C11,26.824 13.176,29 15.86,29 L24.14,29 C26.823,29 29,26.824 29,24.14 L29,15.86 C29,13.175 26.823,11 24.14,11 M24.14,12.62 C25.926,12.62 27.38,14.074 27.38,15.86 L27.38,24.14 C27.38,25.927 25.926,27.38 24.14,27.38 L15.86,27.38 C14.073,27.38 12.62,25.927 12.62,24.14 L12.62,15.86 C12.62,14.073 14.073,12.62 15.86,12.62 L24.14,12.62"></path>
  <path d="M20,15.375 C17.445,15.375 15.375,17.445 15.375,20 C15.375,22.554 17.445,24.625 20,24.625 C22.554,24.625 24.625,22.555 24.625,20 C24.625,17.445 22.555,15.375 20,15.375 M20,16.889 C21.715,16.889 23.11,18.284 23.11,19.999 C23.11,21.714 21.715,23.109 20,23.109 C18.285,23.109 16.89,21.714 16.89,19.999 C16.89,18.284 18.285,16.889 20,16.889 M26,15 C26,14.447 25.552,14 25,14 C24.448,14 24,14.447 24,15 C24,15.553 24.448,16 25,16 C25.552,16 26,15.553 26,15"></path>
</svg>
